M48
INCH,TZ
T1C0.0157
T2C0.0394
%
G90
G05
T1
X26000Y-32500
X26000Y-33250
X26000Y-34000
X26750Y-32500
X26750Y-33250
X26750Y-34000
X27500Y-32500
X27500Y-33250
X27500Y-34000
X29500Y-31500
X30000Y-26750
X30000Y-35500
X30500Y-36000
X31000Y-31500
X31000Y-36500
X31500Y-37000
X32000Y-26750
X32000Y-31500
X33000Y-33750
X33500Y-31500
X34000Y-26750
X35750Y-32250
X35750Y-33000
X36500Y-32250
X36500Y-33000
X37250Y-32250
X37250Y-33000
X38500Y-31500
X39000Y-26750
X39000Y-35500
X39500Y-36000
X40000Y-31500
X40000Y-36500
X40500Y-37000
X41000Y-26750
X41000Y-31500
X41500Y-42500
X41500Y-43000
X42000Y-33750
X42250Y-43000
X42500Y-31500
X43000Y-26750
X43250Y-45000
X43750Y-42750
X43750Y-43250
X43750Y-43750
X44250Y-45000
X44750Y-32250
X44750Y-33000
X45250Y-45000
X45500Y-32250
X45500Y-33000
X46000Y-40500
X46250Y-32250
X46250Y-33000
X46750Y-40500
X46750Y-41250
X47500Y-31500
X48000Y-26750
X48000Y-35500
X48250Y-44500
X48500Y-36000
X49000Y-31500
X49000Y-36500
X49000Y-44500
X49500Y-37000
X50000Y-26750
X50000Y-31500
X50000Y-37500
X50500Y-38000
X50500Y-41250
X51000Y-33750
X51000Y-40750
X51250Y-43000
X51500Y-31500
X51500Y-40000
X52000Y-26750
X52000Y-37750
X52500Y-41500
X52750Y-40500
X53000Y-41500
X53500Y-41500
X53750Y-32250
X53750Y-33000
X53750Y-35000
X54000Y-41500
X54500Y-32250
X54500Y-33000
X54500Y-35000
X54750Y-38000
X55250Y-32250
X55250Y-33000
X55250Y-35000
X55250Y-41500
X56000Y-43000
X56500Y-31500
X57000Y-26750
X57000Y-35500
X57250Y-40750
X57250Y-41500
X57500Y-36000
X57750Y-38750
X58000Y-31500
X58000Y-36500
X58500Y-37000
X58500Y-38750
X59000Y-26750
X59000Y-31500
X59250Y-38750
X59750Y-40750
X59750Y-41500
X60000Y-33750
X60000Y-40000
X60000Y-45000
X60500Y-31500
X61000Y-26750
T2
X55500Y-26000
X56500Y-26000
X57500Y-26000
X58500Y-26000
X59500Y-26000
X60500Y-26000
X61500Y-26000
X62500Y-26000
X62750Y-37000
X62750Y-38000
X37500Y-26000
X38500Y-26000
X39500Y-26000
X40500Y-26000
X41500Y-26000
X42500Y-26000
X43500Y-26000
X44500Y-26000
X28500Y-26000
X29500Y-26000
X30500Y-26000
X31500Y-26000
X32500Y-26000
X33500Y-26000
X34500Y-26000
X35500Y-26000
X62750Y-41000
X62750Y-42000
X62750Y-43000
X62750Y-44000
X62750Y-45000
X46500Y-26000
X47500Y-26000
X48500Y-26000
X49500Y-26000
X50500Y-26000
X51500Y-26000
X52500Y-26000
X53500Y-26000
X55500Y-45000
X56500Y-45000
X57500Y-45000
X58500Y-45000
X26500Y-45000
X27500Y-45000
X28500Y-45000
X29500Y-45000
X30500Y-45000
X31500Y-45000
X32500Y-45000
X33500Y-45000
X34500Y-45000
X35500Y-45000
X36500Y-45000
X37500Y-45000
X38500Y-45000
X39500Y-45000
X40500Y-45000
X41500Y-45000
T0
M30
