G04 #@! TF.GenerationSoftware,KiCad,Pcbnew,(5.1.6)-1*
G04 #@! TF.CreationDate,2021-02-11T21:03:36+02:00*
G04 #@! TF.ProjectId,spectrum_analyzer,73706563-7472-4756-9d5f-616e616c797a,rev?*
G04 #@! TF.SameCoordinates,Original*
G04 #@! TF.FileFunction,Paste,Top*
G04 #@! TF.FilePolarity,Positive*
%FSLAX46Y46*%
G04 Gerber Fmt 4.6, Leading zero omitted, Abs format (unit mm)*
G04 Created by KiCad (PCBNEW (5.1.6)-1) date 2021-02-11 21:03:36*
%MOMM*%
%LPD*%
G01*
G04 APERTURE LIST*
%ADD10R,4.500000X2.000000*%
%ADD11R,0.900000X0.800000*%
%ADD12R,1.500000X2.000000*%
%ADD13R,3.800000X2.000000*%
G04 APERTURE END LIST*
G36*
G01*
X157877500Y-87345000D02*
X158352500Y-87345000D01*
G75*
G02*
X158590000Y-87582500I0J-237500D01*
G01*
X158590000Y-88157500D01*
G75*
G02*
X158352500Y-88395000I-237500J0D01*
G01*
X157877500Y-88395000D01*
G75*
G02*
X157640000Y-88157500I0J237500D01*
G01*
X157640000Y-87582500D01*
G75*
G02*
X157877500Y-87345000I237500J0D01*
G01*
G37*
G36*
G01*
X157877500Y-85595000D02*
X158352500Y-85595000D01*
G75*
G02*
X158590000Y-85832500I0J-237500D01*
G01*
X158590000Y-86407500D01*
G75*
G02*
X158352500Y-86645000I-237500J0D01*
G01*
X157877500Y-86645000D01*
G75*
G02*
X157640000Y-86407500I0J237500D01*
G01*
X157640000Y-85832500D01*
G75*
G02*
X157877500Y-85595000I237500J0D01*
G01*
G37*
G36*
G01*
X155972500Y-87345000D02*
X156447500Y-87345000D01*
G75*
G02*
X156685000Y-87582500I0J-237500D01*
G01*
X156685000Y-88157500D01*
G75*
G02*
X156447500Y-88395000I-237500J0D01*
G01*
X155972500Y-88395000D01*
G75*
G02*
X155735000Y-88157500I0J237500D01*
G01*
X155735000Y-87582500D01*
G75*
G02*
X155972500Y-87345000I237500J0D01*
G01*
G37*
G36*
G01*
X155972500Y-85595000D02*
X156447500Y-85595000D01*
G75*
G02*
X156685000Y-85832500I0J-237500D01*
G01*
X156685000Y-86407500D01*
G75*
G02*
X156447500Y-86645000I-237500J0D01*
G01*
X155972500Y-86645000D01*
G75*
G02*
X155735000Y-86407500I0J237500D01*
G01*
X155735000Y-85832500D01*
G75*
G02*
X155972500Y-85595000I237500J0D01*
G01*
G37*
G36*
G01*
X136127500Y-91090000D02*
X135652500Y-91090000D01*
G75*
G02*
X135415000Y-90852500I0J237500D01*
G01*
X135415000Y-90277500D01*
G75*
G02*
X135652500Y-90040000I237500J0D01*
G01*
X136127500Y-90040000D01*
G75*
G02*
X136365000Y-90277500I0J-237500D01*
G01*
X136365000Y-90852500D01*
G75*
G02*
X136127500Y-91090000I-237500J0D01*
G01*
G37*
G36*
G01*
X136127500Y-92840000D02*
X135652500Y-92840000D01*
G75*
G02*
X135415000Y-92602500I0J237500D01*
G01*
X135415000Y-92027500D01*
G75*
G02*
X135652500Y-91790000I237500J0D01*
G01*
X136127500Y-91790000D01*
G75*
G02*
X136365000Y-92027500I0J-237500D01*
G01*
X136365000Y-92602500D01*
G75*
G02*
X136127500Y-92840000I-237500J0D01*
G01*
G37*
G36*
G01*
X135652500Y-95600000D02*
X136127500Y-95600000D01*
G75*
G02*
X136365000Y-95837500I0J-237500D01*
G01*
X136365000Y-96412500D01*
G75*
G02*
X136127500Y-96650000I-237500J0D01*
G01*
X135652500Y-96650000D01*
G75*
G02*
X135415000Y-96412500I0J237500D01*
G01*
X135415000Y-95837500D01*
G75*
G02*
X135652500Y-95600000I237500J0D01*
G01*
G37*
G36*
G01*
X135652500Y-93850000D02*
X136127500Y-93850000D01*
G75*
G02*
X136365000Y-94087500I0J-237500D01*
G01*
X136365000Y-94662500D01*
G75*
G02*
X136127500Y-94900000I-237500J0D01*
G01*
X135652500Y-94900000D01*
G75*
G02*
X135415000Y-94662500I0J237500D01*
G01*
X135415000Y-94087500D01*
G75*
G02*
X135652500Y-93850000I237500J0D01*
G01*
G37*
G36*
G01*
X105935000Y-110887500D02*
X105935000Y-111362500D01*
G75*
G02*
X105697500Y-111600000I-237500J0D01*
G01*
X105122500Y-111600000D01*
G75*
G02*
X104885000Y-111362500I0J237500D01*
G01*
X104885000Y-110887500D01*
G75*
G02*
X105122500Y-110650000I237500J0D01*
G01*
X105697500Y-110650000D01*
G75*
G02*
X105935000Y-110887500I0J-237500D01*
G01*
G37*
G36*
G01*
X107685000Y-110887500D02*
X107685000Y-111362500D01*
G75*
G02*
X107447500Y-111600000I-237500J0D01*
G01*
X106872500Y-111600000D01*
G75*
G02*
X106635000Y-111362500I0J237500D01*
G01*
X106635000Y-110887500D01*
G75*
G02*
X106872500Y-110650000I237500J0D01*
G01*
X107447500Y-110650000D01*
G75*
G02*
X107685000Y-110887500I0J-237500D01*
G01*
G37*
G36*
G01*
X148240000Y-110887500D02*
X148240000Y-111362500D01*
G75*
G02*
X148002500Y-111600000I-237500J0D01*
G01*
X147427500Y-111600000D01*
G75*
G02*
X147190000Y-111362500I0J237500D01*
G01*
X147190000Y-110887500D01*
G75*
G02*
X147427500Y-110650000I237500J0D01*
G01*
X148002500Y-110650000D01*
G75*
G02*
X148240000Y-110887500I0J-237500D01*
G01*
G37*
G36*
G01*
X149990000Y-110887500D02*
X149990000Y-111362500D01*
G75*
G02*
X149752500Y-111600000I-237500J0D01*
G01*
X149177500Y-111600000D01*
G75*
G02*
X148940000Y-111362500I0J237500D01*
G01*
X148940000Y-110887500D01*
G75*
G02*
X149177500Y-110650000I237500J0D01*
G01*
X149752500Y-110650000D01*
G75*
G02*
X149990000Y-110887500I0J-237500D01*
G01*
G37*
D10*
X110685000Y-95250000D03*
X119185000Y-95250000D03*
G36*
G01*
X132840140Y-99134428D02*
X133830090Y-98144478D01*
G75*
G02*
X133936156Y-98144478I53033J-53033D01*
G01*
X134042222Y-98250544D01*
G75*
G02*
X134042222Y-98356610I-53033J-53033D01*
G01*
X133052272Y-99346560D01*
G75*
G02*
X132946206Y-99346560I-53033J53033D01*
G01*
X132840140Y-99240494D01*
G75*
G02*
X132840140Y-99134428I53033J53033D01*
G01*
G37*
G36*
G01*
X133193693Y-99487981D02*
X134183643Y-98498031D01*
G75*
G02*
X134289709Y-98498031I53033J-53033D01*
G01*
X134395775Y-98604097D01*
G75*
G02*
X134395775Y-98710163I-53033J-53033D01*
G01*
X133405825Y-99700113D01*
G75*
G02*
X133299759Y-99700113I-53033J53033D01*
G01*
X133193693Y-99594047D01*
G75*
G02*
X133193693Y-99487981I53033J53033D01*
G01*
G37*
G36*
G01*
X133547246Y-99841534D02*
X134537196Y-98851584D01*
G75*
G02*
X134643262Y-98851584I53033J-53033D01*
G01*
X134749328Y-98957650D01*
G75*
G02*
X134749328Y-99063716I-53033J-53033D01*
G01*
X133759378Y-100053666D01*
G75*
G02*
X133653312Y-100053666I-53033J53033D01*
G01*
X133547246Y-99947600D01*
G75*
G02*
X133547246Y-99841534I53033J53033D01*
G01*
G37*
G36*
G01*
X133900800Y-100195088D02*
X134890750Y-99205138D01*
G75*
G02*
X134996816Y-99205138I53033J-53033D01*
G01*
X135102882Y-99311204D01*
G75*
G02*
X135102882Y-99417270I-53033J-53033D01*
G01*
X134112932Y-100407220D01*
G75*
G02*
X134006866Y-100407220I-53033J53033D01*
G01*
X133900800Y-100301154D01*
G75*
G02*
X133900800Y-100195088I53033J53033D01*
G01*
G37*
G36*
G01*
X134254353Y-100548641D02*
X135244303Y-99558691D01*
G75*
G02*
X135350369Y-99558691I53033J-53033D01*
G01*
X135456435Y-99664757D01*
G75*
G02*
X135456435Y-99770823I-53033J-53033D01*
G01*
X134466485Y-100760773D01*
G75*
G02*
X134360419Y-100760773I-53033J53033D01*
G01*
X134254353Y-100654707D01*
G75*
G02*
X134254353Y-100548641I53033J53033D01*
G01*
G37*
G36*
G01*
X134607907Y-100902195D02*
X135597857Y-99912245D01*
G75*
G02*
X135703923Y-99912245I53033J-53033D01*
G01*
X135809989Y-100018311D01*
G75*
G02*
X135809989Y-100124377I-53033J-53033D01*
G01*
X134820039Y-101114327D01*
G75*
G02*
X134713973Y-101114327I-53033J53033D01*
G01*
X134607907Y-101008261D01*
G75*
G02*
X134607907Y-100902195I53033J53033D01*
G01*
G37*
G36*
G01*
X134961460Y-101255748D02*
X135951410Y-100265798D01*
G75*
G02*
X136057476Y-100265798I53033J-53033D01*
G01*
X136163542Y-100371864D01*
G75*
G02*
X136163542Y-100477930I-53033J-53033D01*
G01*
X135173592Y-101467880D01*
G75*
G02*
X135067526Y-101467880I-53033J53033D01*
G01*
X134961460Y-101361814D01*
G75*
G02*
X134961460Y-101255748I53033J53033D01*
G01*
G37*
G36*
G01*
X135315013Y-101609301D02*
X136304963Y-100619351D01*
G75*
G02*
X136411029Y-100619351I53033J-53033D01*
G01*
X136517095Y-100725417D01*
G75*
G02*
X136517095Y-100831483I-53033J-53033D01*
G01*
X135527145Y-101821433D01*
G75*
G02*
X135421079Y-101821433I-53033J53033D01*
G01*
X135315013Y-101715367D01*
G75*
G02*
X135315013Y-101609301I53033J53033D01*
G01*
G37*
G36*
G01*
X135668567Y-101962855D02*
X136658517Y-100972905D01*
G75*
G02*
X136764583Y-100972905I53033J-53033D01*
G01*
X136870649Y-101078971D01*
G75*
G02*
X136870649Y-101185037I-53033J-53033D01*
G01*
X135880699Y-102174987D01*
G75*
G02*
X135774633Y-102174987I-53033J53033D01*
G01*
X135668567Y-102068921D01*
G75*
G02*
X135668567Y-101962855I53033J53033D01*
G01*
G37*
G36*
G01*
X136022120Y-102316408D02*
X137012070Y-101326458D01*
G75*
G02*
X137118136Y-101326458I53033J-53033D01*
G01*
X137224202Y-101432524D01*
G75*
G02*
X137224202Y-101538590I-53033J-53033D01*
G01*
X136234252Y-102528540D01*
G75*
G02*
X136128186Y-102528540I-53033J53033D01*
G01*
X136022120Y-102422474D01*
G75*
G02*
X136022120Y-102316408I53033J53033D01*
G01*
G37*
G36*
G01*
X136375673Y-102669961D02*
X137365623Y-101680011D01*
G75*
G02*
X137471689Y-101680011I53033J-53033D01*
G01*
X137577755Y-101786077D01*
G75*
G02*
X137577755Y-101892143I-53033J-53033D01*
G01*
X136587805Y-102882093D01*
G75*
G02*
X136481739Y-102882093I-53033J53033D01*
G01*
X136375673Y-102776027D01*
G75*
G02*
X136375673Y-102669961I53033J53033D01*
G01*
G37*
G36*
G01*
X136729227Y-103023515D02*
X137719177Y-102033565D01*
G75*
G02*
X137825243Y-102033565I53033J-53033D01*
G01*
X137931309Y-102139631D01*
G75*
G02*
X137931309Y-102245697I-53033J-53033D01*
G01*
X136941359Y-103235647D01*
G75*
G02*
X136835293Y-103235647I-53033J53033D01*
G01*
X136729227Y-103129581D01*
G75*
G02*
X136729227Y-103023515I53033J53033D01*
G01*
G37*
G36*
G01*
X137082780Y-103377068D02*
X138072730Y-102387118D01*
G75*
G02*
X138178796Y-102387118I53033J-53033D01*
G01*
X138284862Y-102493184D01*
G75*
G02*
X138284862Y-102599250I-53033J-53033D01*
G01*
X137294912Y-103589200D01*
G75*
G02*
X137188846Y-103589200I-53033J53033D01*
G01*
X137082780Y-103483134D01*
G75*
G02*
X137082780Y-103377068I53033J53033D01*
G01*
G37*
G36*
G01*
X137436334Y-103730622D02*
X138426284Y-102740672D01*
G75*
G02*
X138532350Y-102740672I53033J-53033D01*
G01*
X138638416Y-102846738D01*
G75*
G02*
X138638416Y-102952804I-53033J-53033D01*
G01*
X137648466Y-103942754D01*
G75*
G02*
X137542400Y-103942754I-53033J53033D01*
G01*
X137436334Y-103836688D01*
G75*
G02*
X137436334Y-103730622I53033J53033D01*
G01*
G37*
G36*
G01*
X137789887Y-104084175D02*
X138779837Y-103094225D01*
G75*
G02*
X138885903Y-103094225I53033J-53033D01*
G01*
X138991969Y-103200291D01*
G75*
G02*
X138991969Y-103306357I-53033J-53033D01*
G01*
X138002019Y-104296307D01*
G75*
G02*
X137895953Y-104296307I-53033J53033D01*
G01*
X137789887Y-104190241D01*
G75*
G02*
X137789887Y-104084175I53033J53033D01*
G01*
G37*
G36*
G01*
X138143440Y-104437728D02*
X139133390Y-103447778D01*
G75*
G02*
X139239456Y-103447778I53033J-53033D01*
G01*
X139345522Y-103553844D01*
G75*
G02*
X139345522Y-103659910I-53033J-53033D01*
G01*
X138355572Y-104649860D01*
G75*
G02*
X138249506Y-104649860I-53033J53033D01*
G01*
X138143440Y-104543794D01*
G75*
G02*
X138143440Y-104437728I53033J53033D01*
G01*
G37*
G36*
G01*
X138143440Y-106276206D02*
X138249506Y-106170140D01*
G75*
G02*
X138355572Y-106170140I53033J-53033D01*
G01*
X139345522Y-107160090D01*
G75*
G02*
X139345522Y-107266156I-53033J-53033D01*
G01*
X139239456Y-107372222D01*
G75*
G02*
X139133390Y-107372222I-53033J53033D01*
G01*
X138143440Y-106382272D01*
G75*
G02*
X138143440Y-106276206I53033J53033D01*
G01*
G37*
G36*
G01*
X137789887Y-106629759D02*
X137895953Y-106523693D01*
G75*
G02*
X138002019Y-106523693I53033J-53033D01*
G01*
X138991969Y-107513643D01*
G75*
G02*
X138991969Y-107619709I-53033J-53033D01*
G01*
X138885903Y-107725775D01*
G75*
G02*
X138779837Y-107725775I-53033J53033D01*
G01*
X137789887Y-106735825D01*
G75*
G02*
X137789887Y-106629759I53033J53033D01*
G01*
G37*
G36*
G01*
X137436334Y-106983312D02*
X137542400Y-106877246D01*
G75*
G02*
X137648466Y-106877246I53033J-53033D01*
G01*
X138638416Y-107867196D01*
G75*
G02*
X138638416Y-107973262I-53033J-53033D01*
G01*
X138532350Y-108079328D01*
G75*
G02*
X138426284Y-108079328I-53033J53033D01*
G01*
X137436334Y-107089378D01*
G75*
G02*
X137436334Y-106983312I53033J53033D01*
G01*
G37*
G36*
G01*
X137082780Y-107336866D02*
X137188846Y-107230800D01*
G75*
G02*
X137294912Y-107230800I53033J-53033D01*
G01*
X138284862Y-108220750D01*
G75*
G02*
X138284862Y-108326816I-53033J-53033D01*
G01*
X138178796Y-108432882D01*
G75*
G02*
X138072730Y-108432882I-53033J53033D01*
G01*
X137082780Y-107442932D01*
G75*
G02*
X137082780Y-107336866I53033J53033D01*
G01*
G37*
G36*
G01*
X136729227Y-107690419D02*
X136835293Y-107584353D01*
G75*
G02*
X136941359Y-107584353I53033J-53033D01*
G01*
X137931309Y-108574303D01*
G75*
G02*
X137931309Y-108680369I-53033J-53033D01*
G01*
X137825243Y-108786435D01*
G75*
G02*
X137719177Y-108786435I-53033J53033D01*
G01*
X136729227Y-107796485D01*
G75*
G02*
X136729227Y-107690419I53033J53033D01*
G01*
G37*
G36*
G01*
X136375673Y-108043973D02*
X136481739Y-107937907D01*
G75*
G02*
X136587805Y-107937907I53033J-53033D01*
G01*
X137577755Y-108927857D01*
G75*
G02*
X137577755Y-109033923I-53033J-53033D01*
G01*
X137471689Y-109139989D01*
G75*
G02*
X137365623Y-109139989I-53033J53033D01*
G01*
X136375673Y-108150039D01*
G75*
G02*
X136375673Y-108043973I53033J53033D01*
G01*
G37*
G36*
G01*
X136022120Y-108397526D02*
X136128186Y-108291460D01*
G75*
G02*
X136234252Y-108291460I53033J-53033D01*
G01*
X137224202Y-109281410D01*
G75*
G02*
X137224202Y-109387476I-53033J-53033D01*
G01*
X137118136Y-109493542D01*
G75*
G02*
X137012070Y-109493542I-53033J53033D01*
G01*
X136022120Y-108503592D01*
G75*
G02*
X136022120Y-108397526I53033J53033D01*
G01*
G37*
G36*
G01*
X135668567Y-108751079D02*
X135774633Y-108645013D01*
G75*
G02*
X135880699Y-108645013I53033J-53033D01*
G01*
X136870649Y-109634963D01*
G75*
G02*
X136870649Y-109741029I-53033J-53033D01*
G01*
X136764583Y-109847095D01*
G75*
G02*
X136658517Y-109847095I-53033J53033D01*
G01*
X135668567Y-108857145D01*
G75*
G02*
X135668567Y-108751079I53033J53033D01*
G01*
G37*
G36*
G01*
X135315013Y-109104633D02*
X135421079Y-108998567D01*
G75*
G02*
X135527145Y-108998567I53033J-53033D01*
G01*
X136517095Y-109988517D01*
G75*
G02*
X136517095Y-110094583I-53033J-53033D01*
G01*
X136411029Y-110200649D01*
G75*
G02*
X136304963Y-110200649I-53033J53033D01*
G01*
X135315013Y-109210699D01*
G75*
G02*
X135315013Y-109104633I53033J53033D01*
G01*
G37*
G36*
G01*
X134961460Y-109458186D02*
X135067526Y-109352120D01*
G75*
G02*
X135173592Y-109352120I53033J-53033D01*
G01*
X136163542Y-110342070D01*
G75*
G02*
X136163542Y-110448136I-53033J-53033D01*
G01*
X136057476Y-110554202D01*
G75*
G02*
X135951410Y-110554202I-53033J53033D01*
G01*
X134961460Y-109564252D01*
G75*
G02*
X134961460Y-109458186I53033J53033D01*
G01*
G37*
G36*
G01*
X134607907Y-109811739D02*
X134713973Y-109705673D01*
G75*
G02*
X134820039Y-109705673I53033J-53033D01*
G01*
X135809989Y-110695623D01*
G75*
G02*
X135809989Y-110801689I-53033J-53033D01*
G01*
X135703923Y-110907755D01*
G75*
G02*
X135597857Y-110907755I-53033J53033D01*
G01*
X134607907Y-109917805D01*
G75*
G02*
X134607907Y-109811739I53033J53033D01*
G01*
G37*
G36*
G01*
X134254353Y-110165293D02*
X134360419Y-110059227D01*
G75*
G02*
X134466485Y-110059227I53033J-53033D01*
G01*
X135456435Y-111049177D01*
G75*
G02*
X135456435Y-111155243I-53033J-53033D01*
G01*
X135350369Y-111261309D01*
G75*
G02*
X135244303Y-111261309I-53033J53033D01*
G01*
X134254353Y-110271359D01*
G75*
G02*
X134254353Y-110165293I53033J53033D01*
G01*
G37*
G36*
G01*
X133900800Y-110518846D02*
X134006866Y-110412780D01*
G75*
G02*
X134112932Y-110412780I53033J-53033D01*
G01*
X135102882Y-111402730D01*
G75*
G02*
X135102882Y-111508796I-53033J-53033D01*
G01*
X134996816Y-111614862D01*
G75*
G02*
X134890750Y-111614862I-53033J53033D01*
G01*
X133900800Y-110624912D01*
G75*
G02*
X133900800Y-110518846I53033J53033D01*
G01*
G37*
G36*
G01*
X133547246Y-110872400D02*
X133653312Y-110766334D01*
G75*
G02*
X133759378Y-110766334I53033J-53033D01*
G01*
X134749328Y-111756284D01*
G75*
G02*
X134749328Y-111862350I-53033J-53033D01*
G01*
X134643262Y-111968416D01*
G75*
G02*
X134537196Y-111968416I-53033J53033D01*
G01*
X133547246Y-110978466D01*
G75*
G02*
X133547246Y-110872400I53033J53033D01*
G01*
G37*
G36*
G01*
X133193693Y-111225953D02*
X133299759Y-111119887D01*
G75*
G02*
X133405825Y-111119887I53033J-53033D01*
G01*
X134395775Y-112109837D01*
G75*
G02*
X134395775Y-112215903I-53033J-53033D01*
G01*
X134289709Y-112321969D01*
G75*
G02*
X134183643Y-112321969I-53033J53033D01*
G01*
X133193693Y-111332019D01*
G75*
G02*
X133193693Y-111225953I53033J53033D01*
G01*
G37*
G36*
G01*
X132840140Y-111579506D02*
X132946206Y-111473440D01*
G75*
G02*
X133052272Y-111473440I53033J-53033D01*
G01*
X134042222Y-112463390D01*
G75*
G02*
X134042222Y-112569456I-53033J-53033D01*
G01*
X133936156Y-112675522D01*
G75*
G02*
X133830090Y-112675522I-53033J53033D01*
G01*
X132840140Y-111685572D01*
G75*
G02*
X132840140Y-111579506I53033J53033D01*
G01*
G37*
G36*
G01*
X130117778Y-112463390D02*
X131107728Y-111473440D01*
G75*
G02*
X131213794Y-111473440I53033J-53033D01*
G01*
X131319860Y-111579506D01*
G75*
G02*
X131319860Y-111685572I-53033J-53033D01*
G01*
X130329910Y-112675522D01*
G75*
G02*
X130223844Y-112675522I-53033J53033D01*
G01*
X130117778Y-112569456D01*
G75*
G02*
X130117778Y-112463390I53033J53033D01*
G01*
G37*
G36*
G01*
X129764225Y-112109837D02*
X130754175Y-111119887D01*
G75*
G02*
X130860241Y-111119887I53033J-53033D01*
G01*
X130966307Y-111225953D01*
G75*
G02*
X130966307Y-111332019I-53033J-53033D01*
G01*
X129976357Y-112321969D01*
G75*
G02*
X129870291Y-112321969I-53033J53033D01*
G01*
X129764225Y-112215903D01*
G75*
G02*
X129764225Y-112109837I53033J53033D01*
G01*
G37*
G36*
G01*
X129410672Y-111756284D02*
X130400622Y-110766334D01*
G75*
G02*
X130506688Y-110766334I53033J-53033D01*
G01*
X130612754Y-110872400D01*
G75*
G02*
X130612754Y-110978466I-53033J-53033D01*
G01*
X129622804Y-111968416D01*
G75*
G02*
X129516738Y-111968416I-53033J53033D01*
G01*
X129410672Y-111862350D01*
G75*
G02*
X129410672Y-111756284I53033J53033D01*
G01*
G37*
G36*
G01*
X129057118Y-111402730D02*
X130047068Y-110412780D01*
G75*
G02*
X130153134Y-110412780I53033J-53033D01*
G01*
X130259200Y-110518846D01*
G75*
G02*
X130259200Y-110624912I-53033J-53033D01*
G01*
X129269250Y-111614862D01*
G75*
G02*
X129163184Y-111614862I-53033J53033D01*
G01*
X129057118Y-111508796D01*
G75*
G02*
X129057118Y-111402730I53033J53033D01*
G01*
G37*
G36*
G01*
X128703565Y-111049177D02*
X129693515Y-110059227D01*
G75*
G02*
X129799581Y-110059227I53033J-53033D01*
G01*
X129905647Y-110165293D01*
G75*
G02*
X129905647Y-110271359I-53033J-53033D01*
G01*
X128915697Y-111261309D01*
G75*
G02*
X128809631Y-111261309I-53033J53033D01*
G01*
X128703565Y-111155243D01*
G75*
G02*
X128703565Y-111049177I53033J53033D01*
G01*
G37*
G36*
G01*
X128350011Y-110695623D02*
X129339961Y-109705673D01*
G75*
G02*
X129446027Y-109705673I53033J-53033D01*
G01*
X129552093Y-109811739D01*
G75*
G02*
X129552093Y-109917805I-53033J-53033D01*
G01*
X128562143Y-110907755D01*
G75*
G02*
X128456077Y-110907755I-53033J53033D01*
G01*
X128350011Y-110801689D01*
G75*
G02*
X128350011Y-110695623I53033J53033D01*
G01*
G37*
G36*
G01*
X127996458Y-110342070D02*
X128986408Y-109352120D01*
G75*
G02*
X129092474Y-109352120I53033J-53033D01*
G01*
X129198540Y-109458186D01*
G75*
G02*
X129198540Y-109564252I-53033J-53033D01*
G01*
X128208590Y-110554202D01*
G75*
G02*
X128102524Y-110554202I-53033J53033D01*
G01*
X127996458Y-110448136D01*
G75*
G02*
X127996458Y-110342070I53033J53033D01*
G01*
G37*
G36*
G01*
X127642905Y-109988517D02*
X128632855Y-108998567D01*
G75*
G02*
X128738921Y-108998567I53033J-53033D01*
G01*
X128844987Y-109104633D01*
G75*
G02*
X128844987Y-109210699I-53033J-53033D01*
G01*
X127855037Y-110200649D01*
G75*
G02*
X127748971Y-110200649I-53033J53033D01*
G01*
X127642905Y-110094583D01*
G75*
G02*
X127642905Y-109988517I53033J53033D01*
G01*
G37*
G36*
G01*
X127289351Y-109634963D02*
X128279301Y-108645013D01*
G75*
G02*
X128385367Y-108645013I53033J-53033D01*
G01*
X128491433Y-108751079D01*
G75*
G02*
X128491433Y-108857145I-53033J-53033D01*
G01*
X127501483Y-109847095D01*
G75*
G02*
X127395417Y-109847095I-53033J53033D01*
G01*
X127289351Y-109741029D01*
G75*
G02*
X127289351Y-109634963I53033J53033D01*
G01*
G37*
G36*
G01*
X126935798Y-109281410D02*
X127925748Y-108291460D01*
G75*
G02*
X128031814Y-108291460I53033J-53033D01*
G01*
X128137880Y-108397526D01*
G75*
G02*
X128137880Y-108503592I-53033J-53033D01*
G01*
X127147930Y-109493542D01*
G75*
G02*
X127041864Y-109493542I-53033J53033D01*
G01*
X126935798Y-109387476D01*
G75*
G02*
X126935798Y-109281410I53033J53033D01*
G01*
G37*
G36*
G01*
X126582245Y-108927857D02*
X127572195Y-107937907D01*
G75*
G02*
X127678261Y-107937907I53033J-53033D01*
G01*
X127784327Y-108043973D01*
G75*
G02*
X127784327Y-108150039I-53033J-53033D01*
G01*
X126794377Y-109139989D01*
G75*
G02*
X126688311Y-109139989I-53033J53033D01*
G01*
X126582245Y-109033923D01*
G75*
G02*
X126582245Y-108927857I53033J53033D01*
G01*
G37*
G36*
G01*
X126228691Y-108574303D02*
X127218641Y-107584353D01*
G75*
G02*
X127324707Y-107584353I53033J-53033D01*
G01*
X127430773Y-107690419D01*
G75*
G02*
X127430773Y-107796485I-53033J-53033D01*
G01*
X126440823Y-108786435D01*
G75*
G02*
X126334757Y-108786435I-53033J53033D01*
G01*
X126228691Y-108680369D01*
G75*
G02*
X126228691Y-108574303I53033J53033D01*
G01*
G37*
G36*
G01*
X125875138Y-108220750D02*
X126865088Y-107230800D01*
G75*
G02*
X126971154Y-107230800I53033J-53033D01*
G01*
X127077220Y-107336866D01*
G75*
G02*
X127077220Y-107442932I-53033J-53033D01*
G01*
X126087270Y-108432882D01*
G75*
G02*
X125981204Y-108432882I-53033J53033D01*
G01*
X125875138Y-108326816D01*
G75*
G02*
X125875138Y-108220750I53033J53033D01*
G01*
G37*
G36*
G01*
X125521584Y-107867196D02*
X126511534Y-106877246D01*
G75*
G02*
X126617600Y-106877246I53033J-53033D01*
G01*
X126723666Y-106983312D01*
G75*
G02*
X126723666Y-107089378I-53033J-53033D01*
G01*
X125733716Y-108079328D01*
G75*
G02*
X125627650Y-108079328I-53033J53033D01*
G01*
X125521584Y-107973262D01*
G75*
G02*
X125521584Y-107867196I53033J53033D01*
G01*
G37*
G36*
G01*
X125168031Y-107513643D02*
X126157981Y-106523693D01*
G75*
G02*
X126264047Y-106523693I53033J-53033D01*
G01*
X126370113Y-106629759D01*
G75*
G02*
X126370113Y-106735825I-53033J-53033D01*
G01*
X125380163Y-107725775D01*
G75*
G02*
X125274097Y-107725775I-53033J53033D01*
G01*
X125168031Y-107619709D01*
G75*
G02*
X125168031Y-107513643I53033J53033D01*
G01*
G37*
G36*
G01*
X124814478Y-107160090D02*
X125804428Y-106170140D01*
G75*
G02*
X125910494Y-106170140I53033J-53033D01*
G01*
X126016560Y-106276206D01*
G75*
G02*
X126016560Y-106382272I-53033J-53033D01*
G01*
X125026610Y-107372222D01*
G75*
G02*
X124920544Y-107372222I-53033J53033D01*
G01*
X124814478Y-107266156D01*
G75*
G02*
X124814478Y-107160090I53033J53033D01*
G01*
G37*
G36*
G01*
X124814478Y-103553844D02*
X124920544Y-103447778D01*
G75*
G02*
X125026610Y-103447778I53033J-53033D01*
G01*
X126016560Y-104437728D01*
G75*
G02*
X126016560Y-104543794I-53033J-53033D01*
G01*
X125910494Y-104649860D01*
G75*
G02*
X125804428Y-104649860I-53033J53033D01*
G01*
X124814478Y-103659910D01*
G75*
G02*
X124814478Y-103553844I53033J53033D01*
G01*
G37*
G36*
G01*
X125168031Y-103200291D02*
X125274097Y-103094225D01*
G75*
G02*
X125380163Y-103094225I53033J-53033D01*
G01*
X126370113Y-104084175D01*
G75*
G02*
X126370113Y-104190241I-53033J-53033D01*
G01*
X126264047Y-104296307D01*
G75*
G02*
X126157981Y-104296307I-53033J53033D01*
G01*
X125168031Y-103306357D01*
G75*
G02*
X125168031Y-103200291I53033J53033D01*
G01*
G37*
G36*
G01*
X125521584Y-102846738D02*
X125627650Y-102740672D01*
G75*
G02*
X125733716Y-102740672I53033J-53033D01*
G01*
X126723666Y-103730622D01*
G75*
G02*
X126723666Y-103836688I-53033J-53033D01*
G01*
X126617600Y-103942754D01*
G75*
G02*
X126511534Y-103942754I-53033J53033D01*
G01*
X125521584Y-102952804D01*
G75*
G02*
X125521584Y-102846738I53033J53033D01*
G01*
G37*
G36*
G01*
X125875138Y-102493184D02*
X125981204Y-102387118D01*
G75*
G02*
X126087270Y-102387118I53033J-53033D01*
G01*
X127077220Y-103377068D01*
G75*
G02*
X127077220Y-103483134I-53033J-53033D01*
G01*
X126971154Y-103589200D01*
G75*
G02*
X126865088Y-103589200I-53033J53033D01*
G01*
X125875138Y-102599250D01*
G75*
G02*
X125875138Y-102493184I53033J53033D01*
G01*
G37*
G36*
G01*
X126228691Y-102139631D02*
X126334757Y-102033565D01*
G75*
G02*
X126440823Y-102033565I53033J-53033D01*
G01*
X127430773Y-103023515D01*
G75*
G02*
X127430773Y-103129581I-53033J-53033D01*
G01*
X127324707Y-103235647D01*
G75*
G02*
X127218641Y-103235647I-53033J53033D01*
G01*
X126228691Y-102245697D01*
G75*
G02*
X126228691Y-102139631I53033J53033D01*
G01*
G37*
G36*
G01*
X126582245Y-101786077D02*
X126688311Y-101680011D01*
G75*
G02*
X126794377Y-101680011I53033J-53033D01*
G01*
X127784327Y-102669961D01*
G75*
G02*
X127784327Y-102776027I-53033J-53033D01*
G01*
X127678261Y-102882093D01*
G75*
G02*
X127572195Y-102882093I-53033J53033D01*
G01*
X126582245Y-101892143D01*
G75*
G02*
X126582245Y-101786077I53033J53033D01*
G01*
G37*
G36*
G01*
X126935798Y-101432524D02*
X127041864Y-101326458D01*
G75*
G02*
X127147930Y-101326458I53033J-53033D01*
G01*
X128137880Y-102316408D01*
G75*
G02*
X128137880Y-102422474I-53033J-53033D01*
G01*
X128031814Y-102528540D01*
G75*
G02*
X127925748Y-102528540I-53033J53033D01*
G01*
X126935798Y-101538590D01*
G75*
G02*
X126935798Y-101432524I53033J53033D01*
G01*
G37*
G36*
G01*
X127289351Y-101078971D02*
X127395417Y-100972905D01*
G75*
G02*
X127501483Y-100972905I53033J-53033D01*
G01*
X128491433Y-101962855D01*
G75*
G02*
X128491433Y-102068921I-53033J-53033D01*
G01*
X128385367Y-102174987D01*
G75*
G02*
X128279301Y-102174987I-53033J53033D01*
G01*
X127289351Y-101185037D01*
G75*
G02*
X127289351Y-101078971I53033J53033D01*
G01*
G37*
G36*
G01*
X127642905Y-100725417D02*
X127748971Y-100619351D01*
G75*
G02*
X127855037Y-100619351I53033J-53033D01*
G01*
X128844987Y-101609301D01*
G75*
G02*
X128844987Y-101715367I-53033J-53033D01*
G01*
X128738921Y-101821433D01*
G75*
G02*
X128632855Y-101821433I-53033J53033D01*
G01*
X127642905Y-100831483D01*
G75*
G02*
X127642905Y-100725417I53033J53033D01*
G01*
G37*
G36*
G01*
X127996458Y-100371864D02*
X128102524Y-100265798D01*
G75*
G02*
X128208590Y-100265798I53033J-53033D01*
G01*
X129198540Y-101255748D01*
G75*
G02*
X129198540Y-101361814I-53033J-53033D01*
G01*
X129092474Y-101467880D01*
G75*
G02*
X128986408Y-101467880I-53033J53033D01*
G01*
X127996458Y-100477930D01*
G75*
G02*
X127996458Y-100371864I53033J53033D01*
G01*
G37*
G36*
G01*
X128350011Y-100018311D02*
X128456077Y-99912245D01*
G75*
G02*
X128562143Y-99912245I53033J-53033D01*
G01*
X129552093Y-100902195D01*
G75*
G02*
X129552093Y-101008261I-53033J-53033D01*
G01*
X129446027Y-101114327D01*
G75*
G02*
X129339961Y-101114327I-53033J53033D01*
G01*
X128350011Y-100124377D01*
G75*
G02*
X128350011Y-100018311I53033J53033D01*
G01*
G37*
G36*
G01*
X128703565Y-99664757D02*
X128809631Y-99558691D01*
G75*
G02*
X128915697Y-99558691I53033J-53033D01*
G01*
X129905647Y-100548641D01*
G75*
G02*
X129905647Y-100654707I-53033J-53033D01*
G01*
X129799581Y-100760773D01*
G75*
G02*
X129693515Y-100760773I-53033J53033D01*
G01*
X128703565Y-99770823D01*
G75*
G02*
X128703565Y-99664757I53033J53033D01*
G01*
G37*
G36*
G01*
X129057118Y-99311204D02*
X129163184Y-99205138D01*
G75*
G02*
X129269250Y-99205138I53033J-53033D01*
G01*
X130259200Y-100195088D01*
G75*
G02*
X130259200Y-100301154I-53033J-53033D01*
G01*
X130153134Y-100407220D01*
G75*
G02*
X130047068Y-100407220I-53033J53033D01*
G01*
X129057118Y-99417270D01*
G75*
G02*
X129057118Y-99311204I53033J53033D01*
G01*
G37*
G36*
G01*
X129410672Y-98957650D02*
X129516738Y-98851584D01*
G75*
G02*
X129622804Y-98851584I53033J-53033D01*
G01*
X130612754Y-99841534D01*
G75*
G02*
X130612754Y-99947600I-53033J-53033D01*
G01*
X130506688Y-100053666D01*
G75*
G02*
X130400622Y-100053666I-53033J53033D01*
G01*
X129410672Y-99063716D01*
G75*
G02*
X129410672Y-98957650I53033J53033D01*
G01*
G37*
G36*
G01*
X129764225Y-98604097D02*
X129870291Y-98498031D01*
G75*
G02*
X129976357Y-98498031I53033J-53033D01*
G01*
X130966307Y-99487981D01*
G75*
G02*
X130966307Y-99594047I-53033J-53033D01*
G01*
X130860241Y-99700113D01*
G75*
G02*
X130754175Y-99700113I-53033J53033D01*
G01*
X129764225Y-98710163D01*
G75*
G02*
X129764225Y-98604097I53033J53033D01*
G01*
G37*
G36*
G01*
X130117778Y-98250544D02*
X130223844Y-98144478D01*
G75*
G02*
X130329910Y-98144478I53033J-53033D01*
G01*
X131319860Y-99134428D01*
G75*
G02*
X131319860Y-99240494I-53033J-53033D01*
G01*
X131213794Y-99346560D01*
G75*
G02*
X131107728Y-99346560I-53033J53033D01*
G01*
X130117778Y-98356610D01*
G75*
G02*
X130117778Y-98250544I53033J53033D01*
G01*
G37*
G36*
G01*
X95012500Y-108455001D02*
X95487500Y-108455001D01*
G75*
G02*
X95725000Y-108692501I0J-237500D01*
G01*
X95725000Y-109267501D01*
G75*
G02*
X95487500Y-109505001I-237500J0D01*
G01*
X95012500Y-109505001D01*
G75*
G02*
X94775000Y-109267501I0J237500D01*
G01*
X94775000Y-108692501D01*
G75*
G02*
X95012500Y-108455001I237500J0D01*
G01*
G37*
G36*
G01*
X95012500Y-110205001D02*
X95487500Y-110205001D01*
G75*
G02*
X95725000Y-110442501I0J-237500D01*
G01*
X95725000Y-111017501D01*
G75*
G02*
X95487500Y-111255001I-237500J0D01*
G01*
X95012500Y-111255001D01*
G75*
G02*
X94775000Y-111017501I0J237500D01*
G01*
X94775000Y-110442501D01*
G75*
G02*
X95012500Y-110205001I237500J0D01*
G01*
G37*
G36*
G01*
X102632500Y-108455000D02*
X103107500Y-108455000D01*
G75*
G02*
X103345000Y-108692500I0J-237500D01*
G01*
X103345000Y-109267500D01*
G75*
G02*
X103107500Y-109505000I-237500J0D01*
G01*
X102632500Y-109505000D01*
G75*
G02*
X102395000Y-109267500I0J237500D01*
G01*
X102395000Y-108692500D01*
G75*
G02*
X102632500Y-108455000I237500J0D01*
G01*
G37*
G36*
G01*
X102632500Y-110205000D02*
X103107500Y-110205000D01*
G75*
G02*
X103345000Y-110442500I0J-237500D01*
G01*
X103345000Y-111017500D01*
G75*
G02*
X103107500Y-111255000I-237500J0D01*
G01*
X102632500Y-111255000D01*
G75*
G02*
X102395000Y-111017500I0J237500D01*
G01*
X102395000Y-110442500D01*
G75*
G02*
X102632500Y-110205000I237500J0D01*
G01*
G37*
G36*
G01*
X100092500Y-108455000D02*
X100567500Y-108455000D01*
G75*
G02*
X100805000Y-108692500I0J-237500D01*
G01*
X100805000Y-109267500D01*
G75*
G02*
X100567500Y-109505000I-237500J0D01*
G01*
X100092500Y-109505000D01*
G75*
G02*
X99855000Y-109267500I0J237500D01*
G01*
X99855000Y-108692500D01*
G75*
G02*
X100092500Y-108455000I237500J0D01*
G01*
G37*
G36*
G01*
X100092500Y-110205000D02*
X100567500Y-110205000D01*
G75*
G02*
X100805000Y-110442500I0J-237500D01*
G01*
X100805000Y-111017500D01*
G75*
G02*
X100567500Y-111255000I-237500J0D01*
G01*
X100092500Y-111255000D01*
G75*
G02*
X99855000Y-111017500I0J237500D01*
G01*
X99855000Y-110442500D01*
G75*
G02*
X100092500Y-110205000I237500J0D01*
G01*
G37*
G36*
G01*
X97552500Y-108455001D02*
X98027500Y-108455001D01*
G75*
G02*
X98265000Y-108692501I0J-237500D01*
G01*
X98265000Y-109267501D01*
G75*
G02*
X98027500Y-109505001I-237500J0D01*
G01*
X97552500Y-109505001D01*
G75*
G02*
X97315000Y-109267501I0J237500D01*
G01*
X97315000Y-108692501D01*
G75*
G02*
X97552500Y-108455001I237500J0D01*
G01*
G37*
G36*
G01*
X97552500Y-110205001D02*
X98027500Y-110205001D01*
G75*
G02*
X98265000Y-110442501I0J-237500D01*
G01*
X98265000Y-111017501D01*
G75*
G02*
X98027500Y-111255001I-237500J0D01*
G01*
X97552500Y-111255001D01*
G75*
G02*
X97315000Y-111017501I0J237500D01*
G01*
X97315000Y-110442501D01*
G75*
G02*
X97552500Y-110205001I237500J0D01*
G01*
G37*
G36*
G01*
X92472500Y-108455001D02*
X92947500Y-108455001D01*
G75*
G02*
X93185000Y-108692501I0J-237500D01*
G01*
X93185000Y-109267501D01*
G75*
G02*
X92947500Y-109505001I-237500J0D01*
G01*
X92472500Y-109505001D01*
G75*
G02*
X92235000Y-109267501I0J237500D01*
G01*
X92235000Y-108692501D01*
G75*
G02*
X92472500Y-108455001I237500J0D01*
G01*
G37*
G36*
G01*
X92472500Y-110205001D02*
X92947500Y-110205001D01*
G75*
G02*
X93185000Y-110442501I0J-237500D01*
G01*
X93185000Y-111017501D01*
G75*
G02*
X92947500Y-111255001I-237500J0D01*
G01*
X92472500Y-111255001D01*
G75*
G02*
X92235000Y-111017501I0J237500D01*
G01*
X92235000Y-110442501D01*
G75*
G02*
X92472500Y-110205001I237500J0D01*
G01*
G37*
G36*
G01*
X89932500Y-108455000D02*
X90407500Y-108455000D01*
G75*
G02*
X90645000Y-108692500I0J-237500D01*
G01*
X90645000Y-109267500D01*
G75*
G02*
X90407500Y-109505000I-237500J0D01*
G01*
X89932500Y-109505000D01*
G75*
G02*
X89695000Y-109267500I0J237500D01*
G01*
X89695000Y-108692500D01*
G75*
G02*
X89932500Y-108455000I237500J0D01*
G01*
G37*
G36*
G01*
X89932500Y-110205000D02*
X90407500Y-110205000D01*
G75*
G02*
X90645000Y-110442500I0J-237500D01*
G01*
X90645000Y-111017500D01*
G75*
G02*
X90407500Y-111255000I-237500J0D01*
G01*
X89932500Y-111255000D01*
G75*
G02*
X89695000Y-111017500I0J237500D01*
G01*
X89695000Y-110442500D01*
G75*
G02*
X89932500Y-110205000I237500J0D01*
G01*
G37*
G36*
G01*
X84852500Y-108455001D02*
X85327500Y-108455001D01*
G75*
G02*
X85565000Y-108692501I0J-237500D01*
G01*
X85565000Y-109267501D01*
G75*
G02*
X85327500Y-109505001I-237500J0D01*
G01*
X84852500Y-109505001D01*
G75*
G02*
X84615000Y-109267501I0J237500D01*
G01*
X84615000Y-108692501D01*
G75*
G02*
X84852500Y-108455001I237500J0D01*
G01*
G37*
G36*
G01*
X84852500Y-110205001D02*
X85327500Y-110205001D01*
G75*
G02*
X85565000Y-110442501I0J-237500D01*
G01*
X85565000Y-111017501D01*
G75*
G02*
X85327500Y-111255001I-237500J0D01*
G01*
X84852500Y-111255001D01*
G75*
G02*
X84615000Y-111017501I0J237500D01*
G01*
X84615000Y-110442501D01*
G75*
G02*
X84852500Y-110205001I237500J0D01*
G01*
G37*
G36*
G01*
X77232500Y-108455000D02*
X77707500Y-108455000D01*
G75*
G02*
X77945000Y-108692500I0J-237500D01*
G01*
X77945000Y-109267500D01*
G75*
G02*
X77707500Y-109505000I-237500J0D01*
G01*
X77232500Y-109505000D01*
G75*
G02*
X76995000Y-109267500I0J237500D01*
G01*
X76995000Y-108692500D01*
G75*
G02*
X77232500Y-108455000I237500J0D01*
G01*
G37*
G36*
G01*
X77232500Y-110205000D02*
X77707500Y-110205000D01*
G75*
G02*
X77945000Y-110442500I0J-237500D01*
G01*
X77945000Y-111017500D01*
G75*
G02*
X77707500Y-111255000I-237500J0D01*
G01*
X77232500Y-111255000D01*
G75*
G02*
X76995000Y-111017500I0J237500D01*
G01*
X76995000Y-110442500D01*
G75*
G02*
X77232500Y-110205000I237500J0D01*
G01*
G37*
G36*
G01*
X72152500Y-108455001D02*
X72627500Y-108455001D01*
G75*
G02*
X72865000Y-108692501I0J-237500D01*
G01*
X72865000Y-109267501D01*
G75*
G02*
X72627500Y-109505001I-237500J0D01*
G01*
X72152500Y-109505001D01*
G75*
G02*
X71915000Y-109267501I0J237500D01*
G01*
X71915000Y-108692501D01*
G75*
G02*
X72152500Y-108455001I237500J0D01*
G01*
G37*
G36*
G01*
X72152500Y-110205001D02*
X72627500Y-110205001D01*
G75*
G02*
X72865000Y-110442501I0J-237500D01*
G01*
X72865000Y-111017501D01*
G75*
G02*
X72627500Y-111255001I-237500J0D01*
G01*
X72152500Y-111255001D01*
G75*
G02*
X71915000Y-111017501I0J237500D01*
G01*
X71915000Y-110442501D01*
G75*
G02*
X72152500Y-110205001I237500J0D01*
G01*
G37*
G36*
G01*
X67072500Y-110205000D02*
X67547500Y-110205000D01*
G75*
G02*
X67785000Y-110442500I0J-237500D01*
G01*
X67785000Y-111017500D01*
G75*
G02*
X67547500Y-111255000I-237500J0D01*
G01*
X67072500Y-111255000D01*
G75*
G02*
X66835000Y-111017500I0J237500D01*
G01*
X66835000Y-110442500D01*
G75*
G02*
X67072500Y-110205000I237500J0D01*
G01*
G37*
G36*
G01*
X67072500Y-108455000D02*
X67547500Y-108455000D01*
G75*
G02*
X67785000Y-108692500I0J-237500D01*
G01*
X67785000Y-109267500D01*
G75*
G02*
X67547500Y-109505000I-237500J0D01*
G01*
X67072500Y-109505000D01*
G75*
G02*
X66835000Y-109267500I0J237500D01*
G01*
X66835000Y-108692500D01*
G75*
G02*
X67072500Y-108455000I237500J0D01*
G01*
G37*
G36*
G01*
X79772500Y-108455000D02*
X80247500Y-108455000D01*
G75*
G02*
X80485000Y-108692500I0J-237500D01*
G01*
X80485000Y-109267500D01*
G75*
G02*
X80247500Y-109505000I-237500J0D01*
G01*
X79772500Y-109505000D01*
G75*
G02*
X79535000Y-109267500I0J237500D01*
G01*
X79535000Y-108692500D01*
G75*
G02*
X79772500Y-108455000I237500J0D01*
G01*
G37*
G36*
G01*
X79772500Y-110205000D02*
X80247500Y-110205000D01*
G75*
G02*
X80485000Y-110442500I0J-237500D01*
G01*
X80485000Y-111017500D01*
G75*
G02*
X80247500Y-111255000I-237500J0D01*
G01*
X79772500Y-111255000D01*
G75*
G02*
X79535000Y-111017500I0J237500D01*
G01*
X79535000Y-110442500D01*
G75*
G02*
X79772500Y-110205000I237500J0D01*
G01*
G37*
G36*
G01*
X82312500Y-108455001D02*
X82787500Y-108455001D01*
G75*
G02*
X83025000Y-108692501I0J-237500D01*
G01*
X83025000Y-109267501D01*
G75*
G02*
X82787500Y-109505001I-237500J0D01*
G01*
X82312500Y-109505001D01*
G75*
G02*
X82075000Y-109267501I0J237500D01*
G01*
X82075000Y-108692501D01*
G75*
G02*
X82312500Y-108455001I237500J0D01*
G01*
G37*
G36*
G01*
X82312500Y-110205001D02*
X82787500Y-110205001D01*
G75*
G02*
X83025000Y-110442501I0J-237500D01*
G01*
X83025000Y-111017501D01*
G75*
G02*
X82787500Y-111255001I-237500J0D01*
G01*
X82312500Y-111255001D01*
G75*
G02*
X82075000Y-111017501I0J237500D01*
G01*
X82075000Y-110442501D01*
G75*
G02*
X82312500Y-110205001I237500J0D01*
G01*
G37*
G36*
G01*
X87392499Y-108455001D02*
X87867499Y-108455001D01*
G75*
G02*
X88104999Y-108692501I0J-237500D01*
G01*
X88104999Y-109267501D01*
G75*
G02*
X87867499Y-109505001I-237500J0D01*
G01*
X87392499Y-109505001D01*
G75*
G02*
X87154999Y-109267501I0J237500D01*
G01*
X87154999Y-108692501D01*
G75*
G02*
X87392499Y-108455001I237500J0D01*
G01*
G37*
G36*
G01*
X87392499Y-110205001D02*
X87867499Y-110205001D01*
G75*
G02*
X88104999Y-110442501I0J-237500D01*
G01*
X88104999Y-111017501D01*
G75*
G02*
X87867499Y-111255001I-237500J0D01*
G01*
X87392499Y-111255001D01*
G75*
G02*
X87154999Y-111017501I0J237500D01*
G01*
X87154999Y-110442501D01*
G75*
G02*
X87392499Y-110205001I237500J0D01*
G01*
G37*
G36*
G01*
X74692500Y-108455001D02*
X75167500Y-108455001D01*
G75*
G02*
X75405000Y-108692501I0J-237500D01*
G01*
X75405000Y-109267501D01*
G75*
G02*
X75167500Y-109505001I-237500J0D01*
G01*
X74692500Y-109505001D01*
G75*
G02*
X74455000Y-109267501I0J237500D01*
G01*
X74455000Y-108692501D01*
G75*
G02*
X74692500Y-108455001I237500J0D01*
G01*
G37*
G36*
G01*
X74692500Y-110205001D02*
X75167500Y-110205001D01*
G75*
G02*
X75405000Y-110442501I0J-237500D01*
G01*
X75405000Y-111017501D01*
G75*
G02*
X75167500Y-111255001I-237500J0D01*
G01*
X74692500Y-111255001D01*
G75*
G02*
X74455000Y-111017501I0J237500D01*
G01*
X74455000Y-110442501D01*
G75*
G02*
X74692500Y-110205001I237500J0D01*
G01*
G37*
G36*
G01*
X69612500Y-108455001D02*
X70087500Y-108455001D01*
G75*
G02*
X70325000Y-108692501I0J-237500D01*
G01*
X70325000Y-109267501D01*
G75*
G02*
X70087500Y-109505001I-237500J0D01*
G01*
X69612500Y-109505001D01*
G75*
G02*
X69375000Y-109267501I0J237500D01*
G01*
X69375000Y-108692501D01*
G75*
G02*
X69612500Y-108455001I237500J0D01*
G01*
G37*
G36*
G01*
X69612500Y-110205001D02*
X70087500Y-110205001D01*
G75*
G02*
X70325000Y-110442501I0J-237500D01*
G01*
X70325000Y-111017501D01*
G75*
G02*
X70087500Y-111255001I-237500J0D01*
G01*
X69612500Y-111255001D01*
G75*
G02*
X69375000Y-111017501I0J237500D01*
G01*
X69375000Y-110442501D01*
G75*
G02*
X69612500Y-110205001I237500J0D01*
G01*
G37*
G36*
G01*
X73897500Y-76965000D02*
X73422500Y-76965000D01*
G75*
G02*
X73185000Y-76727500I0J237500D01*
G01*
X73185000Y-76152500D01*
G75*
G02*
X73422500Y-75915000I237500J0D01*
G01*
X73897500Y-75915000D01*
G75*
G02*
X74135000Y-76152500I0J-237500D01*
G01*
X74135000Y-76727500D01*
G75*
G02*
X73897500Y-76965000I-237500J0D01*
G01*
G37*
G36*
G01*
X73897500Y-75215000D02*
X73422500Y-75215000D01*
G75*
G02*
X73185000Y-74977500I0J237500D01*
G01*
X73185000Y-74402500D01*
G75*
G02*
X73422500Y-74165000I237500J0D01*
G01*
X73897500Y-74165000D01*
G75*
G02*
X74135000Y-74402500I0J-237500D01*
G01*
X74135000Y-74977500D01*
G75*
G02*
X73897500Y-75215000I-237500J0D01*
G01*
G37*
G36*
G01*
X75327500Y-74165000D02*
X75802500Y-74165000D01*
G75*
G02*
X76040000Y-74402500I0J-237500D01*
G01*
X76040000Y-74977500D01*
G75*
G02*
X75802500Y-75215000I-237500J0D01*
G01*
X75327500Y-75215000D01*
G75*
G02*
X75090000Y-74977500I0J237500D01*
G01*
X75090000Y-74402500D01*
G75*
G02*
X75327500Y-74165000I237500J0D01*
G01*
G37*
G36*
G01*
X75327500Y-75915000D02*
X75802500Y-75915000D01*
G75*
G02*
X76040000Y-76152500I0J-237500D01*
G01*
X76040000Y-76727500D01*
G75*
G02*
X75802500Y-76965000I-237500J0D01*
G01*
X75327500Y-76965000D01*
G75*
G02*
X75090000Y-76727500I0J237500D01*
G01*
X75090000Y-76152500D01*
G75*
G02*
X75327500Y-75915000I237500J0D01*
G01*
G37*
G36*
G01*
X80407500Y-74165000D02*
X80882500Y-74165000D01*
G75*
G02*
X81120000Y-74402500I0J-237500D01*
G01*
X81120000Y-74977500D01*
G75*
G02*
X80882500Y-75215000I-237500J0D01*
G01*
X80407500Y-75215000D01*
G75*
G02*
X80170000Y-74977500I0J237500D01*
G01*
X80170000Y-74402500D01*
G75*
G02*
X80407500Y-74165000I237500J0D01*
G01*
G37*
G36*
G01*
X80407500Y-75915000D02*
X80882500Y-75915000D01*
G75*
G02*
X81120000Y-76152500I0J-237500D01*
G01*
X81120000Y-76727500D01*
G75*
G02*
X80882500Y-76965000I-237500J0D01*
G01*
X80407500Y-76965000D01*
G75*
G02*
X80170000Y-76727500I0J237500D01*
G01*
X80170000Y-76152500D01*
G75*
G02*
X80407500Y-75915000I237500J0D01*
G01*
G37*
G36*
G01*
X78977500Y-76965000D02*
X78502500Y-76965000D01*
G75*
G02*
X78265000Y-76727500I0J237500D01*
G01*
X78265000Y-76152500D01*
G75*
G02*
X78502500Y-75915000I237500J0D01*
G01*
X78977500Y-75915000D01*
G75*
G02*
X79215000Y-76152500I0J-237500D01*
G01*
X79215000Y-76727500D01*
G75*
G02*
X78977500Y-76965000I-237500J0D01*
G01*
G37*
G36*
G01*
X78977500Y-75215000D02*
X78502500Y-75215000D01*
G75*
G02*
X78265000Y-74977500I0J237500D01*
G01*
X78265000Y-74402500D01*
G75*
G02*
X78502500Y-74165000I237500J0D01*
G01*
X78977500Y-74165000D01*
G75*
G02*
X79215000Y-74402500I0J-237500D01*
G01*
X79215000Y-74977500D01*
G75*
G02*
X78977500Y-75215000I-237500J0D01*
G01*
G37*
G36*
G01*
X85487500Y-75915000D02*
X85962500Y-75915000D01*
G75*
G02*
X86200000Y-76152500I0J-237500D01*
G01*
X86200000Y-76727500D01*
G75*
G02*
X85962500Y-76965000I-237500J0D01*
G01*
X85487500Y-76965000D01*
G75*
G02*
X85250000Y-76727500I0J237500D01*
G01*
X85250000Y-76152500D01*
G75*
G02*
X85487500Y-75915000I237500J0D01*
G01*
G37*
G36*
G01*
X85487500Y-74165000D02*
X85962500Y-74165000D01*
G75*
G02*
X86200000Y-74402500I0J-237500D01*
G01*
X86200000Y-74977500D01*
G75*
G02*
X85962500Y-75215000I-237500J0D01*
G01*
X85487500Y-75215000D01*
G75*
G02*
X85250000Y-74977500I0J237500D01*
G01*
X85250000Y-74402500D01*
G75*
G02*
X85487500Y-74165000I237500J0D01*
G01*
G37*
G36*
G01*
X89137500Y-76965000D02*
X88662500Y-76965000D01*
G75*
G02*
X88425000Y-76727500I0J237500D01*
G01*
X88425000Y-76152500D01*
G75*
G02*
X88662500Y-75915000I237500J0D01*
G01*
X89137500Y-75915000D01*
G75*
G02*
X89375000Y-76152500I0J-237500D01*
G01*
X89375000Y-76727500D01*
G75*
G02*
X89137500Y-76965000I-237500J0D01*
G01*
G37*
G36*
G01*
X89137500Y-75215000D02*
X88662500Y-75215000D01*
G75*
G02*
X88425000Y-74977500I0J237500D01*
G01*
X88425000Y-74402500D01*
G75*
G02*
X88662500Y-74165000I237500J0D01*
G01*
X89137500Y-74165000D01*
G75*
G02*
X89375000Y-74402500I0J-237500D01*
G01*
X89375000Y-74977500D01*
G75*
G02*
X89137500Y-75215000I-237500J0D01*
G01*
G37*
G36*
G01*
X90567500Y-74165000D02*
X91042500Y-74165000D01*
G75*
G02*
X91280000Y-74402500I0J-237500D01*
G01*
X91280000Y-74977500D01*
G75*
G02*
X91042500Y-75215000I-237500J0D01*
G01*
X90567500Y-75215000D01*
G75*
G02*
X90330000Y-74977500I0J237500D01*
G01*
X90330000Y-74402500D01*
G75*
G02*
X90567500Y-74165000I237500J0D01*
G01*
G37*
G36*
G01*
X90567500Y-75915000D02*
X91042500Y-75915000D01*
G75*
G02*
X91280000Y-76152500I0J-237500D01*
G01*
X91280000Y-76727500D01*
G75*
G02*
X91042500Y-76965000I-237500J0D01*
G01*
X90567500Y-76965000D01*
G75*
G02*
X90330000Y-76727500I0J237500D01*
G01*
X90330000Y-76152500D01*
G75*
G02*
X90567500Y-75915000I237500J0D01*
G01*
G37*
G36*
G01*
X84057500Y-75215000D02*
X83582500Y-75215000D01*
G75*
G02*
X83345000Y-74977500I0J237500D01*
G01*
X83345000Y-74402500D01*
G75*
G02*
X83582500Y-74165000I237500J0D01*
G01*
X84057500Y-74165000D01*
G75*
G02*
X84295000Y-74402500I0J-237500D01*
G01*
X84295000Y-74977500D01*
G75*
G02*
X84057500Y-75215000I-237500J0D01*
G01*
G37*
G36*
G01*
X84057500Y-76965000D02*
X83582500Y-76965000D01*
G75*
G02*
X83345000Y-76727500I0J237500D01*
G01*
X83345000Y-76152500D01*
G75*
G02*
X83582500Y-75915000I237500J0D01*
G01*
X84057500Y-75915000D01*
G75*
G02*
X84295000Y-76152500I0J-237500D01*
G01*
X84295000Y-76727500D01*
G75*
G02*
X84057500Y-76965000I-237500J0D01*
G01*
G37*
G36*
G01*
X96757500Y-76965000D02*
X96282500Y-76965000D01*
G75*
G02*
X96045000Y-76727500I0J237500D01*
G01*
X96045000Y-76152500D01*
G75*
G02*
X96282500Y-75915000I237500J0D01*
G01*
X96757500Y-75915000D01*
G75*
G02*
X96995000Y-76152500I0J-237500D01*
G01*
X96995000Y-76727500D01*
G75*
G02*
X96757500Y-76965000I-237500J0D01*
G01*
G37*
G36*
G01*
X96757500Y-75215000D02*
X96282500Y-75215000D01*
G75*
G02*
X96045000Y-74977500I0J237500D01*
G01*
X96045000Y-74402500D01*
G75*
G02*
X96282500Y-74165000I237500J0D01*
G01*
X96757500Y-74165000D01*
G75*
G02*
X96995000Y-74402500I0J-237500D01*
G01*
X96995000Y-74977500D01*
G75*
G02*
X96757500Y-75215000I-237500J0D01*
G01*
G37*
G36*
G01*
X98187500Y-74165000D02*
X98662500Y-74165000D01*
G75*
G02*
X98900000Y-74402500I0J-237500D01*
G01*
X98900000Y-74977500D01*
G75*
G02*
X98662500Y-75215000I-237500J0D01*
G01*
X98187500Y-75215000D01*
G75*
G02*
X97950000Y-74977500I0J237500D01*
G01*
X97950000Y-74402500D01*
G75*
G02*
X98187500Y-74165000I237500J0D01*
G01*
G37*
G36*
G01*
X98187500Y-75915000D02*
X98662500Y-75915000D01*
G75*
G02*
X98900000Y-76152500I0J-237500D01*
G01*
X98900000Y-76727500D01*
G75*
G02*
X98662500Y-76965000I-237500J0D01*
G01*
X98187500Y-76965000D01*
G75*
G02*
X97950000Y-76727500I0J237500D01*
G01*
X97950000Y-76152500D01*
G75*
G02*
X98187500Y-75915000I237500J0D01*
G01*
G37*
G36*
G01*
X103267500Y-74165000D02*
X103742500Y-74165000D01*
G75*
G02*
X103980000Y-74402500I0J-237500D01*
G01*
X103980000Y-74977500D01*
G75*
G02*
X103742500Y-75215000I-237500J0D01*
G01*
X103267500Y-75215000D01*
G75*
G02*
X103030000Y-74977500I0J237500D01*
G01*
X103030000Y-74402500D01*
G75*
G02*
X103267500Y-74165000I237500J0D01*
G01*
G37*
G36*
G01*
X103267500Y-75915000D02*
X103742500Y-75915000D01*
G75*
G02*
X103980000Y-76152500I0J-237500D01*
G01*
X103980000Y-76727500D01*
G75*
G02*
X103742500Y-76965000I-237500J0D01*
G01*
X103267500Y-76965000D01*
G75*
G02*
X103030000Y-76727500I0J237500D01*
G01*
X103030000Y-76152500D01*
G75*
G02*
X103267500Y-75915000I237500J0D01*
G01*
G37*
G36*
G01*
X101837500Y-76965000D02*
X101362500Y-76965000D01*
G75*
G02*
X101125000Y-76727500I0J237500D01*
G01*
X101125000Y-76152500D01*
G75*
G02*
X101362500Y-75915000I237500J0D01*
G01*
X101837500Y-75915000D01*
G75*
G02*
X102075000Y-76152500I0J-237500D01*
G01*
X102075000Y-76727500D01*
G75*
G02*
X101837500Y-76965000I-237500J0D01*
G01*
G37*
G36*
G01*
X101837500Y-75215000D02*
X101362500Y-75215000D01*
G75*
G02*
X101125000Y-74977500I0J237500D01*
G01*
X101125000Y-74402500D01*
G75*
G02*
X101362500Y-74165000I237500J0D01*
G01*
X101837500Y-74165000D01*
G75*
G02*
X102075000Y-74402500I0J-237500D01*
G01*
X102075000Y-74977500D01*
G75*
G02*
X101837500Y-75215000I-237500J0D01*
G01*
G37*
G36*
G01*
X108347500Y-75915000D02*
X108822500Y-75915000D01*
G75*
G02*
X109060000Y-76152500I0J-237500D01*
G01*
X109060000Y-76727500D01*
G75*
G02*
X108822500Y-76965000I-237500J0D01*
G01*
X108347500Y-76965000D01*
G75*
G02*
X108110000Y-76727500I0J237500D01*
G01*
X108110000Y-76152500D01*
G75*
G02*
X108347500Y-75915000I237500J0D01*
G01*
G37*
G36*
G01*
X108347500Y-74165000D02*
X108822500Y-74165000D01*
G75*
G02*
X109060000Y-74402500I0J-237500D01*
G01*
X109060000Y-74977500D01*
G75*
G02*
X108822500Y-75215000I-237500J0D01*
G01*
X108347500Y-75215000D01*
G75*
G02*
X108110000Y-74977500I0J237500D01*
G01*
X108110000Y-74402500D01*
G75*
G02*
X108347500Y-74165000I237500J0D01*
G01*
G37*
G36*
G01*
X111997500Y-76965000D02*
X111522500Y-76965000D01*
G75*
G02*
X111285000Y-76727500I0J237500D01*
G01*
X111285000Y-76152500D01*
G75*
G02*
X111522500Y-75915000I237500J0D01*
G01*
X111997500Y-75915000D01*
G75*
G02*
X112235000Y-76152500I0J-237500D01*
G01*
X112235000Y-76727500D01*
G75*
G02*
X111997500Y-76965000I-237500J0D01*
G01*
G37*
G36*
G01*
X111997500Y-75215000D02*
X111522500Y-75215000D01*
G75*
G02*
X111285000Y-74977500I0J237500D01*
G01*
X111285000Y-74402500D01*
G75*
G02*
X111522500Y-74165000I237500J0D01*
G01*
X111997500Y-74165000D01*
G75*
G02*
X112235000Y-74402500I0J-237500D01*
G01*
X112235000Y-74977500D01*
G75*
G02*
X111997500Y-75215000I-237500J0D01*
G01*
G37*
G36*
G01*
X113427500Y-74165000D02*
X113902500Y-74165000D01*
G75*
G02*
X114140000Y-74402500I0J-237500D01*
G01*
X114140000Y-74977500D01*
G75*
G02*
X113902500Y-75215000I-237500J0D01*
G01*
X113427500Y-75215000D01*
G75*
G02*
X113190000Y-74977500I0J237500D01*
G01*
X113190000Y-74402500D01*
G75*
G02*
X113427500Y-74165000I237500J0D01*
G01*
G37*
G36*
G01*
X113427500Y-75915000D02*
X113902500Y-75915000D01*
G75*
G02*
X114140000Y-76152500I0J-237500D01*
G01*
X114140000Y-76727500D01*
G75*
G02*
X113902500Y-76965000I-237500J0D01*
G01*
X113427500Y-76965000D01*
G75*
G02*
X113190000Y-76727500I0J237500D01*
G01*
X113190000Y-76152500D01*
G75*
G02*
X113427500Y-75915000I237500J0D01*
G01*
G37*
G36*
G01*
X106917500Y-75215000D02*
X106442500Y-75215000D01*
G75*
G02*
X106205000Y-74977500I0J237500D01*
G01*
X106205000Y-74402500D01*
G75*
G02*
X106442500Y-74165000I237500J0D01*
G01*
X106917500Y-74165000D01*
G75*
G02*
X107155000Y-74402500I0J-237500D01*
G01*
X107155000Y-74977500D01*
G75*
G02*
X106917500Y-75215000I-237500J0D01*
G01*
G37*
G36*
G01*
X106917500Y-76965000D02*
X106442500Y-76965000D01*
G75*
G02*
X106205000Y-76727500I0J237500D01*
G01*
X106205000Y-76152500D01*
G75*
G02*
X106442500Y-75915000I237500J0D01*
G01*
X106917500Y-75915000D01*
G75*
G02*
X107155000Y-76152500I0J-237500D01*
G01*
X107155000Y-76727500D01*
G75*
G02*
X106917500Y-76965000I-237500J0D01*
G01*
G37*
G36*
G01*
X119617500Y-76965000D02*
X119142500Y-76965000D01*
G75*
G02*
X118905000Y-76727500I0J237500D01*
G01*
X118905000Y-76152500D01*
G75*
G02*
X119142500Y-75915000I237500J0D01*
G01*
X119617500Y-75915000D01*
G75*
G02*
X119855000Y-76152500I0J-237500D01*
G01*
X119855000Y-76727500D01*
G75*
G02*
X119617500Y-76965000I-237500J0D01*
G01*
G37*
G36*
G01*
X119617500Y-75215000D02*
X119142500Y-75215000D01*
G75*
G02*
X118905000Y-74977500I0J237500D01*
G01*
X118905000Y-74402500D01*
G75*
G02*
X119142500Y-74165000I237500J0D01*
G01*
X119617500Y-74165000D01*
G75*
G02*
X119855000Y-74402500I0J-237500D01*
G01*
X119855000Y-74977500D01*
G75*
G02*
X119617500Y-75215000I-237500J0D01*
G01*
G37*
G36*
G01*
X121047500Y-74165000D02*
X121522500Y-74165000D01*
G75*
G02*
X121760000Y-74402500I0J-237500D01*
G01*
X121760000Y-74977500D01*
G75*
G02*
X121522500Y-75215000I-237500J0D01*
G01*
X121047500Y-75215000D01*
G75*
G02*
X120810000Y-74977500I0J237500D01*
G01*
X120810000Y-74402500D01*
G75*
G02*
X121047500Y-74165000I237500J0D01*
G01*
G37*
G36*
G01*
X121047500Y-75915000D02*
X121522500Y-75915000D01*
G75*
G02*
X121760000Y-76152500I0J-237500D01*
G01*
X121760000Y-76727500D01*
G75*
G02*
X121522500Y-76965000I-237500J0D01*
G01*
X121047500Y-76965000D01*
G75*
G02*
X120810000Y-76727500I0J237500D01*
G01*
X120810000Y-76152500D01*
G75*
G02*
X121047500Y-75915000I237500J0D01*
G01*
G37*
G36*
G01*
X126127500Y-74165000D02*
X126602500Y-74165000D01*
G75*
G02*
X126840000Y-74402500I0J-237500D01*
G01*
X126840000Y-74977500D01*
G75*
G02*
X126602500Y-75215000I-237500J0D01*
G01*
X126127500Y-75215000D01*
G75*
G02*
X125890000Y-74977500I0J237500D01*
G01*
X125890000Y-74402500D01*
G75*
G02*
X126127500Y-74165000I237500J0D01*
G01*
G37*
G36*
G01*
X126127500Y-75915000D02*
X126602500Y-75915000D01*
G75*
G02*
X126840000Y-76152500I0J-237500D01*
G01*
X126840000Y-76727500D01*
G75*
G02*
X126602500Y-76965000I-237500J0D01*
G01*
X126127500Y-76965000D01*
G75*
G02*
X125890000Y-76727500I0J237500D01*
G01*
X125890000Y-76152500D01*
G75*
G02*
X126127500Y-75915000I237500J0D01*
G01*
G37*
G36*
G01*
X124697500Y-76965000D02*
X124222500Y-76965000D01*
G75*
G02*
X123985000Y-76727500I0J237500D01*
G01*
X123985000Y-76152500D01*
G75*
G02*
X124222500Y-75915000I237500J0D01*
G01*
X124697500Y-75915000D01*
G75*
G02*
X124935000Y-76152500I0J-237500D01*
G01*
X124935000Y-76727500D01*
G75*
G02*
X124697500Y-76965000I-237500J0D01*
G01*
G37*
G36*
G01*
X124697500Y-75215000D02*
X124222500Y-75215000D01*
G75*
G02*
X123985000Y-74977500I0J237500D01*
G01*
X123985000Y-74402500D01*
G75*
G02*
X124222500Y-74165000I237500J0D01*
G01*
X124697500Y-74165000D01*
G75*
G02*
X124935000Y-74402500I0J-237500D01*
G01*
X124935000Y-74977500D01*
G75*
G02*
X124697500Y-75215000I-237500J0D01*
G01*
G37*
G36*
G01*
X131207500Y-75915000D02*
X131682500Y-75915000D01*
G75*
G02*
X131920000Y-76152500I0J-237500D01*
G01*
X131920000Y-76727500D01*
G75*
G02*
X131682500Y-76965000I-237500J0D01*
G01*
X131207500Y-76965000D01*
G75*
G02*
X130970000Y-76727500I0J237500D01*
G01*
X130970000Y-76152500D01*
G75*
G02*
X131207500Y-75915000I237500J0D01*
G01*
G37*
G36*
G01*
X131207500Y-74165000D02*
X131682500Y-74165000D01*
G75*
G02*
X131920000Y-74402500I0J-237500D01*
G01*
X131920000Y-74977500D01*
G75*
G02*
X131682500Y-75215000I-237500J0D01*
G01*
X131207500Y-75215000D01*
G75*
G02*
X130970000Y-74977500I0J237500D01*
G01*
X130970000Y-74402500D01*
G75*
G02*
X131207500Y-74165000I237500J0D01*
G01*
G37*
G36*
G01*
X134857500Y-76965000D02*
X134382500Y-76965000D01*
G75*
G02*
X134145000Y-76727500I0J237500D01*
G01*
X134145000Y-76152500D01*
G75*
G02*
X134382500Y-75915000I237500J0D01*
G01*
X134857500Y-75915000D01*
G75*
G02*
X135095000Y-76152500I0J-237500D01*
G01*
X135095000Y-76727500D01*
G75*
G02*
X134857500Y-76965000I-237500J0D01*
G01*
G37*
G36*
G01*
X134857500Y-75215000D02*
X134382500Y-75215000D01*
G75*
G02*
X134145000Y-74977500I0J237500D01*
G01*
X134145000Y-74402500D01*
G75*
G02*
X134382500Y-74165000I237500J0D01*
G01*
X134857500Y-74165000D01*
G75*
G02*
X135095000Y-74402500I0J-237500D01*
G01*
X135095000Y-74977500D01*
G75*
G02*
X134857500Y-75215000I-237500J0D01*
G01*
G37*
G36*
G01*
X136287500Y-74165000D02*
X136762500Y-74165000D01*
G75*
G02*
X137000000Y-74402500I0J-237500D01*
G01*
X137000000Y-74977500D01*
G75*
G02*
X136762500Y-75215000I-237500J0D01*
G01*
X136287500Y-75215000D01*
G75*
G02*
X136050000Y-74977500I0J237500D01*
G01*
X136050000Y-74402500D01*
G75*
G02*
X136287500Y-74165000I237500J0D01*
G01*
G37*
G36*
G01*
X136287500Y-75915000D02*
X136762500Y-75915000D01*
G75*
G02*
X137000000Y-76152500I0J-237500D01*
G01*
X137000000Y-76727500D01*
G75*
G02*
X136762500Y-76965000I-237500J0D01*
G01*
X136287500Y-76965000D01*
G75*
G02*
X136050000Y-76727500I0J237500D01*
G01*
X136050000Y-76152500D01*
G75*
G02*
X136287500Y-75915000I237500J0D01*
G01*
G37*
G36*
G01*
X129777500Y-75215000D02*
X129302500Y-75215000D01*
G75*
G02*
X129065000Y-74977500I0J237500D01*
G01*
X129065000Y-74402500D01*
G75*
G02*
X129302500Y-74165000I237500J0D01*
G01*
X129777500Y-74165000D01*
G75*
G02*
X130015000Y-74402500I0J-237500D01*
G01*
X130015000Y-74977500D01*
G75*
G02*
X129777500Y-75215000I-237500J0D01*
G01*
G37*
G36*
G01*
X129777500Y-76965000D02*
X129302500Y-76965000D01*
G75*
G02*
X129065000Y-76727500I0J237500D01*
G01*
X129065000Y-76152500D01*
G75*
G02*
X129302500Y-75915000I237500J0D01*
G01*
X129777500Y-75915000D01*
G75*
G02*
X130015000Y-76152500I0J-237500D01*
G01*
X130015000Y-76727500D01*
G75*
G02*
X129777500Y-76965000I-237500J0D01*
G01*
G37*
G36*
G01*
X83670000Y-81640000D02*
X83970000Y-81640000D01*
G75*
G02*
X84120000Y-81790000I0J-150000D01*
G01*
X84120000Y-83440000D01*
G75*
G02*
X83970000Y-83590000I-150000J0D01*
G01*
X83670000Y-83590000D01*
G75*
G02*
X83520000Y-83440000I0J150000D01*
G01*
X83520000Y-81790000D01*
G75*
G02*
X83670000Y-81640000I150000J0D01*
G01*
G37*
G36*
G01*
X82400000Y-81640000D02*
X82700000Y-81640000D01*
G75*
G02*
X82850000Y-81790000I0J-150000D01*
G01*
X82850000Y-83440000D01*
G75*
G02*
X82700000Y-83590000I-150000J0D01*
G01*
X82400000Y-83590000D01*
G75*
G02*
X82250000Y-83440000I0J150000D01*
G01*
X82250000Y-81790000D01*
G75*
G02*
X82400000Y-81640000I150000J0D01*
G01*
G37*
G36*
G01*
X81130000Y-81640000D02*
X81430000Y-81640000D01*
G75*
G02*
X81580000Y-81790000I0J-150000D01*
G01*
X81580000Y-83440000D01*
G75*
G02*
X81430000Y-83590000I-150000J0D01*
G01*
X81130000Y-83590000D01*
G75*
G02*
X80980000Y-83440000I0J150000D01*
G01*
X80980000Y-81790000D01*
G75*
G02*
X81130000Y-81640000I150000J0D01*
G01*
G37*
G36*
G01*
X79860000Y-81640000D02*
X80160000Y-81640000D01*
G75*
G02*
X80310000Y-81790000I0J-150000D01*
G01*
X80310000Y-83440000D01*
G75*
G02*
X80160000Y-83590000I-150000J0D01*
G01*
X79860000Y-83590000D01*
G75*
G02*
X79710000Y-83440000I0J150000D01*
G01*
X79710000Y-81790000D01*
G75*
G02*
X79860000Y-81640000I150000J0D01*
G01*
G37*
G36*
G01*
X78590000Y-81640000D02*
X78890000Y-81640000D01*
G75*
G02*
X79040000Y-81790000I0J-150000D01*
G01*
X79040000Y-83440000D01*
G75*
G02*
X78890000Y-83590000I-150000J0D01*
G01*
X78590000Y-83590000D01*
G75*
G02*
X78440000Y-83440000I0J150000D01*
G01*
X78440000Y-81790000D01*
G75*
G02*
X78590000Y-81640000I150000J0D01*
G01*
G37*
G36*
G01*
X77320000Y-81640000D02*
X77620000Y-81640000D01*
G75*
G02*
X77770000Y-81790000I0J-150000D01*
G01*
X77770000Y-83440000D01*
G75*
G02*
X77620000Y-83590000I-150000J0D01*
G01*
X77320000Y-83590000D01*
G75*
G02*
X77170000Y-83440000I0J150000D01*
G01*
X77170000Y-81790000D01*
G75*
G02*
X77320000Y-81640000I150000J0D01*
G01*
G37*
G36*
G01*
X76050000Y-81640000D02*
X76350000Y-81640000D01*
G75*
G02*
X76500000Y-81790000I0J-150000D01*
G01*
X76500000Y-83440000D01*
G75*
G02*
X76350000Y-83590000I-150000J0D01*
G01*
X76050000Y-83590000D01*
G75*
G02*
X75900000Y-83440000I0J150000D01*
G01*
X75900000Y-81790000D01*
G75*
G02*
X76050000Y-81640000I150000J0D01*
G01*
G37*
G36*
G01*
X74780000Y-81640000D02*
X75080000Y-81640000D01*
G75*
G02*
X75230000Y-81790000I0J-150000D01*
G01*
X75230000Y-83440000D01*
G75*
G02*
X75080000Y-83590000I-150000J0D01*
G01*
X74780000Y-83590000D01*
G75*
G02*
X74630000Y-83440000I0J150000D01*
G01*
X74630000Y-81790000D01*
G75*
G02*
X74780000Y-81640000I150000J0D01*
G01*
G37*
G36*
G01*
X74780000Y-86590000D02*
X75080000Y-86590000D01*
G75*
G02*
X75230000Y-86740000I0J-150000D01*
G01*
X75230000Y-88390000D01*
G75*
G02*
X75080000Y-88540000I-150000J0D01*
G01*
X74780000Y-88540000D01*
G75*
G02*
X74630000Y-88390000I0J150000D01*
G01*
X74630000Y-86740000D01*
G75*
G02*
X74780000Y-86590000I150000J0D01*
G01*
G37*
G36*
G01*
X76050000Y-86590000D02*
X76350000Y-86590000D01*
G75*
G02*
X76500000Y-86740000I0J-150000D01*
G01*
X76500000Y-88390000D01*
G75*
G02*
X76350000Y-88540000I-150000J0D01*
G01*
X76050000Y-88540000D01*
G75*
G02*
X75900000Y-88390000I0J150000D01*
G01*
X75900000Y-86740000D01*
G75*
G02*
X76050000Y-86590000I150000J0D01*
G01*
G37*
G36*
G01*
X77320000Y-86590000D02*
X77620000Y-86590000D01*
G75*
G02*
X77770000Y-86740000I0J-150000D01*
G01*
X77770000Y-88390000D01*
G75*
G02*
X77620000Y-88540000I-150000J0D01*
G01*
X77320000Y-88540000D01*
G75*
G02*
X77170000Y-88390000I0J150000D01*
G01*
X77170000Y-86740000D01*
G75*
G02*
X77320000Y-86590000I150000J0D01*
G01*
G37*
G36*
G01*
X78590000Y-86590000D02*
X78890000Y-86590000D01*
G75*
G02*
X79040000Y-86740000I0J-150000D01*
G01*
X79040000Y-88390000D01*
G75*
G02*
X78890000Y-88540000I-150000J0D01*
G01*
X78590000Y-88540000D01*
G75*
G02*
X78440000Y-88390000I0J150000D01*
G01*
X78440000Y-86740000D01*
G75*
G02*
X78590000Y-86590000I150000J0D01*
G01*
G37*
G36*
G01*
X79860000Y-86590000D02*
X80160000Y-86590000D01*
G75*
G02*
X80310000Y-86740000I0J-150000D01*
G01*
X80310000Y-88390000D01*
G75*
G02*
X80160000Y-88540000I-150000J0D01*
G01*
X79860000Y-88540000D01*
G75*
G02*
X79710000Y-88390000I0J150000D01*
G01*
X79710000Y-86740000D01*
G75*
G02*
X79860000Y-86590000I150000J0D01*
G01*
G37*
G36*
G01*
X81130000Y-86590000D02*
X81430000Y-86590000D01*
G75*
G02*
X81580000Y-86740000I0J-150000D01*
G01*
X81580000Y-88390000D01*
G75*
G02*
X81430000Y-88540000I-150000J0D01*
G01*
X81130000Y-88540000D01*
G75*
G02*
X80980000Y-88390000I0J150000D01*
G01*
X80980000Y-86740000D01*
G75*
G02*
X81130000Y-86590000I150000J0D01*
G01*
G37*
G36*
G01*
X82400000Y-86590000D02*
X82700000Y-86590000D01*
G75*
G02*
X82850000Y-86740000I0J-150000D01*
G01*
X82850000Y-88390000D01*
G75*
G02*
X82700000Y-88540000I-150000J0D01*
G01*
X82400000Y-88540000D01*
G75*
G02*
X82250000Y-88390000I0J150000D01*
G01*
X82250000Y-86740000D01*
G75*
G02*
X82400000Y-86590000I150000J0D01*
G01*
G37*
G36*
G01*
X83670000Y-86590000D02*
X83970000Y-86590000D01*
G75*
G02*
X84120000Y-86740000I0J-150000D01*
G01*
X84120000Y-88390000D01*
G75*
G02*
X83970000Y-88540000I-150000J0D01*
G01*
X83670000Y-88540000D01*
G75*
G02*
X83520000Y-88390000I0J150000D01*
G01*
X83520000Y-86740000D01*
G75*
G02*
X83670000Y-86590000I150000J0D01*
G01*
G37*
D11*
X75930000Y-71435000D03*
X75930000Y-69535000D03*
X73930000Y-70485000D03*
X81010000Y-71435000D03*
X81010000Y-69535000D03*
X79010000Y-70485000D03*
X86090000Y-71435000D03*
X86090000Y-69535000D03*
X84090000Y-70485000D03*
X91170000Y-71435000D03*
X91170000Y-69535000D03*
X89170000Y-70485000D03*
G36*
G01*
X85962500Y-88395000D02*
X85487500Y-88395000D01*
G75*
G02*
X85250000Y-88157500I0J237500D01*
G01*
X85250000Y-87582500D01*
G75*
G02*
X85487500Y-87345000I237500J0D01*
G01*
X85962500Y-87345000D01*
G75*
G02*
X86200000Y-87582500I0J-237500D01*
G01*
X86200000Y-88157500D01*
G75*
G02*
X85962500Y-88395000I-237500J0D01*
G01*
G37*
G36*
G01*
X85962500Y-86645000D02*
X85487500Y-86645000D01*
G75*
G02*
X85250000Y-86407500I0J237500D01*
G01*
X85250000Y-85832500D01*
G75*
G02*
X85487500Y-85595000I237500J0D01*
G01*
X85962500Y-85595000D01*
G75*
G02*
X86200000Y-85832500I0J-237500D01*
G01*
X86200000Y-86407500D01*
G75*
G02*
X85962500Y-86645000I-237500J0D01*
G01*
G37*
G36*
G01*
X106530000Y-81640000D02*
X106830000Y-81640000D01*
G75*
G02*
X106980000Y-81790000I0J-150000D01*
G01*
X106980000Y-83440000D01*
G75*
G02*
X106830000Y-83590000I-150000J0D01*
G01*
X106530000Y-83590000D01*
G75*
G02*
X106380000Y-83440000I0J150000D01*
G01*
X106380000Y-81790000D01*
G75*
G02*
X106530000Y-81640000I150000J0D01*
G01*
G37*
G36*
G01*
X105260000Y-81640000D02*
X105560000Y-81640000D01*
G75*
G02*
X105710000Y-81790000I0J-150000D01*
G01*
X105710000Y-83440000D01*
G75*
G02*
X105560000Y-83590000I-150000J0D01*
G01*
X105260000Y-83590000D01*
G75*
G02*
X105110000Y-83440000I0J150000D01*
G01*
X105110000Y-81790000D01*
G75*
G02*
X105260000Y-81640000I150000J0D01*
G01*
G37*
G36*
G01*
X103990000Y-81640000D02*
X104290000Y-81640000D01*
G75*
G02*
X104440000Y-81790000I0J-150000D01*
G01*
X104440000Y-83440000D01*
G75*
G02*
X104290000Y-83590000I-150000J0D01*
G01*
X103990000Y-83590000D01*
G75*
G02*
X103840000Y-83440000I0J150000D01*
G01*
X103840000Y-81790000D01*
G75*
G02*
X103990000Y-81640000I150000J0D01*
G01*
G37*
G36*
G01*
X102720000Y-81640000D02*
X103020000Y-81640000D01*
G75*
G02*
X103170000Y-81790000I0J-150000D01*
G01*
X103170000Y-83440000D01*
G75*
G02*
X103020000Y-83590000I-150000J0D01*
G01*
X102720000Y-83590000D01*
G75*
G02*
X102570000Y-83440000I0J150000D01*
G01*
X102570000Y-81790000D01*
G75*
G02*
X102720000Y-81640000I150000J0D01*
G01*
G37*
G36*
G01*
X101450000Y-81640000D02*
X101750000Y-81640000D01*
G75*
G02*
X101900000Y-81790000I0J-150000D01*
G01*
X101900000Y-83440000D01*
G75*
G02*
X101750000Y-83590000I-150000J0D01*
G01*
X101450000Y-83590000D01*
G75*
G02*
X101300000Y-83440000I0J150000D01*
G01*
X101300000Y-81790000D01*
G75*
G02*
X101450000Y-81640000I150000J0D01*
G01*
G37*
G36*
G01*
X100180000Y-81640000D02*
X100480000Y-81640000D01*
G75*
G02*
X100630000Y-81790000I0J-150000D01*
G01*
X100630000Y-83440000D01*
G75*
G02*
X100480000Y-83590000I-150000J0D01*
G01*
X100180000Y-83590000D01*
G75*
G02*
X100030000Y-83440000I0J150000D01*
G01*
X100030000Y-81790000D01*
G75*
G02*
X100180000Y-81640000I150000J0D01*
G01*
G37*
G36*
G01*
X98910000Y-81640000D02*
X99210000Y-81640000D01*
G75*
G02*
X99360000Y-81790000I0J-150000D01*
G01*
X99360000Y-83440000D01*
G75*
G02*
X99210000Y-83590000I-150000J0D01*
G01*
X98910000Y-83590000D01*
G75*
G02*
X98760000Y-83440000I0J150000D01*
G01*
X98760000Y-81790000D01*
G75*
G02*
X98910000Y-81640000I150000J0D01*
G01*
G37*
G36*
G01*
X97640000Y-81640000D02*
X97940000Y-81640000D01*
G75*
G02*
X98090000Y-81790000I0J-150000D01*
G01*
X98090000Y-83440000D01*
G75*
G02*
X97940000Y-83590000I-150000J0D01*
G01*
X97640000Y-83590000D01*
G75*
G02*
X97490000Y-83440000I0J150000D01*
G01*
X97490000Y-81790000D01*
G75*
G02*
X97640000Y-81640000I150000J0D01*
G01*
G37*
G36*
G01*
X97640000Y-86590000D02*
X97940000Y-86590000D01*
G75*
G02*
X98090000Y-86740000I0J-150000D01*
G01*
X98090000Y-88390000D01*
G75*
G02*
X97940000Y-88540000I-150000J0D01*
G01*
X97640000Y-88540000D01*
G75*
G02*
X97490000Y-88390000I0J150000D01*
G01*
X97490000Y-86740000D01*
G75*
G02*
X97640000Y-86590000I150000J0D01*
G01*
G37*
G36*
G01*
X98910000Y-86590000D02*
X99210000Y-86590000D01*
G75*
G02*
X99360000Y-86740000I0J-150000D01*
G01*
X99360000Y-88390000D01*
G75*
G02*
X99210000Y-88540000I-150000J0D01*
G01*
X98910000Y-88540000D01*
G75*
G02*
X98760000Y-88390000I0J150000D01*
G01*
X98760000Y-86740000D01*
G75*
G02*
X98910000Y-86590000I150000J0D01*
G01*
G37*
G36*
G01*
X100180000Y-86590000D02*
X100480000Y-86590000D01*
G75*
G02*
X100630000Y-86740000I0J-150000D01*
G01*
X100630000Y-88390000D01*
G75*
G02*
X100480000Y-88540000I-150000J0D01*
G01*
X100180000Y-88540000D01*
G75*
G02*
X100030000Y-88390000I0J150000D01*
G01*
X100030000Y-86740000D01*
G75*
G02*
X100180000Y-86590000I150000J0D01*
G01*
G37*
G36*
G01*
X101450000Y-86590000D02*
X101750000Y-86590000D01*
G75*
G02*
X101900000Y-86740000I0J-150000D01*
G01*
X101900000Y-88390000D01*
G75*
G02*
X101750000Y-88540000I-150000J0D01*
G01*
X101450000Y-88540000D01*
G75*
G02*
X101300000Y-88390000I0J150000D01*
G01*
X101300000Y-86740000D01*
G75*
G02*
X101450000Y-86590000I150000J0D01*
G01*
G37*
G36*
G01*
X102720000Y-86590000D02*
X103020000Y-86590000D01*
G75*
G02*
X103170000Y-86740000I0J-150000D01*
G01*
X103170000Y-88390000D01*
G75*
G02*
X103020000Y-88540000I-150000J0D01*
G01*
X102720000Y-88540000D01*
G75*
G02*
X102570000Y-88390000I0J150000D01*
G01*
X102570000Y-86740000D01*
G75*
G02*
X102720000Y-86590000I150000J0D01*
G01*
G37*
G36*
G01*
X103990000Y-86590000D02*
X104290000Y-86590000D01*
G75*
G02*
X104440000Y-86740000I0J-150000D01*
G01*
X104440000Y-88390000D01*
G75*
G02*
X104290000Y-88540000I-150000J0D01*
G01*
X103990000Y-88540000D01*
G75*
G02*
X103840000Y-88390000I0J150000D01*
G01*
X103840000Y-86740000D01*
G75*
G02*
X103990000Y-86590000I150000J0D01*
G01*
G37*
G36*
G01*
X105260000Y-86590000D02*
X105560000Y-86590000D01*
G75*
G02*
X105710000Y-86740000I0J-150000D01*
G01*
X105710000Y-88390000D01*
G75*
G02*
X105560000Y-88540000I-150000J0D01*
G01*
X105260000Y-88540000D01*
G75*
G02*
X105110000Y-88390000I0J150000D01*
G01*
X105110000Y-86740000D01*
G75*
G02*
X105260000Y-86590000I150000J0D01*
G01*
G37*
G36*
G01*
X106530000Y-86590000D02*
X106830000Y-86590000D01*
G75*
G02*
X106980000Y-86740000I0J-150000D01*
G01*
X106980000Y-88390000D01*
G75*
G02*
X106830000Y-88540000I-150000J0D01*
G01*
X106530000Y-88540000D01*
G75*
G02*
X106380000Y-88390000I0J150000D01*
G01*
X106380000Y-86740000D01*
G75*
G02*
X106530000Y-86590000I150000J0D01*
G01*
G37*
X98790000Y-71435000D03*
X98790000Y-69535000D03*
X96790000Y-70485000D03*
X103870000Y-71435000D03*
X103870000Y-69535000D03*
X101870000Y-70485000D03*
X108950000Y-71435000D03*
X108950000Y-69535000D03*
X106950000Y-70485000D03*
X114030000Y-71435000D03*
X114030000Y-69535000D03*
X112030000Y-70485000D03*
G36*
G01*
X108822500Y-88395000D02*
X108347500Y-88395000D01*
G75*
G02*
X108110000Y-88157500I0J237500D01*
G01*
X108110000Y-87582500D01*
G75*
G02*
X108347500Y-87345000I237500J0D01*
G01*
X108822500Y-87345000D01*
G75*
G02*
X109060000Y-87582500I0J-237500D01*
G01*
X109060000Y-88157500D01*
G75*
G02*
X108822500Y-88395000I-237500J0D01*
G01*
G37*
G36*
G01*
X108822500Y-86645000D02*
X108347500Y-86645000D01*
G75*
G02*
X108110000Y-86407500I0J237500D01*
G01*
X108110000Y-85832500D01*
G75*
G02*
X108347500Y-85595000I237500J0D01*
G01*
X108822500Y-85595000D01*
G75*
G02*
X109060000Y-85832500I0J-237500D01*
G01*
X109060000Y-86407500D01*
G75*
G02*
X108822500Y-86645000I-237500J0D01*
G01*
G37*
G36*
G01*
X129390000Y-81640000D02*
X129690000Y-81640000D01*
G75*
G02*
X129840000Y-81790000I0J-150000D01*
G01*
X129840000Y-83440000D01*
G75*
G02*
X129690000Y-83590000I-150000J0D01*
G01*
X129390000Y-83590000D01*
G75*
G02*
X129240000Y-83440000I0J150000D01*
G01*
X129240000Y-81790000D01*
G75*
G02*
X129390000Y-81640000I150000J0D01*
G01*
G37*
G36*
G01*
X128120000Y-81640000D02*
X128420000Y-81640000D01*
G75*
G02*
X128570000Y-81790000I0J-150000D01*
G01*
X128570000Y-83440000D01*
G75*
G02*
X128420000Y-83590000I-150000J0D01*
G01*
X128120000Y-83590000D01*
G75*
G02*
X127970000Y-83440000I0J150000D01*
G01*
X127970000Y-81790000D01*
G75*
G02*
X128120000Y-81640000I150000J0D01*
G01*
G37*
G36*
G01*
X126850000Y-81640000D02*
X127150000Y-81640000D01*
G75*
G02*
X127300000Y-81790000I0J-150000D01*
G01*
X127300000Y-83440000D01*
G75*
G02*
X127150000Y-83590000I-150000J0D01*
G01*
X126850000Y-83590000D01*
G75*
G02*
X126700000Y-83440000I0J150000D01*
G01*
X126700000Y-81790000D01*
G75*
G02*
X126850000Y-81640000I150000J0D01*
G01*
G37*
G36*
G01*
X125580000Y-81640000D02*
X125880000Y-81640000D01*
G75*
G02*
X126030000Y-81790000I0J-150000D01*
G01*
X126030000Y-83440000D01*
G75*
G02*
X125880000Y-83590000I-150000J0D01*
G01*
X125580000Y-83590000D01*
G75*
G02*
X125430000Y-83440000I0J150000D01*
G01*
X125430000Y-81790000D01*
G75*
G02*
X125580000Y-81640000I150000J0D01*
G01*
G37*
G36*
G01*
X124310000Y-81640000D02*
X124610000Y-81640000D01*
G75*
G02*
X124760000Y-81790000I0J-150000D01*
G01*
X124760000Y-83440000D01*
G75*
G02*
X124610000Y-83590000I-150000J0D01*
G01*
X124310000Y-83590000D01*
G75*
G02*
X124160000Y-83440000I0J150000D01*
G01*
X124160000Y-81790000D01*
G75*
G02*
X124310000Y-81640000I150000J0D01*
G01*
G37*
G36*
G01*
X123040000Y-81640000D02*
X123340000Y-81640000D01*
G75*
G02*
X123490000Y-81790000I0J-150000D01*
G01*
X123490000Y-83440000D01*
G75*
G02*
X123340000Y-83590000I-150000J0D01*
G01*
X123040000Y-83590000D01*
G75*
G02*
X122890000Y-83440000I0J150000D01*
G01*
X122890000Y-81790000D01*
G75*
G02*
X123040000Y-81640000I150000J0D01*
G01*
G37*
G36*
G01*
X121770000Y-81640000D02*
X122070000Y-81640000D01*
G75*
G02*
X122220000Y-81790000I0J-150000D01*
G01*
X122220000Y-83440000D01*
G75*
G02*
X122070000Y-83590000I-150000J0D01*
G01*
X121770000Y-83590000D01*
G75*
G02*
X121620000Y-83440000I0J150000D01*
G01*
X121620000Y-81790000D01*
G75*
G02*
X121770000Y-81640000I150000J0D01*
G01*
G37*
G36*
G01*
X120500000Y-81640000D02*
X120800000Y-81640000D01*
G75*
G02*
X120950000Y-81790000I0J-150000D01*
G01*
X120950000Y-83440000D01*
G75*
G02*
X120800000Y-83590000I-150000J0D01*
G01*
X120500000Y-83590000D01*
G75*
G02*
X120350000Y-83440000I0J150000D01*
G01*
X120350000Y-81790000D01*
G75*
G02*
X120500000Y-81640000I150000J0D01*
G01*
G37*
G36*
G01*
X120500000Y-86590000D02*
X120800000Y-86590000D01*
G75*
G02*
X120950000Y-86740000I0J-150000D01*
G01*
X120950000Y-88390000D01*
G75*
G02*
X120800000Y-88540000I-150000J0D01*
G01*
X120500000Y-88540000D01*
G75*
G02*
X120350000Y-88390000I0J150000D01*
G01*
X120350000Y-86740000D01*
G75*
G02*
X120500000Y-86590000I150000J0D01*
G01*
G37*
G36*
G01*
X121770000Y-86590000D02*
X122070000Y-86590000D01*
G75*
G02*
X122220000Y-86740000I0J-150000D01*
G01*
X122220000Y-88390000D01*
G75*
G02*
X122070000Y-88540000I-150000J0D01*
G01*
X121770000Y-88540000D01*
G75*
G02*
X121620000Y-88390000I0J150000D01*
G01*
X121620000Y-86740000D01*
G75*
G02*
X121770000Y-86590000I150000J0D01*
G01*
G37*
G36*
G01*
X123040000Y-86590000D02*
X123340000Y-86590000D01*
G75*
G02*
X123490000Y-86740000I0J-150000D01*
G01*
X123490000Y-88390000D01*
G75*
G02*
X123340000Y-88540000I-150000J0D01*
G01*
X123040000Y-88540000D01*
G75*
G02*
X122890000Y-88390000I0J150000D01*
G01*
X122890000Y-86740000D01*
G75*
G02*
X123040000Y-86590000I150000J0D01*
G01*
G37*
G36*
G01*
X124310000Y-86590000D02*
X124610000Y-86590000D01*
G75*
G02*
X124760000Y-86740000I0J-150000D01*
G01*
X124760000Y-88390000D01*
G75*
G02*
X124610000Y-88540000I-150000J0D01*
G01*
X124310000Y-88540000D01*
G75*
G02*
X124160000Y-88390000I0J150000D01*
G01*
X124160000Y-86740000D01*
G75*
G02*
X124310000Y-86590000I150000J0D01*
G01*
G37*
G36*
G01*
X125580000Y-86590000D02*
X125880000Y-86590000D01*
G75*
G02*
X126030000Y-86740000I0J-150000D01*
G01*
X126030000Y-88390000D01*
G75*
G02*
X125880000Y-88540000I-150000J0D01*
G01*
X125580000Y-88540000D01*
G75*
G02*
X125430000Y-88390000I0J150000D01*
G01*
X125430000Y-86740000D01*
G75*
G02*
X125580000Y-86590000I150000J0D01*
G01*
G37*
G36*
G01*
X126850000Y-86590000D02*
X127150000Y-86590000D01*
G75*
G02*
X127300000Y-86740000I0J-150000D01*
G01*
X127300000Y-88390000D01*
G75*
G02*
X127150000Y-88540000I-150000J0D01*
G01*
X126850000Y-88540000D01*
G75*
G02*
X126700000Y-88390000I0J150000D01*
G01*
X126700000Y-86740000D01*
G75*
G02*
X126850000Y-86590000I150000J0D01*
G01*
G37*
G36*
G01*
X128120000Y-86590000D02*
X128420000Y-86590000D01*
G75*
G02*
X128570000Y-86740000I0J-150000D01*
G01*
X128570000Y-88390000D01*
G75*
G02*
X128420000Y-88540000I-150000J0D01*
G01*
X128120000Y-88540000D01*
G75*
G02*
X127970000Y-88390000I0J150000D01*
G01*
X127970000Y-86740000D01*
G75*
G02*
X128120000Y-86590000I150000J0D01*
G01*
G37*
G36*
G01*
X129390000Y-86590000D02*
X129690000Y-86590000D01*
G75*
G02*
X129840000Y-86740000I0J-150000D01*
G01*
X129840000Y-88390000D01*
G75*
G02*
X129690000Y-88540000I-150000J0D01*
G01*
X129390000Y-88540000D01*
G75*
G02*
X129240000Y-88390000I0J150000D01*
G01*
X129240000Y-86740000D01*
G75*
G02*
X129390000Y-86590000I150000J0D01*
G01*
G37*
X121650000Y-71435000D03*
X121650000Y-69535000D03*
X119650000Y-70485000D03*
X126730000Y-71435000D03*
X126730000Y-69535000D03*
X124730000Y-70485000D03*
X131810000Y-71435000D03*
X131810000Y-69535000D03*
X129810000Y-70485000D03*
X136890000Y-71435000D03*
X136890000Y-69535000D03*
X134890000Y-70485000D03*
G36*
G01*
X131682500Y-88395000D02*
X131207500Y-88395000D01*
G75*
G02*
X130970000Y-88157500I0J237500D01*
G01*
X130970000Y-87582500D01*
G75*
G02*
X131207500Y-87345000I237500J0D01*
G01*
X131682500Y-87345000D01*
G75*
G02*
X131920000Y-87582500I0J-237500D01*
G01*
X131920000Y-88157500D01*
G75*
G02*
X131682500Y-88395000I-237500J0D01*
G01*
G37*
G36*
G01*
X131682500Y-86645000D02*
X131207500Y-86645000D01*
G75*
G02*
X130970000Y-86407500I0J237500D01*
G01*
X130970000Y-85832500D01*
G75*
G02*
X131207500Y-85595000I237500J0D01*
G01*
X131682500Y-85595000D01*
G75*
G02*
X131920000Y-85832500I0J-237500D01*
G01*
X131920000Y-86407500D01*
G75*
G02*
X131682500Y-86645000I-237500J0D01*
G01*
G37*
X157750000Y-70485000D03*
X159750000Y-69535000D03*
X159750000Y-71435000D03*
X152670000Y-70485000D03*
X154670000Y-69535000D03*
X154670000Y-71435000D03*
X147590000Y-70485000D03*
X149590000Y-69535000D03*
X149590000Y-71435000D03*
X142510000Y-70485000D03*
X144510000Y-69535000D03*
X144510000Y-71435000D03*
G36*
G01*
X152250000Y-86590000D02*
X152550000Y-86590000D01*
G75*
G02*
X152700000Y-86740000I0J-150000D01*
G01*
X152700000Y-88390000D01*
G75*
G02*
X152550000Y-88540000I-150000J0D01*
G01*
X152250000Y-88540000D01*
G75*
G02*
X152100000Y-88390000I0J150000D01*
G01*
X152100000Y-86740000D01*
G75*
G02*
X152250000Y-86590000I150000J0D01*
G01*
G37*
G36*
G01*
X150980000Y-86590000D02*
X151280000Y-86590000D01*
G75*
G02*
X151430000Y-86740000I0J-150000D01*
G01*
X151430000Y-88390000D01*
G75*
G02*
X151280000Y-88540000I-150000J0D01*
G01*
X150980000Y-88540000D01*
G75*
G02*
X150830000Y-88390000I0J150000D01*
G01*
X150830000Y-86740000D01*
G75*
G02*
X150980000Y-86590000I150000J0D01*
G01*
G37*
G36*
G01*
X149710000Y-86590000D02*
X150010000Y-86590000D01*
G75*
G02*
X150160000Y-86740000I0J-150000D01*
G01*
X150160000Y-88390000D01*
G75*
G02*
X150010000Y-88540000I-150000J0D01*
G01*
X149710000Y-88540000D01*
G75*
G02*
X149560000Y-88390000I0J150000D01*
G01*
X149560000Y-86740000D01*
G75*
G02*
X149710000Y-86590000I150000J0D01*
G01*
G37*
G36*
G01*
X148440000Y-86590000D02*
X148740000Y-86590000D01*
G75*
G02*
X148890000Y-86740000I0J-150000D01*
G01*
X148890000Y-88390000D01*
G75*
G02*
X148740000Y-88540000I-150000J0D01*
G01*
X148440000Y-88540000D01*
G75*
G02*
X148290000Y-88390000I0J150000D01*
G01*
X148290000Y-86740000D01*
G75*
G02*
X148440000Y-86590000I150000J0D01*
G01*
G37*
G36*
G01*
X147170000Y-86590000D02*
X147470000Y-86590000D01*
G75*
G02*
X147620000Y-86740000I0J-150000D01*
G01*
X147620000Y-88390000D01*
G75*
G02*
X147470000Y-88540000I-150000J0D01*
G01*
X147170000Y-88540000D01*
G75*
G02*
X147020000Y-88390000I0J150000D01*
G01*
X147020000Y-86740000D01*
G75*
G02*
X147170000Y-86590000I150000J0D01*
G01*
G37*
G36*
G01*
X145900000Y-86590000D02*
X146200000Y-86590000D01*
G75*
G02*
X146350000Y-86740000I0J-150000D01*
G01*
X146350000Y-88390000D01*
G75*
G02*
X146200000Y-88540000I-150000J0D01*
G01*
X145900000Y-88540000D01*
G75*
G02*
X145750000Y-88390000I0J150000D01*
G01*
X145750000Y-86740000D01*
G75*
G02*
X145900000Y-86590000I150000J0D01*
G01*
G37*
G36*
G01*
X144630000Y-86590000D02*
X144930000Y-86590000D01*
G75*
G02*
X145080000Y-86740000I0J-150000D01*
G01*
X145080000Y-88390000D01*
G75*
G02*
X144930000Y-88540000I-150000J0D01*
G01*
X144630000Y-88540000D01*
G75*
G02*
X144480000Y-88390000I0J150000D01*
G01*
X144480000Y-86740000D01*
G75*
G02*
X144630000Y-86590000I150000J0D01*
G01*
G37*
G36*
G01*
X143360000Y-86590000D02*
X143660000Y-86590000D01*
G75*
G02*
X143810000Y-86740000I0J-150000D01*
G01*
X143810000Y-88390000D01*
G75*
G02*
X143660000Y-88540000I-150000J0D01*
G01*
X143360000Y-88540000D01*
G75*
G02*
X143210000Y-88390000I0J150000D01*
G01*
X143210000Y-86740000D01*
G75*
G02*
X143360000Y-86590000I150000J0D01*
G01*
G37*
G36*
G01*
X143360000Y-81640000D02*
X143660000Y-81640000D01*
G75*
G02*
X143810000Y-81790000I0J-150000D01*
G01*
X143810000Y-83440000D01*
G75*
G02*
X143660000Y-83590000I-150000J0D01*
G01*
X143360000Y-83590000D01*
G75*
G02*
X143210000Y-83440000I0J150000D01*
G01*
X143210000Y-81790000D01*
G75*
G02*
X143360000Y-81640000I150000J0D01*
G01*
G37*
G36*
G01*
X144630000Y-81640000D02*
X144930000Y-81640000D01*
G75*
G02*
X145080000Y-81790000I0J-150000D01*
G01*
X145080000Y-83440000D01*
G75*
G02*
X144930000Y-83590000I-150000J0D01*
G01*
X144630000Y-83590000D01*
G75*
G02*
X144480000Y-83440000I0J150000D01*
G01*
X144480000Y-81790000D01*
G75*
G02*
X144630000Y-81640000I150000J0D01*
G01*
G37*
G36*
G01*
X145900000Y-81640000D02*
X146200000Y-81640000D01*
G75*
G02*
X146350000Y-81790000I0J-150000D01*
G01*
X146350000Y-83440000D01*
G75*
G02*
X146200000Y-83590000I-150000J0D01*
G01*
X145900000Y-83590000D01*
G75*
G02*
X145750000Y-83440000I0J150000D01*
G01*
X145750000Y-81790000D01*
G75*
G02*
X145900000Y-81640000I150000J0D01*
G01*
G37*
G36*
G01*
X147170000Y-81640000D02*
X147470000Y-81640000D01*
G75*
G02*
X147620000Y-81790000I0J-150000D01*
G01*
X147620000Y-83440000D01*
G75*
G02*
X147470000Y-83590000I-150000J0D01*
G01*
X147170000Y-83590000D01*
G75*
G02*
X147020000Y-83440000I0J150000D01*
G01*
X147020000Y-81790000D01*
G75*
G02*
X147170000Y-81640000I150000J0D01*
G01*
G37*
G36*
G01*
X148440000Y-81640000D02*
X148740000Y-81640000D01*
G75*
G02*
X148890000Y-81790000I0J-150000D01*
G01*
X148890000Y-83440000D01*
G75*
G02*
X148740000Y-83590000I-150000J0D01*
G01*
X148440000Y-83590000D01*
G75*
G02*
X148290000Y-83440000I0J150000D01*
G01*
X148290000Y-81790000D01*
G75*
G02*
X148440000Y-81640000I150000J0D01*
G01*
G37*
G36*
G01*
X149710000Y-81640000D02*
X150010000Y-81640000D01*
G75*
G02*
X150160000Y-81790000I0J-150000D01*
G01*
X150160000Y-83440000D01*
G75*
G02*
X150010000Y-83590000I-150000J0D01*
G01*
X149710000Y-83590000D01*
G75*
G02*
X149560000Y-83440000I0J150000D01*
G01*
X149560000Y-81790000D01*
G75*
G02*
X149710000Y-81640000I150000J0D01*
G01*
G37*
G36*
G01*
X150980000Y-81640000D02*
X151280000Y-81640000D01*
G75*
G02*
X151430000Y-81790000I0J-150000D01*
G01*
X151430000Y-83440000D01*
G75*
G02*
X151280000Y-83590000I-150000J0D01*
G01*
X150980000Y-83590000D01*
G75*
G02*
X150830000Y-83440000I0J150000D01*
G01*
X150830000Y-81790000D01*
G75*
G02*
X150980000Y-81640000I150000J0D01*
G01*
G37*
G36*
G01*
X152250000Y-81640000D02*
X152550000Y-81640000D01*
G75*
G02*
X152700000Y-81790000I0J-150000D01*
G01*
X152700000Y-83440000D01*
G75*
G02*
X152550000Y-83590000I-150000J0D01*
G01*
X152250000Y-83590000D01*
G75*
G02*
X152100000Y-83440000I0J150000D01*
G01*
X152100000Y-81790000D01*
G75*
G02*
X152250000Y-81640000I150000J0D01*
G01*
G37*
D12*
X146290000Y-107925000D03*
X150890000Y-107925000D03*
X148590000Y-107925000D03*
D13*
X148590000Y-101625000D03*
G36*
G01*
X143907500Y-75915000D02*
X144382500Y-75915000D01*
G75*
G02*
X144620000Y-76152500I0J-237500D01*
G01*
X144620000Y-76727500D01*
G75*
G02*
X144382500Y-76965000I-237500J0D01*
G01*
X143907500Y-76965000D01*
G75*
G02*
X143670000Y-76727500I0J237500D01*
G01*
X143670000Y-76152500D01*
G75*
G02*
X143907500Y-75915000I237500J0D01*
G01*
G37*
G36*
G01*
X143907500Y-74165000D02*
X144382500Y-74165000D01*
G75*
G02*
X144620000Y-74402500I0J-237500D01*
G01*
X144620000Y-74977500D01*
G75*
G02*
X144382500Y-75215000I-237500J0D01*
G01*
X143907500Y-75215000D01*
G75*
G02*
X143670000Y-74977500I0J237500D01*
G01*
X143670000Y-74402500D01*
G75*
G02*
X143907500Y-74165000I237500J0D01*
G01*
G37*
G36*
G01*
X148987500Y-75915000D02*
X149462500Y-75915000D01*
G75*
G02*
X149700000Y-76152500I0J-237500D01*
G01*
X149700000Y-76727500D01*
G75*
G02*
X149462500Y-76965000I-237500J0D01*
G01*
X148987500Y-76965000D01*
G75*
G02*
X148750000Y-76727500I0J237500D01*
G01*
X148750000Y-76152500D01*
G75*
G02*
X148987500Y-75915000I237500J0D01*
G01*
G37*
G36*
G01*
X148987500Y-74165000D02*
X149462500Y-74165000D01*
G75*
G02*
X149700000Y-74402500I0J-237500D01*
G01*
X149700000Y-74977500D01*
G75*
G02*
X149462500Y-75215000I-237500J0D01*
G01*
X148987500Y-75215000D01*
G75*
G02*
X148750000Y-74977500I0J237500D01*
G01*
X148750000Y-74402500D01*
G75*
G02*
X148987500Y-74165000I237500J0D01*
G01*
G37*
G36*
G01*
X142477500Y-75215000D02*
X142002500Y-75215000D01*
G75*
G02*
X141765000Y-74977500I0J237500D01*
G01*
X141765000Y-74402500D01*
G75*
G02*
X142002500Y-74165000I237500J0D01*
G01*
X142477500Y-74165000D01*
G75*
G02*
X142715000Y-74402500I0J-237500D01*
G01*
X142715000Y-74977500D01*
G75*
G02*
X142477500Y-75215000I-237500J0D01*
G01*
G37*
G36*
G01*
X142477500Y-76965000D02*
X142002500Y-76965000D01*
G75*
G02*
X141765000Y-76727500I0J237500D01*
G01*
X141765000Y-76152500D01*
G75*
G02*
X142002500Y-75915000I237500J0D01*
G01*
X142477500Y-75915000D01*
G75*
G02*
X142715000Y-76152500I0J-237500D01*
G01*
X142715000Y-76727500D01*
G75*
G02*
X142477500Y-76965000I-237500J0D01*
G01*
G37*
G36*
G01*
X147557500Y-75215000D02*
X147082500Y-75215000D01*
G75*
G02*
X146845000Y-74977500I0J237500D01*
G01*
X146845000Y-74402500D01*
G75*
G02*
X147082500Y-74165000I237500J0D01*
G01*
X147557500Y-74165000D01*
G75*
G02*
X147795000Y-74402500I0J-237500D01*
G01*
X147795000Y-74977500D01*
G75*
G02*
X147557500Y-75215000I-237500J0D01*
G01*
G37*
G36*
G01*
X147557500Y-76965000D02*
X147082500Y-76965000D01*
G75*
G02*
X146845000Y-76727500I0J237500D01*
G01*
X146845000Y-76152500D01*
G75*
G02*
X147082500Y-75915000I237500J0D01*
G01*
X147557500Y-75915000D01*
G75*
G02*
X147795000Y-76152500I0J-237500D01*
G01*
X147795000Y-76727500D01*
G75*
G02*
X147557500Y-76965000I-237500J0D01*
G01*
G37*
G36*
G01*
X154067500Y-74165000D02*
X154542500Y-74165000D01*
G75*
G02*
X154780000Y-74402500I0J-237500D01*
G01*
X154780000Y-74977500D01*
G75*
G02*
X154542500Y-75215000I-237500J0D01*
G01*
X154067500Y-75215000D01*
G75*
G02*
X153830000Y-74977500I0J237500D01*
G01*
X153830000Y-74402500D01*
G75*
G02*
X154067500Y-74165000I237500J0D01*
G01*
G37*
G36*
G01*
X154067500Y-75915000D02*
X154542500Y-75915000D01*
G75*
G02*
X154780000Y-76152500I0J-237500D01*
G01*
X154780000Y-76727500D01*
G75*
G02*
X154542500Y-76965000I-237500J0D01*
G01*
X154067500Y-76965000D01*
G75*
G02*
X153830000Y-76727500I0J237500D01*
G01*
X153830000Y-76152500D01*
G75*
G02*
X154067500Y-75915000I237500J0D01*
G01*
G37*
G36*
G01*
X159147500Y-75915000D02*
X159622500Y-75915000D01*
G75*
G02*
X159860000Y-76152500I0J-237500D01*
G01*
X159860000Y-76727500D01*
G75*
G02*
X159622500Y-76965000I-237500J0D01*
G01*
X159147500Y-76965000D01*
G75*
G02*
X158910000Y-76727500I0J237500D01*
G01*
X158910000Y-76152500D01*
G75*
G02*
X159147500Y-75915000I237500J0D01*
G01*
G37*
G36*
G01*
X159147500Y-74165000D02*
X159622500Y-74165000D01*
G75*
G02*
X159860000Y-74402500I0J-237500D01*
G01*
X159860000Y-74977500D01*
G75*
G02*
X159622500Y-75215000I-237500J0D01*
G01*
X159147500Y-75215000D01*
G75*
G02*
X158910000Y-74977500I0J237500D01*
G01*
X158910000Y-74402500D01*
G75*
G02*
X159147500Y-74165000I237500J0D01*
G01*
G37*
G36*
G01*
X152637500Y-76965000D02*
X152162500Y-76965000D01*
G75*
G02*
X151925000Y-76727500I0J237500D01*
G01*
X151925000Y-76152500D01*
G75*
G02*
X152162500Y-75915000I237500J0D01*
G01*
X152637500Y-75915000D01*
G75*
G02*
X152875000Y-76152500I0J-237500D01*
G01*
X152875000Y-76727500D01*
G75*
G02*
X152637500Y-76965000I-237500J0D01*
G01*
G37*
G36*
G01*
X152637500Y-75215000D02*
X152162500Y-75215000D01*
G75*
G02*
X151925000Y-74977500I0J237500D01*
G01*
X151925000Y-74402500D01*
G75*
G02*
X152162500Y-74165000I237500J0D01*
G01*
X152637500Y-74165000D01*
G75*
G02*
X152875000Y-74402500I0J-237500D01*
G01*
X152875000Y-74977500D01*
G75*
G02*
X152637500Y-75215000I-237500J0D01*
G01*
G37*
G36*
G01*
X157717500Y-75215000D02*
X157242500Y-75215000D01*
G75*
G02*
X157005000Y-74977500I0J237500D01*
G01*
X157005000Y-74402500D01*
G75*
G02*
X157242500Y-74165000I237500J0D01*
G01*
X157717500Y-74165000D01*
G75*
G02*
X157955000Y-74402500I0J-237500D01*
G01*
X157955000Y-74977500D01*
G75*
G02*
X157717500Y-75215000I-237500J0D01*
G01*
G37*
G36*
G01*
X157717500Y-76965000D02*
X157242500Y-76965000D01*
G75*
G02*
X157005000Y-76727500I0J237500D01*
G01*
X157005000Y-76152500D01*
G75*
G02*
X157242500Y-75915000I237500J0D01*
G01*
X157717500Y-75915000D01*
G75*
G02*
X157955000Y-76152500I0J-237500D01*
G01*
X157955000Y-76727500D01*
G75*
G02*
X157717500Y-76965000I-237500J0D01*
G01*
G37*
G36*
G01*
X155337500Y-101075000D02*
X155812500Y-101075000D01*
G75*
G02*
X156050000Y-101312500I0J-237500D01*
G01*
X156050000Y-101887500D01*
G75*
G02*
X155812500Y-102125000I-237500J0D01*
G01*
X155337500Y-102125000D01*
G75*
G02*
X155100000Y-101887500I0J237500D01*
G01*
X155100000Y-101312500D01*
G75*
G02*
X155337500Y-101075000I237500J0D01*
G01*
G37*
G36*
G01*
X155337500Y-99325000D02*
X155812500Y-99325000D01*
G75*
G02*
X156050000Y-99562500I0J-237500D01*
G01*
X156050000Y-100137500D01*
G75*
G02*
X155812500Y-100375000I-237500J0D01*
G01*
X155337500Y-100375000D01*
G75*
G02*
X155100000Y-100137500I0J237500D01*
G01*
X155100000Y-99562500D01*
G75*
G02*
X155337500Y-99325000I237500J0D01*
G01*
G37*
G36*
G01*
X154542500Y-86645000D02*
X154067500Y-86645000D01*
G75*
G02*
X153830000Y-86407500I0J237500D01*
G01*
X153830000Y-85832500D01*
G75*
G02*
X154067500Y-85595000I237500J0D01*
G01*
X154542500Y-85595000D01*
G75*
G02*
X154780000Y-85832500I0J-237500D01*
G01*
X154780000Y-86407500D01*
G75*
G02*
X154542500Y-86645000I-237500J0D01*
G01*
G37*
G36*
G01*
X154542500Y-88395000D02*
X154067500Y-88395000D01*
G75*
G02*
X153830000Y-88157500I0J237500D01*
G01*
X153830000Y-87582500D01*
G75*
G02*
X154067500Y-87345000I237500J0D01*
G01*
X154542500Y-87345000D01*
G75*
G02*
X154780000Y-87582500I0J-237500D01*
G01*
X154780000Y-88157500D01*
G75*
G02*
X154542500Y-88395000I-237500J0D01*
G01*
G37*
G36*
G01*
X113267500Y-89820000D02*
X112792500Y-89820000D01*
G75*
G02*
X112555000Y-89582500I0J237500D01*
G01*
X112555000Y-89007500D01*
G75*
G02*
X112792500Y-88770000I237500J0D01*
G01*
X113267500Y-88770000D01*
G75*
G02*
X113505000Y-89007500I0J-237500D01*
G01*
X113505000Y-89582500D01*
G75*
G02*
X113267500Y-89820000I-237500J0D01*
G01*
G37*
G36*
G01*
X113267500Y-91570000D02*
X112792500Y-91570000D01*
G75*
G02*
X112555000Y-91332500I0J237500D01*
G01*
X112555000Y-90757500D01*
G75*
G02*
X112792500Y-90520000I237500J0D01*
G01*
X113267500Y-90520000D01*
G75*
G02*
X113505000Y-90757500I0J-237500D01*
G01*
X113505000Y-91332500D01*
G75*
G02*
X113267500Y-91570000I-237500J0D01*
G01*
G37*
G36*
G01*
X117077500Y-89820000D02*
X116602500Y-89820000D01*
G75*
G02*
X116365000Y-89582500I0J237500D01*
G01*
X116365000Y-89007500D01*
G75*
G02*
X116602500Y-88770000I237500J0D01*
G01*
X117077500Y-88770000D01*
G75*
G02*
X117315000Y-89007500I0J-237500D01*
G01*
X117315000Y-89582500D01*
G75*
G02*
X117077500Y-89820000I-237500J0D01*
G01*
G37*
G36*
G01*
X117077500Y-91570000D02*
X116602500Y-91570000D01*
G75*
G02*
X116365000Y-91332500I0J237500D01*
G01*
X116365000Y-90757500D01*
G75*
G02*
X116602500Y-90520000I237500J0D01*
G01*
X117077500Y-90520000D01*
G75*
G02*
X117315000Y-90757500I0J-237500D01*
G01*
X117315000Y-91332500D01*
G75*
G02*
X117077500Y-91570000I-237500J0D01*
G01*
G37*
G36*
G01*
X143272500Y-105125000D02*
X143747500Y-105125000D01*
G75*
G02*
X143985000Y-105362500I0J-237500D01*
G01*
X143985000Y-105937500D01*
G75*
G02*
X143747500Y-106175000I-237500J0D01*
G01*
X143272500Y-106175000D01*
G75*
G02*
X143035000Y-105937500I0J237500D01*
G01*
X143035000Y-105362500D01*
G75*
G02*
X143272500Y-105125000I237500J0D01*
G01*
G37*
G36*
G01*
X143272500Y-103375000D02*
X143747500Y-103375000D01*
G75*
G02*
X143985000Y-103612500I0J-237500D01*
G01*
X143985000Y-104187500D01*
G75*
G02*
X143747500Y-104425000I-237500J0D01*
G01*
X143272500Y-104425000D01*
G75*
G02*
X143035000Y-104187500I0J237500D01*
G01*
X143035000Y-103612500D01*
G75*
G02*
X143272500Y-103375000I237500J0D01*
G01*
G37*
G36*
G01*
X126650000Y-112792500D02*
X126650000Y-113267500D01*
G75*
G02*
X126412500Y-113505000I-237500J0D01*
G01*
X125837500Y-113505000D01*
G75*
G02*
X125600000Y-113267500I0J237500D01*
G01*
X125600000Y-112792500D01*
G75*
G02*
X125837500Y-112555000I237500J0D01*
G01*
X126412500Y-112555000D01*
G75*
G02*
X126650000Y-112792500I0J-237500D01*
G01*
G37*
G36*
G01*
X128400000Y-112792500D02*
X128400000Y-113267500D01*
G75*
G02*
X128162500Y-113505000I-237500J0D01*
G01*
X127587500Y-113505000D01*
G75*
G02*
X127350000Y-113267500I0J237500D01*
G01*
X127350000Y-112792500D01*
G75*
G02*
X127587500Y-112555000I237500J0D01*
G01*
X128162500Y-112555000D01*
G75*
G02*
X128400000Y-112792500I0J-237500D01*
G01*
G37*
G36*
G01*
X131047500Y-94900000D02*
X130572500Y-94900000D01*
G75*
G02*
X130335000Y-94662500I0J237500D01*
G01*
X130335000Y-94087500D01*
G75*
G02*
X130572500Y-93850000I237500J0D01*
G01*
X131047500Y-93850000D01*
G75*
G02*
X131285000Y-94087500I0J-237500D01*
G01*
X131285000Y-94662500D01*
G75*
G02*
X131047500Y-94900000I-237500J0D01*
G01*
G37*
G36*
G01*
X131047500Y-96650000D02*
X130572500Y-96650000D01*
G75*
G02*
X130335000Y-96412500I0J237500D01*
G01*
X130335000Y-95837500D01*
G75*
G02*
X130572500Y-95600000I237500J0D01*
G01*
X131047500Y-95600000D01*
G75*
G02*
X131285000Y-95837500I0J-237500D01*
G01*
X131285000Y-96412500D01*
G75*
G02*
X131047500Y-96650000I-237500J0D01*
G01*
G37*
G36*
G01*
X122157500Y-107600000D02*
X121682500Y-107600000D01*
G75*
G02*
X121445000Y-107362500I0J237500D01*
G01*
X121445000Y-106787500D01*
G75*
G02*
X121682500Y-106550000I237500J0D01*
G01*
X122157500Y-106550000D01*
G75*
G02*
X122395000Y-106787500I0J-237500D01*
G01*
X122395000Y-107362500D01*
G75*
G02*
X122157500Y-107600000I-237500J0D01*
G01*
G37*
G36*
G01*
X122157500Y-109350000D02*
X121682500Y-109350000D01*
G75*
G02*
X121445000Y-109112500I0J237500D01*
G01*
X121445000Y-108537500D01*
G75*
G02*
X121682500Y-108300000I237500J0D01*
G01*
X122157500Y-108300000D01*
G75*
G02*
X122395000Y-108537500I0J-237500D01*
G01*
X122395000Y-109112500D01*
G75*
G02*
X122157500Y-109350000I-237500J0D01*
G01*
G37*
G36*
G01*
X133587500Y-94900000D02*
X133112500Y-94900000D01*
G75*
G02*
X132875000Y-94662500I0J237500D01*
G01*
X132875000Y-94087500D01*
G75*
G02*
X133112500Y-93850000I237500J0D01*
G01*
X133587500Y-93850000D01*
G75*
G02*
X133825000Y-94087500I0J-237500D01*
G01*
X133825000Y-94662500D01*
G75*
G02*
X133587500Y-94900000I-237500J0D01*
G01*
G37*
G36*
G01*
X133587500Y-96650000D02*
X133112500Y-96650000D01*
G75*
G02*
X132875000Y-96412500I0J237500D01*
G01*
X132875000Y-95837500D01*
G75*
G02*
X133112500Y-95600000I237500J0D01*
G01*
X133587500Y-95600000D01*
G75*
G02*
X133825000Y-95837500I0J-237500D01*
G01*
X133825000Y-96412500D01*
G75*
G02*
X133587500Y-96650000I-237500J0D01*
G01*
G37*
G36*
G01*
X122157500Y-103155000D02*
X121682500Y-103155000D01*
G75*
G02*
X121445000Y-102917500I0J237500D01*
G01*
X121445000Y-102342500D01*
G75*
G02*
X121682500Y-102105000I237500J0D01*
G01*
X122157500Y-102105000D01*
G75*
G02*
X122395000Y-102342500I0J-237500D01*
G01*
X122395000Y-102917500D01*
G75*
G02*
X122157500Y-103155000I-237500J0D01*
G01*
G37*
G36*
G01*
X122157500Y-104905000D02*
X121682500Y-104905000D01*
G75*
G02*
X121445000Y-104667500I0J237500D01*
G01*
X121445000Y-104092500D01*
G75*
G02*
X121682500Y-103855000I237500J0D01*
G01*
X122157500Y-103855000D01*
G75*
G02*
X122395000Y-104092500I0J-237500D01*
G01*
X122395000Y-104667500D01*
G75*
G02*
X122157500Y-104905000I-237500J0D01*
G01*
G37*
M02*
