G04 #@! TF.GenerationSoftware,KiCad,Pcbnew,(5.1.6)-1*
G04 #@! TF.CreationDate,2021-02-11T21:03:36+02:00*
G04 #@! TF.ProjectId,spectrum_analyzer,73706563-7472-4756-9d5f-616e616c797a,rev?*
G04 #@! TF.SameCoordinates,Original*
G04 #@! TF.FileFunction,Soldermask,Top*
G04 #@! TF.FilePolarity,Negative*
%FSLAX46Y46*%
G04 Gerber Fmt 4.6, Leading zero omitted, Abs format (unit mm)*
G04 Created by KiCad (PCBNEW (5.1.6)-1) date 2021-02-11 21:03:36*
%MOMM*%
%LPD*%
G01*
G04 APERTURE LIST*
%ADD10O,1.800000X1.800000*%
%ADD11R,1.800000X1.800000*%
%ADD12R,4.600000X2.100000*%
%ADD13R,1.000000X0.900000*%
%ADD14R,1.600000X2.100000*%
%ADD15R,3.900000X2.100000*%
G04 APERTURE END LIST*
G36*
G01*
X157852500Y-87295000D02*
X158377500Y-87295000D01*
G75*
G02*
X158640000Y-87557500I0J-262500D01*
G01*
X158640000Y-88182500D01*
G75*
G02*
X158377500Y-88445000I-262500J0D01*
G01*
X157852500Y-88445000D01*
G75*
G02*
X157590000Y-88182500I0J262500D01*
G01*
X157590000Y-87557500D01*
G75*
G02*
X157852500Y-87295000I262500J0D01*
G01*
G37*
G36*
G01*
X157852500Y-85545000D02*
X158377500Y-85545000D01*
G75*
G02*
X158640000Y-85807500I0J-262500D01*
G01*
X158640000Y-86432500D01*
G75*
G02*
X158377500Y-86695000I-262500J0D01*
G01*
X157852500Y-86695000D01*
G75*
G02*
X157590000Y-86432500I0J262500D01*
G01*
X157590000Y-85807500D01*
G75*
G02*
X157852500Y-85545000I262500J0D01*
G01*
G37*
G36*
G01*
X155947500Y-87295000D02*
X156472500Y-87295000D01*
G75*
G02*
X156735000Y-87557500I0J-262500D01*
G01*
X156735000Y-88182500D01*
G75*
G02*
X156472500Y-88445000I-262500J0D01*
G01*
X155947500Y-88445000D01*
G75*
G02*
X155685000Y-88182500I0J262500D01*
G01*
X155685000Y-87557500D01*
G75*
G02*
X155947500Y-87295000I262500J0D01*
G01*
G37*
G36*
G01*
X155947500Y-85545000D02*
X156472500Y-85545000D01*
G75*
G02*
X156735000Y-85807500I0J-262500D01*
G01*
X156735000Y-86432500D01*
G75*
G02*
X156472500Y-86695000I-262500J0D01*
G01*
X155947500Y-86695000D01*
G75*
G02*
X155685000Y-86432500I0J262500D01*
G01*
X155685000Y-85807500D01*
G75*
G02*
X155947500Y-85545000I262500J0D01*
G01*
G37*
G36*
G01*
X136152500Y-91140000D02*
X135627500Y-91140000D01*
G75*
G02*
X135365000Y-90877500I0J262500D01*
G01*
X135365000Y-90252500D01*
G75*
G02*
X135627500Y-89990000I262500J0D01*
G01*
X136152500Y-89990000D01*
G75*
G02*
X136415000Y-90252500I0J-262500D01*
G01*
X136415000Y-90877500D01*
G75*
G02*
X136152500Y-91140000I-262500J0D01*
G01*
G37*
G36*
G01*
X136152500Y-92890000D02*
X135627500Y-92890000D01*
G75*
G02*
X135365000Y-92627500I0J262500D01*
G01*
X135365000Y-92002500D01*
G75*
G02*
X135627500Y-91740000I262500J0D01*
G01*
X136152500Y-91740000D01*
G75*
G02*
X136415000Y-92002500I0J-262500D01*
G01*
X136415000Y-92627500D01*
G75*
G02*
X136152500Y-92890000I-262500J0D01*
G01*
G37*
G36*
G01*
X135627500Y-95550000D02*
X136152500Y-95550000D01*
G75*
G02*
X136415000Y-95812500I0J-262500D01*
G01*
X136415000Y-96437500D01*
G75*
G02*
X136152500Y-96700000I-262500J0D01*
G01*
X135627500Y-96700000D01*
G75*
G02*
X135365000Y-96437500I0J262500D01*
G01*
X135365000Y-95812500D01*
G75*
G02*
X135627500Y-95550000I262500J0D01*
G01*
G37*
G36*
G01*
X135627500Y-93800000D02*
X136152500Y-93800000D01*
G75*
G02*
X136415000Y-94062500I0J-262500D01*
G01*
X136415000Y-94687500D01*
G75*
G02*
X136152500Y-94950000I-262500J0D01*
G01*
X135627500Y-94950000D01*
G75*
G02*
X135365000Y-94687500I0J262500D01*
G01*
X135365000Y-94062500D01*
G75*
G02*
X135627500Y-93800000I262500J0D01*
G01*
G37*
G36*
G01*
X105985000Y-110862500D02*
X105985000Y-111387500D01*
G75*
G02*
X105722500Y-111650000I-262500J0D01*
G01*
X105097500Y-111650000D01*
G75*
G02*
X104835000Y-111387500I0J262500D01*
G01*
X104835000Y-110862500D01*
G75*
G02*
X105097500Y-110600000I262500J0D01*
G01*
X105722500Y-110600000D01*
G75*
G02*
X105985000Y-110862500I0J-262500D01*
G01*
G37*
G36*
G01*
X107735000Y-110862500D02*
X107735000Y-111387500D01*
G75*
G02*
X107472500Y-111650000I-262500J0D01*
G01*
X106847500Y-111650000D01*
G75*
G02*
X106585000Y-111387500I0J262500D01*
G01*
X106585000Y-110862500D01*
G75*
G02*
X106847500Y-110600000I262500J0D01*
G01*
X107472500Y-110600000D01*
G75*
G02*
X107735000Y-110862500I0J-262500D01*
G01*
G37*
D10*
X105410000Y-114300000D03*
X102870000Y-114300000D03*
X100330000Y-114300000D03*
X97790000Y-114300000D03*
X95250000Y-114300000D03*
X92710000Y-114300000D03*
X90170000Y-114300000D03*
X87630000Y-114300000D03*
X85090000Y-114300000D03*
X82550000Y-114300000D03*
X80010000Y-114300000D03*
X77470000Y-114300000D03*
X74930000Y-114300000D03*
X72390000Y-114300000D03*
X69850000Y-114300000D03*
D11*
X67310000Y-114300000D03*
G36*
G01*
X148290000Y-110862500D02*
X148290000Y-111387500D01*
G75*
G02*
X148027500Y-111650000I-262500J0D01*
G01*
X147402500Y-111650000D01*
G75*
G02*
X147140000Y-111387500I0J262500D01*
G01*
X147140000Y-110862500D01*
G75*
G02*
X147402500Y-110600000I262500J0D01*
G01*
X148027500Y-110600000D01*
G75*
G02*
X148290000Y-110862500I0J-262500D01*
G01*
G37*
G36*
G01*
X150040000Y-110862500D02*
X150040000Y-111387500D01*
G75*
G02*
X149777500Y-111650000I-262500J0D01*
G01*
X149152500Y-111650000D01*
G75*
G02*
X148890000Y-111387500I0J262500D01*
G01*
X148890000Y-110862500D01*
G75*
G02*
X149152500Y-110600000I262500J0D01*
G01*
X149777500Y-110600000D01*
G75*
G02*
X150040000Y-110862500I0J-262500D01*
G01*
G37*
D12*
X110685000Y-95250000D03*
X119185000Y-95250000D03*
D10*
X159385000Y-93980000D03*
D11*
X159385000Y-96520000D03*
G36*
G01*
X132787107Y-99116750D02*
X133812412Y-98091445D01*
G75*
G02*
X133953834Y-98091445I70711J-70711D01*
G01*
X134095255Y-98232866D01*
G75*
G02*
X134095255Y-98374288I-70711J-70711D01*
G01*
X133069950Y-99399593D01*
G75*
G02*
X132928528Y-99399593I-70711J70711D01*
G01*
X132787107Y-99258172D01*
G75*
G02*
X132787107Y-99116750I70711J70711D01*
G01*
G37*
G36*
G01*
X133140660Y-99470303D02*
X134165965Y-98444998D01*
G75*
G02*
X134307387Y-98444998I70711J-70711D01*
G01*
X134448808Y-98586419D01*
G75*
G02*
X134448808Y-98727841I-70711J-70711D01*
G01*
X133423503Y-99753146D01*
G75*
G02*
X133282081Y-99753146I-70711J70711D01*
G01*
X133140660Y-99611725D01*
G75*
G02*
X133140660Y-99470303I70711J70711D01*
G01*
G37*
G36*
G01*
X133494213Y-99823856D02*
X134519518Y-98798551D01*
G75*
G02*
X134660940Y-98798551I70711J-70711D01*
G01*
X134802361Y-98939972D01*
G75*
G02*
X134802361Y-99081394I-70711J-70711D01*
G01*
X133777056Y-100106699D01*
G75*
G02*
X133635634Y-100106699I-70711J70711D01*
G01*
X133494213Y-99965278D01*
G75*
G02*
X133494213Y-99823856I70711J70711D01*
G01*
G37*
G36*
G01*
X133847767Y-100177410D02*
X134873072Y-99152105D01*
G75*
G02*
X135014494Y-99152105I70711J-70711D01*
G01*
X135155915Y-99293526D01*
G75*
G02*
X135155915Y-99434948I-70711J-70711D01*
G01*
X134130610Y-100460253D01*
G75*
G02*
X133989188Y-100460253I-70711J70711D01*
G01*
X133847767Y-100318832D01*
G75*
G02*
X133847767Y-100177410I70711J70711D01*
G01*
G37*
G36*
G01*
X134201320Y-100530963D02*
X135226625Y-99505658D01*
G75*
G02*
X135368047Y-99505658I70711J-70711D01*
G01*
X135509468Y-99647079D01*
G75*
G02*
X135509468Y-99788501I-70711J-70711D01*
G01*
X134484163Y-100813806D01*
G75*
G02*
X134342741Y-100813806I-70711J70711D01*
G01*
X134201320Y-100672385D01*
G75*
G02*
X134201320Y-100530963I70711J70711D01*
G01*
G37*
G36*
G01*
X134554874Y-100884517D02*
X135580179Y-99859212D01*
G75*
G02*
X135721601Y-99859212I70711J-70711D01*
G01*
X135863022Y-100000633D01*
G75*
G02*
X135863022Y-100142055I-70711J-70711D01*
G01*
X134837717Y-101167360D01*
G75*
G02*
X134696295Y-101167360I-70711J70711D01*
G01*
X134554874Y-101025939D01*
G75*
G02*
X134554874Y-100884517I70711J70711D01*
G01*
G37*
G36*
G01*
X134908427Y-101238070D02*
X135933732Y-100212765D01*
G75*
G02*
X136075154Y-100212765I70711J-70711D01*
G01*
X136216575Y-100354186D01*
G75*
G02*
X136216575Y-100495608I-70711J-70711D01*
G01*
X135191270Y-101520913D01*
G75*
G02*
X135049848Y-101520913I-70711J70711D01*
G01*
X134908427Y-101379492D01*
G75*
G02*
X134908427Y-101238070I70711J70711D01*
G01*
G37*
G36*
G01*
X135261980Y-101591623D02*
X136287285Y-100566318D01*
G75*
G02*
X136428707Y-100566318I70711J-70711D01*
G01*
X136570128Y-100707739D01*
G75*
G02*
X136570128Y-100849161I-70711J-70711D01*
G01*
X135544823Y-101874466D01*
G75*
G02*
X135403401Y-101874466I-70711J70711D01*
G01*
X135261980Y-101733045D01*
G75*
G02*
X135261980Y-101591623I70711J70711D01*
G01*
G37*
G36*
G01*
X135615534Y-101945177D02*
X136640839Y-100919872D01*
G75*
G02*
X136782261Y-100919872I70711J-70711D01*
G01*
X136923682Y-101061293D01*
G75*
G02*
X136923682Y-101202715I-70711J-70711D01*
G01*
X135898377Y-102228020D01*
G75*
G02*
X135756955Y-102228020I-70711J70711D01*
G01*
X135615534Y-102086599D01*
G75*
G02*
X135615534Y-101945177I70711J70711D01*
G01*
G37*
G36*
G01*
X135969087Y-102298730D02*
X136994392Y-101273425D01*
G75*
G02*
X137135814Y-101273425I70711J-70711D01*
G01*
X137277235Y-101414846D01*
G75*
G02*
X137277235Y-101556268I-70711J-70711D01*
G01*
X136251930Y-102581573D01*
G75*
G02*
X136110508Y-102581573I-70711J70711D01*
G01*
X135969087Y-102440152D01*
G75*
G02*
X135969087Y-102298730I70711J70711D01*
G01*
G37*
G36*
G01*
X136322640Y-102652283D02*
X137347945Y-101626978D01*
G75*
G02*
X137489367Y-101626978I70711J-70711D01*
G01*
X137630788Y-101768399D01*
G75*
G02*
X137630788Y-101909821I-70711J-70711D01*
G01*
X136605483Y-102935126D01*
G75*
G02*
X136464061Y-102935126I-70711J70711D01*
G01*
X136322640Y-102793705D01*
G75*
G02*
X136322640Y-102652283I70711J70711D01*
G01*
G37*
G36*
G01*
X136676194Y-103005837D02*
X137701499Y-101980532D01*
G75*
G02*
X137842921Y-101980532I70711J-70711D01*
G01*
X137984342Y-102121953D01*
G75*
G02*
X137984342Y-102263375I-70711J-70711D01*
G01*
X136959037Y-103288680D01*
G75*
G02*
X136817615Y-103288680I-70711J70711D01*
G01*
X136676194Y-103147259D01*
G75*
G02*
X136676194Y-103005837I70711J70711D01*
G01*
G37*
G36*
G01*
X137029747Y-103359390D02*
X138055052Y-102334085D01*
G75*
G02*
X138196474Y-102334085I70711J-70711D01*
G01*
X138337895Y-102475506D01*
G75*
G02*
X138337895Y-102616928I-70711J-70711D01*
G01*
X137312590Y-103642233D01*
G75*
G02*
X137171168Y-103642233I-70711J70711D01*
G01*
X137029747Y-103500812D01*
G75*
G02*
X137029747Y-103359390I70711J70711D01*
G01*
G37*
G36*
G01*
X137383301Y-103712944D02*
X138408606Y-102687639D01*
G75*
G02*
X138550028Y-102687639I70711J-70711D01*
G01*
X138691449Y-102829060D01*
G75*
G02*
X138691449Y-102970482I-70711J-70711D01*
G01*
X137666144Y-103995787D01*
G75*
G02*
X137524722Y-103995787I-70711J70711D01*
G01*
X137383301Y-103854366D01*
G75*
G02*
X137383301Y-103712944I70711J70711D01*
G01*
G37*
G36*
G01*
X137736854Y-104066497D02*
X138762159Y-103041192D01*
G75*
G02*
X138903581Y-103041192I70711J-70711D01*
G01*
X139045002Y-103182613D01*
G75*
G02*
X139045002Y-103324035I-70711J-70711D01*
G01*
X138019697Y-104349340D01*
G75*
G02*
X137878275Y-104349340I-70711J70711D01*
G01*
X137736854Y-104207919D01*
G75*
G02*
X137736854Y-104066497I70711J70711D01*
G01*
G37*
G36*
G01*
X138090407Y-104420050D02*
X139115712Y-103394745D01*
G75*
G02*
X139257134Y-103394745I70711J-70711D01*
G01*
X139398555Y-103536166D01*
G75*
G02*
X139398555Y-103677588I-70711J-70711D01*
G01*
X138373250Y-104702893D01*
G75*
G02*
X138231828Y-104702893I-70711J70711D01*
G01*
X138090407Y-104561472D01*
G75*
G02*
X138090407Y-104420050I70711J70711D01*
G01*
G37*
G36*
G01*
X138090407Y-106258529D02*
X138231828Y-106117107D01*
G75*
G02*
X138373250Y-106117107I70711J-70711D01*
G01*
X139398555Y-107142412D01*
G75*
G02*
X139398555Y-107283834I-70711J-70711D01*
G01*
X139257134Y-107425255D01*
G75*
G02*
X139115712Y-107425255I-70711J70711D01*
G01*
X138090407Y-106399950D01*
G75*
G02*
X138090407Y-106258528I70711J70711D01*
G01*
G37*
G36*
G01*
X137736854Y-106612082D02*
X137878275Y-106470660D01*
G75*
G02*
X138019697Y-106470660I70711J-70711D01*
G01*
X139045002Y-107495965D01*
G75*
G02*
X139045002Y-107637387I-70711J-70711D01*
G01*
X138903581Y-107778808D01*
G75*
G02*
X138762159Y-107778808I-70711J70711D01*
G01*
X137736854Y-106753503D01*
G75*
G02*
X137736854Y-106612081I70711J70711D01*
G01*
G37*
G36*
G01*
X137383301Y-106965635D02*
X137524722Y-106824213D01*
G75*
G02*
X137666144Y-106824213I70711J-70711D01*
G01*
X138691449Y-107849518D01*
G75*
G02*
X138691449Y-107990940I-70711J-70711D01*
G01*
X138550028Y-108132361D01*
G75*
G02*
X138408606Y-108132361I-70711J70711D01*
G01*
X137383301Y-107107056D01*
G75*
G02*
X137383301Y-106965634I70711J70711D01*
G01*
G37*
G36*
G01*
X137029747Y-107319189D02*
X137171168Y-107177767D01*
G75*
G02*
X137312590Y-107177767I70711J-70711D01*
G01*
X138337895Y-108203072D01*
G75*
G02*
X138337895Y-108344494I-70711J-70711D01*
G01*
X138196474Y-108485915D01*
G75*
G02*
X138055052Y-108485915I-70711J70711D01*
G01*
X137029747Y-107460610D01*
G75*
G02*
X137029747Y-107319188I70711J70711D01*
G01*
G37*
G36*
G01*
X136676194Y-107672742D02*
X136817615Y-107531320D01*
G75*
G02*
X136959037Y-107531320I70711J-70711D01*
G01*
X137984342Y-108556625D01*
G75*
G02*
X137984342Y-108698047I-70711J-70711D01*
G01*
X137842921Y-108839468D01*
G75*
G02*
X137701499Y-108839468I-70711J70711D01*
G01*
X136676194Y-107814163D01*
G75*
G02*
X136676194Y-107672741I70711J70711D01*
G01*
G37*
G36*
G01*
X136322640Y-108026296D02*
X136464061Y-107884874D01*
G75*
G02*
X136605483Y-107884874I70711J-70711D01*
G01*
X137630788Y-108910179D01*
G75*
G02*
X137630788Y-109051601I-70711J-70711D01*
G01*
X137489367Y-109193022D01*
G75*
G02*
X137347945Y-109193022I-70711J70711D01*
G01*
X136322640Y-108167717D01*
G75*
G02*
X136322640Y-108026295I70711J70711D01*
G01*
G37*
G36*
G01*
X135969087Y-108379849D02*
X136110508Y-108238427D01*
G75*
G02*
X136251930Y-108238427I70711J-70711D01*
G01*
X137277235Y-109263732D01*
G75*
G02*
X137277235Y-109405154I-70711J-70711D01*
G01*
X137135814Y-109546575D01*
G75*
G02*
X136994392Y-109546575I-70711J70711D01*
G01*
X135969087Y-108521270D01*
G75*
G02*
X135969087Y-108379848I70711J70711D01*
G01*
G37*
G36*
G01*
X135615534Y-108733402D02*
X135756955Y-108591980D01*
G75*
G02*
X135898377Y-108591980I70711J-70711D01*
G01*
X136923682Y-109617285D01*
G75*
G02*
X136923682Y-109758707I-70711J-70711D01*
G01*
X136782261Y-109900128D01*
G75*
G02*
X136640839Y-109900128I-70711J70711D01*
G01*
X135615534Y-108874823D01*
G75*
G02*
X135615534Y-108733401I70711J70711D01*
G01*
G37*
G36*
G01*
X135261980Y-109086956D02*
X135403401Y-108945534D01*
G75*
G02*
X135544823Y-108945534I70711J-70711D01*
G01*
X136570128Y-109970839D01*
G75*
G02*
X136570128Y-110112261I-70711J-70711D01*
G01*
X136428707Y-110253682D01*
G75*
G02*
X136287285Y-110253682I-70711J70711D01*
G01*
X135261980Y-109228377D01*
G75*
G02*
X135261980Y-109086955I70711J70711D01*
G01*
G37*
G36*
G01*
X134908427Y-109440509D02*
X135049848Y-109299087D01*
G75*
G02*
X135191270Y-109299087I70711J-70711D01*
G01*
X136216575Y-110324392D01*
G75*
G02*
X136216575Y-110465814I-70711J-70711D01*
G01*
X136075154Y-110607235D01*
G75*
G02*
X135933732Y-110607235I-70711J70711D01*
G01*
X134908427Y-109581930D01*
G75*
G02*
X134908427Y-109440508I70711J70711D01*
G01*
G37*
G36*
G01*
X134554874Y-109794062D02*
X134696295Y-109652640D01*
G75*
G02*
X134837717Y-109652640I70711J-70711D01*
G01*
X135863022Y-110677945D01*
G75*
G02*
X135863022Y-110819367I-70711J-70711D01*
G01*
X135721601Y-110960788D01*
G75*
G02*
X135580179Y-110960788I-70711J70711D01*
G01*
X134554874Y-109935483D01*
G75*
G02*
X134554874Y-109794061I70711J70711D01*
G01*
G37*
G36*
G01*
X134201320Y-110147616D02*
X134342741Y-110006194D01*
G75*
G02*
X134484163Y-110006194I70711J-70711D01*
G01*
X135509468Y-111031499D01*
G75*
G02*
X135509468Y-111172921I-70711J-70711D01*
G01*
X135368047Y-111314342D01*
G75*
G02*
X135226625Y-111314342I-70711J70711D01*
G01*
X134201320Y-110289037D01*
G75*
G02*
X134201320Y-110147615I70711J70711D01*
G01*
G37*
G36*
G01*
X133847767Y-110501169D02*
X133989188Y-110359747D01*
G75*
G02*
X134130610Y-110359747I70711J-70711D01*
G01*
X135155915Y-111385052D01*
G75*
G02*
X135155915Y-111526474I-70711J-70711D01*
G01*
X135014494Y-111667895D01*
G75*
G02*
X134873072Y-111667895I-70711J70711D01*
G01*
X133847767Y-110642590D01*
G75*
G02*
X133847767Y-110501168I70711J70711D01*
G01*
G37*
G36*
G01*
X133494213Y-110854723D02*
X133635634Y-110713301D01*
G75*
G02*
X133777056Y-110713301I70711J-70711D01*
G01*
X134802361Y-111738606D01*
G75*
G02*
X134802361Y-111880028I-70711J-70711D01*
G01*
X134660940Y-112021449D01*
G75*
G02*
X134519518Y-112021449I-70711J70711D01*
G01*
X133494213Y-110996144D01*
G75*
G02*
X133494213Y-110854722I70711J70711D01*
G01*
G37*
G36*
G01*
X133140660Y-111208276D02*
X133282081Y-111066854D01*
G75*
G02*
X133423503Y-111066854I70711J-70711D01*
G01*
X134448808Y-112092159D01*
G75*
G02*
X134448808Y-112233581I-70711J-70711D01*
G01*
X134307387Y-112375002D01*
G75*
G02*
X134165965Y-112375002I-70711J70711D01*
G01*
X133140660Y-111349697D01*
G75*
G02*
X133140660Y-111208275I70711J70711D01*
G01*
G37*
G36*
G01*
X132787107Y-111561829D02*
X132928528Y-111420407D01*
G75*
G02*
X133069950Y-111420407I70711J-70711D01*
G01*
X134095255Y-112445712D01*
G75*
G02*
X134095255Y-112587134I-70711J-70711D01*
G01*
X133953834Y-112728555D01*
G75*
G02*
X133812412Y-112728555I-70711J70711D01*
G01*
X132787107Y-111703250D01*
G75*
G02*
X132787107Y-111561828I70711J70711D01*
G01*
G37*
G36*
G01*
X130064745Y-112445712D02*
X131090050Y-111420407D01*
G75*
G02*
X131231472Y-111420407I70711J-70711D01*
G01*
X131372893Y-111561828D01*
G75*
G02*
X131372893Y-111703250I-70711J-70711D01*
G01*
X130347588Y-112728555D01*
G75*
G02*
X130206166Y-112728555I-70711J70711D01*
G01*
X130064745Y-112587134D01*
G75*
G02*
X130064745Y-112445712I70711J70711D01*
G01*
G37*
G36*
G01*
X129711192Y-112092159D02*
X130736497Y-111066854D01*
G75*
G02*
X130877919Y-111066854I70711J-70711D01*
G01*
X131019340Y-111208275D01*
G75*
G02*
X131019340Y-111349697I-70711J-70711D01*
G01*
X129994035Y-112375002D01*
G75*
G02*
X129852613Y-112375002I-70711J70711D01*
G01*
X129711192Y-112233581D01*
G75*
G02*
X129711192Y-112092159I70711J70711D01*
G01*
G37*
G36*
G01*
X129357639Y-111738606D02*
X130382944Y-110713301D01*
G75*
G02*
X130524366Y-110713301I70711J-70711D01*
G01*
X130665787Y-110854722D01*
G75*
G02*
X130665787Y-110996144I-70711J-70711D01*
G01*
X129640482Y-112021449D01*
G75*
G02*
X129499060Y-112021449I-70711J70711D01*
G01*
X129357639Y-111880028D01*
G75*
G02*
X129357639Y-111738606I70711J70711D01*
G01*
G37*
G36*
G01*
X129004085Y-111385052D02*
X130029390Y-110359747D01*
G75*
G02*
X130170812Y-110359747I70711J-70711D01*
G01*
X130312233Y-110501168D01*
G75*
G02*
X130312233Y-110642590I-70711J-70711D01*
G01*
X129286928Y-111667895D01*
G75*
G02*
X129145506Y-111667895I-70711J70711D01*
G01*
X129004085Y-111526474D01*
G75*
G02*
X129004085Y-111385052I70711J70711D01*
G01*
G37*
G36*
G01*
X128650532Y-111031499D02*
X129675837Y-110006194D01*
G75*
G02*
X129817259Y-110006194I70711J-70711D01*
G01*
X129958680Y-110147615D01*
G75*
G02*
X129958680Y-110289037I-70711J-70711D01*
G01*
X128933375Y-111314342D01*
G75*
G02*
X128791953Y-111314342I-70711J70711D01*
G01*
X128650532Y-111172921D01*
G75*
G02*
X128650532Y-111031499I70711J70711D01*
G01*
G37*
G36*
G01*
X128296978Y-110677945D02*
X129322283Y-109652640D01*
G75*
G02*
X129463705Y-109652640I70711J-70711D01*
G01*
X129605126Y-109794061D01*
G75*
G02*
X129605126Y-109935483I-70711J-70711D01*
G01*
X128579821Y-110960788D01*
G75*
G02*
X128438399Y-110960788I-70711J70711D01*
G01*
X128296978Y-110819367D01*
G75*
G02*
X128296978Y-110677945I70711J70711D01*
G01*
G37*
G36*
G01*
X127943425Y-110324392D02*
X128968730Y-109299087D01*
G75*
G02*
X129110152Y-109299087I70711J-70711D01*
G01*
X129251573Y-109440508D01*
G75*
G02*
X129251573Y-109581930I-70711J-70711D01*
G01*
X128226268Y-110607235D01*
G75*
G02*
X128084846Y-110607235I-70711J70711D01*
G01*
X127943425Y-110465814D01*
G75*
G02*
X127943425Y-110324392I70711J70711D01*
G01*
G37*
G36*
G01*
X127589872Y-109970839D02*
X128615177Y-108945534D01*
G75*
G02*
X128756599Y-108945534I70711J-70711D01*
G01*
X128898020Y-109086955D01*
G75*
G02*
X128898020Y-109228377I-70711J-70711D01*
G01*
X127872715Y-110253682D01*
G75*
G02*
X127731293Y-110253682I-70711J70711D01*
G01*
X127589872Y-110112261D01*
G75*
G02*
X127589872Y-109970839I70711J70711D01*
G01*
G37*
G36*
G01*
X127236318Y-109617285D02*
X128261623Y-108591980D01*
G75*
G02*
X128403045Y-108591980I70711J-70711D01*
G01*
X128544466Y-108733401D01*
G75*
G02*
X128544466Y-108874823I-70711J-70711D01*
G01*
X127519161Y-109900128D01*
G75*
G02*
X127377739Y-109900128I-70711J70711D01*
G01*
X127236318Y-109758707D01*
G75*
G02*
X127236318Y-109617285I70711J70711D01*
G01*
G37*
G36*
G01*
X126882765Y-109263732D02*
X127908070Y-108238427D01*
G75*
G02*
X128049492Y-108238427I70711J-70711D01*
G01*
X128190913Y-108379848D01*
G75*
G02*
X128190913Y-108521270I-70711J-70711D01*
G01*
X127165608Y-109546575D01*
G75*
G02*
X127024186Y-109546575I-70711J70711D01*
G01*
X126882765Y-109405154D01*
G75*
G02*
X126882765Y-109263732I70711J70711D01*
G01*
G37*
G36*
G01*
X126529212Y-108910179D02*
X127554517Y-107884874D01*
G75*
G02*
X127695939Y-107884874I70711J-70711D01*
G01*
X127837360Y-108026295D01*
G75*
G02*
X127837360Y-108167717I-70711J-70711D01*
G01*
X126812055Y-109193022D01*
G75*
G02*
X126670633Y-109193022I-70711J70711D01*
G01*
X126529212Y-109051601D01*
G75*
G02*
X126529212Y-108910179I70711J70711D01*
G01*
G37*
G36*
G01*
X126175658Y-108556625D02*
X127200963Y-107531320D01*
G75*
G02*
X127342385Y-107531320I70711J-70711D01*
G01*
X127483806Y-107672741D01*
G75*
G02*
X127483806Y-107814163I-70711J-70711D01*
G01*
X126458501Y-108839468D01*
G75*
G02*
X126317079Y-108839468I-70711J70711D01*
G01*
X126175658Y-108698047D01*
G75*
G02*
X126175658Y-108556625I70711J70711D01*
G01*
G37*
G36*
G01*
X125822105Y-108203072D02*
X126847410Y-107177767D01*
G75*
G02*
X126988832Y-107177767I70711J-70711D01*
G01*
X127130253Y-107319188D01*
G75*
G02*
X127130253Y-107460610I-70711J-70711D01*
G01*
X126104948Y-108485915D01*
G75*
G02*
X125963526Y-108485915I-70711J70711D01*
G01*
X125822105Y-108344494D01*
G75*
G02*
X125822105Y-108203072I70711J70711D01*
G01*
G37*
G36*
G01*
X125468551Y-107849518D02*
X126493856Y-106824213D01*
G75*
G02*
X126635278Y-106824213I70711J-70711D01*
G01*
X126776699Y-106965634D01*
G75*
G02*
X126776699Y-107107056I-70711J-70711D01*
G01*
X125751394Y-108132361D01*
G75*
G02*
X125609972Y-108132361I-70711J70711D01*
G01*
X125468551Y-107990940D01*
G75*
G02*
X125468551Y-107849518I70711J70711D01*
G01*
G37*
G36*
G01*
X125114998Y-107495965D02*
X126140303Y-106470660D01*
G75*
G02*
X126281725Y-106470660I70711J-70711D01*
G01*
X126423146Y-106612081D01*
G75*
G02*
X126423146Y-106753503I-70711J-70711D01*
G01*
X125397841Y-107778808D01*
G75*
G02*
X125256419Y-107778808I-70711J70711D01*
G01*
X125114998Y-107637387D01*
G75*
G02*
X125114998Y-107495965I70711J70711D01*
G01*
G37*
G36*
G01*
X124761445Y-107142412D02*
X125786750Y-106117107D01*
G75*
G02*
X125928172Y-106117107I70711J-70711D01*
G01*
X126069593Y-106258528D01*
G75*
G02*
X126069593Y-106399950I-70711J-70711D01*
G01*
X125044288Y-107425255D01*
G75*
G02*
X124902866Y-107425255I-70711J70711D01*
G01*
X124761445Y-107283834D01*
G75*
G02*
X124761445Y-107142412I70711J70711D01*
G01*
G37*
G36*
G01*
X124761445Y-103536167D02*
X124902866Y-103394745D01*
G75*
G02*
X125044288Y-103394745I70711J-70711D01*
G01*
X126069593Y-104420050D01*
G75*
G02*
X126069593Y-104561472I-70711J-70711D01*
G01*
X125928172Y-104702893D01*
G75*
G02*
X125786750Y-104702893I-70711J70711D01*
G01*
X124761445Y-103677588D01*
G75*
G02*
X124761445Y-103536166I70711J70711D01*
G01*
G37*
G36*
G01*
X125114998Y-103182614D02*
X125256419Y-103041192D01*
G75*
G02*
X125397841Y-103041192I70711J-70711D01*
G01*
X126423146Y-104066497D01*
G75*
G02*
X126423146Y-104207919I-70711J-70711D01*
G01*
X126281725Y-104349340D01*
G75*
G02*
X126140303Y-104349340I-70711J70711D01*
G01*
X125114998Y-103324035D01*
G75*
G02*
X125114998Y-103182613I70711J70711D01*
G01*
G37*
G36*
G01*
X125468551Y-102829061D02*
X125609972Y-102687639D01*
G75*
G02*
X125751394Y-102687639I70711J-70711D01*
G01*
X126776699Y-103712944D01*
G75*
G02*
X126776699Y-103854366I-70711J-70711D01*
G01*
X126635278Y-103995787D01*
G75*
G02*
X126493856Y-103995787I-70711J70711D01*
G01*
X125468551Y-102970482D01*
G75*
G02*
X125468551Y-102829060I70711J70711D01*
G01*
G37*
G36*
G01*
X125822105Y-102475507D02*
X125963526Y-102334085D01*
G75*
G02*
X126104948Y-102334085I70711J-70711D01*
G01*
X127130253Y-103359390D01*
G75*
G02*
X127130253Y-103500812I-70711J-70711D01*
G01*
X126988832Y-103642233D01*
G75*
G02*
X126847410Y-103642233I-70711J70711D01*
G01*
X125822105Y-102616928D01*
G75*
G02*
X125822105Y-102475506I70711J70711D01*
G01*
G37*
G36*
G01*
X126175658Y-102121954D02*
X126317079Y-101980532D01*
G75*
G02*
X126458501Y-101980532I70711J-70711D01*
G01*
X127483806Y-103005837D01*
G75*
G02*
X127483806Y-103147259I-70711J-70711D01*
G01*
X127342385Y-103288680D01*
G75*
G02*
X127200963Y-103288680I-70711J70711D01*
G01*
X126175658Y-102263375D01*
G75*
G02*
X126175658Y-102121953I70711J70711D01*
G01*
G37*
G36*
G01*
X126529212Y-101768400D02*
X126670633Y-101626978D01*
G75*
G02*
X126812055Y-101626978I70711J-70711D01*
G01*
X127837360Y-102652283D01*
G75*
G02*
X127837360Y-102793705I-70711J-70711D01*
G01*
X127695939Y-102935126D01*
G75*
G02*
X127554517Y-102935126I-70711J70711D01*
G01*
X126529212Y-101909821D01*
G75*
G02*
X126529212Y-101768399I70711J70711D01*
G01*
G37*
G36*
G01*
X126882765Y-101414847D02*
X127024186Y-101273425D01*
G75*
G02*
X127165608Y-101273425I70711J-70711D01*
G01*
X128190913Y-102298730D01*
G75*
G02*
X128190913Y-102440152I-70711J-70711D01*
G01*
X128049492Y-102581573D01*
G75*
G02*
X127908070Y-102581573I-70711J70711D01*
G01*
X126882765Y-101556268D01*
G75*
G02*
X126882765Y-101414846I70711J70711D01*
G01*
G37*
G36*
G01*
X127236318Y-101061294D02*
X127377739Y-100919872D01*
G75*
G02*
X127519161Y-100919872I70711J-70711D01*
G01*
X128544466Y-101945177D01*
G75*
G02*
X128544466Y-102086599I-70711J-70711D01*
G01*
X128403045Y-102228020D01*
G75*
G02*
X128261623Y-102228020I-70711J70711D01*
G01*
X127236318Y-101202715D01*
G75*
G02*
X127236318Y-101061293I70711J70711D01*
G01*
G37*
G36*
G01*
X127589872Y-100707740D02*
X127731293Y-100566318D01*
G75*
G02*
X127872715Y-100566318I70711J-70711D01*
G01*
X128898020Y-101591623D01*
G75*
G02*
X128898020Y-101733045I-70711J-70711D01*
G01*
X128756599Y-101874466D01*
G75*
G02*
X128615177Y-101874466I-70711J70711D01*
G01*
X127589872Y-100849161D01*
G75*
G02*
X127589872Y-100707739I70711J70711D01*
G01*
G37*
G36*
G01*
X127943425Y-100354187D02*
X128084846Y-100212765D01*
G75*
G02*
X128226268Y-100212765I70711J-70711D01*
G01*
X129251573Y-101238070D01*
G75*
G02*
X129251573Y-101379492I-70711J-70711D01*
G01*
X129110152Y-101520913D01*
G75*
G02*
X128968730Y-101520913I-70711J70711D01*
G01*
X127943425Y-100495608D01*
G75*
G02*
X127943425Y-100354186I70711J70711D01*
G01*
G37*
G36*
G01*
X128296978Y-100000634D02*
X128438399Y-99859212D01*
G75*
G02*
X128579821Y-99859212I70711J-70711D01*
G01*
X129605126Y-100884517D01*
G75*
G02*
X129605126Y-101025939I-70711J-70711D01*
G01*
X129463705Y-101167360D01*
G75*
G02*
X129322283Y-101167360I-70711J70711D01*
G01*
X128296978Y-100142055D01*
G75*
G02*
X128296978Y-100000633I70711J70711D01*
G01*
G37*
G36*
G01*
X128650532Y-99647080D02*
X128791953Y-99505658D01*
G75*
G02*
X128933375Y-99505658I70711J-70711D01*
G01*
X129958680Y-100530963D01*
G75*
G02*
X129958680Y-100672385I-70711J-70711D01*
G01*
X129817259Y-100813806D01*
G75*
G02*
X129675837Y-100813806I-70711J70711D01*
G01*
X128650532Y-99788501D01*
G75*
G02*
X128650532Y-99647079I70711J70711D01*
G01*
G37*
G36*
G01*
X129004085Y-99293527D02*
X129145506Y-99152105D01*
G75*
G02*
X129286928Y-99152105I70711J-70711D01*
G01*
X130312233Y-100177410D01*
G75*
G02*
X130312233Y-100318832I-70711J-70711D01*
G01*
X130170812Y-100460253D01*
G75*
G02*
X130029390Y-100460253I-70711J70711D01*
G01*
X129004085Y-99434948D01*
G75*
G02*
X129004085Y-99293526I70711J70711D01*
G01*
G37*
G36*
G01*
X129357639Y-98939973D02*
X129499060Y-98798551D01*
G75*
G02*
X129640482Y-98798551I70711J-70711D01*
G01*
X130665787Y-99823856D01*
G75*
G02*
X130665787Y-99965278I-70711J-70711D01*
G01*
X130524366Y-100106699D01*
G75*
G02*
X130382944Y-100106699I-70711J70711D01*
G01*
X129357639Y-99081394D01*
G75*
G02*
X129357639Y-98939972I70711J70711D01*
G01*
G37*
G36*
G01*
X129711192Y-98586420D02*
X129852613Y-98444998D01*
G75*
G02*
X129994035Y-98444998I70711J-70711D01*
G01*
X131019340Y-99470303D01*
G75*
G02*
X131019340Y-99611725I-70711J-70711D01*
G01*
X130877919Y-99753146D01*
G75*
G02*
X130736497Y-99753146I-70711J70711D01*
G01*
X129711192Y-98727841D01*
G75*
G02*
X129711192Y-98586419I70711J70711D01*
G01*
G37*
G36*
G01*
X130064745Y-98232867D02*
X130206166Y-98091445D01*
G75*
G02*
X130347588Y-98091445I70711J-70711D01*
G01*
X131372893Y-99116750D01*
G75*
G02*
X131372893Y-99258172I-70711J-70711D01*
G01*
X131231472Y-99399593D01*
G75*
G02*
X131090050Y-99399593I-70711J70711D01*
G01*
X130064745Y-98374288D01*
G75*
G02*
X130064745Y-98232866I70711J70711D01*
G01*
G37*
G36*
G01*
X94987500Y-108405001D02*
X95512500Y-108405001D01*
G75*
G02*
X95775000Y-108667501I0J-262500D01*
G01*
X95775000Y-109292501D01*
G75*
G02*
X95512500Y-109555001I-262500J0D01*
G01*
X94987500Y-109555001D01*
G75*
G02*
X94725000Y-109292501I0J262500D01*
G01*
X94725000Y-108667501D01*
G75*
G02*
X94987500Y-108405001I262500J0D01*
G01*
G37*
G36*
G01*
X94987500Y-110155001D02*
X95512500Y-110155001D01*
G75*
G02*
X95775000Y-110417501I0J-262500D01*
G01*
X95775000Y-111042501D01*
G75*
G02*
X95512500Y-111305001I-262500J0D01*
G01*
X94987500Y-111305001D01*
G75*
G02*
X94725000Y-111042501I0J262500D01*
G01*
X94725000Y-110417501D01*
G75*
G02*
X94987500Y-110155001I262500J0D01*
G01*
G37*
G36*
G01*
X102607500Y-108405000D02*
X103132500Y-108405000D01*
G75*
G02*
X103395000Y-108667500I0J-262500D01*
G01*
X103395000Y-109292500D01*
G75*
G02*
X103132500Y-109555000I-262500J0D01*
G01*
X102607500Y-109555000D01*
G75*
G02*
X102345000Y-109292500I0J262500D01*
G01*
X102345000Y-108667500D01*
G75*
G02*
X102607500Y-108405000I262500J0D01*
G01*
G37*
G36*
G01*
X102607500Y-110155000D02*
X103132500Y-110155000D01*
G75*
G02*
X103395000Y-110417500I0J-262500D01*
G01*
X103395000Y-111042500D01*
G75*
G02*
X103132500Y-111305000I-262500J0D01*
G01*
X102607500Y-111305000D01*
G75*
G02*
X102345000Y-111042500I0J262500D01*
G01*
X102345000Y-110417500D01*
G75*
G02*
X102607500Y-110155000I262500J0D01*
G01*
G37*
G36*
G01*
X100067500Y-108405000D02*
X100592500Y-108405000D01*
G75*
G02*
X100855000Y-108667500I0J-262500D01*
G01*
X100855000Y-109292500D01*
G75*
G02*
X100592500Y-109555000I-262500J0D01*
G01*
X100067500Y-109555000D01*
G75*
G02*
X99805000Y-109292500I0J262500D01*
G01*
X99805000Y-108667500D01*
G75*
G02*
X100067500Y-108405000I262500J0D01*
G01*
G37*
G36*
G01*
X100067500Y-110155000D02*
X100592500Y-110155000D01*
G75*
G02*
X100855000Y-110417500I0J-262500D01*
G01*
X100855000Y-111042500D01*
G75*
G02*
X100592500Y-111305000I-262500J0D01*
G01*
X100067500Y-111305000D01*
G75*
G02*
X99805000Y-111042500I0J262500D01*
G01*
X99805000Y-110417500D01*
G75*
G02*
X100067500Y-110155000I262500J0D01*
G01*
G37*
G36*
G01*
X97527500Y-108405001D02*
X98052500Y-108405001D01*
G75*
G02*
X98315000Y-108667501I0J-262500D01*
G01*
X98315000Y-109292501D01*
G75*
G02*
X98052500Y-109555001I-262500J0D01*
G01*
X97527500Y-109555001D01*
G75*
G02*
X97265000Y-109292501I0J262500D01*
G01*
X97265000Y-108667501D01*
G75*
G02*
X97527500Y-108405001I262500J0D01*
G01*
G37*
G36*
G01*
X97527500Y-110155001D02*
X98052500Y-110155001D01*
G75*
G02*
X98315000Y-110417501I0J-262500D01*
G01*
X98315000Y-111042501D01*
G75*
G02*
X98052500Y-111305001I-262500J0D01*
G01*
X97527500Y-111305001D01*
G75*
G02*
X97265000Y-111042501I0J262500D01*
G01*
X97265000Y-110417501D01*
G75*
G02*
X97527500Y-110155001I262500J0D01*
G01*
G37*
G36*
G01*
X92447500Y-108405001D02*
X92972500Y-108405001D01*
G75*
G02*
X93235000Y-108667501I0J-262500D01*
G01*
X93235000Y-109292501D01*
G75*
G02*
X92972500Y-109555001I-262500J0D01*
G01*
X92447500Y-109555001D01*
G75*
G02*
X92185000Y-109292501I0J262500D01*
G01*
X92185000Y-108667501D01*
G75*
G02*
X92447500Y-108405001I262500J0D01*
G01*
G37*
G36*
G01*
X92447500Y-110155001D02*
X92972500Y-110155001D01*
G75*
G02*
X93235000Y-110417501I0J-262500D01*
G01*
X93235000Y-111042501D01*
G75*
G02*
X92972500Y-111305001I-262500J0D01*
G01*
X92447500Y-111305001D01*
G75*
G02*
X92185000Y-111042501I0J262500D01*
G01*
X92185000Y-110417501D01*
G75*
G02*
X92447500Y-110155001I262500J0D01*
G01*
G37*
G36*
G01*
X89907500Y-108405000D02*
X90432500Y-108405000D01*
G75*
G02*
X90695000Y-108667500I0J-262500D01*
G01*
X90695000Y-109292500D01*
G75*
G02*
X90432500Y-109555000I-262500J0D01*
G01*
X89907500Y-109555000D01*
G75*
G02*
X89645000Y-109292500I0J262500D01*
G01*
X89645000Y-108667500D01*
G75*
G02*
X89907500Y-108405000I262500J0D01*
G01*
G37*
G36*
G01*
X89907500Y-110155000D02*
X90432500Y-110155000D01*
G75*
G02*
X90695000Y-110417500I0J-262500D01*
G01*
X90695000Y-111042500D01*
G75*
G02*
X90432500Y-111305000I-262500J0D01*
G01*
X89907500Y-111305000D01*
G75*
G02*
X89645000Y-111042500I0J262500D01*
G01*
X89645000Y-110417500D01*
G75*
G02*
X89907500Y-110155000I262500J0D01*
G01*
G37*
G36*
G01*
X84827500Y-108405001D02*
X85352500Y-108405001D01*
G75*
G02*
X85615000Y-108667501I0J-262500D01*
G01*
X85615000Y-109292501D01*
G75*
G02*
X85352500Y-109555001I-262500J0D01*
G01*
X84827500Y-109555001D01*
G75*
G02*
X84565000Y-109292501I0J262500D01*
G01*
X84565000Y-108667501D01*
G75*
G02*
X84827500Y-108405001I262500J0D01*
G01*
G37*
G36*
G01*
X84827500Y-110155001D02*
X85352500Y-110155001D01*
G75*
G02*
X85615000Y-110417501I0J-262500D01*
G01*
X85615000Y-111042501D01*
G75*
G02*
X85352500Y-111305001I-262500J0D01*
G01*
X84827500Y-111305001D01*
G75*
G02*
X84565000Y-111042501I0J262500D01*
G01*
X84565000Y-110417501D01*
G75*
G02*
X84827500Y-110155001I262500J0D01*
G01*
G37*
G36*
G01*
X77207500Y-108405000D02*
X77732500Y-108405000D01*
G75*
G02*
X77995000Y-108667500I0J-262500D01*
G01*
X77995000Y-109292500D01*
G75*
G02*
X77732500Y-109555000I-262500J0D01*
G01*
X77207500Y-109555000D01*
G75*
G02*
X76945000Y-109292500I0J262500D01*
G01*
X76945000Y-108667500D01*
G75*
G02*
X77207500Y-108405000I262500J0D01*
G01*
G37*
G36*
G01*
X77207500Y-110155000D02*
X77732500Y-110155000D01*
G75*
G02*
X77995000Y-110417500I0J-262500D01*
G01*
X77995000Y-111042500D01*
G75*
G02*
X77732500Y-111305000I-262500J0D01*
G01*
X77207500Y-111305000D01*
G75*
G02*
X76945000Y-111042500I0J262500D01*
G01*
X76945000Y-110417500D01*
G75*
G02*
X77207500Y-110155000I262500J0D01*
G01*
G37*
G36*
G01*
X72127500Y-108405001D02*
X72652500Y-108405001D01*
G75*
G02*
X72915000Y-108667501I0J-262500D01*
G01*
X72915000Y-109292501D01*
G75*
G02*
X72652500Y-109555001I-262500J0D01*
G01*
X72127500Y-109555001D01*
G75*
G02*
X71865000Y-109292501I0J262500D01*
G01*
X71865000Y-108667501D01*
G75*
G02*
X72127500Y-108405001I262500J0D01*
G01*
G37*
G36*
G01*
X72127500Y-110155001D02*
X72652500Y-110155001D01*
G75*
G02*
X72915000Y-110417501I0J-262500D01*
G01*
X72915000Y-111042501D01*
G75*
G02*
X72652500Y-111305001I-262500J0D01*
G01*
X72127500Y-111305001D01*
G75*
G02*
X71865000Y-111042501I0J262500D01*
G01*
X71865000Y-110417501D01*
G75*
G02*
X72127500Y-110155001I262500J0D01*
G01*
G37*
G36*
G01*
X67047500Y-110155000D02*
X67572500Y-110155000D01*
G75*
G02*
X67835000Y-110417500I0J-262500D01*
G01*
X67835000Y-111042500D01*
G75*
G02*
X67572500Y-111305000I-262500J0D01*
G01*
X67047500Y-111305000D01*
G75*
G02*
X66785000Y-111042500I0J262500D01*
G01*
X66785000Y-110417500D01*
G75*
G02*
X67047500Y-110155000I262500J0D01*
G01*
G37*
G36*
G01*
X67047500Y-108405000D02*
X67572500Y-108405000D01*
G75*
G02*
X67835000Y-108667500I0J-262500D01*
G01*
X67835000Y-109292500D01*
G75*
G02*
X67572500Y-109555000I-262500J0D01*
G01*
X67047500Y-109555000D01*
G75*
G02*
X66785000Y-109292500I0J262500D01*
G01*
X66785000Y-108667500D01*
G75*
G02*
X67047500Y-108405000I262500J0D01*
G01*
G37*
G36*
G01*
X79747500Y-108405000D02*
X80272500Y-108405000D01*
G75*
G02*
X80535000Y-108667500I0J-262500D01*
G01*
X80535000Y-109292500D01*
G75*
G02*
X80272500Y-109555000I-262500J0D01*
G01*
X79747500Y-109555000D01*
G75*
G02*
X79485000Y-109292500I0J262500D01*
G01*
X79485000Y-108667500D01*
G75*
G02*
X79747500Y-108405000I262500J0D01*
G01*
G37*
G36*
G01*
X79747500Y-110155000D02*
X80272500Y-110155000D01*
G75*
G02*
X80535000Y-110417500I0J-262500D01*
G01*
X80535000Y-111042500D01*
G75*
G02*
X80272500Y-111305000I-262500J0D01*
G01*
X79747500Y-111305000D01*
G75*
G02*
X79485000Y-111042500I0J262500D01*
G01*
X79485000Y-110417500D01*
G75*
G02*
X79747500Y-110155000I262500J0D01*
G01*
G37*
G36*
G01*
X82287500Y-108405001D02*
X82812500Y-108405001D01*
G75*
G02*
X83075000Y-108667501I0J-262500D01*
G01*
X83075000Y-109292501D01*
G75*
G02*
X82812500Y-109555001I-262500J0D01*
G01*
X82287500Y-109555001D01*
G75*
G02*
X82025000Y-109292501I0J262500D01*
G01*
X82025000Y-108667501D01*
G75*
G02*
X82287500Y-108405001I262500J0D01*
G01*
G37*
G36*
G01*
X82287500Y-110155001D02*
X82812500Y-110155001D01*
G75*
G02*
X83075000Y-110417501I0J-262500D01*
G01*
X83075000Y-111042501D01*
G75*
G02*
X82812500Y-111305001I-262500J0D01*
G01*
X82287500Y-111305001D01*
G75*
G02*
X82025000Y-111042501I0J262500D01*
G01*
X82025000Y-110417501D01*
G75*
G02*
X82287500Y-110155001I262500J0D01*
G01*
G37*
G36*
G01*
X87367499Y-108405001D02*
X87892499Y-108405001D01*
G75*
G02*
X88154999Y-108667501I0J-262500D01*
G01*
X88154999Y-109292501D01*
G75*
G02*
X87892499Y-109555001I-262500J0D01*
G01*
X87367499Y-109555001D01*
G75*
G02*
X87104999Y-109292501I0J262500D01*
G01*
X87104999Y-108667501D01*
G75*
G02*
X87367499Y-108405001I262500J0D01*
G01*
G37*
G36*
G01*
X87367499Y-110155001D02*
X87892499Y-110155001D01*
G75*
G02*
X88154999Y-110417501I0J-262500D01*
G01*
X88154999Y-111042501D01*
G75*
G02*
X87892499Y-111305001I-262500J0D01*
G01*
X87367499Y-111305001D01*
G75*
G02*
X87104999Y-111042501I0J262500D01*
G01*
X87104999Y-110417501D01*
G75*
G02*
X87367499Y-110155001I262500J0D01*
G01*
G37*
G36*
G01*
X74667500Y-108405001D02*
X75192500Y-108405001D01*
G75*
G02*
X75455000Y-108667501I0J-262500D01*
G01*
X75455000Y-109292501D01*
G75*
G02*
X75192500Y-109555001I-262500J0D01*
G01*
X74667500Y-109555001D01*
G75*
G02*
X74405000Y-109292501I0J262500D01*
G01*
X74405000Y-108667501D01*
G75*
G02*
X74667500Y-108405001I262500J0D01*
G01*
G37*
G36*
G01*
X74667500Y-110155001D02*
X75192500Y-110155001D01*
G75*
G02*
X75455000Y-110417501I0J-262500D01*
G01*
X75455000Y-111042501D01*
G75*
G02*
X75192500Y-111305001I-262500J0D01*
G01*
X74667500Y-111305001D01*
G75*
G02*
X74405000Y-111042501I0J262500D01*
G01*
X74405000Y-110417501D01*
G75*
G02*
X74667500Y-110155001I262500J0D01*
G01*
G37*
G36*
G01*
X69587500Y-108405001D02*
X70112500Y-108405001D01*
G75*
G02*
X70375000Y-108667501I0J-262500D01*
G01*
X70375000Y-109292501D01*
G75*
G02*
X70112500Y-109555001I-262500J0D01*
G01*
X69587500Y-109555001D01*
G75*
G02*
X69325000Y-109292501I0J262500D01*
G01*
X69325000Y-108667501D01*
G75*
G02*
X69587500Y-108405001I262500J0D01*
G01*
G37*
G36*
G01*
X69587500Y-110155001D02*
X70112500Y-110155001D01*
G75*
G02*
X70375000Y-110417501I0J-262500D01*
G01*
X70375000Y-111042501D01*
G75*
G02*
X70112500Y-111305001I-262500J0D01*
G01*
X69587500Y-111305001D01*
G75*
G02*
X69325000Y-111042501I0J262500D01*
G01*
X69325000Y-110417501D01*
G75*
G02*
X69587500Y-110155001I262500J0D01*
G01*
G37*
G36*
G01*
X73922500Y-77015000D02*
X73397500Y-77015000D01*
G75*
G02*
X73135000Y-76752500I0J262500D01*
G01*
X73135000Y-76127500D01*
G75*
G02*
X73397500Y-75865000I262500J0D01*
G01*
X73922500Y-75865000D01*
G75*
G02*
X74185000Y-76127500I0J-262500D01*
G01*
X74185000Y-76752500D01*
G75*
G02*
X73922500Y-77015000I-262500J0D01*
G01*
G37*
G36*
G01*
X73922500Y-75265000D02*
X73397500Y-75265000D01*
G75*
G02*
X73135000Y-75002500I0J262500D01*
G01*
X73135000Y-74377500D01*
G75*
G02*
X73397500Y-74115000I262500J0D01*
G01*
X73922500Y-74115000D01*
G75*
G02*
X74185000Y-74377500I0J-262500D01*
G01*
X74185000Y-75002500D01*
G75*
G02*
X73922500Y-75265000I-262500J0D01*
G01*
G37*
G36*
G01*
X75302500Y-74115000D02*
X75827500Y-74115000D01*
G75*
G02*
X76090000Y-74377500I0J-262500D01*
G01*
X76090000Y-75002500D01*
G75*
G02*
X75827500Y-75265000I-262500J0D01*
G01*
X75302500Y-75265000D01*
G75*
G02*
X75040000Y-75002500I0J262500D01*
G01*
X75040000Y-74377500D01*
G75*
G02*
X75302500Y-74115000I262500J0D01*
G01*
G37*
G36*
G01*
X75302500Y-75865000D02*
X75827500Y-75865000D01*
G75*
G02*
X76090000Y-76127500I0J-262500D01*
G01*
X76090000Y-76752500D01*
G75*
G02*
X75827500Y-77015000I-262500J0D01*
G01*
X75302500Y-77015000D01*
G75*
G02*
X75040000Y-76752500I0J262500D01*
G01*
X75040000Y-76127500D01*
G75*
G02*
X75302500Y-75865000I262500J0D01*
G01*
G37*
G36*
G01*
X80382500Y-74115000D02*
X80907500Y-74115000D01*
G75*
G02*
X81170000Y-74377500I0J-262500D01*
G01*
X81170000Y-75002500D01*
G75*
G02*
X80907500Y-75265000I-262500J0D01*
G01*
X80382500Y-75265000D01*
G75*
G02*
X80120000Y-75002500I0J262500D01*
G01*
X80120000Y-74377500D01*
G75*
G02*
X80382500Y-74115000I262500J0D01*
G01*
G37*
G36*
G01*
X80382500Y-75865000D02*
X80907500Y-75865000D01*
G75*
G02*
X81170000Y-76127500I0J-262500D01*
G01*
X81170000Y-76752500D01*
G75*
G02*
X80907500Y-77015000I-262500J0D01*
G01*
X80382500Y-77015000D01*
G75*
G02*
X80120000Y-76752500I0J262500D01*
G01*
X80120000Y-76127500D01*
G75*
G02*
X80382500Y-75865000I262500J0D01*
G01*
G37*
G36*
G01*
X79002500Y-77015000D02*
X78477500Y-77015000D01*
G75*
G02*
X78215000Y-76752500I0J262500D01*
G01*
X78215000Y-76127500D01*
G75*
G02*
X78477500Y-75865000I262500J0D01*
G01*
X79002500Y-75865000D01*
G75*
G02*
X79265000Y-76127500I0J-262500D01*
G01*
X79265000Y-76752500D01*
G75*
G02*
X79002500Y-77015000I-262500J0D01*
G01*
G37*
G36*
G01*
X79002500Y-75265000D02*
X78477500Y-75265000D01*
G75*
G02*
X78215000Y-75002500I0J262500D01*
G01*
X78215000Y-74377500D01*
G75*
G02*
X78477500Y-74115000I262500J0D01*
G01*
X79002500Y-74115000D01*
G75*
G02*
X79265000Y-74377500I0J-262500D01*
G01*
X79265000Y-75002500D01*
G75*
G02*
X79002500Y-75265000I-262500J0D01*
G01*
G37*
G36*
G01*
X85462500Y-75865000D02*
X85987500Y-75865000D01*
G75*
G02*
X86250000Y-76127500I0J-262500D01*
G01*
X86250000Y-76752500D01*
G75*
G02*
X85987500Y-77015000I-262500J0D01*
G01*
X85462500Y-77015000D01*
G75*
G02*
X85200000Y-76752500I0J262500D01*
G01*
X85200000Y-76127500D01*
G75*
G02*
X85462500Y-75865000I262500J0D01*
G01*
G37*
G36*
G01*
X85462500Y-74115000D02*
X85987500Y-74115000D01*
G75*
G02*
X86250000Y-74377500I0J-262500D01*
G01*
X86250000Y-75002500D01*
G75*
G02*
X85987500Y-75265000I-262500J0D01*
G01*
X85462500Y-75265000D01*
G75*
G02*
X85200000Y-75002500I0J262500D01*
G01*
X85200000Y-74377500D01*
G75*
G02*
X85462500Y-74115000I262500J0D01*
G01*
G37*
G36*
G01*
X89162500Y-77015000D02*
X88637500Y-77015000D01*
G75*
G02*
X88375000Y-76752500I0J262500D01*
G01*
X88375000Y-76127500D01*
G75*
G02*
X88637500Y-75865000I262500J0D01*
G01*
X89162500Y-75865000D01*
G75*
G02*
X89425000Y-76127500I0J-262500D01*
G01*
X89425000Y-76752500D01*
G75*
G02*
X89162500Y-77015000I-262500J0D01*
G01*
G37*
G36*
G01*
X89162500Y-75265000D02*
X88637500Y-75265000D01*
G75*
G02*
X88375000Y-75002500I0J262500D01*
G01*
X88375000Y-74377500D01*
G75*
G02*
X88637500Y-74115000I262500J0D01*
G01*
X89162500Y-74115000D01*
G75*
G02*
X89425000Y-74377500I0J-262500D01*
G01*
X89425000Y-75002500D01*
G75*
G02*
X89162500Y-75265000I-262500J0D01*
G01*
G37*
G36*
G01*
X90542500Y-74115000D02*
X91067500Y-74115000D01*
G75*
G02*
X91330000Y-74377500I0J-262500D01*
G01*
X91330000Y-75002500D01*
G75*
G02*
X91067500Y-75265000I-262500J0D01*
G01*
X90542500Y-75265000D01*
G75*
G02*
X90280000Y-75002500I0J262500D01*
G01*
X90280000Y-74377500D01*
G75*
G02*
X90542500Y-74115000I262500J0D01*
G01*
G37*
G36*
G01*
X90542500Y-75865000D02*
X91067500Y-75865000D01*
G75*
G02*
X91330000Y-76127500I0J-262500D01*
G01*
X91330000Y-76752500D01*
G75*
G02*
X91067500Y-77015000I-262500J0D01*
G01*
X90542500Y-77015000D01*
G75*
G02*
X90280000Y-76752500I0J262500D01*
G01*
X90280000Y-76127500D01*
G75*
G02*
X90542500Y-75865000I262500J0D01*
G01*
G37*
G36*
G01*
X84082500Y-75265000D02*
X83557500Y-75265000D01*
G75*
G02*
X83295000Y-75002500I0J262500D01*
G01*
X83295000Y-74377500D01*
G75*
G02*
X83557500Y-74115000I262500J0D01*
G01*
X84082500Y-74115000D01*
G75*
G02*
X84345000Y-74377500I0J-262500D01*
G01*
X84345000Y-75002500D01*
G75*
G02*
X84082500Y-75265000I-262500J0D01*
G01*
G37*
G36*
G01*
X84082500Y-77015000D02*
X83557500Y-77015000D01*
G75*
G02*
X83295000Y-76752500I0J262500D01*
G01*
X83295000Y-76127500D01*
G75*
G02*
X83557500Y-75865000I262500J0D01*
G01*
X84082500Y-75865000D01*
G75*
G02*
X84345000Y-76127500I0J-262500D01*
G01*
X84345000Y-76752500D01*
G75*
G02*
X84082500Y-77015000I-262500J0D01*
G01*
G37*
G36*
G01*
X96782500Y-77015000D02*
X96257500Y-77015000D01*
G75*
G02*
X95995000Y-76752500I0J262500D01*
G01*
X95995000Y-76127500D01*
G75*
G02*
X96257500Y-75865000I262500J0D01*
G01*
X96782500Y-75865000D01*
G75*
G02*
X97045000Y-76127500I0J-262500D01*
G01*
X97045000Y-76752500D01*
G75*
G02*
X96782500Y-77015000I-262500J0D01*
G01*
G37*
G36*
G01*
X96782500Y-75265000D02*
X96257500Y-75265000D01*
G75*
G02*
X95995000Y-75002500I0J262500D01*
G01*
X95995000Y-74377500D01*
G75*
G02*
X96257500Y-74115000I262500J0D01*
G01*
X96782500Y-74115000D01*
G75*
G02*
X97045000Y-74377500I0J-262500D01*
G01*
X97045000Y-75002500D01*
G75*
G02*
X96782500Y-75265000I-262500J0D01*
G01*
G37*
G36*
G01*
X98162500Y-74115000D02*
X98687500Y-74115000D01*
G75*
G02*
X98950000Y-74377500I0J-262500D01*
G01*
X98950000Y-75002500D01*
G75*
G02*
X98687500Y-75265000I-262500J0D01*
G01*
X98162500Y-75265000D01*
G75*
G02*
X97900000Y-75002500I0J262500D01*
G01*
X97900000Y-74377500D01*
G75*
G02*
X98162500Y-74115000I262500J0D01*
G01*
G37*
G36*
G01*
X98162500Y-75865000D02*
X98687500Y-75865000D01*
G75*
G02*
X98950000Y-76127500I0J-262500D01*
G01*
X98950000Y-76752500D01*
G75*
G02*
X98687500Y-77015000I-262500J0D01*
G01*
X98162500Y-77015000D01*
G75*
G02*
X97900000Y-76752500I0J262500D01*
G01*
X97900000Y-76127500D01*
G75*
G02*
X98162500Y-75865000I262500J0D01*
G01*
G37*
G36*
G01*
X103242500Y-74115000D02*
X103767500Y-74115000D01*
G75*
G02*
X104030000Y-74377500I0J-262500D01*
G01*
X104030000Y-75002500D01*
G75*
G02*
X103767500Y-75265000I-262500J0D01*
G01*
X103242500Y-75265000D01*
G75*
G02*
X102980000Y-75002500I0J262500D01*
G01*
X102980000Y-74377500D01*
G75*
G02*
X103242500Y-74115000I262500J0D01*
G01*
G37*
G36*
G01*
X103242500Y-75865000D02*
X103767500Y-75865000D01*
G75*
G02*
X104030000Y-76127500I0J-262500D01*
G01*
X104030000Y-76752500D01*
G75*
G02*
X103767500Y-77015000I-262500J0D01*
G01*
X103242500Y-77015000D01*
G75*
G02*
X102980000Y-76752500I0J262500D01*
G01*
X102980000Y-76127500D01*
G75*
G02*
X103242500Y-75865000I262500J0D01*
G01*
G37*
G36*
G01*
X101862500Y-77015000D02*
X101337500Y-77015000D01*
G75*
G02*
X101075000Y-76752500I0J262500D01*
G01*
X101075000Y-76127500D01*
G75*
G02*
X101337500Y-75865000I262500J0D01*
G01*
X101862500Y-75865000D01*
G75*
G02*
X102125000Y-76127500I0J-262500D01*
G01*
X102125000Y-76752500D01*
G75*
G02*
X101862500Y-77015000I-262500J0D01*
G01*
G37*
G36*
G01*
X101862500Y-75265000D02*
X101337500Y-75265000D01*
G75*
G02*
X101075000Y-75002500I0J262500D01*
G01*
X101075000Y-74377500D01*
G75*
G02*
X101337500Y-74115000I262500J0D01*
G01*
X101862500Y-74115000D01*
G75*
G02*
X102125000Y-74377500I0J-262500D01*
G01*
X102125000Y-75002500D01*
G75*
G02*
X101862500Y-75265000I-262500J0D01*
G01*
G37*
G36*
G01*
X108322500Y-75865000D02*
X108847500Y-75865000D01*
G75*
G02*
X109110000Y-76127500I0J-262500D01*
G01*
X109110000Y-76752500D01*
G75*
G02*
X108847500Y-77015000I-262500J0D01*
G01*
X108322500Y-77015000D01*
G75*
G02*
X108060000Y-76752500I0J262500D01*
G01*
X108060000Y-76127500D01*
G75*
G02*
X108322500Y-75865000I262500J0D01*
G01*
G37*
G36*
G01*
X108322500Y-74115000D02*
X108847500Y-74115000D01*
G75*
G02*
X109110000Y-74377500I0J-262500D01*
G01*
X109110000Y-75002500D01*
G75*
G02*
X108847500Y-75265000I-262500J0D01*
G01*
X108322500Y-75265000D01*
G75*
G02*
X108060000Y-75002500I0J262500D01*
G01*
X108060000Y-74377500D01*
G75*
G02*
X108322500Y-74115000I262500J0D01*
G01*
G37*
G36*
G01*
X112022500Y-77015000D02*
X111497500Y-77015000D01*
G75*
G02*
X111235000Y-76752500I0J262500D01*
G01*
X111235000Y-76127500D01*
G75*
G02*
X111497500Y-75865000I262500J0D01*
G01*
X112022500Y-75865000D01*
G75*
G02*
X112285000Y-76127500I0J-262500D01*
G01*
X112285000Y-76752500D01*
G75*
G02*
X112022500Y-77015000I-262500J0D01*
G01*
G37*
G36*
G01*
X112022500Y-75265000D02*
X111497500Y-75265000D01*
G75*
G02*
X111235000Y-75002500I0J262500D01*
G01*
X111235000Y-74377500D01*
G75*
G02*
X111497500Y-74115000I262500J0D01*
G01*
X112022500Y-74115000D01*
G75*
G02*
X112285000Y-74377500I0J-262500D01*
G01*
X112285000Y-75002500D01*
G75*
G02*
X112022500Y-75265000I-262500J0D01*
G01*
G37*
G36*
G01*
X113402500Y-74115000D02*
X113927500Y-74115000D01*
G75*
G02*
X114190000Y-74377500I0J-262500D01*
G01*
X114190000Y-75002500D01*
G75*
G02*
X113927500Y-75265000I-262500J0D01*
G01*
X113402500Y-75265000D01*
G75*
G02*
X113140000Y-75002500I0J262500D01*
G01*
X113140000Y-74377500D01*
G75*
G02*
X113402500Y-74115000I262500J0D01*
G01*
G37*
G36*
G01*
X113402500Y-75865000D02*
X113927500Y-75865000D01*
G75*
G02*
X114190000Y-76127500I0J-262500D01*
G01*
X114190000Y-76752500D01*
G75*
G02*
X113927500Y-77015000I-262500J0D01*
G01*
X113402500Y-77015000D01*
G75*
G02*
X113140000Y-76752500I0J262500D01*
G01*
X113140000Y-76127500D01*
G75*
G02*
X113402500Y-75865000I262500J0D01*
G01*
G37*
G36*
G01*
X106942500Y-75265000D02*
X106417500Y-75265000D01*
G75*
G02*
X106155000Y-75002500I0J262500D01*
G01*
X106155000Y-74377500D01*
G75*
G02*
X106417500Y-74115000I262500J0D01*
G01*
X106942500Y-74115000D01*
G75*
G02*
X107205000Y-74377500I0J-262500D01*
G01*
X107205000Y-75002500D01*
G75*
G02*
X106942500Y-75265000I-262500J0D01*
G01*
G37*
G36*
G01*
X106942500Y-77015000D02*
X106417500Y-77015000D01*
G75*
G02*
X106155000Y-76752500I0J262500D01*
G01*
X106155000Y-76127500D01*
G75*
G02*
X106417500Y-75865000I262500J0D01*
G01*
X106942500Y-75865000D01*
G75*
G02*
X107205000Y-76127500I0J-262500D01*
G01*
X107205000Y-76752500D01*
G75*
G02*
X106942500Y-77015000I-262500J0D01*
G01*
G37*
G36*
G01*
X119642500Y-77015000D02*
X119117500Y-77015000D01*
G75*
G02*
X118855000Y-76752500I0J262500D01*
G01*
X118855000Y-76127500D01*
G75*
G02*
X119117500Y-75865000I262500J0D01*
G01*
X119642500Y-75865000D01*
G75*
G02*
X119905000Y-76127500I0J-262500D01*
G01*
X119905000Y-76752500D01*
G75*
G02*
X119642500Y-77015000I-262500J0D01*
G01*
G37*
G36*
G01*
X119642500Y-75265000D02*
X119117500Y-75265000D01*
G75*
G02*
X118855000Y-75002500I0J262500D01*
G01*
X118855000Y-74377500D01*
G75*
G02*
X119117500Y-74115000I262500J0D01*
G01*
X119642500Y-74115000D01*
G75*
G02*
X119905000Y-74377500I0J-262500D01*
G01*
X119905000Y-75002500D01*
G75*
G02*
X119642500Y-75265000I-262500J0D01*
G01*
G37*
G36*
G01*
X121022500Y-74115000D02*
X121547500Y-74115000D01*
G75*
G02*
X121810000Y-74377500I0J-262500D01*
G01*
X121810000Y-75002500D01*
G75*
G02*
X121547500Y-75265000I-262500J0D01*
G01*
X121022500Y-75265000D01*
G75*
G02*
X120760000Y-75002500I0J262500D01*
G01*
X120760000Y-74377500D01*
G75*
G02*
X121022500Y-74115000I262500J0D01*
G01*
G37*
G36*
G01*
X121022500Y-75865000D02*
X121547500Y-75865000D01*
G75*
G02*
X121810000Y-76127500I0J-262500D01*
G01*
X121810000Y-76752500D01*
G75*
G02*
X121547500Y-77015000I-262500J0D01*
G01*
X121022500Y-77015000D01*
G75*
G02*
X120760000Y-76752500I0J262500D01*
G01*
X120760000Y-76127500D01*
G75*
G02*
X121022500Y-75865000I262500J0D01*
G01*
G37*
G36*
G01*
X126102500Y-74115000D02*
X126627500Y-74115000D01*
G75*
G02*
X126890000Y-74377500I0J-262500D01*
G01*
X126890000Y-75002500D01*
G75*
G02*
X126627500Y-75265000I-262500J0D01*
G01*
X126102500Y-75265000D01*
G75*
G02*
X125840000Y-75002500I0J262500D01*
G01*
X125840000Y-74377500D01*
G75*
G02*
X126102500Y-74115000I262500J0D01*
G01*
G37*
G36*
G01*
X126102500Y-75865000D02*
X126627500Y-75865000D01*
G75*
G02*
X126890000Y-76127500I0J-262500D01*
G01*
X126890000Y-76752500D01*
G75*
G02*
X126627500Y-77015000I-262500J0D01*
G01*
X126102500Y-77015000D01*
G75*
G02*
X125840000Y-76752500I0J262500D01*
G01*
X125840000Y-76127500D01*
G75*
G02*
X126102500Y-75865000I262500J0D01*
G01*
G37*
G36*
G01*
X124722500Y-77015000D02*
X124197500Y-77015000D01*
G75*
G02*
X123935000Y-76752500I0J262500D01*
G01*
X123935000Y-76127500D01*
G75*
G02*
X124197500Y-75865000I262500J0D01*
G01*
X124722500Y-75865000D01*
G75*
G02*
X124985000Y-76127500I0J-262500D01*
G01*
X124985000Y-76752500D01*
G75*
G02*
X124722500Y-77015000I-262500J0D01*
G01*
G37*
G36*
G01*
X124722500Y-75265000D02*
X124197500Y-75265000D01*
G75*
G02*
X123935000Y-75002500I0J262500D01*
G01*
X123935000Y-74377500D01*
G75*
G02*
X124197500Y-74115000I262500J0D01*
G01*
X124722500Y-74115000D01*
G75*
G02*
X124985000Y-74377500I0J-262500D01*
G01*
X124985000Y-75002500D01*
G75*
G02*
X124722500Y-75265000I-262500J0D01*
G01*
G37*
G36*
G01*
X131182500Y-75865000D02*
X131707500Y-75865000D01*
G75*
G02*
X131970000Y-76127500I0J-262500D01*
G01*
X131970000Y-76752500D01*
G75*
G02*
X131707500Y-77015000I-262500J0D01*
G01*
X131182500Y-77015000D01*
G75*
G02*
X130920000Y-76752500I0J262500D01*
G01*
X130920000Y-76127500D01*
G75*
G02*
X131182500Y-75865000I262500J0D01*
G01*
G37*
G36*
G01*
X131182500Y-74115000D02*
X131707500Y-74115000D01*
G75*
G02*
X131970000Y-74377500I0J-262500D01*
G01*
X131970000Y-75002500D01*
G75*
G02*
X131707500Y-75265000I-262500J0D01*
G01*
X131182500Y-75265000D01*
G75*
G02*
X130920000Y-75002500I0J262500D01*
G01*
X130920000Y-74377500D01*
G75*
G02*
X131182500Y-74115000I262500J0D01*
G01*
G37*
G36*
G01*
X134882500Y-77015000D02*
X134357500Y-77015000D01*
G75*
G02*
X134095000Y-76752500I0J262500D01*
G01*
X134095000Y-76127500D01*
G75*
G02*
X134357500Y-75865000I262500J0D01*
G01*
X134882500Y-75865000D01*
G75*
G02*
X135145000Y-76127500I0J-262500D01*
G01*
X135145000Y-76752500D01*
G75*
G02*
X134882500Y-77015000I-262500J0D01*
G01*
G37*
G36*
G01*
X134882500Y-75265000D02*
X134357500Y-75265000D01*
G75*
G02*
X134095000Y-75002500I0J262500D01*
G01*
X134095000Y-74377500D01*
G75*
G02*
X134357500Y-74115000I262500J0D01*
G01*
X134882500Y-74115000D01*
G75*
G02*
X135145000Y-74377500I0J-262500D01*
G01*
X135145000Y-75002500D01*
G75*
G02*
X134882500Y-75265000I-262500J0D01*
G01*
G37*
G36*
G01*
X136262500Y-74115000D02*
X136787500Y-74115000D01*
G75*
G02*
X137050000Y-74377500I0J-262500D01*
G01*
X137050000Y-75002500D01*
G75*
G02*
X136787500Y-75265000I-262500J0D01*
G01*
X136262500Y-75265000D01*
G75*
G02*
X136000000Y-75002500I0J262500D01*
G01*
X136000000Y-74377500D01*
G75*
G02*
X136262500Y-74115000I262500J0D01*
G01*
G37*
G36*
G01*
X136262500Y-75865000D02*
X136787500Y-75865000D01*
G75*
G02*
X137050000Y-76127500I0J-262500D01*
G01*
X137050000Y-76752500D01*
G75*
G02*
X136787500Y-77015000I-262500J0D01*
G01*
X136262500Y-77015000D01*
G75*
G02*
X136000000Y-76752500I0J262500D01*
G01*
X136000000Y-76127500D01*
G75*
G02*
X136262500Y-75865000I262500J0D01*
G01*
G37*
G36*
G01*
X129802500Y-75265000D02*
X129277500Y-75265000D01*
G75*
G02*
X129015000Y-75002500I0J262500D01*
G01*
X129015000Y-74377500D01*
G75*
G02*
X129277500Y-74115000I262500J0D01*
G01*
X129802500Y-74115000D01*
G75*
G02*
X130065000Y-74377500I0J-262500D01*
G01*
X130065000Y-75002500D01*
G75*
G02*
X129802500Y-75265000I-262500J0D01*
G01*
G37*
G36*
G01*
X129802500Y-77015000D02*
X129277500Y-77015000D01*
G75*
G02*
X129015000Y-76752500I0J262500D01*
G01*
X129015000Y-76127500D01*
G75*
G02*
X129277500Y-75865000I262500J0D01*
G01*
X129802500Y-75865000D01*
G75*
G02*
X130065000Y-76127500I0J-262500D01*
G01*
X130065000Y-76752500D01*
G75*
G02*
X129802500Y-77015000I-262500J0D01*
G01*
G37*
G36*
G01*
X83645000Y-81590000D02*
X83995000Y-81590000D01*
G75*
G02*
X84170000Y-81765000I0J-175000D01*
G01*
X84170000Y-83465000D01*
G75*
G02*
X83995000Y-83640000I-175000J0D01*
G01*
X83645000Y-83640000D01*
G75*
G02*
X83470000Y-83465000I0J175000D01*
G01*
X83470000Y-81765000D01*
G75*
G02*
X83645000Y-81590000I175000J0D01*
G01*
G37*
G36*
G01*
X82375000Y-81590000D02*
X82725000Y-81590000D01*
G75*
G02*
X82900000Y-81765000I0J-175000D01*
G01*
X82900000Y-83465000D01*
G75*
G02*
X82725000Y-83640000I-175000J0D01*
G01*
X82375000Y-83640000D01*
G75*
G02*
X82200000Y-83465000I0J175000D01*
G01*
X82200000Y-81765000D01*
G75*
G02*
X82375000Y-81590000I175000J0D01*
G01*
G37*
G36*
G01*
X81105000Y-81590000D02*
X81455000Y-81590000D01*
G75*
G02*
X81630000Y-81765000I0J-175000D01*
G01*
X81630000Y-83465000D01*
G75*
G02*
X81455000Y-83640000I-175000J0D01*
G01*
X81105000Y-83640000D01*
G75*
G02*
X80930000Y-83465000I0J175000D01*
G01*
X80930000Y-81765000D01*
G75*
G02*
X81105000Y-81590000I175000J0D01*
G01*
G37*
G36*
G01*
X79835000Y-81590000D02*
X80185000Y-81590000D01*
G75*
G02*
X80360000Y-81765000I0J-175000D01*
G01*
X80360000Y-83465000D01*
G75*
G02*
X80185000Y-83640000I-175000J0D01*
G01*
X79835000Y-83640000D01*
G75*
G02*
X79660000Y-83465000I0J175000D01*
G01*
X79660000Y-81765000D01*
G75*
G02*
X79835000Y-81590000I175000J0D01*
G01*
G37*
G36*
G01*
X78565000Y-81590000D02*
X78915000Y-81590000D01*
G75*
G02*
X79090000Y-81765000I0J-175000D01*
G01*
X79090000Y-83465000D01*
G75*
G02*
X78915000Y-83640000I-175000J0D01*
G01*
X78565000Y-83640000D01*
G75*
G02*
X78390000Y-83465000I0J175000D01*
G01*
X78390000Y-81765000D01*
G75*
G02*
X78565000Y-81590000I175000J0D01*
G01*
G37*
G36*
G01*
X77295000Y-81590000D02*
X77645000Y-81590000D01*
G75*
G02*
X77820000Y-81765000I0J-175000D01*
G01*
X77820000Y-83465000D01*
G75*
G02*
X77645000Y-83640000I-175000J0D01*
G01*
X77295000Y-83640000D01*
G75*
G02*
X77120000Y-83465000I0J175000D01*
G01*
X77120000Y-81765000D01*
G75*
G02*
X77295000Y-81590000I175000J0D01*
G01*
G37*
G36*
G01*
X76025000Y-81590000D02*
X76375000Y-81590000D01*
G75*
G02*
X76550000Y-81765000I0J-175000D01*
G01*
X76550000Y-83465000D01*
G75*
G02*
X76375000Y-83640000I-175000J0D01*
G01*
X76025000Y-83640000D01*
G75*
G02*
X75850000Y-83465000I0J175000D01*
G01*
X75850000Y-81765000D01*
G75*
G02*
X76025000Y-81590000I175000J0D01*
G01*
G37*
G36*
G01*
X74755000Y-81590000D02*
X75105000Y-81590000D01*
G75*
G02*
X75280000Y-81765000I0J-175000D01*
G01*
X75280000Y-83465000D01*
G75*
G02*
X75105000Y-83640000I-175000J0D01*
G01*
X74755000Y-83640000D01*
G75*
G02*
X74580000Y-83465000I0J175000D01*
G01*
X74580000Y-81765000D01*
G75*
G02*
X74755000Y-81590000I175000J0D01*
G01*
G37*
G36*
G01*
X74755000Y-86540000D02*
X75105000Y-86540000D01*
G75*
G02*
X75280000Y-86715000I0J-175000D01*
G01*
X75280000Y-88415000D01*
G75*
G02*
X75105000Y-88590000I-175000J0D01*
G01*
X74755000Y-88590000D01*
G75*
G02*
X74580000Y-88415000I0J175000D01*
G01*
X74580000Y-86715000D01*
G75*
G02*
X74755000Y-86540000I175000J0D01*
G01*
G37*
G36*
G01*
X76025000Y-86540000D02*
X76375000Y-86540000D01*
G75*
G02*
X76550000Y-86715000I0J-175000D01*
G01*
X76550000Y-88415000D01*
G75*
G02*
X76375000Y-88590000I-175000J0D01*
G01*
X76025000Y-88590000D01*
G75*
G02*
X75850000Y-88415000I0J175000D01*
G01*
X75850000Y-86715000D01*
G75*
G02*
X76025000Y-86540000I175000J0D01*
G01*
G37*
G36*
G01*
X77295000Y-86540000D02*
X77645000Y-86540000D01*
G75*
G02*
X77820000Y-86715000I0J-175000D01*
G01*
X77820000Y-88415000D01*
G75*
G02*
X77645000Y-88590000I-175000J0D01*
G01*
X77295000Y-88590000D01*
G75*
G02*
X77120000Y-88415000I0J175000D01*
G01*
X77120000Y-86715000D01*
G75*
G02*
X77295000Y-86540000I175000J0D01*
G01*
G37*
G36*
G01*
X78565000Y-86540000D02*
X78915000Y-86540000D01*
G75*
G02*
X79090000Y-86715000I0J-175000D01*
G01*
X79090000Y-88415000D01*
G75*
G02*
X78915000Y-88590000I-175000J0D01*
G01*
X78565000Y-88590000D01*
G75*
G02*
X78390000Y-88415000I0J175000D01*
G01*
X78390000Y-86715000D01*
G75*
G02*
X78565000Y-86540000I175000J0D01*
G01*
G37*
G36*
G01*
X79835000Y-86540000D02*
X80185000Y-86540000D01*
G75*
G02*
X80360000Y-86715000I0J-175000D01*
G01*
X80360000Y-88415000D01*
G75*
G02*
X80185000Y-88590000I-175000J0D01*
G01*
X79835000Y-88590000D01*
G75*
G02*
X79660000Y-88415000I0J175000D01*
G01*
X79660000Y-86715000D01*
G75*
G02*
X79835000Y-86540000I175000J0D01*
G01*
G37*
G36*
G01*
X81105000Y-86540000D02*
X81455000Y-86540000D01*
G75*
G02*
X81630000Y-86715000I0J-175000D01*
G01*
X81630000Y-88415000D01*
G75*
G02*
X81455000Y-88590000I-175000J0D01*
G01*
X81105000Y-88590000D01*
G75*
G02*
X80930000Y-88415000I0J175000D01*
G01*
X80930000Y-86715000D01*
G75*
G02*
X81105000Y-86540000I175000J0D01*
G01*
G37*
G36*
G01*
X82375000Y-86540000D02*
X82725000Y-86540000D01*
G75*
G02*
X82900000Y-86715000I0J-175000D01*
G01*
X82900000Y-88415000D01*
G75*
G02*
X82725000Y-88590000I-175000J0D01*
G01*
X82375000Y-88590000D01*
G75*
G02*
X82200000Y-88415000I0J175000D01*
G01*
X82200000Y-86715000D01*
G75*
G02*
X82375000Y-86540000I175000J0D01*
G01*
G37*
G36*
G01*
X83645000Y-86540000D02*
X83995000Y-86540000D01*
G75*
G02*
X84170000Y-86715000I0J-175000D01*
G01*
X84170000Y-88415000D01*
G75*
G02*
X83995000Y-88590000I-175000J0D01*
G01*
X83645000Y-88590000D01*
G75*
G02*
X83470000Y-88415000I0J175000D01*
G01*
X83470000Y-86715000D01*
G75*
G02*
X83645000Y-86540000I175000J0D01*
G01*
G37*
D13*
X75930000Y-71435000D03*
X75930000Y-69535000D03*
X73930000Y-70485000D03*
X81010000Y-71435000D03*
X81010000Y-69535000D03*
X79010000Y-70485000D03*
X86090000Y-71435000D03*
X86090000Y-69535000D03*
X84090000Y-70485000D03*
X91170000Y-71435000D03*
X91170000Y-69535000D03*
X89170000Y-70485000D03*
D11*
X90170000Y-66040000D03*
D10*
X87630000Y-66040000D03*
X85090000Y-66040000D03*
X82550000Y-66040000D03*
X80010000Y-66040000D03*
X77470000Y-66040000D03*
X74930000Y-66040000D03*
X72390000Y-66040000D03*
G36*
G01*
X85987500Y-88445000D02*
X85462500Y-88445000D01*
G75*
G02*
X85200000Y-88182500I0J262500D01*
G01*
X85200000Y-87557500D01*
G75*
G02*
X85462500Y-87295000I262500J0D01*
G01*
X85987500Y-87295000D01*
G75*
G02*
X86250000Y-87557500I0J-262500D01*
G01*
X86250000Y-88182500D01*
G75*
G02*
X85987500Y-88445000I-262500J0D01*
G01*
G37*
G36*
G01*
X85987500Y-86695000D02*
X85462500Y-86695000D01*
G75*
G02*
X85200000Y-86432500I0J262500D01*
G01*
X85200000Y-85807500D01*
G75*
G02*
X85462500Y-85545000I262500J0D01*
G01*
X85987500Y-85545000D01*
G75*
G02*
X86250000Y-85807500I0J-262500D01*
G01*
X86250000Y-86432500D01*
G75*
G02*
X85987500Y-86695000I-262500J0D01*
G01*
G37*
G36*
G01*
X106505000Y-81590000D02*
X106855000Y-81590000D01*
G75*
G02*
X107030000Y-81765000I0J-175000D01*
G01*
X107030000Y-83465000D01*
G75*
G02*
X106855000Y-83640000I-175000J0D01*
G01*
X106505000Y-83640000D01*
G75*
G02*
X106330000Y-83465000I0J175000D01*
G01*
X106330000Y-81765000D01*
G75*
G02*
X106505000Y-81590000I175000J0D01*
G01*
G37*
G36*
G01*
X105235000Y-81590000D02*
X105585000Y-81590000D01*
G75*
G02*
X105760000Y-81765000I0J-175000D01*
G01*
X105760000Y-83465000D01*
G75*
G02*
X105585000Y-83640000I-175000J0D01*
G01*
X105235000Y-83640000D01*
G75*
G02*
X105060000Y-83465000I0J175000D01*
G01*
X105060000Y-81765000D01*
G75*
G02*
X105235000Y-81590000I175000J0D01*
G01*
G37*
G36*
G01*
X103965000Y-81590000D02*
X104315000Y-81590000D01*
G75*
G02*
X104490000Y-81765000I0J-175000D01*
G01*
X104490000Y-83465000D01*
G75*
G02*
X104315000Y-83640000I-175000J0D01*
G01*
X103965000Y-83640000D01*
G75*
G02*
X103790000Y-83465000I0J175000D01*
G01*
X103790000Y-81765000D01*
G75*
G02*
X103965000Y-81590000I175000J0D01*
G01*
G37*
G36*
G01*
X102695000Y-81590000D02*
X103045000Y-81590000D01*
G75*
G02*
X103220000Y-81765000I0J-175000D01*
G01*
X103220000Y-83465000D01*
G75*
G02*
X103045000Y-83640000I-175000J0D01*
G01*
X102695000Y-83640000D01*
G75*
G02*
X102520000Y-83465000I0J175000D01*
G01*
X102520000Y-81765000D01*
G75*
G02*
X102695000Y-81590000I175000J0D01*
G01*
G37*
G36*
G01*
X101425000Y-81590000D02*
X101775000Y-81590000D01*
G75*
G02*
X101950000Y-81765000I0J-175000D01*
G01*
X101950000Y-83465000D01*
G75*
G02*
X101775000Y-83640000I-175000J0D01*
G01*
X101425000Y-83640000D01*
G75*
G02*
X101250000Y-83465000I0J175000D01*
G01*
X101250000Y-81765000D01*
G75*
G02*
X101425000Y-81590000I175000J0D01*
G01*
G37*
G36*
G01*
X100155000Y-81590000D02*
X100505000Y-81590000D01*
G75*
G02*
X100680000Y-81765000I0J-175000D01*
G01*
X100680000Y-83465000D01*
G75*
G02*
X100505000Y-83640000I-175000J0D01*
G01*
X100155000Y-83640000D01*
G75*
G02*
X99980000Y-83465000I0J175000D01*
G01*
X99980000Y-81765000D01*
G75*
G02*
X100155000Y-81590000I175000J0D01*
G01*
G37*
G36*
G01*
X98885000Y-81590000D02*
X99235000Y-81590000D01*
G75*
G02*
X99410000Y-81765000I0J-175000D01*
G01*
X99410000Y-83465000D01*
G75*
G02*
X99235000Y-83640000I-175000J0D01*
G01*
X98885000Y-83640000D01*
G75*
G02*
X98710000Y-83465000I0J175000D01*
G01*
X98710000Y-81765000D01*
G75*
G02*
X98885000Y-81590000I175000J0D01*
G01*
G37*
G36*
G01*
X97615000Y-81590000D02*
X97965000Y-81590000D01*
G75*
G02*
X98140000Y-81765000I0J-175000D01*
G01*
X98140000Y-83465000D01*
G75*
G02*
X97965000Y-83640000I-175000J0D01*
G01*
X97615000Y-83640000D01*
G75*
G02*
X97440000Y-83465000I0J175000D01*
G01*
X97440000Y-81765000D01*
G75*
G02*
X97615000Y-81590000I175000J0D01*
G01*
G37*
G36*
G01*
X97615000Y-86540000D02*
X97965000Y-86540000D01*
G75*
G02*
X98140000Y-86715000I0J-175000D01*
G01*
X98140000Y-88415000D01*
G75*
G02*
X97965000Y-88590000I-175000J0D01*
G01*
X97615000Y-88590000D01*
G75*
G02*
X97440000Y-88415000I0J175000D01*
G01*
X97440000Y-86715000D01*
G75*
G02*
X97615000Y-86540000I175000J0D01*
G01*
G37*
G36*
G01*
X98885000Y-86540000D02*
X99235000Y-86540000D01*
G75*
G02*
X99410000Y-86715000I0J-175000D01*
G01*
X99410000Y-88415000D01*
G75*
G02*
X99235000Y-88590000I-175000J0D01*
G01*
X98885000Y-88590000D01*
G75*
G02*
X98710000Y-88415000I0J175000D01*
G01*
X98710000Y-86715000D01*
G75*
G02*
X98885000Y-86540000I175000J0D01*
G01*
G37*
G36*
G01*
X100155000Y-86540000D02*
X100505000Y-86540000D01*
G75*
G02*
X100680000Y-86715000I0J-175000D01*
G01*
X100680000Y-88415000D01*
G75*
G02*
X100505000Y-88590000I-175000J0D01*
G01*
X100155000Y-88590000D01*
G75*
G02*
X99980000Y-88415000I0J175000D01*
G01*
X99980000Y-86715000D01*
G75*
G02*
X100155000Y-86540000I175000J0D01*
G01*
G37*
G36*
G01*
X101425000Y-86540000D02*
X101775000Y-86540000D01*
G75*
G02*
X101950000Y-86715000I0J-175000D01*
G01*
X101950000Y-88415000D01*
G75*
G02*
X101775000Y-88590000I-175000J0D01*
G01*
X101425000Y-88590000D01*
G75*
G02*
X101250000Y-88415000I0J175000D01*
G01*
X101250000Y-86715000D01*
G75*
G02*
X101425000Y-86540000I175000J0D01*
G01*
G37*
G36*
G01*
X102695000Y-86540000D02*
X103045000Y-86540000D01*
G75*
G02*
X103220000Y-86715000I0J-175000D01*
G01*
X103220000Y-88415000D01*
G75*
G02*
X103045000Y-88590000I-175000J0D01*
G01*
X102695000Y-88590000D01*
G75*
G02*
X102520000Y-88415000I0J175000D01*
G01*
X102520000Y-86715000D01*
G75*
G02*
X102695000Y-86540000I175000J0D01*
G01*
G37*
G36*
G01*
X103965000Y-86540000D02*
X104315000Y-86540000D01*
G75*
G02*
X104490000Y-86715000I0J-175000D01*
G01*
X104490000Y-88415000D01*
G75*
G02*
X104315000Y-88590000I-175000J0D01*
G01*
X103965000Y-88590000D01*
G75*
G02*
X103790000Y-88415000I0J175000D01*
G01*
X103790000Y-86715000D01*
G75*
G02*
X103965000Y-86540000I175000J0D01*
G01*
G37*
G36*
G01*
X105235000Y-86540000D02*
X105585000Y-86540000D01*
G75*
G02*
X105760000Y-86715000I0J-175000D01*
G01*
X105760000Y-88415000D01*
G75*
G02*
X105585000Y-88590000I-175000J0D01*
G01*
X105235000Y-88590000D01*
G75*
G02*
X105060000Y-88415000I0J175000D01*
G01*
X105060000Y-86715000D01*
G75*
G02*
X105235000Y-86540000I175000J0D01*
G01*
G37*
G36*
G01*
X106505000Y-86540000D02*
X106855000Y-86540000D01*
G75*
G02*
X107030000Y-86715000I0J-175000D01*
G01*
X107030000Y-88415000D01*
G75*
G02*
X106855000Y-88590000I-175000J0D01*
G01*
X106505000Y-88590000D01*
G75*
G02*
X106330000Y-88415000I0J175000D01*
G01*
X106330000Y-86715000D01*
G75*
G02*
X106505000Y-86540000I175000J0D01*
G01*
G37*
D13*
X98790000Y-71435000D03*
X98790000Y-69535000D03*
X96790000Y-70485000D03*
X103870000Y-71435000D03*
X103870000Y-69535000D03*
X101870000Y-70485000D03*
X108950000Y-71435000D03*
X108950000Y-69535000D03*
X106950000Y-70485000D03*
X114030000Y-71435000D03*
X114030000Y-69535000D03*
X112030000Y-70485000D03*
D11*
X113030000Y-66040000D03*
D10*
X110490000Y-66040000D03*
X107950000Y-66040000D03*
X105410000Y-66040000D03*
X102870000Y-66040000D03*
X100330000Y-66040000D03*
X97790000Y-66040000D03*
X95250000Y-66040000D03*
G36*
G01*
X108847500Y-88445000D02*
X108322500Y-88445000D01*
G75*
G02*
X108060000Y-88182500I0J262500D01*
G01*
X108060000Y-87557500D01*
G75*
G02*
X108322500Y-87295000I262500J0D01*
G01*
X108847500Y-87295000D01*
G75*
G02*
X109110000Y-87557500I0J-262500D01*
G01*
X109110000Y-88182500D01*
G75*
G02*
X108847500Y-88445000I-262500J0D01*
G01*
G37*
G36*
G01*
X108847500Y-86695000D02*
X108322500Y-86695000D01*
G75*
G02*
X108060000Y-86432500I0J262500D01*
G01*
X108060000Y-85807500D01*
G75*
G02*
X108322500Y-85545000I262500J0D01*
G01*
X108847500Y-85545000D01*
G75*
G02*
X109110000Y-85807500I0J-262500D01*
G01*
X109110000Y-86432500D01*
G75*
G02*
X108847500Y-86695000I-262500J0D01*
G01*
G37*
G36*
G01*
X129365000Y-81590000D02*
X129715000Y-81590000D01*
G75*
G02*
X129890000Y-81765000I0J-175000D01*
G01*
X129890000Y-83465000D01*
G75*
G02*
X129715000Y-83640000I-175000J0D01*
G01*
X129365000Y-83640000D01*
G75*
G02*
X129190000Y-83465000I0J175000D01*
G01*
X129190000Y-81765000D01*
G75*
G02*
X129365000Y-81590000I175000J0D01*
G01*
G37*
G36*
G01*
X128095000Y-81590000D02*
X128445000Y-81590000D01*
G75*
G02*
X128620000Y-81765000I0J-175000D01*
G01*
X128620000Y-83465000D01*
G75*
G02*
X128445000Y-83640000I-175000J0D01*
G01*
X128095000Y-83640000D01*
G75*
G02*
X127920000Y-83465000I0J175000D01*
G01*
X127920000Y-81765000D01*
G75*
G02*
X128095000Y-81590000I175000J0D01*
G01*
G37*
G36*
G01*
X126825000Y-81590000D02*
X127175000Y-81590000D01*
G75*
G02*
X127350000Y-81765000I0J-175000D01*
G01*
X127350000Y-83465000D01*
G75*
G02*
X127175000Y-83640000I-175000J0D01*
G01*
X126825000Y-83640000D01*
G75*
G02*
X126650000Y-83465000I0J175000D01*
G01*
X126650000Y-81765000D01*
G75*
G02*
X126825000Y-81590000I175000J0D01*
G01*
G37*
G36*
G01*
X125555000Y-81590000D02*
X125905000Y-81590000D01*
G75*
G02*
X126080000Y-81765000I0J-175000D01*
G01*
X126080000Y-83465000D01*
G75*
G02*
X125905000Y-83640000I-175000J0D01*
G01*
X125555000Y-83640000D01*
G75*
G02*
X125380000Y-83465000I0J175000D01*
G01*
X125380000Y-81765000D01*
G75*
G02*
X125555000Y-81590000I175000J0D01*
G01*
G37*
G36*
G01*
X124285000Y-81590000D02*
X124635000Y-81590000D01*
G75*
G02*
X124810000Y-81765000I0J-175000D01*
G01*
X124810000Y-83465000D01*
G75*
G02*
X124635000Y-83640000I-175000J0D01*
G01*
X124285000Y-83640000D01*
G75*
G02*
X124110000Y-83465000I0J175000D01*
G01*
X124110000Y-81765000D01*
G75*
G02*
X124285000Y-81590000I175000J0D01*
G01*
G37*
G36*
G01*
X123015000Y-81590000D02*
X123365000Y-81590000D01*
G75*
G02*
X123540000Y-81765000I0J-175000D01*
G01*
X123540000Y-83465000D01*
G75*
G02*
X123365000Y-83640000I-175000J0D01*
G01*
X123015000Y-83640000D01*
G75*
G02*
X122840000Y-83465000I0J175000D01*
G01*
X122840000Y-81765000D01*
G75*
G02*
X123015000Y-81590000I175000J0D01*
G01*
G37*
G36*
G01*
X121745000Y-81590000D02*
X122095000Y-81590000D01*
G75*
G02*
X122270000Y-81765000I0J-175000D01*
G01*
X122270000Y-83465000D01*
G75*
G02*
X122095000Y-83640000I-175000J0D01*
G01*
X121745000Y-83640000D01*
G75*
G02*
X121570000Y-83465000I0J175000D01*
G01*
X121570000Y-81765000D01*
G75*
G02*
X121745000Y-81590000I175000J0D01*
G01*
G37*
G36*
G01*
X120475000Y-81590000D02*
X120825000Y-81590000D01*
G75*
G02*
X121000000Y-81765000I0J-175000D01*
G01*
X121000000Y-83465000D01*
G75*
G02*
X120825000Y-83640000I-175000J0D01*
G01*
X120475000Y-83640000D01*
G75*
G02*
X120300000Y-83465000I0J175000D01*
G01*
X120300000Y-81765000D01*
G75*
G02*
X120475000Y-81590000I175000J0D01*
G01*
G37*
G36*
G01*
X120475000Y-86540000D02*
X120825000Y-86540000D01*
G75*
G02*
X121000000Y-86715000I0J-175000D01*
G01*
X121000000Y-88415000D01*
G75*
G02*
X120825000Y-88590000I-175000J0D01*
G01*
X120475000Y-88590000D01*
G75*
G02*
X120300000Y-88415000I0J175000D01*
G01*
X120300000Y-86715000D01*
G75*
G02*
X120475000Y-86540000I175000J0D01*
G01*
G37*
G36*
G01*
X121745000Y-86540000D02*
X122095000Y-86540000D01*
G75*
G02*
X122270000Y-86715000I0J-175000D01*
G01*
X122270000Y-88415000D01*
G75*
G02*
X122095000Y-88590000I-175000J0D01*
G01*
X121745000Y-88590000D01*
G75*
G02*
X121570000Y-88415000I0J175000D01*
G01*
X121570000Y-86715000D01*
G75*
G02*
X121745000Y-86540000I175000J0D01*
G01*
G37*
G36*
G01*
X123015000Y-86540000D02*
X123365000Y-86540000D01*
G75*
G02*
X123540000Y-86715000I0J-175000D01*
G01*
X123540000Y-88415000D01*
G75*
G02*
X123365000Y-88590000I-175000J0D01*
G01*
X123015000Y-88590000D01*
G75*
G02*
X122840000Y-88415000I0J175000D01*
G01*
X122840000Y-86715000D01*
G75*
G02*
X123015000Y-86540000I175000J0D01*
G01*
G37*
G36*
G01*
X124285000Y-86540000D02*
X124635000Y-86540000D01*
G75*
G02*
X124810000Y-86715000I0J-175000D01*
G01*
X124810000Y-88415000D01*
G75*
G02*
X124635000Y-88590000I-175000J0D01*
G01*
X124285000Y-88590000D01*
G75*
G02*
X124110000Y-88415000I0J175000D01*
G01*
X124110000Y-86715000D01*
G75*
G02*
X124285000Y-86540000I175000J0D01*
G01*
G37*
G36*
G01*
X125555000Y-86540000D02*
X125905000Y-86540000D01*
G75*
G02*
X126080000Y-86715000I0J-175000D01*
G01*
X126080000Y-88415000D01*
G75*
G02*
X125905000Y-88590000I-175000J0D01*
G01*
X125555000Y-88590000D01*
G75*
G02*
X125380000Y-88415000I0J175000D01*
G01*
X125380000Y-86715000D01*
G75*
G02*
X125555000Y-86540000I175000J0D01*
G01*
G37*
G36*
G01*
X126825000Y-86540000D02*
X127175000Y-86540000D01*
G75*
G02*
X127350000Y-86715000I0J-175000D01*
G01*
X127350000Y-88415000D01*
G75*
G02*
X127175000Y-88590000I-175000J0D01*
G01*
X126825000Y-88590000D01*
G75*
G02*
X126650000Y-88415000I0J175000D01*
G01*
X126650000Y-86715000D01*
G75*
G02*
X126825000Y-86540000I175000J0D01*
G01*
G37*
G36*
G01*
X128095000Y-86540000D02*
X128445000Y-86540000D01*
G75*
G02*
X128620000Y-86715000I0J-175000D01*
G01*
X128620000Y-88415000D01*
G75*
G02*
X128445000Y-88590000I-175000J0D01*
G01*
X128095000Y-88590000D01*
G75*
G02*
X127920000Y-88415000I0J175000D01*
G01*
X127920000Y-86715000D01*
G75*
G02*
X128095000Y-86540000I175000J0D01*
G01*
G37*
G36*
G01*
X129365000Y-86540000D02*
X129715000Y-86540000D01*
G75*
G02*
X129890000Y-86715000I0J-175000D01*
G01*
X129890000Y-88415000D01*
G75*
G02*
X129715000Y-88590000I-175000J0D01*
G01*
X129365000Y-88590000D01*
G75*
G02*
X129190000Y-88415000I0J175000D01*
G01*
X129190000Y-86715000D01*
G75*
G02*
X129365000Y-86540000I175000J0D01*
G01*
G37*
D13*
X121650000Y-71435000D03*
X121650000Y-69535000D03*
X119650000Y-70485000D03*
X126730000Y-71435000D03*
X126730000Y-69535000D03*
X124730000Y-70485000D03*
X131810000Y-71435000D03*
X131810000Y-69535000D03*
X129810000Y-70485000D03*
X136890000Y-71435000D03*
X136890000Y-69535000D03*
X134890000Y-70485000D03*
D11*
X135890000Y-66040000D03*
D10*
X133350000Y-66040000D03*
X130810000Y-66040000D03*
X128270000Y-66040000D03*
X125730000Y-66040000D03*
X123190000Y-66040000D03*
X120650000Y-66040000D03*
X118110000Y-66040000D03*
G36*
G01*
X131707500Y-88445000D02*
X131182500Y-88445000D01*
G75*
G02*
X130920000Y-88182500I0J262500D01*
G01*
X130920000Y-87557500D01*
G75*
G02*
X131182500Y-87295000I262500J0D01*
G01*
X131707500Y-87295000D01*
G75*
G02*
X131970000Y-87557500I0J-262500D01*
G01*
X131970000Y-88182500D01*
G75*
G02*
X131707500Y-88445000I-262500J0D01*
G01*
G37*
G36*
G01*
X131707500Y-86695000D02*
X131182500Y-86695000D01*
G75*
G02*
X130920000Y-86432500I0J262500D01*
G01*
X130920000Y-85807500D01*
G75*
G02*
X131182500Y-85545000I262500J0D01*
G01*
X131707500Y-85545000D01*
G75*
G02*
X131970000Y-85807500I0J-262500D01*
G01*
X131970000Y-86432500D01*
G75*
G02*
X131707500Y-86695000I-262500J0D01*
G01*
G37*
D13*
X157750000Y-70485000D03*
X159750000Y-69535000D03*
X159750000Y-71435000D03*
X152670000Y-70485000D03*
X154670000Y-69535000D03*
X154670000Y-71435000D03*
X147590000Y-70485000D03*
X149590000Y-69535000D03*
X149590000Y-71435000D03*
X142510000Y-70485000D03*
X144510000Y-69535000D03*
X144510000Y-71435000D03*
G36*
G01*
X152225000Y-86540000D02*
X152575000Y-86540000D01*
G75*
G02*
X152750000Y-86715000I0J-175000D01*
G01*
X152750000Y-88415000D01*
G75*
G02*
X152575000Y-88590000I-175000J0D01*
G01*
X152225000Y-88590000D01*
G75*
G02*
X152050000Y-88415000I0J175000D01*
G01*
X152050000Y-86715000D01*
G75*
G02*
X152225000Y-86540000I175000J0D01*
G01*
G37*
G36*
G01*
X150955000Y-86540000D02*
X151305000Y-86540000D01*
G75*
G02*
X151480000Y-86715000I0J-175000D01*
G01*
X151480000Y-88415000D01*
G75*
G02*
X151305000Y-88590000I-175000J0D01*
G01*
X150955000Y-88590000D01*
G75*
G02*
X150780000Y-88415000I0J175000D01*
G01*
X150780000Y-86715000D01*
G75*
G02*
X150955000Y-86540000I175000J0D01*
G01*
G37*
G36*
G01*
X149685000Y-86540000D02*
X150035000Y-86540000D01*
G75*
G02*
X150210000Y-86715000I0J-175000D01*
G01*
X150210000Y-88415000D01*
G75*
G02*
X150035000Y-88590000I-175000J0D01*
G01*
X149685000Y-88590000D01*
G75*
G02*
X149510000Y-88415000I0J175000D01*
G01*
X149510000Y-86715000D01*
G75*
G02*
X149685000Y-86540000I175000J0D01*
G01*
G37*
G36*
G01*
X148415000Y-86540000D02*
X148765000Y-86540000D01*
G75*
G02*
X148940000Y-86715000I0J-175000D01*
G01*
X148940000Y-88415000D01*
G75*
G02*
X148765000Y-88590000I-175000J0D01*
G01*
X148415000Y-88590000D01*
G75*
G02*
X148240000Y-88415000I0J175000D01*
G01*
X148240000Y-86715000D01*
G75*
G02*
X148415000Y-86540000I175000J0D01*
G01*
G37*
G36*
G01*
X147145000Y-86540000D02*
X147495000Y-86540000D01*
G75*
G02*
X147670000Y-86715000I0J-175000D01*
G01*
X147670000Y-88415000D01*
G75*
G02*
X147495000Y-88590000I-175000J0D01*
G01*
X147145000Y-88590000D01*
G75*
G02*
X146970000Y-88415000I0J175000D01*
G01*
X146970000Y-86715000D01*
G75*
G02*
X147145000Y-86540000I175000J0D01*
G01*
G37*
G36*
G01*
X145875000Y-86540000D02*
X146225000Y-86540000D01*
G75*
G02*
X146400000Y-86715000I0J-175000D01*
G01*
X146400000Y-88415000D01*
G75*
G02*
X146225000Y-88590000I-175000J0D01*
G01*
X145875000Y-88590000D01*
G75*
G02*
X145700000Y-88415000I0J175000D01*
G01*
X145700000Y-86715000D01*
G75*
G02*
X145875000Y-86540000I175000J0D01*
G01*
G37*
G36*
G01*
X144605000Y-86540000D02*
X144955000Y-86540000D01*
G75*
G02*
X145130000Y-86715000I0J-175000D01*
G01*
X145130000Y-88415000D01*
G75*
G02*
X144955000Y-88590000I-175000J0D01*
G01*
X144605000Y-88590000D01*
G75*
G02*
X144430000Y-88415000I0J175000D01*
G01*
X144430000Y-86715000D01*
G75*
G02*
X144605000Y-86540000I175000J0D01*
G01*
G37*
G36*
G01*
X143335000Y-86540000D02*
X143685000Y-86540000D01*
G75*
G02*
X143860000Y-86715000I0J-175000D01*
G01*
X143860000Y-88415000D01*
G75*
G02*
X143685000Y-88590000I-175000J0D01*
G01*
X143335000Y-88590000D01*
G75*
G02*
X143160000Y-88415000I0J175000D01*
G01*
X143160000Y-86715000D01*
G75*
G02*
X143335000Y-86540000I175000J0D01*
G01*
G37*
G36*
G01*
X143335000Y-81590000D02*
X143685000Y-81590000D01*
G75*
G02*
X143860000Y-81765000I0J-175000D01*
G01*
X143860000Y-83465000D01*
G75*
G02*
X143685000Y-83640000I-175000J0D01*
G01*
X143335000Y-83640000D01*
G75*
G02*
X143160000Y-83465000I0J175000D01*
G01*
X143160000Y-81765000D01*
G75*
G02*
X143335000Y-81590000I175000J0D01*
G01*
G37*
G36*
G01*
X144605000Y-81590000D02*
X144955000Y-81590000D01*
G75*
G02*
X145130000Y-81765000I0J-175000D01*
G01*
X145130000Y-83465000D01*
G75*
G02*
X144955000Y-83640000I-175000J0D01*
G01*
X144605000Y-83640000D01*
G75*
G02*
X144430000Y-83465000I0J175000D01*
G01*
X144430000Y-81765000D01*
G75*
G02*
X144605000Y-81590000I175000J0D01*
G01*
G37*
G36*
G01*
X145875000Y-81590000D02*
X146225000Y-81590000D01*
G75*
G02*
X146400000Y-81765000I0J-175000D01*
G01*
X146400000Y-83465000D01*
G75*
G02*
X146225000Y-83640000I-175000J0D01*
G01*
X145875000Y-83640000D01*
G75*
G02*
X145700000Y-83465000I0J175000D01*
G01*
X145700000Y-81765000D01*
G75*
G02*
X145875000Y-81590000I175000J0D01*
G01*
G37*
G36*
G01*
X147145000Y-81590000D02*
X147495000Y-81590000D01*
G75*
G02*
X147670000Y-81765000I0J-175000D01*
G01*
X147670000Y-83465000D01*
G75*
G02*
X147495000Y-83640000I-175000J0D01*
G01*
X147145000Y-83640000D01*
G75*
G02*
X146970000Y-83465000I0J175000D01*
G01*
X146970000Y-81765000D01*
G75*
G02*
X147145000Y-81590000I175000J0D01*
G01*
G37*
G36*
G01*
X148415000Y-81590000D02*
X148765000Y-81590000D01*
G75*
G02*
X148940000Y-81765000I0J-175000D01*
G01*
X148940000Y-83465000D01*
G75*
G02*
X148765000Y-83640000I-175000J0D01*
G01*
X148415000Y-83640000D01*
G75*
G02*
X148240000Y-83465000I0J175000D01*
G01*
X148240000Y-81765000D01*
G75*
G02*
X148415000Y-81590000I175000J0D01*
G01*
G37*
G36*
G01*
X149685000Y-81590000D02*
X150035000Y-81590000D01*
G75*
G02*
X150210000Y-81765000I0J-175000D01*
G01*
X150210000Y-83465000D01*
G75*
G02*
X150035000Y-83640000I-175000J0D01*
G01*
X149685000Y-83640000D01*
G75*
G02*
X149510000Y-83465000I0J175000D01*
G01*
X149510000Y-81765000D01*
G75*
G02*
X149685000Y-81590000I175000J0D01*
G01*
G37*
G36*
G01*
X150955000Y-81590000D02*
X151305000Y-81590000D01*
G75*
G02*
X151480000Y-81765000I0J-175000D01*
G01*
X151480000Y-83465000D01*
G75*
G02*
X151305000Y-83640000I-175000J0D01*
G01*
X150955000Y-83640000D01*
G75*
G02*
X150780000Y-83465000I0J175000D01*
G01*
X150780000Y-81765000D01*
G75*
G02*
X150955000Y-81590000I175000J0D01*
G01*
G37*
G36*
G01*
X152225000Y-81590000D02*
X152575000Y-81590000D01*
G75*
G02*
X152750000Y-81765000I0J-175000D01*
G01*
X152750000Y-83465000D01*
G75*
G02*
X152575000Y-83640000I-175000J0D01*
G01*
X152225000Y-83640000D01*
G75*
G02*
X152050000Y-83465000I0J175000D01*
G01*
X152050000Y-81765000D01*
G75*
G02*
X152225000Y-81590000I175000J0D01*
G01*
G37*
D14*
X146290000Y-107925000D03*
X150890000Y-107925000D03*
X148590000Y-107925000D03*
D15*
X148590000Y-101625000D03*
G36*
G01*
X143882500Y-75865000D02*
X144407500Y-75865000D01*
G75*
G02*
X144670000Y-76127500I0J-262500D01*
G01*
X144670000Y-76752500D01*
G75*
G02*
X144407500Y-77015000I-262500J0D01*
G01*
X143882500Y-77015000D01*
G75*
G02*
X143620000Y-76752500I0J262500D01*
G01*
X143620000Y-76127500D01*
G75*
G02*
X143882500Y-75865000I262500J0D01*
G01*
G37*
G36*
G01*
X143882500Y-74115000D02*
X144407500Y-74115000D01*
G75*
G02*
X144670000Y-74377500I0J-262500D01*
G01*
X144670000Y-75002500D01*
G75*
G02*
X144407500Y-75265000I-262500J0D01*
G01*
X143882500Y-75265000D01*
G75*
G02*
X143620000Y-75002500I0J262500D01*
G01*
X143620000Y-74377500D01*
G75*
G02*
X143882500Y-74115000I262500J0D01*
G01*
G37*
G36*
G01*
X148962500Y-75865000D02*
X149487500Y-75865000D01*
G75*
G02*
X149750000Y-76127500I0J-262500D01*
G01*
X149750000Y-76752500D01*
G75*
G02*
X149487500Y-77015000I-262500J0D01*
G01*
X148962500Y-77015000D01*
G75*
G02*
X148700000Y-76752500I0J262500D01*
G01*
X148700000Y-76127500D01*
G75*
G02*
X148962500Y-75865000I262500J0D01*
G01*
G37*
G36*
G01*
X148962500Y-74115000D02*
X149487500Y-74115000D01*
G75*
G02*
X149750000Y-74377500I0J-262500D01*
G01*
X149750000Y-75002500D01*
G75*
G02*
X149487500Y-75265000I-262500J0D01*
G01*
X148962500Y-75265000D01*
G75*
G02*
X148700000Y-75002500I0J262500D01*
G01*
X148700000Y-74377500D01*
G75*
G02*
X148962500Y-74115000I262500J0D01*
G01*
G37*
G36*
G01*
X142502500Y-75265000D02*
X141977500Y-75265000D01*
G75*
G02*
X141715000Y-75002500I0J262500D01*
G01*
X141715000Y-74377500D01*
G75*
G02*
X141977500Y-74115000I262500J0D01*
G01*
X142502500Y-74115000D01*
G75*
G02*
X142765000Y-74377500I0J-262500D01*
G01*
X142765000Y-75002500D01*
G75*
G02*
X142502500Y-75265000I-262500J0D01*
G01*
G37*
G36*
G01*
X142502500Y-77015000D02*
X141977500Y-77015000D01*
G75*
G02*
X141715000Y-76752500I0J262500D01*
G01*
X141715000Y-76127500D01*
G75*
G02*
X141977500Y-75865000I262500J0D01*
G01*
X142502500Y-75865000D01*
G75*
G02*
X142765000Y-76127500I0J-262500D01*
G01*
X142765000Y-76752500D01*
G75*
G02*
X142502500Y-77015000I-262500J0D01*
G01*
G37*
G36*
G01*
X147582500Y-75265000D02*
X147057500Y-75265000D01*
G75*
G02*
X146795000Y-75002500I0J262500D01*
G01*
X146795000Y-74377500D01*
G75*
G02*
X147057500Y-74115000I262500J0D01*
G01*
X147582500Y-74115000D01*
G75*
G02*
X147845000Y-74377500I0J-262500D01*
G01*
X147845000Y-75002500D01*
G75*
G02*
X147582500Y-75265000I-262500J0D01*
G01*
G37*
G36*
G01*
X147582500Y-77015000D02*
X147057500Y-77015000D01*
G75*
G02*
X146795000Y-76752500I0J262500D01*
G01*
X146795000Y-76127500D01*
G75*
G02*
X147057500Y-75865000I262500J0D01*
G01*
X147582500Y-75865000D01*
G75*
G02*
X147845000Y-76127500I0J-262500D01*
G01*
X147845000Y-76752500D01*
G75*
G02*
X147582500Y-77015000I-262500J0D01*
G01*
G37*
G36*
G01*
X154042500Y-74115000D02*
X154567500Y-74115000D01*
G75*
G02*
X154830000Y-74377500I0J-262500D01*
G01*
X154830000Y-75002500D01*
G75*
G02*
X154567500Y-75265000I-262500J0D01*
G01*
X154042500Y-75265000D01*
G75*
G02*
X153780000Y-75002500I0J262500D01*
G01*
X153780000Y-74377500D01*
G75*
G02*
X154042500Y-74115000I262500J0D01*
G01*
G37*
G36*
G01*
X154042500Y-75865000D02*
X154567500Y-75865000D01*
G75*
G02*
X154830000Y-76127500I0J-262500D01*
G01*
X154830000Y-76752500D01*
G75*
G02*
X154567500Y-77015000I-262500J0D01*
G01*
X154042500Y-77015000D01*
G75*
G02*
X153780000Y-76752500I0J262500D01*
G01*
X153780000Y-76127500D01*
G75*
G02*
X154042500Y-75865000I262500J0D01*
G01*
G37*
G36*
G01*
X159122500Y-75865000D02*
X159647500Y-75865000D01*
G75*
G02*
X159910000Y-76127500I0J-262500D01*
G01*
X159910000Y-76752500D01*
G75*
G02*
X159647500Y-77015000I-262500J0D01*
G01*
X159122500Y-77015000D01*
G75*
G02*
X158860000Y-76752500I0J262500D01*
G01*
X158860000Y-76127500D01*
G75*
G02*
X159122500Y-75865000I262500J0D01*
G01*
G37*
G36*
G01*
X159122500Y-74115000D02*
X159647500Y-74115000D01*
G75*
G02*
X159910000Y-74377500I0J-262500D01*
G01*
X159910000Y-75002500D01*
G75*
G02*
X159647500Y-75265000I-262500J0D01*
G01*
X159122500Y-75265000D01*
G75*
G02*
X158860000Y-75002500I0J262500D01*
G01*
X158860000Y-74377500D01*
G75*
G02*
X159122500Y-74115000I262500J0D01*
G01*
G37*
G36*
G01*
X152662500Y-77015000D02*
X152137500Y-77015000D01*
G75*
G02*
X151875000Y-76752500I0J262500D01*
G01*
X151875000Y-76127500D01*
G75*
G02*
X152137500Y-75865000I262500J0D01*
G01*
X152662500Y-75865000D01*
G75*
G02*
X152925000Y-76127500I0J-262500D01*
G01*
X152925000Y-76752500D01*
G75*
G02*
X152662500Y-77015000I-262500J0D01*
G01*
G37*
G36*
G01*
X152662500Y-75265000D02*
X152137500Y-75265000D01*
G75*
G02*
X151875000Y-75002500I0J262500D01*
G01*
X151875000Y-74377500D01*
G75*
G02*
X152137500Y-74115000I262500J0D01*
G01*
X152662500Y-74115000D01*
G75*
G02*
X152925000Y-74377500I0J-262500D01*
G01*
X152925000Y-75002500D01*
G75*
G02*
X152662500Y-75265000I-262500J0D01*
G01*
G37*
G36*
G01*
X157742500Y-75265000D02*
X157217500Y-75265000D01*
G75*
G02*
X156955000Y-75002500I0J262500D01*
G01*
X156955000Y-74377500D01*
G75*
G02*
X157217500Y-74115000I262500J0D01*
G01*
X157742500Y-74115000D01*
G75*
G02*
X158005000Y-74377500I0J-262500D01*
G01*
X158005000Y-75002500D01*
G75*
G02*
X157742500Y-75265000I-262500J0D01*
G01*
G37*
G36*
G01*
X157742500Y-77015000D02*
X157217500Y-77015000D01*
G75*
G02*
X156955000Y-76752500I0J262500D01*
G01*
X156955000Y-76127500D01*
G75*
G02*
X157217500Y-75865000I262500J0D01*
G01*
X157742500Y-75865000D01*
G75*
G02*
X158005000Y-76127500I0J-262500D01*
G01*
X158005000Y-76752500D01*
G75*
G02*
X157742500Y-77015000I-262500J0D01*
G01*
G37*
G36*
G01*
X155312500Y-101025000D02*
X155837500Y-101025000D01*
G75*
G02*
X156100000Y-101287500I0J-262500D01*
G01*
X156100000Y-101912500D01*
G75*
G02*
X155837500Y-102175000I-262500J0D01*
G01*
X155312500Y-102175000D01*
G75*
G02*
X155050000Y-101912500I0J262500D01*
G01*
X155050000Y-101287500D01*
G75*
G02*
X155312500Y-101025000I262500J0D01*
G01*
G37*
G36*
G01*
X155312500Y-99275000D02*
X155837500Y-99275000D01*
G75*
G02*
X156100000Y-99537500I0J-262500D01*
G01*
X156100000Y-100162500D01*
G75*
G02*
X155837500Y-100425000I-262500J0D01*
G01*
X155312500Y-100425000D01*
G75*
G02*
X155050000Y-100162500I0J262500D01*
G01*
X155050000Y-99537500D01*
G75*
G02*
X155312500Y-99275000I262500J0D01*
G01*
G37*
D10*
X140970000Y-66040000D03*
X143510000Y-66040000D03*
X146050000Y-66040000D03*
X148590000Y-66040000D03*
X151130000Y-66040000D03*
X153670000Y-66040000D03*
X156210000Y-66040000D03*
D11*
X158750000Y-66040000D03*
D10*
X159385000Y-114300000D03*
X159385000Y-111760000D03*
X159385000Y-109220000D03*
X159385000Y-106680000D03*
D11*
X159385000Y-104140000D03*
D10*
X140970000Y-114300000D03*
X143510000Y-114300000D03*
X146050000Y-114300000D03*
D11*
X148590000Y-114300000D03*
G36*
G01*
X154567500Y-86695000D02*
X154042500Y-86695000D01*
G75*
G02*
X153780000Y-86432500I0J262500D01*
G01*
X153780000Y-85807500D01*
G75*
G02*
X154042500Y-85545000I262500J0D01*
G01*
X154567500Y-85545000D01*
G75*
G02*
X154830000Y-85807500I0J-262500D01*
G01*
X154830000Y-86432500D01*
G75*
G02*
X154567500Y-86695000I-262500J0D01*
G01*
G37*
G36*
G01*
X154567500Y-88445000D02*
X154042500Y-88445000D01*
G75*
G02*
X153780000Y-88182500I0J262500D01*
G01*
X153780000Y-87557500D01*
G75*
G02*
X154042500Y-87295000I262500J0D01*
G01*
X154567500Y-87295000D01*
G75*
G02*
X154830000Y-87557500I0J-262500D01*
G01*
X154830000Y-88182500D01*
G75*
G02*
X154567500Y-88445000I-262500J0D01*
G01*
G37*
G36*
G01*
X113292500Y-89870000D02*
X112767500Y-89870000D01*
G75*
G02*
X112505000Y-89607500I0J262500D01*
G01*
X112505000Y-88982500D01*
G75*
G02*
X112767500Y-88720000I262500J0D01*
G01*
X113292500Y-88720000D01*
G75*
G02*
X113555000Y-88982500I0J-262500D01*
G01*
X113555000Y-89607500D01*
G75*
G02*
X113292500Y-89870000I-262500J0D01*
G01*
G37*
G36*
G01*
X113292500Y-91620000D02*
X112767500Y-91620000D01*
G75*
G02*
X112505000Y-91357500I0J262500D01*
G01*
X112505000Y-90732500D01*
G75*
G02*
X112767500Y-90470000I262500J0D01*
G01*
X113292500Y-90470000D01*
G75*
G02*
X113555000Y-90732500I0J-262500D01*
G01*
X113555000Y-91357500D01*
G75*
G02*
X113292500Y-91620000I-262500J0D01*
G01*
G37*
G36*
G01*
X117102500Y-89870000D02*
X116577500Y-89870000D01*
G75*
G02*
X116315000Y-89607500I0J262500D01*
G01*
X116315000Y-88982500D01*
G75*
G02*
X116577500Y-88720000I262500J0D01*
G01*
X117102500Y-88720000D01*
G75*
G02*
X117365000Y-88982500I0J-262500D01*
G01*
X117365000Y-89607500D01*
G75*
G02*
X117102500Y-89870000I-262500J0D01*
G01*
G37*
G36*
G01*
X117102500Y-91620000D02*
X116577500Y-91620000D01*
G75*
G02*
X116315000Y-91357500I0J262500D01*
G01*
X116315000Y-90732500D01*
G75*
G02*
X116577500Y-90470000I262500J0D01*
G01*
X117102500Y-90470000D01*
G75*
G02*
X117365000Y-90732500I0J-262500D01*
G01*
X117365000Y-91357500D01*
G75*
G02*
X117102500Y-91620000I-262500J0D01*
G01*
G37*
G36*
G01*
X143247500Y-105075000D02*
X143772500Y-105075000D01*
G75*
G02*
X144035000Y-105337500I0J-262500D01*
G01*
X144035000Y-105962500D01*
G75*
G02*
X143772500Y-106225000I-262500J0D01*
G01*
X143247500Y-106225000D01*
G75*
G02*
X142985000Y-105962500I0J262500D01*
G01*
X142985000Y-105337500D01*
G75*
G02*
X143247500Y-105075000I262500J0D01*
G01*
G37*
G36*
G01*
X143247500Y-103325000D02*
X143772500Y-103325000D01*
G75*
G02*
X144035000Y-103587500I0J-262500D01*
G01*
X144035000Y-104212500D01*
G75*
G02*
X143772500Y-104475000I-262500J0D01*
G01*
X143247500Y-104475000D01*
G75*
G02*
X142985000Y-104212500I0J262500D01*
G01*
X142985000Y-103587500D01*
G75*
G02*
X143247500Y-103325000I262500J0D01*
G01*
G37*
G36*
G01*
X126700000Y-112767500D02*
X126700000Y-113292500D01*
G75*
G02*
X126437500Y-113555000I-262500J0D01*
G01*
X125812500Y-113555000D01*
G75*
G02*
X125550000Y-113292500I0J262500D01*
G01*
X125550000Y-112767500D01*
G75*
G02*
X125812500Y-112505000I262500J0D01*
G01*
X126437500Y-112505000D01*
G75*
G02*
X126700000Y-112767500I0J-262500D01*
G01*
G37*
G36*
G01*
X128450000Y-112767500D02*
X128450000Y-113292500D01*
G75*
G02*
X128187500Y-113555000I-262500J0D01*
G01*
X127562500Y-113555000D01*
G75*
G02*
X127300000Y-113292500I0J262500D01*
G01*
X127300000Y-112767500D01*
G75*
G02*
X127562500Y-112505000I262500J0D01*
G01*
X128187500Y-112505000D01*
G75*
G02*
X128450000Y-112767500I0J-262500D01*
G01*
G37*
G36*
G01*
X131072500Y-94950000D02*
X130547500Y-94950000D01*
G75*
G02*
X130285000Y-94687500I0J262500D01*
G01*
X130285000Y-94062500D01*
G75*
G02*
X130547500Y-93800000I262500J0D01*
G01*
X131072500Y-93800000D01*
G75*
G02*
X131335000Y-94062500I0J-262500D01*
G01*
X131335000Y-94687500D01*
G75*
G02*
X131072500Y-94950000I-262500J0D01*
G01*
G37*
G36*
G01*
X131072500Y-96700000D02*
X130547500Y-96700000D01*
G75*
G02*
X130285000Y-96437500I0J262500D01*
G01*
X130285000Y-95812500D01*
G75*
G02*
X130547500Y-95550000I262500J0D01*
G01*
X131072500Y-95550000D01*
G75*
G02*
X131335000Y-95812500I0J-262500D01*
G01*
X131335000Y-96437500D01*
G75*
G02*
X131072500Y-96700000I-262500J0D01*
G01*
G37*
G36*
G01*
X122182500Y-107650000D02*
X121657500Y-107650000D01*
G75*
G02*
X121395000Y-107387500I0J262500D01*
G01*
X121395000Y-106762500D01*
G75*
G02*
X121657500Y-106500000I262500J0D01*
G01*
X122182500Y-106500000D01*
G75*
G02*
X122445000Y-106762500I0J-262500D01*
G01*
X122445000Y-107387500D01*
G75*
G02*
X122182500Y-107650000I-262500J0D01*
G01*
G37*
G36*
G01*
X122182500Y-109400000D02*
X121657500Y-109400000D01*
G75*
G02*
X121395000Y-109137500I0J262500D01*
G01*
X121395000Y-108512500D01*
G75*
G02*
X121657500Y-108250000I262500J0D01*
G01*
X122182500Y-108250000D01*
G75*
G02*
X122445000Y-108512500I0J-262500D01*
G01*
X122445000Y-109137500D01*
G75*
G02*
X122182500Y-109400000I-262500J0D01*
G01*
G37*
G36*
G01*
X133612500Y-94950000D02*
X133087500Y-94950000D01*
G75*
G02*
X132825000Y-94687500I0J262500D01*
G01*
X132825000Y-94062500D01*
G75*
G02*
X133087500Y-93800000I262500J0D01*
G01*
X133612500Y-93800000D01*
G75*
G02*
X133875000Y-94062500I0J-262500D01*
G01*
X133875000Y-94687500D01*
G75*
G02*
X133612500Y-94950000I-262500J0D01*
G01*
G37*
G36*
G01*
X133612500Y-96700000D02*
X133087500Y-96700000D01*
G75*
G02*
X132825000Y-96437500I0J262500D01*
G01*
X132825000Y-95812500D01*
G75*
G02*
X133087500Y-95550000I262500J0D01*
G01*
X133612500Y-95550000D01*
G75*
G02*
X133875000Y-95812500I0J-262500D01*
G01*
X133875000Y-96437500D01*
G75*
G02*
X133612500Y-96700000I-262500J0D01*
G01*
G37*
G36*
G01*
X122182500Y-103205000D02*
X121657500Y-103205000D01*
G75*
G02*
X121395000Y-102942500I0J262500D01*
G01*
X121395000Y-102317500D01*
G75*
G02*
X121657500Y-102055000I262500J0D01*
G01*
X122182500Y-102055000D01*
G75*
G02*
X122445000Y-102317500I0J-262500D01*
G01*
X122445000Y-102942500D01*
G75*
G02*
X122182500Y-103205000I-262500J0D01*
G01*
G37*
G36*
G01*
X122182500Y-104955000D02*
X121657500Y-104955000D01*
G75*
G02*
X121395000Y-104692500I0J262500D01*
G01*
X121395000Y-104067500D01*
G75*
G02*
X121657500Y-103805000I262500J0D01*
G01*
X122182500Y-103805000D01*
G75*
G02*
X122445000Y-104067500I0J-262500D01*
G01*
X122445000Y-104692500D01*
G75*
G02*
X122182500Y-104955000I-262500J0D01*
G01*
G37*
M02*
