G04 #@! TF.GenerationSoftware,KiCad,Pcbnew,(5.1.6)-1*
G04 #@! TF.CreationDate,2021-02-11T21:03:36+02:00*
G04 #@! TF.ProjectId,spectrum_analyzer,73706563-7472-4756-9d5f-616e616c797a,rev?*
G04 #@! TF.SameCoordinates,Original*
G04 #@! TF.FileFunction,Legend,Top*
G04 #@! TF.FilePolarity,Positive*
%FSLAX46Y46*%
G04 Gerber Fmt 4.6, Leading zero omitted, Abs format (unit mm)*
G04 Created by KiCad (PCBNEW (5.1.6)-1) date 2021-02-11 21:03:36*
%MOMM*%
%LPD*%
G01*
G04 APERTURE LIST*
%ADD10C,0.100000*%
%ADD11C,0.250000*%
%ADD12C,0.300000*%
%ADD13C,0.120000*%
%ADD14C,0.150000*%
G04 APERTURE END LIST*
D10*
G36*
X144780000Y-113030000D02*
G01*
X142240000Y-113030000D01*
X142240000Y-112395000D01*
X144780000Y-112395000D01*
X144780000Y-113030000D01*
G37*
X144780000Y-113030000D02*
X142240000Y-113030000D01*
X142240000Y-112395000D01*
X144780000Y-112395000D01*
X144780000Y-113030000D01*
D11*
X154660714Y-113700000D02*
X154546428Y-113642857D01*
X154375000Y-113642857D01*
X154203571Y-113700000D01*
X154089285Y-113814285D01*
X154032142Y-113928571D01*
X153975000Y-114157142D01*
X153975000Y-114328571D01*
X154032142Y-114557142D01*
X154089285Y-114671428D01*
X154203571Y-114785714D01*
X154375000Y-114842857D01*
X154489285Y-114842857D01*
X154660714Y-114785714D01*
X154717857Y-114728571D01*
X154717857Y-114328571D01*
X154489285Y-114328571D01*
X155232142Y-114842857D02*
X155232142Y-113642857D01*
X155917857Y-114842857D01*
X155917857Y-113642857D01*
X156489285Y-114842857D02*
X156489285Y-113642857D01*
X156775000Y-113642857D01*
X156946428Y-113700000D01*
X157060714Y-113814285D01*
X157117857Y-113928571D01*
X157175000Y-114157142D01*
X157175000Y-114328571D01*
X157117857Y-114557142D01*
X157060714Y-114671428D01*
X156946428Y-114785714D01*
X156775000Y-114842857D01*
X156489285Y-114842857D01*
X152225714Y-112245714D02*
X152397142Y-112302857D01*
X152682857Y-112302857D01*
X152797142Y-112245714D01*
X152854285Y-112188571D01*
X152911428Y-112074285D01*
X152911428Y-111960000D01*
X152854285Y-111845714D01*
X152797142Y-111788571D01*
X152682857Y-111731428D01*
X152454285Y-111674285D01*
X152340000Y-111617142D01*
X152282857Y-111560000D01*
X152225714Y-111445714D01*
X152225714Y-111331428D01*
X152282857Y-111217142D01*
X152340000Y-111160000D01*
X152454285Y-111102857D01*
X152740000Y-111102857D01*
X152911428Y-111160000D01*
X153311428Y-111102857D02*
X153597142Y-112302857D01*
X153825714Y-111445714D01*
X154054285Y-112302857D01*
X154340000Y-111102857D01*
X155482857Y-112188571D02*
X155425714Y-112245714D01*
X155254285Y-112302857D01*
X155140000Y-112302857D01*
X154968571Y-112245714D01*
X154854285Y-112131428D01*
X154797142Y-112017142D01*
X154740000Y-111788571D01*
X154740000Y-111617142D01*
X154797142Y-111388571D01*
X154854285Y-111274285D01*
X154968571Y-111160000D01*
X155140000Y-111102857D01*
X155254285Y-111102857D01*
X155425714Y-111160000D01*
X155482857Y-111217142D01*
X156568571Y-112302857D02*
X155997142Y-112302857D01*
X155997142Y-111102857D01*
X156968571Y-112302857D02*
X156968571Y-111102857D01*
X157654285Y-112302857D02*
X157140000Y-111617142D01*
X157654285Y-111102857D02*
X156968571Y-111788571D01*
X152397142Y-109705714D02*
X152568571Y-109762857D01*
X152854285Y-109762857D01*
X152968571Y-109705714D01*
X153025714Y-109648571D01*
X153082857Y-109534285D01*
X153082857Y-109420000D01*
X153025714Y-109305714D01*
X152968571Y-109248571D01*
X152854285Y-109191428D01*
X152625714Y-109134285D01*
X152511428Y-109077142D01*
X152454285Y-109020000D01*
X152397142Y-108905714D01*
X152397142Y-108791428D01*
X152454285Y-108677142D01*
X152511428Y-108620000D01*
X152625714Y-108562857D01*
X152911428Y-108562857D01*
X153082857Y-108620000D01*
X153482857Y-108562857D02*
X153768571Y-109762857D01*
X153997142Y-108905714D01*
X154225714Y-109762857D01*
X154511428Y-108562857D01*
X154968571Y-109762857D02*
X154968571Y-108562857D01*
X155254285Y-108562857D01*
X155425714Y-108620000D01*
X155540000Y-108734285D01*
X155597142Y-108848571D01*
X155654285Y-109077142D01*
X155654285Y-109248571D01*
X155597142Y-109477142D01*
X155540000Y-109591428D01*
X155425714Y-109705714D01*
X155254285Y-109762857D01*
X154968571Y-109762857D01*
X156168571Y-109762857D02*
X156168571Y-108562857D01*
X156968571Y-108562857D02*
X157197142Y-108562857D01*
X157311428Y-108620000D01*
X157425714Y-108734285D01*
X157482857Y-108962857D01*
X157482857Y-109362857D01*
X157425714Y-109591428D01*
X157311428Y-109705714D01*
X157197142Y-109762857D01*
X156968571Y-109762857D01*
X156854285Y-109705714D01*
X156740000Y-109591428D01*
X156682857Y-109362857D01*
X156682857Y-108962857D01*
X156740000Y-108734285D01*
X156854285Y-108620000D01*
X156968571Y-108562857D01*
X154917857Y-107222857D02*
X154517857Y-106651428D01*
X154232142Y-107222857D02*
X154232142Y-106022857D01*
X154689285Y-106022857D01*
X154803571Y-106080000D01*
X154860714Y-106137142D01*
X154917857Y-106251428D01*
X154917857Y-106422857D01*
X154860714Y-106537142D01*
X154803571Y-106594285D01*
X154689285Y-106651428D01*
X154232142Y-106651428D01*
X155375000Y-107165714D02*
X155546428Y-107222857D01*
X155832142Y-107222857D01*
X155946428Y-107165714D01*
X156003571Y-107108571D01*
X156060714Y-106994285D01*
X156060714Y-106880000D01*
X156003571Y-106765714D01*
X155946428Y-106708571D01*
X155832142Y-106651428D01*
X155603571Y-106594285D01*
X155489285Y-106537142D01*
X155432142Y-106480000D01*
X155375000Y-106365714D01*
X155375000Y-106251428D01*
X155432142Y-106137142D01*
X155489285Y-106080000D01*
X155603571Y-106022857D01*
X155889285Y-106022857D01*
X156060714Y-106080000D01*
X156403571Y-106022857D02*
X157089285Y-106022857D01*
X156746428Y-107222857D02*
X156746428Y-106022857D01*
X152825714Y-104225714D02*
X153740000Y-104225714D01*
X153282857Y-104682857D02*
X153282857Y-103768571D01*
X154197142Y-103482857D02*
X154940000Y-103482857D01*
X154540000Y-103940000D01*
X154711428Y-103940000D01*
X154825714Y-103997142D01*
X154882857Y-104054285D01*
X154940000Y-104168571D01*
X154940000Y-104454285D01*
X154882857Y-104568571D01*
X154825714Y-104625714D01*
X154711428Y-104682857D01*
X154368571Y-104682857D01*
X154254285Y-104625714D01*
X154197142Y-104568571D01*
X155282857Y-103482857D02*
X155682857Y-104682857D01*
X156082857Y-103482857D01*
X156368571Y-103482857D02*
X157111428Y-103482857D01*
X156711428Y-103940000D01*
X156882857Y-103940000D01*
X156997142Y-103997142D01*
X157054285Y-104054285D01*
X157111428Y-104168571D01*
X157111428Y-104454285D01*
X157054285Y-104568571D01*
X156997142Y-104625714D01*
X156882857Y-104682857D01*
X156540000Y-104682857D01*
X156425714Y-104625714D01*
X156368571Y-104568571D01*
D12*
X74160000Y-99672857D02*
X74388571Y-99672857D01*
X74502857Y-99730000D01*
X74617142Y-99844285D01*
X74674285Y-100072857D01*
X74674285Y-100472857D01*
X74617142Y-100701428D01*
X74502857Y-100815714D01*
X74388571Y-100872857D01*
X74160000Y-100872857D01*
X74045714Y-100815714D01*
X73931428Y-100701428D01*
X73874285Y-100472857D01*
X73874285Y-100072857D01*
X73931428Y-99844285D01*
X74045714Y-99730000D01*
X74160000Y-99672857D01*
X75760000Y-100872857D02*
X75188571Y-100872857D01*
X75188571Y-99672857D01*
X76160000Y-100244285D02*
X76560000Y-100244285D01*
X76731428Y-100872857D02*
X76160000Y-100872857D01*
X76160000Y-99672857D01*
X76731428Y-99672857D01*
X77245714Y-100872857D02*
X77245714Y-99672857D01*
X77931428Y-100872857D02*
X77417142Y-100187142D01*
X77931428Y-99672857D02*
X77245714Y-100358571D01*
X78388571Y-100815714D02*
X78560000Y-100872857D01*
X78845714Y-100872857D01*
X78960000Y-100815714D01*
X79017142Y-100758571D01*
X79074285Y-100644285D01*
X79074285Y-100530000D01*
X79017142Y-100415714D01*
X78960000Y-100358571D01*
X78845714Y-100301428D01*
X78617142Y-100244285D01*
X78502857Y-100187142D01*
X78445714Y-100130000D01*
X78388571Y-100015714D01*
X78388571Y-99901428D01*
X78445714Y-99787142D01*
X78502857Y-99730000D01*
X78617142Y-99672857D01*
X78902857Y-99672857D01*
X79074285Y-99730000D01*
X79531428Y-100530000D02*
X80102857Y-100530000D01*
X79417142Y-100872857D02*
X79817142Y-99672857D01*
X80217142Y-100872857D01*
X80617142Y-100872857D02*
X80617142Y-99672857D01*
X81302857Y-100872857D01*
X81302857Y-99672857D01*
X81874285Y-100872857D02*
X81874285Y-99672857D01*
X82160000Y-99672857D01*
X82331428Y-99730000D01*
X82445714Y-99844285D01*
X82502857Y-99958571D01*
X82560000Y-100187142D01*
X82560000Y-100358571D01*
X82502857Y-100587142D01*
X82445714Y-100701428D01*
X82331428Y-100815714D01*
X82160000Y-100872857D01*
X81874285Y-100872857D01*
X83760000Y-100872857D02*
X83360000Y-100301428D01*
X83074285Y-100872857D02*
X83074285Y-99672857D01*
X83531428Y-99672857D01*
X83645714Y-99730000D01*
X83702857Y-99787142D01*
X83760000Y-99901428D01*
X83760000Y-100072857D01*
X83702857Y-100187142D01*
X83645714Y-100244285D01*
X83531428Y-100301428D01*
X83074285Y-100301428D01*
X85017142Y-99672857D02*
X85702857Y-99672857D01*
X85360000Y-100872857D02*
X85360000Y-99672857D01*
X86045714Y-100530000D02*
X86617142Y-100530000D01*
X85931428Y-100872857D02*
X86331428Y-99672857D01*
X86731428Y-100872857D01*
X87074285Y-100815714D02*
X87245714Y-100872857D01*
X87531428Y-100872857D01*
X87645714Y-100815714D01*
X87702857Y-100758571D01*
X87760000Y-100644285D01*
X87760000Y-100530000D01*
X87702857Y-100415714D01*
X87645714Y-100358571D01*
X87531428Y-100301428D01*
X87302857Y-100244285D01*
X87188571Y-100187142D01*
X87131428Y-100130000D01*
X87074285Y-100015714D01*
X87074285Y-99901428D01*
X87131428Y-99787142D01*
X87188571Y-99730000D01*
X87302857Y-99672857D01*
X87588571Y-99672857D01*
X87760000Y-99730000D01*
X88274285Y-100872857D02*
X88274285Y-99672857D01*
X88274285Y-100244285D02*
X88960000Y-100244285D01*
X88960000Y-100872857D02*
X88960000Y-99672857D01*
X89531428Y-100872857D02*
X89531428Y-99672857D01*
X90217142Y-100872857D01*
X90217142Y-99672857D01*
X91017142Y-99672857D02*
X91245714Y-99672857D01*
X91360000Y-99730000D01*
X91474285Y-99844285D01*
X91531428Y-100072857D01*
X91531428Y-100472857D01*
X91474285Y-100701428D01*
X91360000Y-100815714D01*
X91245714Y-100872857D01*
X91017142Y-100872857D01*
X90902857Y-100815714D01*
X90788571Y-100701428D01*
X90731428Y-100472857D01*
X90731428Y-100072857D01*
X90788571Y-99844285D01*
X90902857Y-99730000D01*
X91017142Y-99672857D01*
X94731428Y-99787142D02*
X94788571Y-99730000D01*
X94902857Y-99672857D01*
X95188571Y-99672857D01*
X95302857Y-99730000D01*
X95360000Y-99787142D01*
X95417142Y-99901428D01*
X95417142Y-100015714D01*
X95360000Y-100187142D01*
X94674285Y-100872857D01*
X95417142Y-100872857D01*
X96159999Y-99672857D02*
X96274285Y-99672857D01*
X96388571Y-99730000D01*
X96445714Y-99787142D01*
X96502857Y-99901428D01*
X96559999Y-100130000D01*
X96559999Y-100415714D01*
X96502857Y-100644285D01*
X96445714Y-100758571D01*
X96388571Y-100815714D01*
X96274285Y-100872857D01*
X96159999Y-100872857D01*
X96045714Y-100815714D01*
X95988571Y-100758571D01*
X95931428Y-100644285D01*
X95874285Y-100415714D01*
X95874285Y-100130000D01*
X95931428Y-99901428D01*
X95988571Y-99787142D01*
X96045714Y-99730000D01*
X96159999Y-99672857D01*
X97017142Y-99787142D02*
X97074285Y-99730000D01*
X97188571Y-99672857D01*
X97474285Y-99672857D01*
X97588571Y-99730000D01*
X97645714Y-99787142D01*
X97702857Y-99901428D01*
X97702857Y-100015714D01*
X97645714Y-100187142D01*
X96959999Y-100872857D01*
X97702857Y-100872857D01*
X98845714Y-100872857D02*
X98159999Y-100872857D01*
X98502857Y-100872857D02*
X98502857Y-99672857D01*
X98388571Y-99844285D01*
X98274285Y-99958571D01*
X98159999Y-100015714D01*
D13*
X67945000Y-99060000D02*
X105410000Y-99060000D01*
D12*
X71518809Y-97964523D02*
X71804523Y-98059761D01*
X72280714Y-98059761D01*
X72471190Y-97964523D01*
X72566428Y-97869285D01*
X72661666Y-97678809D01*
X72661666Y-97488333D01*
X72566428Y-97297857D01*
X72471190Y-97202619D01*
X72280714Y-97107380D01*
X71899761Y-97012142D01*
X71709285Y-96916904D01*
X71614047Y-96821666D01*
X71518809Y-96631190D01*
X71518809Y-96440714D01*
X71614047Y-96250238D01*
X71709285Y-96155000D01*
X71899761Y-96059761D01*
X72375952Y-96059761D01*
X72661666Y-96155000D01*
X73518809Y-98059761D02*
X73518809Y-96059761D01*
X74280714Y-96059761D01*
X74471190Y-96155000D01*
X74566428Y-96250238D01*
X74661666Y-96440714D01*
X74661666Y-96726428D01*
X74566428Y-96916904D01*
X74471190Y-97012142D01*
X74280714Y-97107380D01*
X73518809Y-97107380D01*
X75518809Y-97012142D02*
X76185476Y-97012142D01*
X76471190Y-98059761D02*
X75518809Y-98059761D01*
X75518809Y-96059761D01*
X76471190Y-96059761D01*
X78471190Y-97869285D02*
X78375952Y-97964523D01*
X78090238Y-98059761D01*
X77899761Y-98059761D01*
X77614047Y-97964523D01*
X77423571Y-97774047D01*
X77328333Y-97583571D01*
X77233095Y-97202619D01*
X77233095Y-96916904D01*
X77328333Y-96535952D01*
X77423571Y-96345476D01*
X77614047Y-96155000D01*
X77899761Y-96059761D01*
X78090238Y-96059761D01*
X78375952Y-96155000D01*
X78471190Y-96250238D01*
X79042619Y-96059761D02*
X80185476Y-96059761D01*
X79614047Y-98059761D02*
X79614047Y-96059761D01*
X81994999Y-98059761D02*
X81328333Y-97107380D01*
X80852142Y-98059761D02*
X80852142Y-96059761D01*
X81614047Y-96059761D01*
X81804523Y-96155000D01*
X81899761Y-96250238D01*
X81994999Y-96440714D01*
X81994999Y-96726428D01*
X81899761Y-96916904D01*
X81804523Y-97012142D01*
X81614047Y-97107380D01*
X80852142Y-97107380D01*
X82852142Y-96059761D02*
X82852142Y-97678809D01*
X82947380Y-97869285D01*
X83042619Y-97964523D01*
X83233095Y-98059761D01*
X83614047Y-98059761D01*
X83804523Y-97964523D01*
X83899761Y-97869285D01*
X83994999Y-97678809D01*
X83994999Y-96059761D01*
X84947380Y-98059761D02*
X84947380Y-96059761D01*
X85614047Y-97488333D01*
X86280714Y-96059761D01*
X86280714Y-98059761D01*
X88661666Y-97488333D02*
X89614047Y-97488333D01*
X88471190Y-98059761D02*
X89137857Y-96059761D01*
X89804523Y-98059761D01*
X90471190Y-98059761D02*
X90471190Y-96059761D01*
X91614047Y-98059761D01*
X91614047Y-96059761D01*
X92471190Y-97488333D02*
X93423571Y-97488333D01*
X92280714Y-98059761D02*
X92947380Y-96059761D01*
X93614047Y-98059761D01*
X95233095Y-98059761D02*
X94280714Y-98059761D01*
X94280714Y-96059761D01*
X96280714Y-97107380D02*
X96280714Y-98059761D01*
X95614047Y-96059761D02*
X96280714Y-97107380D01*
X96947380Y-96059761D01*
X97518809Y-97964523D02*
X97804523Y-98059761D01*
X98280714Y-98059761D01*
X98471190Y-97964523D01*
X98566428Y-97869285D01*
X98661666Y-97678809D01*
X98661666Y-97488333D01*
X98566428Y-97297857D01*
X98471190Y-97202619D01*
X98280714Y-97107380D01*
X97899761Y-97012142D01*
X97709285Y-96916904D01*
X97614047Y-96821666D01*
X97518809Y-96631190D01*
X97518809Y-96440714D01*
X97614047Y-96250238D01*
X97709285Y-96155000D01*
X97899761Y-96059761D01*
X98375952Y-96059761D01*
X98661666Y-96155000D01*
X99518809Y-97012142D02*
X100185476Y-97012142D01*
X100471190Y-98059761D02*
X99518809Y-98059761D01*
X99518809Y-96059761D01*
X100471190Y-96059761D01*
X102471190Y-98059761D02*
X101804523Y-97107380D01*
X101328333Y-98059761D02*
X101328333Y-96059761D01*
X102090238Y-96059761D01*
X102280714Y-96155000D01*
X102375952Y-96250238D01*
X102471190Y-96440714D01*
X102471190Y-96726428D01*
X102375952Y-96916904D01*
X102280714Y-97012142D01*
X102090238Y-97107380D01*
X101328333Y-97107380D01*
D13*
X158625000Y-86823733D02*
X158625000Y-87166267D01*
X157605000Y-86823733D02*
X157605000Y-87166267D01*
X156945000Y-87795000D02*
X156945000Y-85335000D01*
X156945000Y-85335000D02*
X155475000Y-85335000D01*
X155475000Y-85335000D02*
X155475000Y-87795000D01*
X135380000Y-91611267D02*
X135380000Y-91268733D01*
X136400000Y-91611267D02*
X136400000Y-91268733D01*
X136625000Y-96050000D02*
X136625000Y-93590000D01*
X136625000Y-93590000D02*
X135155000Y-93590000D01*
X135155000Y-93590000D02*
X135155000Y-96050000D01*
X106456267Y-111635000D02*
X106113733Y-111635000D01*
X106456267Y-110615000D02*
X106113733Y-110615000D01*
X68580000Y-115630000D02*
X68580000Y-112970000D01*
X68580000Y-115630000D02*
X106740000Y-115630000D01*
X106740000Y-115630000D02*
X106740000Y-112970000D01*
X68580000Y-112970000D02*
X106740000Y-112970000D01*
X65980000Y-112970000D02*
X67310000Y-112970000D01*
X65980000Y-114300000D02*
X65980000Y-112970000D01*
X148761267Y-110615000D02*
X148418733Y-110615000D01*
X148761267Y-111635000D02*
X148418733Y-111635000D01*
X121635000Y-92700000D02*
X109035000Y-92700000D01*
X121635000Y-97800000D02*
X121635000Y-92700000D01*
X109035000Y-97800000D02*
X121635000Y-97800000D01*
X159385000Y-97850000D02*
X158055000Y-97850000D01*
X158055000Y-97850000D02*
X158055000Y-96520000D01*
X158055000Y-95250000D02*
X158055000Y-92650000D01*
X160715000Y-92650000D02*
X158055000Y-92650000D01*
X160715000Y-95250000D02*
X160715000Y-92650000D01*
X160715000Y-95250000D02*
X158055000Y-95250000D01*
X131408249Y-98855120D02*
X130460725Y-97907597D01*
X132080000Y-98183369D02*
X131408249Y-98855120D01*
X132751751Y-98855120D02*
X132080000Y-98183369D01*
X139306631Y-105410000D02*
X138634880Y-106081751D01*
X138634880Y-104738249D02*
X139306631Y-105410000D01*
X124853369Y-105410000D02*
X125525120Y-104738249D01*
X125525120Y-106081751D02*
X124853369Y-105410000D01*
X132080000Y-112636631D02*
X132751751Y-111964880D01*
X131408249Y-111964880D02*
X132080000Y-112636631D01*
X94740000Y-109683734D02*
X94740000Y-110026268D01*
X95760000Y-109683734D02*
X95760000Y-110026268D01*
X102360000Y-109683733D02*
X102360000Y-110026267D01*
X103380000Y-109683733D02*
X103380000Y-110026267D01*
X99820000Y-109683733D02*
X99820000Y-110026267D01*
X100840000Y-109683733D02*
X100840000Y-110026267D01*
X97280000Y-109683734D02*
X97280000Y-110026268D01*
X98300000Y-109683734D02*
X98300000Y-110026268D01*
X92200000Y-109683734D02*
X92200000Y-110026268D01*
X93220000Y-109683734D02*
X93220000Y-110026268D01*
X89660000Y-109683733D02*
X89660000Y-110026267D01*
X90680000Y-109683733D02*
X90680000Y-110026267D01*
X84580000Y-109683734D02*
X84580000Y-110026268D01*
X85600000Y-109683734D02*
X85600000Y-110026268D01*
X76960000Y-109683733D02*
X76960000Y-110026267D01*
X77980000Y-109683733D02*
X77980000Y-110026267D01*
X71880000Y-109683734D02*
X71880000Y-110026268D01*
X72900000Y-109683734D02*
X72900000Y-110026268D01*
X67820000Y-109683733D02*
X67820000Y-110026267D01*
X66800000Y-109683733D02*
X66800000Y-110026267D01*
X79500000Y-109683733D02*
X79500000Y-110026267D01*
X80520000Y-109683733D02*
X80520000Y-110026267D01*
X82040000Y-109683734D02*
X82040000Y-110026268D01*
X83060000Y-109683734D02*
X83060000Y-110026268D01*
X87119999Y-109683734D02*
X87119999Y-110026268D01*
X88139999Y-109683734D02*
X88139999Y-110026268D01*
X74420000Y-109683734D02*
X74420000Y-110026268D01*
X75440000Y-109683734D02*
X75440000Y-110026268D01*
X69340000Y-109683734D02*
X69340000Y-110026268D01*
X70360000Y-109683734D02*
X70360000Y-110026268D01*
X74170000Y-75736267D02*
X74170000Y-75393733D01*
X73150000Y-75736267D02*
X73150000Y-75393733D01*
X75055000Y-75393733D02*
X75055000Y-75736267D01*
X76075000Y-75393733D02*
X76075000Y-75736267D01*
X80135000Y-75393733D02*
X80135000Y-75736267D01*
X81155000Y-75393733D02*
X81155000Y-75736267D01*
X79250000Y-75736267D02*
X79250000Y-75393733D01*
X78230000Y-75736267D02*
X78230000Y-75393733D01*
X86235000Y-75393733D02*
X86235000Y-75736267D01*
X85215000Y-75393733D02*
X85215000Y-75736267D01*
X89410000Y-75736267D02*
X89410000Y-75393733D01*
X88390000Y-75736267D02*
X88390000Y-75393733D01*
X90295000Y-75393733D02*
X90295000Y-75736267D01*
X91315000Y-75393733D02*
X91315000Y-75736267D01*
X83310000Y-75736267D02*
X83310000Y-75393733D01*
X84330000Y-75736267D02*
X84330000Y-75393733D01*
X97030000Y-75736267D02*
X97030000Y-75393733D01*
X96010000Y-75736267D02*
X96010000Y-75393733D01*
X97915000Y-75393733D02*
X97915000Y-75736267D01*
X98935000Y-75393733D02*
X98935000Y-75736267D01*
X102995000Y-75393733D02*
X102995000Y-75736267D01*
X104015000Y-75393733D02*
X104015000Y-75736267D01*
X102110000Y-75736267D02*
X102110000Y-75393733D01*
X101090000Y-75736267D02*
X101090000Y-75393733D01*
X109095000Y-75393733D02*
X109095000Y-75736267D01*
X108075000Y-75393733D02*
X108075000Y-75736267D01*
X112270000Y-75736267D02*
X112270000Y-75393733D01*
X111250000Y-75736267D02*
X111250000Y-75393733D01*
X113155000Y-75393733D02*
X113155000Y-75736267D01*
X114175000Y-75393733D02*
X114175000Y-75736267D01*
X106170000Y-75736267D02*
X106170000Y-75393733D01*
X107190000Y-75736267D02*
X107190000Y-75393733D01*
X119890000Y-75736267D02*
X119890000Y-75393733D01*
X118870000Y-75736267D02*
X118870000Y-75393733D01*
X120775000Y-75393733D02*
X120775000Y-75736267D01*
X121795000Y-75393733D02*
X121795000Y-75736267D01*
X125855000Y-75393733D02*
X125855000Y-75736267D01*
X126875000Y-75393733D02*
X126875000Y-75736267D01*
X124970000Y-75736267D02*
X124970000Y-75393733D01*
X123950000Y-75736267D02*
X123950000Y-75393733D01*
X131955000Y-75393733D02*
X131955000Y-75736267D01*
X130935000Y-75393733D02*
X130935000Y-75736267D01*
X135130000Y-75736267D02*
X135130000Y-75393733D01*
X134110000Y-75736267D02*
X134110000Y-75393733D01*
X136015000Y-75393733D02*
X136015000Y-75736267D01*
X137035000Y-75393733D02*
X137035000Y-75736267D01*
X129030000Y-75736267D02*
X129030000Y-75393733D01*
X130050000Y-75736267D02*
X130050000Y-75393733D01*
X84435000Y-85090000D02*
X84435000Y-81640000D01*
X84435000Y-85090000D02*
X84435000Y-87040000D01*
X74315000Y-85090000D02*
X74315000Y-83140000D01*
X74315000Y-85090000D02*
X74315000Y-87040000D01*
X74170000Y-68905000D02*
X75630000Y-68905000D01*
X74170000Y-72065000D02*
X76330000Y-72065000D01*
X74170000Y-72065000D02*
X74170000Y-71135000D01*
X74170000Y-68905000D02*
X74170000Y-69835000D01*
X79250000Y-68905000D02*
X80710000Y-68905000D01*
X79250000Y-72065000D02*
X81410000Y-72065000D01*
X79250000Y-72065000D02*
X79250000Y-71135000D01*
X79250000Y-68905000D02*
X79250000Y-69835000D01*
X84330000Y-68905000D02*
X85790000Y-68905000D01*
X84330000Y-72065000D02*
X86490000Y-72065000D01*
X84330000Y-72065000D02*
X84330000Y-71135000D01*
X84330000Y-68905000D02*
X84330000Y-69835000D01*
X89410000Y-68905000D02*
X90870000Y-68905000D01*
X89410000Y-72065000D02*
X91570000Y-72065000D01*
X89410000Y-72065000D02*
X89410000Y-71135000D01*
X89410000Y-68905000D02*
X89410000Y-69835000D01*
X91500000Y-64710000D02*
X91500000Y-66040000D01*
X90170000Y-64710000D02*
X91500000Y-64710000D01*
X88900000Y-64710000D02*
X88900000Y-67370000D01*
X88900000Y-67370000D02*
X71060000Y-67370000D01*
X88900000Y-64710000D02*
X71060000Y-64710000D01*
X71060000Y-64710000D02*
X71060000Y-67370000D01*
X86235000Y-87166267D02*
X86235000Y-86823733D01*
X85215000Y-87166267D02*
X85215000Y-86823733D01*
X107295000Y-85090000D02*
X107295000Y-81640000D01*
X107295000Y-85090000D02*
X107295000Y-87040000D01*
X97175000Y-85090000D02*
X97175000Y-83140000D01*
X97175000Y-85090000D02*
X97175000Y-87040000D01*
X97030000Y-68905000D02*
X98490000Y-68905000D01*
X97030000Y-72065000D02*
X99190000Y-72065000D01*
X97030000Y-72065000D02*
X97030000Y-71135000D01*
X97030000Y-68905000D02*
X97030000Y-69835000D01*
X102110000Y-68905000D02*
X103570000Y-68905000D01*
X102110000Y-72065000D02*
X104270000Y-72065000D01*
X102110000Y-72065000D02*
X102110000Y-71135000D01*
X102110000Y-68905000D02*
X102110000Y-69835000D01*
X107190000Y-68905000D02*
X108650000Y-68905000D01*
X107190000Y-72065000D02*
X109350000Y-72065000D01*
X107190000Y-72065000D02*
X107190000Y-71135000D01*
X107190000Y-68905000D02*
X107190000Y-69835000D01*
X112270000Y-68905000D02*
X113730000Y-68905000D01*
X112270000Y-72065000D02*
X114430000Y-72065000D01*
X112270000Y-72065000D02*
X112270000Y-71135000D01*
X112270000Y-68905000D02*
X112270000Y-69835000D01*
X114360000Y-64710000D02*
X114360000Y-66040000D01*
X113030000Y-64710000D02*
X114360000Y-64710000D01*
X111760000Y-64710000D02*
X111760000Y-67370000D01*
X111760000Y-67370000D02*
X93920000Y-67370000D01*
X111760000Y-64710000D02*
X93920000Y-64710000D01*
X93920000Y-64710000D02*
X93920000Y-67370000D01*
X109095000Y-87166267D02*
X109095000Y-86823733D01*
X108075000Y-87166267D02*
X108075000Y-86823733D01*
X130155000Y-85090000D02*
X130155000Y-81640000D01*
X130155000Y-85090000D02*
X130155000Y-87040000D01*
X120035000Y-85090000D02*
X120035000Y-83140000D01*
X120035000Y-85090000D02*
X120035000Y-87040000D01*
X119890000Y-68905000D02*
X121350000Y-68905000D01*
X119890000Y-72065000D02*
X122050000Y-72065000D01*
X119890000Y-72065000D02*
X119890000Y-71135000D01*
X119890000Y-68905000D02*
X119890000Y-69835000D01*
X124970000Y-68905000D02*
X126430000Y-68905000D01*
X124970000Y-72065000D02*
X127130000Y-72065000D01*
X124970000Y-72065000D02*
X124970000Y-71135000D01*
X124970000Y-68905000D02*
X124970000Y-69835000D01*
X130050000Y-68905000D02*
X131510000Y-68905000D01*
X130050000Y-72065000D02*
X132210000Y-72065000D01*
X130050000Y-72065000D02*
X130050000Y-71135000D01*
X130050000Y-68905000D02*
X130050000Y-69835000D01*
X135130000Y-68905000D02*
X136590000Y-68905000D01*
X135130000Y-72065000D02*
X137290000Y-72065000D01*
X135130000Y-72065000D02*
X135130000Y-71135000D01*
X135130000Y-68905000D02*
X135130000Y-69835000D01*
X137220000Y-64710000D02*
X137220000Y-66040000D01*
X135890000Y-64710000D02*
X137220000Y-64710000D01*
X134620000Y-64710000D02*
X134620000Y-67370000D01*
X134620000Y-67370000D02*
X116780000Y-67370000D01*
X134620000Y-64710000D02*
X116780000Y-64710000D01*
X116780000Y-64710000D02*
X116780000Y-67370000D01*
X131955000Y-87166267D02*
X131955000Y-86823733D01*
X130935000Y-87166267D02*
X130935000Y-86823733D01*
X157990000Y-68905000D02*
X159450000Y-68905000D01*
X157990000Y-72065000D02*
X160150000Y-72065000D01*
X157990000Y-72065000D02*
X157990000Y-71135000D01*
X157990000Y-68905000D02*
X157990000Y-69835000D01*
X152910000Y-68905000D02*
X154370000Y-68905000D01*
X152910000Y-72065000D02*
X155070000Y-72065000D01*
X152910000Y-72065000D02*
X152910000Y-71135000D01*
X152910000Y-68905000D02*
X152910000Y-69835000D01*
X147830000Y-68905000D02*
X149290000Y-68905000D01*
X147830000Y-72065000D02*
X149990000Y-72065000D01*
X147830000Y-72065000D02*
X147830000Y-71135000D01*
X147830000Y-68905000D02*
X147830000Y-69835000D01*
X142750000Y-68905000D02*
X144210000Y-68905000D01*
X142750000Y-72065000D02*
X144910000Y-72065000D01*
X142750000Y-72065000D02*
X142750000Y-71135000D01*
X142750000Y-68905000D02*
X142750000Y-69835000D01*
X153015000Y-85090000D02*
X153015000Y-81640000D01*
X153015000Y-85090000D02*
X153015000Y-87040000D01*
X142895000Y-85090000D02*
X142895000Y-83140000D01*
X142895000Y-85090000D02*
X142895000Y-87040000D01*
X145180000Y-108875000D02*
X145180000Y-102865000D01*
X152000000Y-106625000D02*
X152000000Y-102865000D01*
X145180000Y-102865000D02*
X146440000Y-102865000D01*
X152000000Y-102865000D02*
X150740000Y-102865000D01*
X143635000Y-75393733D02*
X143635000Y-75736267D01*
X144655000Y-75393733D02*
X144655000Y-75736267D01*
X148715000Y-75393733D02*
X148715000Y-75736267D01*
X149735000Y-75393733D02*
X149735000Y-75736267D01*
X142750000Y-75736267D02*
X142750000Y-75393733D01*
X141730000Y-75736267D02*
X141730000Y-75393733D01*
X147830000Y-75736267D02*
X147830000Y-75393733D01*
X146810000Y-75736267D02*
X146810000Y-75393733D01*
X154815000Y-75393733D02*
X154815000Y-75736267D01*
X153795000Y-75393733D02*
X153795000Y-75736267D01*
X158875000Y-75393733D02*
X158875000Y-75736267D01*
X159895000Y-75393733D02*
X159895000Y-75736267D01*
X151890000Y-75736267D02*
X151890000Y-75393733D01*
X152910000Y-75736267D02*
X152910000Y-75393733D01*
X157990000Y-75736267D02*
X157990000Y-75393733D01*
X156970000Y-75736267D02*
X156970000Y-75393733D01*
X155065000Y-100553733D02*
X155065000Y-100896267D01*
X156085000Y-100553733D02*
X156085000Y-100896267D01*
X160080000Y-64710000D02*
X160080000Y-66040000D01*
X158750000Y-64710000D02*
X160080000Y-64710000D01*
X157480000Y-64710000D02*
X157480000Y-67370000D01*
X157480000Y-67370000D02*
X139640000Y-67370000D01*
X157480000Y-64710000D02*
X139640000Y-64710000D01*
X139640000Y-64710000D02*
X139640000Y-67370000D01*
X158055000Y-102810000D02*
X159385000Y-102810000D01*
X158055000Y-104140000D02*
X158055000Y-102810000D01*
X158055000Y-105410000D02*
X160715000Y-105410000D01*
X160715000Y-105410000D02*
X160715000Y-115630000D01*
X158055000Y-105410000D02*
X158055000Y-115630000D01*
X158055000Y-115630000D02*
X160715000Y-115630000D01*
X149920000Y-112970000D02*
X149920000Y-114300000D01*
X148590000Y-112970000D02*
X149920000Y-112970000D01*
X147320000Y-112970000D02*
X147320000Y-115630000D01*
X147320000Y-115630000D02*
X139640000Y-115630000D01*
X147320000Y-112970000D02*
X139640000Y-112970000D01*
X139640000Y-112970000D02*
X139640000Y-115630000D01*
X154815000Y-87166267D02*
X154815000Y-86823733D01*
X153795000Y-87166267D02*
X153795000Y-86823733D01*
X113540000Y-90341267D02*
X113540000Y-89998733D01*
X112520000Y-90341267D02*
X112520000Y-89998733D01*
X117350000Y-90341267D02*
X117350000Y-89998733D01*
X116330000Y-90341267D02*
X116330000Y-89998733D01*
X143000000Y-104603733D02*
X143000000Y-104946267D01*
X144020000Y-104603733D02*
X144020000Y-104946267D01*
X127171267Y-112520000D02*
X126828733Y-112520000D01*
X127171267Y-113540000D02*
X126828733Y-113540000D01*
X131320000Y-95421267D02*
X131320000Y-95078733D01*
X130300000Y-95421267D02*
X130300000Y-95078733D01*
X122430000Y-108121267D02*
X122430000Y-107778733D01*
X121410000Y-108121267D02*
X121410000Y-107778733D01*
X133860000Y-95421267D02*
X133860000Y-95078733D01*
X132840000Y-95421267D02*
X132840000Y-95078733D01*
X122430000Y-103676267D02*
X122430000Y-103333733D01*
X121410000Y-103676267D02*
X121410000Y-103333733D01*
D14*
X158567380Y-90812857D02*
X158091190Y-91146190D01*
X158567380Y-91384285D02*
X157567380Y-91384285D01*
X157567380Y-91003333D01*
X157615000Y-90908095D01*
X157662619Y-90860476D01*
X157757857Y-90812857D01*
X157900714Y-90812857D01*
X157995952Y-90860476D01*
X158043571Y-90908095D01*
X158091190Y-91003333D01*
X158091190Y-91384285D01*
X157995952Y-90241428D02*
X157948333Y-90336666D01*
X157900714Y-90384285D01*
X157805476Y-90431904D01*
X157757857Y-90431904D01*
X157662619Y-90384285D01*
X157615000Y-90336666D01*
X157567380Y-90241428D01*
X157567380Y-90050952D01*
X157615000Y-89955714D01*
X157662619Y-89908095D01*
X157757857Y-89860476D01*
X157805476Y-89860476D01*
X157900714Y-89908095D01*
X157948333Y-89955714D01*
X157995952Y-90050952D01*
X157995952Y-90241428D01*
X158043571Y-90336666D01*
X158091190Y-90384285D01*
X158186428Y-90431904D01*
X158376904Y-90431904D01*
X158472142Y-90384285D01*
X158519761Y-90336666D01*
X158567380Y-90241428D01*
X158567380Y-90050952D01*
X158519761Y-89955714D01*
X158472142Y-89908095D01*
X158376904Y-89860476D01*
X158186428Y-89860476D01*
X158091190Y-89908095D01*
X158043571Y-89955714D01*
X157995952Y-90050952D01*
X157567380Y-89527142D02*
X157567380Y-88908095D01*
X157948333Y-89241428D01*
X157948333Y-89098571D01*
X157995952Y-89003333D01*
X158043571Y-88955714D01*
X158138809Y-88908095D01*
X158376904Y-88908095D01*
X158472142Y-88955714D01*
X158519761Y-89003333D01*
X158567380Y-89098571D01*
X158567380Y-89384285D01*
X158519761Y-89479523D01*
X158472142Y-89527142D01*
X155662380Y-84423095D02*
X155662380Y-83804047D01*
X156043333Y-84137380D01*
X156043333Y-83994523D01*
X156090952Y-83899285D01*
X156138571Y-83851666D01*
X156233809Y-83804047D01*
X156471904Y-83804047D01*
X156567142Y-83851666D01*
X156614761Y-83899285D01*
X156662380Y-83994523D01*
X156662380Y-84280238D01*
X156614761Y-84375476D01*
X156567142Y-84423095D01*
X155662380Y-83518333D02*
X156662380Y-83185000D01*
X155662380Y-82851666D01*
X155662380Y-82613571D02*
X155662380Y-81994523D01*
X156043333Y-82327857D01*
X156043333Y-82185000D01*
X156090952Y-82089761D01*
X156138571Y-82042142D01*
X156233809Y-81994523D01*
X156471904Y-81994523D01*
X156567142Y-82042142D01*
X156614761Y-82089761D01*
X156662380Y-82185000D01*
X156662380Y-82470714D01*
X156614761Y-82565952D01*
X156567142Y-82613571D01*
X138247380Y-92082857D02*
X137771190Y-92416190D01*
X138247380Y-92654285D02*
X137247380Y-92654285D01*
X137247380Y-92273333D01*
X137295000Y-92178095D01*
X137342619Y-92130476D01*
X137437857Y-92082857D01*
X137580714Y-92082857D01*
X137675952Y-92130476D01*
X137723571Y-92178095D01*
X137771190Y-92273333D01*
X137771190Y-92654285D01*
X137675952Y-91511428D02*
X137628333Y-91606666D01*
X137580714Y-91654285D01*
X137485476Y-91701904D01*
X137437857Y-91701904D01*
X137342619Y-91654285D01*
X137295000Y-91606666D01*
X137247380Y-91511428D01*
X137247380Y-91320952D01*
X137295000Y-91225714D01*
X137342619Y-91178095D01*
X137437857Y-91130476D01*
X137485476Y-91130476D01*
X137580714Y-91178095D01*
X137628333Y-91225714D01*
X137675952Y-91320952D01*
X137675952Y-91511428D01*
X137723571Y-91606666D01*
X137771190Y-91654285D01*
X137866428Y-91701904D01*
X138056904Y-91701904D01*
X138152142Y-91654285D01*
X138199761Y-91606666D01*
X138247380Y-91511428D01*
X138247380Y-91320952D01*
X138199761Y-91225714D01*
X138152142Y-91178095D01*
X138056904Y-91130476D01*
X137866428Y-91130476D01*
X137771190Y-91178095D01*
X137723571Y-91225714D01*
X137675952Y-91320952D01*
X137342619Y-90749523D02*
X137295000Y-90701904D01*
X137247380Y-90606666D01*
X137247380Y-90368571D01*
X137295000Y-90273333D01*
X137342619Y-90225714D01*
X137437857Y-90178095D01*
X137533095Y-90178095D01*
X137675952Y-90225714D01*
X138247380Y-90797142D01*
X138247380Y-90178095D01*
X138199761Y-96988095D02*
X138247380Y-96845238D01*
X138247380Y-96607142D01*
X138199761Y-96511904D01*
X138152142Y-96464285D01*
X138056904Y-96416666D01*
X137961666Y-96416666D01*
X137866428Y-96464285D01*
X137818809Y-96511904D01*
X137771190Y-96607142D01*
X137723571Y-96797619D01*
X137675952Y-96892857D01*
X137628333Y-96940476D01*
X137533095Y-96988095D01*
X137437857Y-96988095D01*
X137342619Y-96940476D01*
X137295000Y-96892857D01*
X137247380Y-96797619D01*
X137247380Y-96559523D01*
X137295000Y-96416666D01*
X137771190Y-95797619D02*
X138247380Y-95797619D01*
X137247380Y-96130952D02*
X137771190Y-95797619D01*
X137247380Y-95464285D01*
X138247380Y-95130952D02*
X137247380Y-95130952D01*
X138247380Y-94559523D01*
X137247380Y-94559523D01*
X138152142Y-93511904D02*
X138199761Y-93559523D01*
X138247380Y-93702380D01*
X138247380Y-93797619D01*
X138199761Y-93940476D01*
X138104523Y-94035714D01*
X138009285Y-94083333D01*
X137818809Y-94130952D01*
X137675952Y-94130952D01*
X137485476Y-94083333D01*
X137390238Y-94035714D01*
X137295000Y-93940476D01*
X137247380Y-93797619D01*
X137247380Y-93702380D01*
X137295000Y-93559523D01*
X137342619Y-93511904D01*
X108577142Y-111577380D02*
X108243809Y-111101190D01*
X108005714Y-111577380D02*
X108005714Y-110577380D01*
X108386666Y-110577380D01*
X108481904Y-110625000D01*
X108529523Y-110672619D01*
X108577142Y-110767857D01*
X108577142Y-110910714D01*
X108529523Y-111005952D01*
X108481904Y-111053571D01*
X108386666Y-111101190D01*
X108005714Y-111101190D01*
X109148571Y-111005952D02*
X109053333Y-110958333D01*
X109005714Y-110910714D01*
X108958095Y-110815476D01*
X108958095Y-110767857D01*
X109005714Y-110672619D01*
X109053333Y-110625000D01*
X109148571Y-110577380D01*
X109339047Y-110577380D01*
X109434285Y-110625000D01*
X109481904Y-110672619D01*
X109529523Y-110767857D01*
X109529523Y-110815476D01*
X109481904Y-110910714D01*
X109434285Y-110958333D01*
X109339047Y-111005952D01*
X109148571Y-111005952D01*
X109053333Y-111053571D01*
X109005714Y-111101190D01*
X108958095Y-111196428D01*
X108958095Y-111386904D01*
X109005714Y-111482142D01*
X109053333Y-111529761D01*
X109148571Y-111577380D01*
X109339047Y-111577380D01*
X109434285Y-111529761D01*
X109481904Y-111482142D01*
X109529523Y-111386904D01*
X109529523Y-111196428D01*
X109481904Y-111101190D01*
X109434285Y-111053571D01*
X109339047Y-111005952D01*
X110481904Y-111577380D02*
X109910476Y-111577380D01*
X110196190Y-111577380D02*
X110196190Y-110577380D01*
X110100952Y-110720238D01*
X110005714Y-110815476D01*
X109910476Y-110863095D01*
X64222380Y-114633333D02*
X64936666Y-114633333D01*
X65079523Y-114680952D01*
X65174761Y-114776190D01*
X65222380Y-114919047D01*
X65222380Y-115014285D01*
X65222380Y-113633333D02*
X65222380Y-114204761D01*
X65222380Y-113919047D02*
X64222380Y-113919047D01*
X64365238Y-114014285D01*
X64460476Y-114109523D01*
X64508095Y-114204761D01*
X145533333Y-111482142D02*
X145485714Y-111529761D01*
X145342857Y-111577380D01*
X145247619Y-111577380D01*
X145104761Y-111529761D01*
X145009523Y-111434523D01*
X144961904Y-111339285D01*
X144914285Y-111148809D01*
X144914285Y-111005952D01*
X144961904Y-110815476D01*
X145009523Y-110720238D01*
X145104761Y-110625000D01*
X145247619Y-110577380D01*
X145342857Y-110577380D01*
X145485714Y-110625000D01*
X145533333Y-110672619D01*
X145866666Y-110577380D02*
X146533333Y-110577380D01*
X146104761Y-111577380D01*
X114458809Y-98776190D02*
X114458809Y-99252380D01*
X114125476Y-98252380D02*
X114458809Y-98776190D01*
X114792142Y-98252380D01*
X115649285Y-99252380D02*
X115077857Y-99252380D01*
X115363571Y-99252380D02*
X115363571Y-98252380D01*
X115268333Y-98395238D01*
X115173095Y-98490476D01*
X115077857Y-98538095D01*
X159051666Y-98742380D02*
X159051666Y-99456666D01*
X159004047Y-99599523D01*
X158908809Y-99694761D01*
X158765952Y-99742380D01*
X158670714Y-99742380D01*
X159956428Y-99075714D02*
X159956428Y-99742380D01*
X159718333Y-98694761D02*
X159480238Y-99409047D01*
X160099285Y-99409047D01*
X137161067Y-99251436D02*
X136588647Y-99823856D01*
X136554975Y-99924871D01*
X136554975Y-99992215D01*
X136588647Y-100093230D01*
X136723334Y-100227917D01*
X136824349Y-100261589D01*
X136891693Y-100261589D01*
X136992708Y-100227917D01*
X137565128Y-99655497D01*
X137800830Y-100025887D02*
X137868173Y-100025887D01*
X137969189Y-100059558D01*
X138137547Y-100227917D01*
X138171219Y-100328932D01*
X138171219Y-100396276D01*
X138137547Y-100497291D01*
X138070204Y-100564635D01*
X137935517Y-100631978D01*
X137127395Y-100631978D01*
X137565128Y-101069711D01*
X95702380Y-107322857D02*
X95226190Y-107656190D01*
X95702380Y-107894285D02*
X94702380Y-107894285D01*
X94702380Y-107513333D01*
X94750000Y-107418095D01*
X94797619Y-107370476D01*
X94892857Y-107322857D01*
X95035714Y-107322857D01*
X95130952Y-107370476D01*
X95178571Y-107418095D01*
X95226190Y-107513333D01*
X95226190Y-107894285D01*
X95702380Y-106370476D02*
X95702380Y-106941904D01*
X95702380Y-106656190D02*
X94702380Y-106656190D01*
X94845238Y-106751428D01*
X94940476Y-106846666D01*
X94988095Y-106941904D01*
X94702380Y-106037142D02*
X94702380Y-105418095D01*
X95083333Y-105751428D01*
X95083333Y-105608571D01*
X95130952Y-105513333D01*
X95178571Y-105465714D01*
X95273809Y-105418095D01*
X95511904Y-105418095D01*
X95607142Y-105465714D01*
X95654761Y-105513333D01*
X95702380Y-105608571D01*
X95702380Y-105894285D01*
X95654761Y-105989523D01*
X95607142Y-106037142D01*
X103322380Y-107322857D02*
X102846190Y-107656190D01*
X103322380Y-107894285D02*
X102322380Y-107894285D01*
X102322380Y-107513333D01*
X102370000Y-107418095D01*
X102417619Y-107370476D01*
X102512857Y-107322857D01*
X102655714Y-107322857D01*
X102750952Y-107370476D01*
X102798571Y-107418095D01*
X102846190Y-107513333D01*
X102846190Y-107894285D01*
X103322380Y-106370476D02*
X103322380Y-106941904D01*
X103322380Y-106656190D02*
X102322380Y-106656190D01*
X102465238Y-106751428D01*
X102560476Y-106846666D01*
X102608095Y-106941904D01*
X102322380Y-105513333D02*
X102322380Y-105703809D01*
X102370000Y-105799047D01*
X102417619Y-105846666D01*
X102560476Y-105941904D01*
X102750952Y-105989523D01*
X103131904Y-105989523D01*
X103227142Y-105941904D01*
X103274761Y-105894285D01*
X103322380Y-105799047D01*
X103322380Y-105608571D01*
X103274761Y-105513333D01*
X103227142Y-105465714D01*
X103131904Y-105418095D01*
X102893809Y-105418095D01*
X102798571Y-105465714D01*
X102750952Y-105513333D01*
X102703333Y-105608571D01*
X102703333Y-105799047D01*
X102750952Y-105894285D01*
X102798571Y-105941904D01*
X102893809Y-105989523D01*
X100782380Y-107322857D02*
X100306190Y-107656190D01*
X100782380Y-107894285D02*
X99782380Y-107894285D01*
X99782380Y-107513333D01*
X99830000Y-107418095D01*
X99877619Y-107370476D01*
X99972857Y-107322857D01*
X100115714Y-107322857D01*
X100210952Y-107370476D01*
X100258571Y-107418095D01*
X100306190Y-107513333D01*
X100306190Y-107894285D01*
X100782380Y-106370476D02*
X100782380Y-106941904D01*
X100782380Y-106656190D02*
X99782380Y-106656190D01*
X99925238Y-106751428D01*
X100020476Y-106846666D01*
X100068095Y-106941904D01*
X99782380Y-105465714D02*
X99782380Y-105941904D01*
X100258571Y-105989523D01*
X100210952Y-105941904D01*
X100163333Y-105846666D01*
X100163333Y-105608571D01*
X100210952Y-105513333D01*
X100258571Y-105465714D01*
X100353809Y-105418095D01*
X100591904Y-105418095D01*
X100687142Y-105465714D01*
X100734761Y-105513333D01*
X100782380Y-105608571D01*
X100782380Y-105846666D01*
X100734761Y-105941904D01*
X100687142Y-105989523D01*
X98242380Y-107322857D02*
X97766190Y-107656190D01*
X98242380Y-107894285D02*
X97242380Y-107894285D01*
X97242380Y-107513333D01*
X97290000Y-107418095D01*
X97337619Y-107370476D01*
X97432857Y-107322857D01*
X97575714Y-107322857D01*
X97670952Y-107370476D01*
X97718571Y-107418095D01*
X97766190Y-107513333D01*
X97766190Y-107894285D01*
X98242380Y-106370476D02*
X98242380Y-106941904D01*
X98242380Y-106656190D02*
X97242380Y-106656190D01*
X97385238Y-106751428D01*
X97480476Y-106846666D01*
X97528095Y-106941904D01*
X97575714Y-105513333D02*
X98242380Y-105513333D01*
X97194761Y-105751428D02*
X97909047Y-105989523D01*
X97909047Y-105370476D01*
X93162380Y-107322857D02*
X92686190Y-107656190D01*
X93162380Y-107894285D02*
X92162380Y-107894285D01*
X92162380Y-107513333D01*
X92210000Y-107418095D01*
X92257619Y-107370476D01*
X92352857Y-107322857D01*
X92495714Y-107322857D01*
X92590952Y-107370476D01*
X92638571Y-107418095D01*
X92686190Y-107513333D01*
X92686190Y-107894285D01*
X93162380Y-106370476D02*
X93162380Y-106941904D01*
X93162380Y-106656190D02*
X92162380Y-106656190D01*
X92305238Y-106751428D01*
X92400476Y-106846666D01*
X92448095Y-106941904D01*
X92257619Y-105989523D02*
X92210000Y-105941904D01*
X92162380Y-105846666D01*
X92162380Y-105608571D01*
X92210000Y-105513333D01*
X92257619Y-105465714D01*
X92352857Y-105418095D01*
X92448095Y-105418095D01*
X92590952Y-105465714D01*
X93162380Y-106037142D01*
X93162380Y-105418095D01*
X90622380Y-107322857D02*
X90146190Y-107656190D01*
X90622380Y-107894285D02*
X89622380Y-107894285D01*
X89622380Y-107513333D01*
X89670000Y-107418095D01*
X89717619Y-107370476D01*
X89812857Y-107322857D01*
X89955714Y-107322857D01*
X90050952Y-107370476D01*
X90098571Y-107418095D01*
X90146190Y-107513333D01*
X90146190Y-107894285D01*
X90622380Y-106370476D02*
X90622380Y-106941904D01*
X90622380Y-106656190D02*
X89622380Y-106656190D01*
X89765238Y-106751428D01*
X89860476Y-106846666D01*
X89908095Y-106941904D01*
X90622380Y-105418095D02*
X90622380Y-105989523D01*
X90622380Y-105703809D02*
X89622380Y-105703809D01*
X89765238Y-105799047D01*
X89860476Y-105894285D01*
X89908095Y-105989523D01*
X85542380Y-106846666D02*
X85066190Y-107180000D01*
X85542380Y-107418095D02*
X84542380Y-107418095D01*
X84542380Y-107037142D01*
X84590000Y-106941904D01*
X84637619Y-106894285D01*
X84732857Y-106846666D01*
X84875714Y-106846666D01*
X84970952Y-106894285D01*
X85018571Y-106941904D01*
X85066190Y-107037142D01*
X85066190Y-107418095D01*
X85542380Y-106370476D02*
X85542380Y-106180000D01*
X85494761Y-106084761D01*
X85447142Y-106037142D01*
X85304285Y-105941904D01*
X85113809Y-105894285D01*
X84732857Y-105894285D01*
X84637619Y-105941904D01*
X84590000Y-105989523D01*
X84542380Y-106084761D01*
X84542380Y-106275238D01*
X84590000Y-106370476D01*
X84637619Y-106418095D01*
X84732857Y-106465714D01*
X84970952Y-106465714D01*
X85066190Y-106418095D01*
X85113809Y-106370476D01*
X85161428Y-106275238D01*
X85161428Y-106084761D01*
X85113809Y-105989523D01*
X85066190Y-105941904D01*
X84970952Y-105894285D01*
X77922380Y-106846666D02*
X77446190Y-107180000D01*
X77922380Y-107418095D02*
X76922380Y-107418095D01*
X76922380Y-107037142D01*
X76970000Y-106941904D01*
X77017619Y-106894285D01*
X77112857Y-106846666D01*
X77255714Y-106846666D01*
X77350952Y-106894285D01*
X77398571Y-106941904D01*
X77446190Y-107037142D01*
X77446190Y-107418095D01*
X76922380Y-105989523D02*
X76922380Y-106180000D01*
X76970000Y-106275238D01*
X77017619Y-106322857D01*
X77160476Y-106418095D01*
X77350952Y-106465714D01*
X77731904Y-106465714D01*
X77827142Y-106418095D01*
X77874761Y-106370476D01*
X77922380Y-106275238D01*
X77922380Y-106084761D01*
X77874761Y-105989523D01*
X77827142Y-105941904D01*
X77731904Y-105894285D01*
X77493809Y-105894285D01*
X77398571Y-105941904D01*
X77350952Y-105989523D01*
X77303333Y-106084761D01*
X77303333Y-106275238D01*
X77350952Y-106370476D01*
X77398571Y-106418095D01*
X77493809Y-106465714D01*
X72842380Y-106846666D02*
X72366190Y-107180000D01*
X72842380Y-107418095D02*
X71842380Y-107418095D01*
X71842380Y-107037142D01*
X71890000Y-106941904D01*
X71937619Y-106894285D01*
X72032857Y-106846666D01*
X72175714Y-106846666D01*
X72270952Y-106894285D01*
X72318571Y-106941904D01*
X72366190Y-107037142D01*
X72366190Y-107418095D01*
X72175714Y-105989523D02*
X72842380Y-105989523D01*
X71794761Y-106227619D02*
X72509047Y-106465714D01*
X72509047Y-105846666D01*
X67762380Y-106846666D02*
X67286190Y-107180000D01*
X67762380Y-107418095D02*
X66762380Y-107418095D01*
X66762380Y-107037142D01*
X66810000Y-106941904D01*
X66857619Y-106894285D01*
X66952857Y-106846666D01*
X67095714Y-106846666D01*
X67190952Y-106894285D01*
X67238571Y-106941904D01*
X67286190Y-107037142D01*
X67286190Y-107418095D01*
X66857619Y-106465714D02*
X66810000Y-106418095D01*
X66762380Y-106322857D01*
X66762380Y-106084761D01*
X66810000Y-105989523D01*
X66857619Y-105941904D01*
X66952857Y-105894285D01*
X67048095Y-105894285D01*
X67190952Y-105941904D01*
X67762380Y-106513333D01*
X67762380Y-105894285D01*
X80462380Y-106846666D02*
X79986190Y-107180000D01*
X80462380Y-107418095D02*
X79462380Y-107418095D01*
X79462380Y-107037142D01*
X79510000Y-106941904D01*
X79557619Y-106894285D01*
X79652857Y-106846666D01*
X79795714Y-106846666D01*
X79890952Y-106894285D01*
X79938571Y-106941904D01*
X79986190Y-107037142D01*
X79986190Y-107418095D01*
X79462380Y-106513333D02*
X79462380Y-105846666D01*
X80462380Y-106275238D01*
X83002380Y-106846666D02*
X82526190Y-107180000D01*
X83002380Y-107418095D02*
X82002380Y-107418095D01*
X82002380Y-107037142D01*
X82050000Y-106941904D01*
X82097619Y-106894285D01*
X82192857Y-106846666D01*
X82335714Y-106846666D01*
X82430952Y-106894285D01*
X82478571Y-106941904D01*
X82526190Y-107037142D01*
X82526190Y-107418095D01*
X82430952Y-106275238D02*
X82383333Y-106370476D01*
X82335714Y-106418095D01*
X82240476Y-106465714D01*
X82192857Y-106465714D01*
X82097619Y-106418095D01*
X82050000Y-106370476D01*
X82002380Y-106275238D01*
X82002380Y-106084761D01*
X82050000Y-105989523D01*
X82097619Y-105941904D01*
X82192857Y-105894285D01*
X82240476Y-105894285D01*
X82335714Y-105941904D01*
X82383333Y-105989523D01*
X82430952Y-106084761D01*
X82430952Y-106275238D01*
X82478571Y-106370476D01*
X82526190Y-106418095D01*
X82621428Y-106465714D01*
X82811904Y-106465714D01*
X82907142Y-106418095D01*
X82954761Y-106370476D01*
X83002380Y-106275238D01*
X83002380Y-106084761D01*
X82954761Y-105989523D01*
X82907142Y-105941904D01*
X82811904Y-105894285D01*
X82621428Y-105894285D01*
X82526190Y-105941904D01*
X82478571Y-105989523D01*
X82430952Y-106084761D01*
X88082380Y-107322857D02*
X87606190Y-107656190D01*
X88082380Y-107894285D02*
X87082380Y-107894285D01*
X87082380Y-107513333D01*
X87130000Y-107418095D01*
X87177619Y-107370476D01*
X87272857Y-107322857D01*
X87415714Y-107322857D01*
X87510952Y-107370476D01*
X87558571Y-107418095D01*
X87606190Y-107513333D01*
X87606190Y-107894285D01*
X88082380Y-106370476D02*
X88082380Y-106941904D01*
X88082380Y-106656190D02*
X87082380Y-106656190D01*
X87225238Y-106751428D01*
X87320476Y-106846666D01*
X87368095Y-106941904D01*
X87082380Y-105751428D02*
X87082380Y-105656190D01*
X87130000Y-105560952D01*
X87177619Y-105513333D01*
X87272857Y-105465714D01*
X87463333Y-105418095D01*
X87701428Y-105418095D01*
X87891904Y-105465714D01*
X87987142Y-105513333D01*
X88034761Y-105560952D01*
X88082380Y-105656190D01*
X88082380Y-105751428D01*
X88034761Y-105846666D01*
X87987142Y-105894285D01*
X87891904Y-105941904D01*
X87701428Y-105989523D01*
X87463333Y-105989523D01*
X87272857Y-105941904D01*
X87177619Y-105894285D01*
X87130000Y-105846666D01*
X87082380Y-105751428D01*
X75382380Y-106846666D02*
X74906190Y-107180000D01*
X75382380Y-107418095D02*
X74382380Y-107418095D01*
X74382380Y-107037142D01*
X74430000Y-106941904D01*
X74477619Y-106894285D01*
X74572857Y-106846666D01*
X74715714Y-106846666D01*
X74810952Y-106894285D01*
X74858571Y-106941904D01*
X74906190Y-107037142D01*
X74906190Y-107418095D01*
X74382380Y-105941904D02*
X74382380Y-106418095D01*
X74858571Y-106465714D01*
X74810952Y-106418095D01*
X74763333Y-106322857D01*
X74763333Y-106084761D01*
X74810952Y-105989523D01*
X74858571Y-105941904D01*
X74953809Y-105894285D01*
X75191904Y-105894285D01*
X75287142Y-105941904D01*
X75334761Y-105989523D01*
X75382380Y-106084761D01*
X75382380Y-106322857D01*
X75334761Y-106418095D01*
X75287142Y-106465714D01*
X70302380Y-106846666D02*
X69826190Y-107180000D01*
X70302380Y-107418095D02*
X69302380Y-107418095D01*
X69302380Y-107037142D01*
X69350000Y-106941904D01*
X69397619Y-106894285D01*
X69492857Y-106846666D01*
X69635714Y-106846666D01*
X69730952Y-106894285D01*
X69778571Y-106941904D01*
X69826190Y-107037142D01*
X69826190Y-107418095D01*
X69302380Y-106513333D02*
X69302380Y-105894285D01*
X69683333Y-106227619D01*
X69683333Y-106084761D01*
X69730952Y-105989523D01*
X69778571Y-105941904D01*
X69873809Y-105894285D01*
X70111904Y-105894285D01*
X70207142Y-105941904D01*
X70254761Y-105989523D01*
X70302380Y-106084761D01*
X70302380Y-106370476D01*
X70254761Y-106465714D01*
X70207142Y-106513333D01*
X74112380Y-80017857D02*
X73636190Y-80351190D01*
X74112380Y-80589285D02*
X73112380Y-80589285D01*
X73112380Y-80208333D01*
X73160000Y-80113095D01*
X73207619Y-80065476D01*
X73302857Y-80017857D01*
X73445714Y-80017857D01*
X73540952Y-80065476D01*
X73588571Y-80113095D01*
X73636190Y-80208333D01*
X73636190Y-80589285D01*
X73112380Y-79684523D02*
X73112380Y-79017857D01*
X74112380Y-79446428D01*
X73112380Y-78160714D02*
X73112380Y-78636904D01*
X73588571Y-78684523D01*
X73540952Y-78636904D01*
X73493333Y-78541666D01*
X73493333Y-78303571D01*
X73540952Y-78208333D01*
X73588571Y-78160714D01*
X73683809Y-78113095D01*
X73921904Y-78113095D01*
X74017142Y-78160714D01*
X74064761Y-78208333D01*
X74112380Y-78303571D01*
X74112380Y-78541666D01*
X74064761Y-78636904D01*
X74017142Y-78684523D01*
X76017380Y-80017857D02*
X75541190Y-80351190D01*
X76017380Y-80589285D02*
X75017380Y-80589285D01*
X75017380Y-80208333D01*
X75065000Y-80113095D01*
X75112619Y-80065476D01*
X75207857Y-80017857D01*
X75350714Y-80017857D01*
X75445952Y-80065476D01*
X75493571Y-80113095D01*
X75541190Y-80208333D01*
X75541190Y-80589285D01*
X75017380Y-79684523D02*
X75017380Y-79017857D01*
X76017380Y-79446428D01*
X76017380Y-78589285D02*
X76017380Y-78398809D01*
X75969761Y-78303571D01*
X75922142Y-78255952D01*
X75779285Y-78160714D01*
X75588809Y-78113095D01*
X75207857Y-78113095D01*
X75112619Y-78160714D01*
X75065000Y-78208333D01*
X75017380Y-78303571D01*
X75017380Y-78494047D01*
X75065000Y-78589285D01*
X75112619Y-78636904D01*
X75207857Y-78684523D01*
X75445952Y-78684523D01*
X75541190Y-78636904D01*
X75588809Y-78589285D01*
X75636428Y-78494047D01*
X75636428Y-78303571D01*
X75588809Y-78208333D01*
X75541190Y-78160714D01*
X75445952Y-78113095D01*
X81097380Y-80017857D02*
X80621190Y-80351190D01*
X81097380Y-80589285D02*
X80097380Y-80589285D01*
X80097380Y-80208333D01*
X80145000Y-80113095D01*
X80192619Y-80065476D01*
X80287857Y-80017857D01*
X80430714Y-80017857D01*
X80525952Y-80065476D01*
X80573571Y-80113095D01*
X80621190Y-80208333D01*
X80621190Y-80589285D01*
X80097380Y-79684523D02*
X80097380Y-79017857D01*
X81097380Y-79446428D01*
X80097380Y-78732142D02*
X80097380Y-78065476D01*
X81097380Y-78494047D01*
X79192380Y-80017857D02*
X78716190Y-80351190D01*
X79192380Y-80589285D02*
X78192380Y-80589285D01*
X78192380Y-80208333D01*
X78240000Y-80113095D01*
X78287619Y-80065476D01*
X78382857Y-80017857D01*
X78525714Y-80017857D01*
X78620952Y-80065476D01*
X78668571Y-80113095D01*
X78716190Y-80208333D01*
X78716190Y-80589285D01*
X78192380Y-79684523D02*
X78192380Y-79017857D01*
X79192380Y-79446428D01*
X78192380Y-78732142D02*
X78192380Y-78113095D01*
X78573333Y-78446428D01*
X78573333Y-78303571D01*
X78620952Y-78208333D01*
X78668571Y-78160714D01*
X78763809Y-78113095D01*
X79001904Y-78113095D01*
X79097142Y-78160714D01*
X79144761Y-78208333D01*
X79192380Y-78303571D01*
X79192380Y-78589285D01*
X79144761Y-78684523D01*
X79097142Y-78732142D01*
X86177380Y-80017857D02*
X85701190Y-80351190D01*
X86177380Y-80589285D02*
X85177380Y-80589285D01*
X85177380Y-80208333D01*
X85225000Y-80113095D01*
X85272619Y-80065476D01*
X85367857Y-80017857D01*
X85510714Y-80017857D01*
X85605952Y-80065476D01*
X85653571Y-80113095D01*
X85701190Y-80208333D01*
X85701190Y-80589285D01*
X85177380Y-79684523D02*
X85177380Y-79017857D01*
X86177380Y-79446428D01*
X86177380Y-78113095D02*
X86177380Y-78684523D01*
X86177380Y-78398809D02*
X85177380Y-78398809D01*
X85320238Y-78494047D01*
X85415476Y-78589285D01*
X85463095Y-78684523D01*
X89352380Y-80017857D02*
X88876190Y-80351190D01*
X89352380Y-80589285D02*
X88352380Y-80589285D01*
X88352380Y-80208333D01*
X88400000Y-80113095D01*
X88447619Y-80065476D01*
X88542857Y-80017857D01*
X88685714Y-80017857D01*
X88780952Y-80065476D01*
X88828571Y-80113095D01*
X88876190Y-80208333D01*
X88876190Y-80589285D01*
X88352380Y-79160714D02*
X88352380Y-79351190D01*
X88400000Y-79446428D01*
X88447619Y-79494047D01*
X88590476Y-79589285D01*
X88780952Y-79636904D01*
X89161904Y-79636904D01*
X89257142Y-79589285D01*
X89304761Y-79541666D01*
X89352380Y-79446428D01*
X89352380Y-79255952D01*
X89304761Y-79160714D01*
X89257142Y-79113095D01*
X89161904Y-79065476D01*
X88923809Y-79065476D01*
X88828571Y-79113095D01*
X88780952Y-79160714D01*
X88733333Y-79255952D01*
X88733333Y-79446428D01*
X88780952Y-79541666D01*
X88828571Y-79589285D01*
X88923809Y-79636904D01*
X88352380Y-78160714D02*
X88352380Y-78636904D01*
X88828571Y-78684523D01*
X88780952Y-78636904D01*
X88733333Y-78541666D01*
X88733333Y-78303571D01*
X88780952Y-78208333D01*
X88828571Y-78160714D01*
X88923809Y-78113095D01*
X89161904Y-78113095D01*
X89257142Y-78160714D01*
X89304761Y-78208333D01*
X89352380Y-78303571D01*
X89352380Y-78541666D01*
X89304761Y-78636904D01*
X89257142Y-78684523D01*
X91257380Y-80017857D02*
X90781190Y-80351190D01*
X91257380Y-80589285D02*
X90257380Y-80589285D01*
X90257380Y-80208333D01*
X90305000Y-80113095D01*
X90352619Y-80065476D01*
X90447857Y-80017857D01*
X90590714Y-80017857D01*
X90685952Y-80065476D01*
X90733571Y-80113095D01*
X90781190Y-80208333D01*
X90781190Y-80589285D01*
X90257380Y-79160714D02*
X90257380Y-79351190D01*
X90305000Y-79446428D01*
X90352619Y-79494047D01*
X90495476Y-79589285D01*
X90685952Y-79636904D01*
X91066904Y-79636904D01*
X91162142Y-79589285D01*
X91209761Y-79541666D01*
X91257380Y-79446428D01*
X91257380Y-79255952D01*
X91209761Y-79160714D01*
X91162142Y-79113095D01*
X91066904Y-79065476D01*
X90828809Y-79065476D01*
X90733571Y-79113095D01*
X90685952Y-79160714D01*
X90638333Y-79255952D01*
X90638333Y-79446428D01*
X90685952Y-79541666D01*
X90733571Y-79589285D01*
X90828809Y-79636904D01*
X91257380Y-78589285D02*
X91257380Y-78398809D01*
X91209761Y-78303571D01*
X91162142Y-78255952D01*
X91019285Y-78160714D01*
X90828809Y-78113095D01*
X90447857Y-78113095D01*
X90352619Y-78160714D01*
X90305000Y-78208333D01*
X90257380Y-78303571D01*
X90257380Y-78494047D01*
X90305000Y-78589285D01*
X90352619Y-78636904D01*
X90447857Y-78684523D01*
X90685952Y-78684523D01*
X90781190Y-78636904D01*
X90828809Y-78589285D01*
X90876428Y-78494047D01*
X90876428Y-78303571D01*
X90828809Y-78208333D01*
X90781190Y-78160714D01*
X90685952Y-78113095D01*
X84272380Y-80017857D02*
X83796190Y-80351190D01*
X84272380Y-80589285D02*
X83272380Y-80589285D01*
X83272380Y-80208333D01*
X83320000Y-80113095D01*
X83367619Y-80065476D01*
X83462857Y-80017857D01*
X83605714Y-80017857D01*
X83700952Y-80065476D01*
X83748571Y-80113095D01*
X83796190Y-80208333D01*
X83796190Y-80589285D01*
X83272380Y-79160714D02*
X83272380Y-79351190D01*
X83320000Y-79446428D01*
X83367619Y-79494047D01*
X83510476Y-79589285D01*
X83700952Y-79636904D01*
X84081904Y-79636904D01*
X84177142Y-79589285D01*
X84224761Y-79541666D01*
X84272380Y-79446428D01*
X84272380Y-79255952D01*
X84224761Y-79160714D01*
X84177142Y-79113095D01*
X84081904Y-79065476D01*
X83843809Y-79065476D01*
X83748571Y-79113095D01*
X83700952Y-79160714D01*
X83653333Y-79255952D01*
X83653333Y-79446428D01*
X83700952Y-79541666D01*
X83748571Y-79589285D01*
X83843809Y-79636904D01*
X83272380Y-78732142D02*
X83272380Y-78065476D01*
X84272380Y-78494047D01*
X96972380Y-80017857D02*
X96496190Y-80351190D01*
X96972380Y-80589285D02*
X95972380Y-80589285D01*
X95972380Y-80208333D01*
X96020000Y-80113095D01*
X96067619Y-80065476D01*
X96162857Y-80017857D01*
X96305714Y-80017857D01*
X96400952Y-80065476D01*
X96448571Y-80113095D01*
X96496190Y-80208333D01*
X96496190Y-80589285D01*
X95972380Y-79113095D02*
X95972380Y-79589285D01*
X96448571Y-79636904D01*
X96400952Y-79589285D01*
X96353333Y-79494047D01*
X96353333Y-79255952D01*
X96400952Y-79160714D01*
X96448571Y-79113095D01*
X96543809Y-79065476D01*
X96781904Y-79065476D01*
X96877142Y-79113095D01*
X96924761Y-79160714D01*
X96972380Y-79255952D01*
X96972380Y-79494047D01*
X96924761Y-79589285D01*
X96877142Y-79636904D01*
X96972380Y-78589285D02*
X96972380Y-78398809D01*
X96924761Y-78303571D01*
X96877142Y-78255952D01*
X96734285Y-78160714D01*
X96543809Y-78113095D01*
X96162857Y-78113095D01*
X96067619Y-78160714D01*
X96020000Y-78208333D01*
X95972380Y-78303571D01*
X95972380Y-78494047D01*
X96020000Y-78589285D01*
X96067619Y-78636904D01*
X96162857Y-78684523D01*
X96400952Y-78684523D01*
X96496190Y-78636904D01*
X96543809Y-78589285D01*
X96591428Y-78494047D01*
X96591428Y-78303571D01*
X96543809Y-78208333D01*
X96496190Y-78160714D01*
X96400952Y-78113095D01*
X98877380Y-80017857D02*
X98401190Y-80351190D01*
X98877380Y-80589285D02*
X97877380Y-80589285D01*
X97877380Y-80208333D01*
X97925000Y-80113095D01*
X97972619Y-80065476D01*
X98067857Y-80017857D01*
X98210714Y-80017857D01*
X98305952Y-80065476D01*
X98353571Y-80113095D01*
X98401190Y-80208333D01*
X98401190Y-80589285D01*
X97877380Y-79160714D02*
X97877380Y-79351190D01*
X97925000Y-79446428D01*
X97972619Y-79494047D01*
X98115476Y-79589285D01*
X98305952Y-79636904D01*
X98686904Y-79636904D01*
X98782142Y-79589285D01*
X98829761Y-79541666D01*
X98877380Y-79446428D01*
X98877380Y-79255952D01*
X98829761Y-79160714D01*
X98782142Y-79113095D01*
X98686904Y-79065476D01*
X98448809Y-79065476D01*
X98353571Y-79113095D01*
X98305952Y-79160714D01*
X98258333Y-79255952D01*
X98258333Y-79446428D01*
X98305952Y-79541666D01*
X98353571Y-79589285D01*
X98448809Y-79636904D01*
X97877380Y-78732142D02*
X97877380Y-78113095D01*
X98258333Y-78446428D01*
X98258333Y-78303571D01*
X98305952Y-78208333D01*
X98353571Y-78160714D01*
X98448809Y-78113095D01*
X98686904Y-78113095D01*
X98782142Y-78160714D01*
X98829761Y-78208333D01*
X98877380Y-78303571D01*
X98877380Y-78589285D01*
X98829761Y-78684523D01*
X98782142Y-78732142D01*
X103957380Y-80017857D02*
X103481190Y-80351190D01*
X103957380Y-80589285D02*
X102957380Y-80589285D01*
X102957380Y-80208333D01*
X103005000Y-80113095D01*
X103052619Y-80065476D01*
X103147857Y-80017857D01*
X103290714Y-80017857D01*
X103385952Y-80065476D01*
X103433571Y-80113095D01*
X103481190Y-80208333D01*
X103481190Y-80589285D01*
X102957380Y-79160714D02*
X102957380Y-79351190D01*
X103005000Y-79446428D01*
X103052619Y-79494047D01*
X103195476Y-79589285D01*
X103385952Y-79636904D01*
X103766904Y-79636904D01*
X103862142Y-79589285D01*
X103909761Y-79541666D01*
X103957380Y-79446428D01*
X103957380Y-79255952D01*
X103909761Y-79160714D01*
X103862142Y-79113095D01*
X103766904Y-79065476D01*
X103528809Y-79065476D01*
X103433571Y-79113095D01*
X103385952Y-79160714D01*
X103338333Y-79255952D01*
X103338333Y-79446428D01*
X103385952Y-79541666D01*
X103433571Y-79589285D01*
X103528809Y-79636904D01*
X103957380Y-78113095D02*
X103957380Y-78684523D01*
X103957380Y-78398809D02*
X102957380Y-78398809D01*
X103100238Y-78494047D01*
X103195476Y-78589285D01*
X103243095Y-78684523D01*
X102052380Y-80017857D02*
X101576190Y-80351190D01*
X102052380Y-80589285D02*
X101052380Y-80589285D01*
X101052380Y-80208333D01*
X101100000Y-80113095D01*
X101147619Y-80065476D01*
X101242857Y-80017857D01*
X101385714Y-80017857D01*
X101480952Y-80065476D01*
X101528571Y-80113095D01*
X101576190Y-80208333D01*
X101576190Y-80589285D01*
X101052380Y-79113095D02*
X101052380Y-79589285D01*
X101528571Y-79636904D01*
X101480952Y-79589285D01*
X101433333Y-79494047D01*
X101433333Y-79255952D01*
X101480952Y-79160714D01*
X101528571Y-79113095D01*
X101623809Y-79065476D01*
X101861904Y-79065476D01*
X101957142Y-79113095D01*
X102004761Y-79160714D01*
X102052380Y-79255952D01*
X102052380Y-79494047D01*
X102004761Y-79589285D01*
X101957142Y-79636904D01*
X101052380Y-78732142D02*
X101052380Y-78065476D01*
X102052380Y-78494047D01*
X109037380Y-80017857D02*
X108561190Y-80351190D01*
X109037380Y-80589285D02*
X108037380Y-80589285D01*
X108037380Y-80208333D01*
X108085000Y-80113095D01*
X108132619Y-80065476D01*
X108227857Y-80017857D01*
X108370714Y-80017857D01*
X108465952Y-80065476D01*
X108513571Y-80113095D01*
X108561190Y-80208333D01*
X108561190Y-80589285D01*
X108037380Y-79113095D02*
X108037380Y-79589285D01*
X108513571Y-79636904D01*
X108465952Y-79589285D01*
X108418333Y-79494047D01*
X108418333Y-79255952D01*
X108465952Y-79160714D01*
X108513571Y-79113095D01*
X108608809Y-79065476D01*
X108846904Y-79065476D01*
X108942142Y-79113095D01*
X108989761Y-79160714D01*
X109037380Y-79255952D01*
X109037380Y-79494047D01*
X108989761Y-79589285D01*
X108942142Y-79636904D01*
X108037380Y-78160714D02*
X108037380Y-78636904D01*
X108513571Y-78684523D01*
X108465952Y-78636904D01*
X108418333Y-78541666D01*
X108418333Y-78303571D01*
X108465952Y-78208333D01*
X108513571Y-78160714D01*
X108608809Y-78113095D01*
X108846904Y-78113095D01*
X108942142Y-78160714D01*
X108989761Y-78208333D01*
X109037380Y-78303571D01*
X109037380Y-78541666D01*
X108989761Y-78636904D01*
X108942142Y-78684523D01*
X112212380Y-80017857D02*
X111736190Y-80351190D01*
X112212380Y-80589285D02*
X111212380Y-80589285D01*
X111212380Y-80208333D01*
X111260000Y-80113095D01*
X111307619Y-80065476D01*
X111402857Y-80017857D01*
X111545714Y-80017857D01*
X111640952Y-80065476D01*
X111688571Y-80113095D01*
X111736190Y-80208333D01*
X111736190Y-80589285D01*
X111545714Y-79160714D02*
X112212380Y-79160714D01*
X111164761Y-79398809D02*
X111879047Y-79636904D01*
X111879047Y-79017857D01*
X112212380Y-78589285D02*
X112212380Y-78398809D01*
X112164761Y-78303571D01*
X112117142Y-78255952D01*
X111974285Y-78160714D01*
X111783809Y-78113095D01*
X111402857Y-78113095D01*
X111307619Y-78160714D01*
X111260000Y-78208333D01*
X111212380Y-78303571D01*
X111212380Y-78494047D01*
X111260000Y-78589285D01*
X111307619Y-78636904D01*
X111402857Y-78684523D01*
X111640952Y-78684523D01*
X111736190Y-78636904D01*
X111783809Y-78589285D01*
X111831428Y-78494047D01*
X111831428Y-78303571D01*
X111783809Y-78208333D01*
X111736190Y-78160714D01*
X111640952Y-78113095D01*
X114117380Y-80017857D02*
X113641190Y-80351190D01*
X114117380Y-80589285D02*
X113117380Y-80589285D01*
X113117380Y-80208333D01*
X113165000Y-80113095D01*
X113212619Y-80065476D01*
X113307857Y-80017857D01*
X113450714Y-80017857D01*
X113545952Y-80065476D01*
X113593571Y-80113095D01*
X113641190Y-80208333D01*
X113641190Y-80589285D01*
X113117380Y-79113095D02*
X113117380Y-79589285D01*
X113593571Y-79636904D01*
X113545952Y-79589285D01*
X113498333Y-79494047D01*
X113498333Y-79255952D01*
X113545952Y-79160714D01*
X113593571Y-79113095D01*
X113688809Y-79065476D01*
X113926904Y-79065476D01*
X114022142Y-79113095D01*
X114069761Y-79160714D01*
X114117380Y-79255952D01*
X114117380Y-79494047D01*
X114069761Y-79589285D01*
X114022142Y-79636904D01*
X113117380Y-78732142D02*
X113117380Y-78113095D01*
X113498333Y-78446428D01*
X113498333Y-78303571D01*
X113545952Y-78208333D01*
X113593571Y-78160714D01*
X113688809Y-78113095D01*
X113926904Y-78113095D01*
X114022142Y-78160714D01*
X114069761Y-78208333D01*
X114117380Y-78303571D01*
X114117380Y-78589285D01*
X114069761Y-78684523D01*
X114022142Y-78732142D01*
X107132380Y-80017857D02*
X106656190Y-80351190D01*
X107132380Y-80589285D02*
X106132380Y-80589285D01*
X106132380Y-80208333D01*
X106180000Y-80113095D01*
X106227619Y-80065476D01*
X106322857Y-80017857D01*
X106465714Y-80017857D01*
X106560952Y-80065476D01*
X106608571Y-80113095D01*
X106656190Y-80208333D01*
X106656190Y-80589285D01*
X106132380Y-79113095D02*
X106132380Y-79589285D01*
X106608571Y-79636904D01*
X106560952Y-79589285D01*
X106513333Y-79494047D01*
X106513333Y-79255952D01*
X106560952Y-79160714D01*
X106608571Y-79113095D01*
X106703809Y-79065476D01*
X106941904Y-79065476D01*
X107037142Y-79113095D01*
X107084761Y-79160714D01*
X107132380Y-79255952D01*
X107132380Y-79494047D01*
X107084761Y-79589285D01*
X107037142Y-79636904D01*
X107132380Y-78113095D02*
X107132380Y-78684523D01*
X107132380Y-78398809D02*
X106132380Y-78398809D01*
X106275238Y-78494047D01*
X106370476Y-78589285D01*
X106418095Y-78684523D01*
X119832380Y-80017857D02*
X119356190Y-80351190D01*
X119832380Y-80589285D02*
X118832380Y-80589285D01*
X118832380Y-80208333D01*
X118880000Y-80113095D01*
X118927619Y-80065476D01*
X119022857Y-80017857D01*
X119165714Y-80017857D01*
X119260952Y-80065476D01*
X119308571Y-80113095D01*
X119356190Y-80208333D01*
X119356190Y-80589285D01*
X119165714Y-79160714D02*
X119832380Y-79160714D01*
X118784761Y-79398809D02*
X119499047Y-79636904D01*
X119499047Y-79017857D01*
X118832380Y-78732142D02*
X118832380Y-78113095D01*
X119213333Y-78446428D01*
X119213333Y-78303571D01*
X119260952Y-78208333D01*
X119308571Y-78160714D01*
X119403809Y-78113095D01*
X119641904Y-78113095D01*
X119737142Y-78160714D01*
X119784761Y-78208333D01*
X119832380Y-78303571D01*
X119832380Y-78589285D01*
X119784761Y-78684523D01*
X119737142Y-78732142D01*
X121737380Y-80017857D02*
X121261190Y-80351190D01*
X121737380Y-80589285D02*
X120737380Y-80589285D01*
X120737380Y-80208333D01*
X120785000Y-80113095D01*
X120832619Y-80065476D01*
X120927857Y-80017857D01*
X121070714Y-80017857D01*
X121165952Y-80065476D01*
X121213571Y-80113095D01*
X121261190Y-80208333D01*
X121261190Y-80589285D01*
X121070714Y-79160714D02*
X121737380Y-79160714D01*
X120689761Y-79398809D02*
X121404047Y-79636904D01*
X121404047Y-79017857D01*
X120737380Y-78732142D02*
X120737380Y-78065476D01*
X121737380Y-78494047D01*
X126817380Y-80017857D02*
X126341190Y-80351190D01*
X126817380Y-80589285D02*
X125817380Y-80589285D01*
X125817380Y-80208333D01*
X125865000Y-80113095D01*
X125912619Y-80065476D01*
X126007857Y-80017857D01*
X126150714Y-80017857D01*
X126245952Y-80065476D01*
X126293571Y-80113095D01*
X126341190Y-80208333D01*
X126341190Y-80589285D01*
X126150714Y-79160714D02*
X126817380Y-79160714D01*
X125769761Y-79398809D02*
X126484047Y-79636904D01*
X126484047Y-79017857D01*
X125817380Y-78160714D02*
X125817380Y-78636904D01*
X126293571Y-78684523D01*
X126245952Y-78636904D01*
X126198333Y-78541666D01*
X126198333Y-78303571D01*
X126245952Y-78208333D01*
X126293571Y-78160714D01*
X126388809Y-78113095D01*
X126626904Y-78113095D01*
X126722142Y-78160714D01*
X126769761Y-78208333D01*
X126817380Y-78303571D01*
X126817380Y-78541666D01*
X126769761Y-78636904D01*
X126722142Y-78684523D01*
X124912380Y-80017857D02*
X124436190Y-80351190D01*
X124912380Y-80589285D02*
X123912380Y-80589285D01*
X123912380Y-80208333D01*
X123960000Y-80113095D01*
X124007619Y-80065476D01*
X124102857Y-80017857D01*
X124245714Y-80017857D01*
X124340952Y-80065476D01*
X124388571Y-80113095D01*
X124436190Y-80208333D01*
X124436190Y-80589285D01*
X124245714Y-79160714D02*
X124912380Y-79160714D01*
X123864761Y-79398809D02*
X124579047Y-79636904D01*
X124579047Y-79017857D01*
X124912380Y-78113095D02*
X124912380Y-78684523D01*
X124912380Y-78398809D02*
X123912380Y-78398809D01*
X124055238Y-78494047D01*
X124150476Y-78589285D01*
X124198095Y-78684523D01*
X131897380Y-80017857D02*
X131421190Y-80351190D01*
X131897380Y-80589285D02*
X130897380Y-80589285D01*
X130897380Y-80208333D01*
X130945000Y-80113095D01*
X130992619Y-80065476D01*
X131087857Y-80017857D01*
X131230714Y-80017857D01*
X131325952Y-80065476D01*
X131373571Y-80113095D01*
X131421190Y-80208333D01*
X131421190Y-80589285D01*
X130897380Y-79684523D02*
X130897380Y-79065476D01*
X131278333Y-79398809D01*
X131278333Y-79255952D01*
X131325952Y-79160714D01*
X131373571Y-79113095D01*
X131468809Y-79065476D01*
X131706904Y-79065476D01*
X131802142Y-79113095D01*
X131849761Y-79160714D01*
X131897380Y-79255952D01*
X131897380Y-79541666D01*
X131849761Y-79636904D01*
X131802142Y-79684523D01*
X131897380Y-78589285D02*
X131897380Y-78398809D01*
X131849761Y-78303571D01*
X131802142Y-78255952D01*
X131659285Y-78160714D01*
X131468809Y-78113095D01*
X131087857Y-78113095D01*
X130992619Y-78160714D01*
X130945000Y-78208333D01*
X130897380Y-78303571D01*
X130897380Y-78494047D01*
X130945000Y-78589285D01*
X130992619Y-78636904D01*
X131087857Y-78684523D01*
X131325952Y-78684523D01*
X131421190Y-78636904D01*
X131468809Y-78589285D01*
X131516428Y-78494047D01*
X131516428Y-78303571D01*
X131468809Y-78208333D01*
X131421190Y-78160714D01*
X131325952Y-78113095D01*
X135072380Y-80017857D02*
X134596190Y-80351190D01*
X135072380Y-80589285D02*
X134072380Y-80589285D01*
X134072380Y-80208333D01*
X134120000Y-80113095D01*
X134167619Y-80065476D01*
X134262857Y-80017857D01*
X134405714Y-80017857D01*
X134500952Y-80065476D01*
X134548571Y-80113095D01*
X134596190Y-80208333D01*
X134596190Y-80589285D01*
X134072380Y-79684523D02*
X134072380Y-79065476D01*
X134453333Y-79398809D01*
X134453333Y-79255952D01*
X134500952Y-79160714D01*
X134548571Y-79113095D01*
X134643809Y-79065476D01*
X134881904Y-79065476D01*
X134977142Y-79113095D01*
X135024761Y-79160714D01*
X135072380Y-79255952D01*
X135072380Y-79541666D01*
X135024761Y-79636904D01*
X134977142Y-79684523D01*
X134072380Y-78732142D02*
X134072380Y-78113095D01*
X134453333Y-78446428D01*
X134453333Y-78303571D01*
X134500952Y-78208333D01*
X134548571Y-78160714D01*
X134643809Y-78113095D01*
X134881904Y-78113095D01*
X134977142Y-78160714D01*
X135024761Y-78208333D01*
X135072380Y-78303571D01*
X135072380Y-78589285D01*
X135024761Y-78684523D01*
X134977142Y-78732142D01*
X136977380Y-80017857D02*
X136501190Y-80351190D01*
X136977380Y-80589285D02*
X135977380Y-80589285D01*
X135977380Y-80208333D01*
X136025000Y-80113095D01*
X136072619Y-80065476D01*
X136167857Y-80017857D01*
X136310714Y-80017857D01*
X136405952Y-80065476D01*
X136453571Y-80113095D01*
X136501190Y-80208333D01*
X136501190Y-80589285D01*
X135977380Y-79684523D02*
X135977380Y-79065476D01*
X136358333Y-79398809D01*
X136358333Y-79255952D01*
X136405952Y-79160714D01*
X136453571Y-79113095D01*
X136548809Y-79065476D01*
X136786904Y-79065476D01*
X136882142Y-79113095D01*
X136929761Y-79160714D01*
X136977380Y-79255952D01*
X136977380Y-79541666D01*
X136929761Y-79636904D01*
X136882142Y-79684523D01*
X135977380Y-78732142D02*
X135977380Y-78065476D01*
X136977380Y-78494047D01*
X129992380Y-80017857D02*
X129516190Y-80351190D01*
X129992380Y-80589285D02*
X128992380Y-80589285D01*
X128992380Y-80208333D01*
X129040000Y-80113095D01*
X129087619Y-80065476D01*
X129182857Y-80017857D01*
X129325714Y-80017857D01*
X129420952Y-80065476D01*
X129468571Y-80113095D01*
X129516190Y-80208333D01*
X129516190Y-80589285D01*
X128992380Y-79684523D02*
X128992380Y-79065476D01*
X129373333Y-79398809D01*
X129373333Y-79255952D01*
X129420952Y-79160714D01*
X129468571Y-79113095D01*
X129563809Y-79065476D01*
X129801904Y-79065476D01*
X129897142Y-79113095D01*
X129944761Y-79160714D01*
X129992380Y-79255952D01*
X129992380Y-79541666D01*
X129944761Y-79636904D01*
X129897142Y-79684523D01*
X128992380Y-78160714D02*
X128992380Y-78636904D01*
X129468571Y-78684523D01*
X129420952Y-78636904D01*
X129373333Y-78541666D01*
X129373333Y-78303571D01*
X129420952Y-78208333D01*
X129468571Y-78160714D01*
X129563809Y-78113095D01*
X129801904Y-78113095D01*
X129897142Y-78160714D01*
X129944761Y-78208333D01*
X129992380Y-78303571D01*
X129992380Y-78541666D01*
X129944761Y-78636904D01*
X129897142Y-78684523D01*
X84727380Y-83311904D02*
X85536904Y-83311904D01*
X85632142Y-83264285D01*
X85679761Y-83216666D01*
X85727380Y-83121428D01*
X85727380Y-82930952D01*
X85679761Y-82835714D01*
X85632142Y-82788095D01*
X85536904Y-82740476D01*
X84727380Y-82740476D01*
X84727380Y-81835714D02*
X84727380Y-82026190D01*
X84775000Y-82121428D01*
X84822619Y-82169047D01*
X84965476Y-82264285D01*
X85155952Y-82311904D01*
X85536904Y-82311904D01*
X85632142Y-82264285D01*
X85679761Y-82216666D01*
X85727380Y-82121428D01*
X85727380Y-81930952D01*
X85679761Y-81835714D01*
X85632142Y-81788095D01*
X85536904Y-81740476D01*
X85298809Y-81740476D01*
X85203571Y-81788095D01*
X85155952Y-81835714D01*
X85108333Y-81930952D01*
X85108333Y-82121428D01*
X85155952Y-82216666D01*
X85203571Y-82264285D01*
X85298809Y-82311904D01*
X74358571Y-73532619D02*
X74263333Y-73485000D01*
X74168095Y-73389761D01*
X74025238Y-73246904D01*
X73930000Y-73199285D01*
X73834761Y-73199285D01*
X73882380Y-73437380D02*
X73787142Y-73389761D01*
X73691904Y-73294523D01*
X73644285Y-73104047D01*
X73644285Y-72770714D01*
X73691904Y-72580238D01*
X73787142Y-72485000D01*
X73882380Y-72437380D01*
X74072857Y-72437380D01*
X74168095Y-72485000D01*
X74263333Y-72580238D01*
X74310952Y-72770714D01*
X74310952Y-73104047D01*
X74263333Y-73294523D01*
X74168095Y-73389761D01*
X74072857Y-73437380D01*
X73882380Y-73437380D01*
X74644285Y-72437380D02*
X75263333Y-72437380D01*
X74930000Y-72818333D01*
X75072857Y-72818333D01*
X75168095Y-72865952D01*
X75215714Y-72913571D01*
X75263333Y-73008809D01*
X75263333Y-73246904D01*
X75215714Y-73342142D01*
X75168095Y-73389761D01*
X75072857Y-73437380D01*
X74787142Y-73437380D01*
X74691904Y-73389761D01*
X74644285Y-73342142D01*
X76215714Y-73437380D02*
X75644285Y-73437380D01*
X75930000Y-73437380D02*
X75930000Y-72437380D01*
X75834761Y-72580238D01*
X75739523Y-72675476D01*
X75644285Y-72723095D01*
X79438571Y-73532619D02*
X79343333Y-73485000D01*
X79248095Y-73389761D01*
X79105238Y-73246904D01*
X79010000Y-73199285D01*
X78914761Y-73199285D01*
X78962380Y-73437380D02*
X78867142Y-73389761D01*
X78771904Y-73294523D01*
X78724285Y-73104047D01*
X78724285Y-72770714D01*
X78771904Y-72580238D01*
X78867142Y-72485000D01*
X78962380Y-72437380D01*
X79152857Y-72437380D01*
X79248095Y-72485000D01*
X79343333Y-72580238D01*
X79390952Y-72770714D01*
X79390952Y-73104047D01*
X79343333Y-73294523D01*
X79248095Y-73389761D01*
X79152857Y-73437380D01*
X78962380Y-73437380D01*
X79771904Y-72532619D02*
X79819523Y-72485000D01*
X79914761Y-72437380D01*
X80152857Y-72437380D01*
X80248095Y-72485000D01*
X80295714Y-72532619D01*
X80343333Y-72627857D01*
X80343333Y-72723095D01*
X80295714Y-72865952D01*
X79724285Y-73437380D01*
X80343333Y-73437380D01*
X80819523Y-73437380D02*
X81010000Y-73437380D01*
X81105238Y-73389761D01*
X81152857Y-73342142D01*
X81248095Y-73199285D01*
X81295714Y-73008809D01*
X81295714Y-72627857D01*
X81248095Y-72532619D01*
X81200476Y-72485000D01*
X81105238Y-72437380D01*
X80914761Y-72437380D01*
X80819523Y-72485000D01*
X80771904Y-72532619D01*
X80724285Y-72627857D01*
X80724285Y-72865952D01*
X80771904Y-72961190D01*
X80819523Y-73008809D01*
X80914761Y-73056428D01*
X81105238Y-73056428D01*
X81200476Y-73008809D01*
X81248095Y-72961190D01*
X81295714Y-72865952D01*
X84518571Y-73532619D02*
X84423333Y-73485000D01*
X84328095Y-73389761D01*
X84185238Y-73246904D01*
X84090000Y-73199285D01*
X83994761Y-73199285D01*
X84042380Y-73437380D02*
X83947142Y-73389761D01*
X83851904Y-73294523D01*
X83804285Y-73104047D01*
X83804285Y-72770714D01*
X83851904Y-72580238D01*
X83947142Y-72485000D01*
X84042380Y-72437380D01*
X84232857Y-72437380D01*
X84328095Y-72485000D01*
X84423333Y-72580238D01*
X84470952Y-72770714D01*
X84470952Y-73104047D01*
X84423333Y-73294523D01*
X84328095Y-73389761D01*
X84232857Y-73437380D01*
X84042380Y-73437380D01*
X84851904Y-72532619D02*
X84899523Y-72485000D01*
X84994761Y-72437380D01*
X85232857Y-72437380D01*
X85328095Y-72485000D01*
X85375714Y-72532619D01*
X85423333Y-72627857D01*
X85423333Y-72723095D01*
X85375714Y-72865952D01*
X84804285Y-73437380D01*
X85423333Y-73437380D01*
X85756666Y-72437380D02*
X86423333Y-72437380D01*
X85994761Y-73437380D01*
X89598571Y-73532619D02*
X89503333Y-73485000D01*
X89408095Y-73389761D01*
X89265238Y-73246904D01*
X89170000Y-73199285D01*
X89074761Y-73199285D01*
X89122380Y-73437380D02*
X89027142Y-73389761D01*
X88931904Y-73294523D01*
X88884285Y-73104047D01*
X88884285Y-72770714D01*
X88931904Y-72580238D01*
X89027142Y-72485000D01*
X89122380Y-72437380D01*
X89312857Y-72437380D01*
X89408095Y-72485000D01*
X89503333Y-72580238D01*
X89550952Y-72770714D01*
X89550952Y-73104047D01*
X89503333Y-73294523D01*
X89408095Y-73389761D01*
X89312857Y-73437380D01*
X89122380Y-73437380D01*
X89931904Y-72532619D02*
X89979523Y-72485000D01*
X90074761Y-72437380D01*
X90312857Y-72437380D01*
X90408095Y-72485000D01*
X90455714Y-72532619D01*
X90503333Y-72627857D01*
X90503333Y-72723095D01*
X90455714Y-72865952D01*
X89884285Y-73437380D01*
X90503333Y-73437380D01*
X91408095Y-72437380D02*
X90931904Y-72437380D01*
X90884285Y-72913571D01*
X90931904Y-72865952D01*
X91027142Y-72818333D01*
X91265238Y-72818333D01*
X91360476Y-72865952D01*
X91408095Y-72913571D01*
X91455714Y-73008809D01*
X91455714Y-73246904D01*
X91408095Y-73342142D01*
X91360476Y-73389761D01*
X91265238Y-73437380D01*
X91027142Y-73437380D01*
X90931904Y-73389761D01*
X90884285Y-73342142D01*
X91952380Y-66373333D02*
X92666666Y-66373333D01*
X92809523Y-66420952D01*
X92904761Y-66516190D01*
X92952380Y-66659047D01*
X92952380Y-66754285D01*
X92380952Y-65754285D02*
X92333333Y-65849523D01*
X92285714Y-65897142D01*
X92190476Y-65944761D01*
X92142857Y-65944761D01*
X92047619Y-65897142D01*
X92000000Y-65849523D01*
X91952380Y-65754285D01*
X91952380Y-65563809D01*
X92000000Y-65468571D01*
X92047619Y-65420952D01*
X92142857Y-65373333D01*
X92190476Y-65373333D01*
X92285714Y-65420952D01*
X92333333Y-65468571D01*
X92380952Y-65563809D01*
X92380952Y-65754285D01*
X92428571Y-65849523D01*
X92476190Y-65897142D01*
X92571428Y-65944761D01*
X92761904Y-65944761D01*
X92857142Y-65897142D01*
X92904761Y-65849523D01*
X92952380Y-65754285D01*
X92952380Y-65563809D01*
X92904761Y-65468571D01*
X92857142Y-65420952D01*
X92761904Y-65373333D01*
X92571428Y-65373333D01*
X92476190Y-65420952D01*
X92428571Y-65468571D01*
X92380952Y-65563809D01*
X87352142Y-87637857D02*
X87399761Y-87685476D01*
X87447380Y-87828333D01*
X87447380Y-87923571D01*
X87399761Y-88066428D01*
X87304523Y-88161666D01*
X87209285Y-88209285D01*
X87018809Y-88256904D01*
X86875952Y-88256904D01*
X86685476Y-88209285D01*
X86590238Y-88161666D01*
X86495000Y-88066428D01*
X86447380Y-87923571D01*
X86447380Y-87828333D01*
X86495000Y-87685476D01*
X86542619Y-87637857D01*
X87447380Y-86685476D02*
X87447380Y-87256904D01*
X87447380Y-86971190D02*
X86447380Y-86971190D01*
X86590238Y-87066428D01*
X86685476Y-87161666D01*
X86733095Y-87256904D01*
X86780714Y-85828333D02*
X87447380Y-85828333D01*
X86399761Y-86066428D02*
X87114047Y-86304523D01*
X87114047Y-85685476D01*
X107587380Y-83311904D02*
X108396904Y-83311904D01*
X108492142Y-83264285D01*
X108539761Y-83216666D01*
X108587380Y-83121428D01*
X108587380Y-82930952D01*
X108539761Y-82835714D01*
X108492142Y-82788095D01*
X108396904Y-82740476D01*
X107587380Y-82740476D01*
X107587380Y-81788095D02*
X107587380Y-82264285D01*
X108063571Y-82311904D01*
X108015952Y-82264285D01*
X107968333Y-82169047D01*
X107968333Y-81930952D01*
X108015952Y-81835714D01*
X108063571Y-81788095D01*
X108158809Y-81740476D01*
X108396904Y-81740476D01*
X108492142Y-81788095D01*
X108539761Y-81835714D01*
X108587380Y-81930952D01*
X108587380Y-82169047D01*
X108539761Y-82264285D01*
X108492142Y-82311904D01*
X97218571Y-73532619D02*
X97123333Y-73485000D01*
X97028095Y-73389761D01*
X96885238Y-73246904D01*
X96790000Y-73199285D01*
X96694761Y-73199285D01*
X96742380Y-73437380D02*
X96647142Y-73389761D01*
X96551904Y-73294523D01*
X96504285Y-73104047D01*
X96504285Y-72770714D01*
X96551904Y-72580238D01*
X96647142Y-72485000D01*
X96742380Y-72437380D01*
X96932857Y-72437380D01*
X97028095Y-72485000D01*
X97123333Y-72580238D01*
X97170952Y-72770714D01*
X97170952Y-73104047D01*
X97123333Y-73294523D01*
X97028095Y-73389761D01*
X96932857Y-73437380D01*
X96742380Y-73437380D01*
X97551904Y-72532619D02*
X97599523Y-72485000D01*
X97694761Y-72437380D01*
X97932857Y-72437380D01*
X98028095Y-72485000D01*
X98075714Y-72532619D01*
X98123333Y-72627857D01*
X98123333Y-72723095D01*
X98075714Y-72865952D01*
X97504285Y-73437380D01*
X98123333Y-73437380D01*
X98456666Y-72437380D02*
X99075714Y-72437380D01*
X98742380Y-72818333D01*
X98885238Y-72818333D01*
X98980476Y-72865952D01*
X99028095Y-72913571D01*
X99075714Y-73008809D01*
X99075714Y-73246904D01*
X99028095Y-73342142D01*
X98980476Y-73389761D01*
X98885238Y-73437380D01*
X98599523Y-73437380D01*
X98504285Y-73389761D01*
X98456666Y-73342142D01*
X102298571Y-73532619D02*
X102203333Y-73485000D01*
X102108095Y-73389761D01*
X101965238Y-73246904D01*
X101870000Y-73199285D01*
X101774761Y-73199285D01*
X101822380Y-73437380D02*
X101727142Y-73389761D01*
X101631904Y-73294523D01*
X101584285Y-73104047D01*
X101584285Y-72770714D01*
X101631904Y-72580238D01*
X101727142Y-72485000D01*
X101822380Y-72437380D01*
X102012857Y-72437380D01*
X102108095Y-72485000D01*
X102203333Y-72580238D01*
X102250952Y-72770714D01*
X102250952Y-73104047D01*
X102203333Y-73294523D01*
X102108095Y-73389761D01*
X102012857Y-73437380D01*
X101822380Y-73437380D01*
X102631904Y-72532619D02*
X102679523Y-72485000D01*
X102774761Y-72437380D01*
X103012857Y-72437380D01*
X103108095Y-72485000D01*
X103155714Y-72532619D01*
X103203333Y-72627857D01*
X103203333Y-72723095D01*
X103155714Y-72865952D01*
X102584285Y-73437380D01*
X103203333Y-73437380D01*
X104155714Y-73437380D02*
X103584285Y-73437380D01*
X103870000Y-73437380D02*
X103870000Y-72437380D01*
X103774761Y-72580238D01*
X103679523Y-72675476D01*
X103584285Y-72723095D01*
X107378571Y-73532619D02*
X107283333Y-73485000D01*
X107188095Y-73389761D01*
X107045238Y-73246904D01*
X106950000Y-73199285D01*
X106854761Y-73199285D01*
X106902380Y-73437380D02*
X106807142Y-73389761D01*
X106711904Y-73294523D01*
X106664285Y-73104047D01*
X106664285Y-72770714D01*
X106711904Y-72580238D01*
X106807142Y-72485000D01*
X106902380Y-72437380D01*
X107092857Y-72437380D01*
X107188095Y-72485000D01*
X107283333Y-72580238D01*
X107330952Y-72770714D01*
X107330952Y-73104047D01*
X107283333Y-73294523D01*
X107188095Y-73389761D01*
X107092857Y-73437380D01*
X106902380Y-73437380D01*
X108283333Y-73437380D02*
X107711904Y-73437380D01*
X107997619Y-73437380D02*
X107997619Y-72437380D01*
X107902380Y-72580238D01*
X107807142Y-72675476D01*
X107711904Y-72723095D01*
X108759523Y-73437380D02*
X108950000Y-73437380D01*
X109045238Y-73389761D01*
X109092857Y-73342142D01*
X109188095Y-73199285D01*
X109235714Y-73008809D01*
X109235714Y-72627857D01*
X109188095Y-72532619D01*
X109140476Y-72485000D01*
X109045238Y-72437380D01*
X108854761Y-72437380D01*
X108759523Y-72485000D01*
X108711904Y-72532619D01*
X108664285Y-72627857D01*
X108664285Y-72865952D01*
X108711904Y-72961190D01*
X108759523Y-73008809D01*
X108854761Y-73056428D01*
X109045238Y-73056428D01*
X109140476Y-73008809D01*
X109188095Y-72961190D01*
X109235714Y-72865952D01*
X112458571Y-73532619D02*
X112363333Y-73485000D01*
X112268095Y-73389761D01*
X112125238Y-73246904D01*
X112030000Y-73199285D01*
X111934761Y-73199285D01*
X111982380Y-73437380D02*
X111887142Y-73389761D01*
X111791904Y-73294523D01*
X111744285Y-73104047D01*
X111744285Y-72770714D01*
X111791904Y-72580238D01*
X111887142Y-72485000D01*
X111982380Y-72437380D01*
X112172857Y-72437380D01*
X112268095Y-72485000D01*
X112363333Y-72580238D01*
X112410952Y-72770714D01*
X112410952Y-73104047D01*
X112363333Y-73294523D01*
X112268095Y-73389761D01*
X112172857Y-73437380D01*
X111982380Y-73437380D01*
X113363333Y-73437380D02*
X112791904Y-73437380D01*
X113077619Y-73437380D02*
X113077619Y-72437380D01*
X112982380Y-72580238D01*
X112887142Y-72675476D01*
X112791904Y-72723095D01*
X113696666Y-72437380D02*
X114363333Y-72437380D01*
X113934761Y-73437380D01*
X114812380Y-66373333D02*
X115526666Y-66373333D01*
X115669523Y-66420952D01*
X115764761Y-66516190D01*
X115812380Y-66659047D01*
X115812380Y-66754285D01*
X114812380Y-65992380D02*
X114812380Y-65325714D01*
X115812380Y-65754285D01*
X110212142Y-87637857D02*
X110259761Y-87685476D01*
X110307380Y-87828333D01*
X110307380Y-87923571D01*
X110259761Y-88066428D01*
X110164523Y-88161666D01*
X110069285Y-88209285D01*
X109878809Y-88256904D01*
X109735952Y-88256904D01*
X109545476Y-88209285D01*
X109450238Y-88161666D01*
X109355000Y-88066428D01*
X109307380Y-87923571D01*
X109307380Y-87828333D01*
X109355000Y-87685476D01*
X109402619Y-87637857D01*
X110307380Y-86685476D02*
X110307380Y-87256904D01*
X110307380Y-86971190D02*
X109307380Y-86971190D01*
X109450238Y-87066428D01*
X109545476Y-87161666D01*
X109593095Y-87256904D01*
X109307380Y-86352142D02*
X109307380Y-85733095D01*
X109688333Y-86066428D01*
X109688333Y-85923571D01*
X109735952Y-85828333D01*
X109783571Y-85780714D01*
X109878809Y-85733095D01*
X110116904Y-85733095D01*
X110212142Y-85780714D01*
X110259761Y-85828333D01*
X110307380Y-85923571D01*
X110307380Y-86209285D01*
X110259761Y-86304523D01*
X110212142Y-86352142D01*
X130447380Y-83311904D02*
X131256904Y-83311904D01*
X131352142Y-83264285D01*
X131399761Y-83216666D01*
X131447380Y-83121428D01*
X131447380Y-82930952D01*
X131399761Y-82835714D01*
X131352142Y-82788095D01*
X131256904Y-82740476D01*
X130447380Y-82740476D01*
X130780714Y-81835714D02*
X131447380Y-81835714D01*
X130399761Y-82073809D02*
X131114047Y-82311904D01*
X131114047Y-81692857D01*
X120078571Y-73532619D02*
X119983333Y-73485000D01*
X119888095Y-73389761D01*
X119745238Y-73246904D01*
X119650000Y-73199285D01*
X119554761Y-73199285D01*
X119602380Y-73437380D02*
X119507142Y-73389761D01*
X119411904Y-73294523D01*
X119364285Y-73104047D01*
X119364285Y-72770714D01*
X119411904Y-72580238D01*
X119507142Y-72485000D01*
X119602380Y-72437380D01*
X119792857Y-72437380D01*
X119888095Y-72485000D01*
X119983333Y-72580238D01*
X120030952Y-72770714D01*
X120030952Y-73104047D01*
X119983333Y-73294523D01*
X119888095Y-73389761D01*
X119792857Y-73437380D01*
X119602380Y-73437380D01*
X120983333Y-73437380D02*
X120411904Y-73437380D01*
X120697619Y-73437380D02*
X120697619Y-72437380D01*
X120602380Y-72580238D01*
X120507142Y-72675476D01*
X120411904Y-72723095D01*
X121888095Y-72437380D02*
X121411904Y-72437380D01*
X121364285Y-72913571D01*
X121411904Y-72865952D01*
X121507142Y-72818333D01*
X121745238Y-72818333D01*
X121840476Y-72865952D01*
X121888095Y-72913571D01*
X121935714Y-73008809D01*
X121935714Y-73246904D01*
X121888095Y-73342142D01*
X121840476Y-73389761D01*
X121745238Y-73437380D01*
X121507142Y-73437380D01*
X121411904Y-73389761D01*
X121364285Y-73342142D01*
X125158571Y-73532619D02*
X125063333Y-73485000D01*
X124968095Y-73389761D01*
X124825238Y-73246904D01*
X124730000Y-73199285D01*
X124634761Y-73199285D01*
X124682380Y-73437380D02*
X124587142Y-73389761D01*
X124491904Y-73294523D01*
X124444285Y-73104047D01*
X124444285Y-72770714D01*
X124491904Y-72580238D01*
X124587142Y-72485000D01*
X124682380Y-72437380D01*
X124872857Y-72437380D01*
X124968095Y-72485000D01*
X125063333Y-72580238D01*
X125110952Y-72770714D01*
X125110952Y-73104047D01*
X125063333Y-73294523D01*
X124968095Y-73389761D01*
X124872857Y-73437380D01*
X124682380Y-73437380D01*
X126063333Y-73437380D02*
X125491904Y-73437380D01*
X125777619Y-73437380D02*
X125777619Y-72437380D01*
X125682380Y-72580238D01*
X125587142Y-72675476D01*
X125491904Y-72723095D01*
X126396666Y-72437380D02*
X127015714Y-72437380D01*
X126682380Y-72818333D01*
X126825238Y-72818333D01*
X126920476Y-72865952D01*
X126968095Y-72913571D01*
X127015714Y-73008809D01*
X127015714Y-73246904D01*
X126968095Y-73342142D01*
X126920476Y-73389761D01*
X126825238Y-73437380D01*
X126539523Y-73437380D01*
X126444285Y-73389761D01*
X126396666Y-73342142D01*
X130238571Y-73532619D02*
X130143333Y-73485000D01*
X130048095Y-73389761D01*
X129905238Y-73246904D01*
X129810000Y-73199285D01*
X129714761Y-73199285D01*
X129762380Y-73437380D02*
X129667142Y-73389761D01*
X129571904Y-73294523D01*
X129524285Y-73104047D01*
X129524285Y-72770714D01*
X129571904Y-72580238D01*
X129667142Y-72485000D01*
X129762380Y-72437380D01*
X129952857Y-72437380D01*
X130048095Y-72485000D01*
X130143333Y-72580238D01*
X130190952Y-72770714D01*
X130190952Y-73104047D01*
X130143333Y-73294523D01*
X130048095Y-73389761D01*
X129952857Y-73437380D01*
X129762380Y-73437380D01*
X131143333Y-73437380D02*
X130571904Y-73437380D01*
X130857619Y-73437380D02*
X130857619Y-72437380D01*
X130762380Y-72580238D01*
X130667142Y-72675476D01*
X130571904Y-72723095D01*
X132095714Y-73437380D02*
X131524285Y-73437380D01*
X131810000Y-73437380D02*
X131810000Y-72437380D01*
X131714761Y-72580238D01*
X131619523Y-72675476D01*
X131524285Y-72723095D01*
X135794761Y-73532619D02*
X135699523Y-73485000D01*
X135604285Y-73389761D01*
X135461428Y-73246904D01*
X135366190Y-73199285D01*
X135270952Y-73199285D01*
X135318571Y-73437380D02*
X135223333Y-73389761D01*
X135128095Y-73294523D01*
X135080476Y-73104047D01*
X135080476Y-72770714D01*
X135128095Y-72580238D01*
X135223333Y-72485000D01*
X135318571Y-72437380D01*
X135509047Y-72437380D01*
X135604285Y-72485000D01*
X135699523Y-72580238D01*
X135747142Y-72770714D01*
X135747142Y-73104047D01*
X135699523Y-73294523D01*
X135604285Y-73389761D01*
X135509047Y-73437380D01*
X135318571Y-73437380D01*
X136223333Y-73437380D02*
X136413809Y-73437380D01*
X136509047Y-73389761D01*
X136556666Y-73342142D01*
X136651904Y-73199285D01*
X136699523Y-73008809D01*
X136699523Y-72627857D01*
X136651904Y-72532619D01*
X136604285Y-72485000D01*
X136509047Y-72437380D01*
X136318571Y-72437380D01*
X136223333Y-72485000D01*
X136175714Y-72532619D01*
X136128095Y-72627857D01*
X136128095Y-72865952D01*
X136175714Y-72961190D01*
X136223333Y-73008809D01*
X136318571Y-73056428D01*
X136509047Y-73056428D01*
X136604285Y-73008809D01*
X136651904Y-72961190D01*
X136699523Y-72865952D01*
X137672380Y-66373333D02*
X138386666Y-66373333D01*
X138529523Y-66420952D01*
X138624761Y-66516190D01*
X138672380Y-66659047D01*
X138672380Y-66754285D01*
X137672380Y-65468571D02*
X137672380Y-65659047D01*
X137720000Y-65754285D01*
X137767619Y-65801904D01*
X137910476Y-65897142D01*
X138100952Y-65944761D01*
X138481904Y-65944761D01*
X138577142Y-65897142D01*
X138624761Y-65849523D01*
X138672380Y-65754285D01*
X138672380Y-65563809D01*
X138624761Y-65468571D01*
X138577142Y-65420952D01*
X138481904Y-65373333D01*
X138243809Y-65373333D01*
X138148571Y-65420952D01*
X138100952Y-65468571D01*
X138053333Y-65563809D01*
X138053333Y-65754285D01*
X138100952Y-65849523D01*
X138148571Y-65897142D01*
X138243809Y-65944761D01*
X133072142Y-87637857D02*
X133119761Y-87685476D01*
X133167380Y-87828333D01*
X133167380Y-87923571D01*
X133119761Y-88066428D01*
X133024523Y-88161666D01*
X132929285Y-88209285D01*
X132738809Y-88256904D01*
X132595952Y-88256904D01*
X132405476Y-88209285D01*
X132310238Y-88161666D01*
X132215000Y-88066428D01*
X132167380Y-87923571D01*
X132167380Y-87828333D01*
X132215000Y-87685476D01*
X132262619Y-87637857D01*
X133167380Y-86685476D02*
X133167380Y-87256904D01*
X133167380Y-86971190D02*
X132167380Y-86971190D01*
X132310238Y-87066428D01*
X132405476Y-87161666D01*
X132453095Y-87256904D01*
X132262619Y-86304523D02*
X132215000Y-86256904D01*
X132167380Y-86161666D01*
X132167380Y-85923571D01*
X132215000Y-85828333D01*
X132262619Y-85780714D01*
X132357857Y-85733095D01*
X132453095Y-85733095D01*
X132595952Y-85780714D01*
X133167380Y-86352142D01*
X133167380Y-85733095D01*
X158654761Y-73532619D02*
X158559523Y-73485000D01*
X158464285Y-73389761D01*
X158321428Y-73246904D01*
X158226190Y-73199285D01*
X158130952Y-73199285D01*
X158178571Y-73437380D02*
X158083333Y-73389761D01*
X157988095Y-73294523D01*
X157940476Y-73104047D01*
X157940476Y-72770714D01*
X157988095Y-72580238D01*
X158083333Y-72485000D01*
X158178571Y-72437380D01*
X158369047Y-72437380D01*
X158464285Y-72485000D01*
X158559523Y-72580238D01*
X158607142Y-72770714D01*
X158607142Y-73104047D01*
X158559523Y-73294523D01*
X158464285Y-73389761D01*
X158369047Y-73437380D01*
X158178571Y-73437380D01*
X159559523Y-73437380D02*
X158988095Y-73437380D01*
X159273809Y-73437380D02*
X159273809Y-72437380D01*
X159178571Y-72580238D01*
X159083333Y-72675476D01*
X158988095Y-72723095D01*
X153574761Y-73532619D02*
X153479523Y-73485000D01*
X153384285Y-73389761D01*
X153241428Y-73246904D01*
X153146190Y-73199285D01*
X153050952Y-73199285D01*
X153098571Y-73437380D02*
X153003333Y-73389761D01*
X152908095Y-73294523D01*
X152860476Y-73104047D01*
X152860476Y-72770714D01*
X152908095Y-72580238D01*
X153003333Y-72485000D01*
X153098571Y-72437380D01*
X153289047Y-72437380D01*
X153384285Y-72485000D01*
X153479523Y-72580238D01*
X153527142Y-72770714D01*
X153527142Y-73104047D01*
X153479523Y-73294523D01*
X153384285Y-73389761D01*
X153289047Y-73437380D01*
X153098571Y-73437380D01*
X153860476Y-72437380D02*
X154479523Y-72437380D01*
X154146190Y-72818333D01*
X154289047Y-72818333D01*
X154384285Y-72865952D01*
X154431904Y-72913571D01*
X154479523Y-73008809D01*
X154479523Y-73246904D01*
X154431904Y-73342142D01*
X154384285Y-73389761D01*
X154289047Y-73437380D01*
X154003333Y-73437380D01*
X153908095Y-73389761D01*
X153860476Y-73342142D01*
X148494761Y-73532619D02*
X148399523Y-73485000D01*
X148304285Y-73389761D01*
X148161428Y-73246904D01*
X148066190Y-73199285D01*
X147970952Y-73199285D01*
X148018571Y-73437380D02*
X147923333Y-73389761D01*
X147828095Y-73294523D01*
X147780476Y-73104047D01*
X147780476Y-72770714D01*
X147828095Y-72580238D01*
X147923333Y-72485000D01*
X148018571Y-72437380D01*
X148209047Y-72437380D01*
X148304285Y-72485000D01*
X148399523Y-72580238D01*
X148447142Y-72770714D01*
X148447142Y-73104047D01*
X148399523Y-73294523D01*
X148304285Y-73389761D01*
X148209047Y-73437380D01*
X148018571Y-73437380D01*
X149351904Y-72437380D02*
X148875714Y-72437380D01*
X148828095Y-72913571D01*
X148875714Y-72865952D01*
X148970952Y-72818333D01*
X149209047Y-72818333D01*
X149304285Y-72865952D01*
X149351904Y-72913571D01*
X149399523Y-73008809D01*
X149399523Y-73246904D01*
X149351904Y-73342142D01*
X149304285Y-73389761D01*
X149209047Y-73437380D01*
X148970952Y-73437380D01*
X148875714Y-73389761D01*
X148828095Y-73342142D01*
X143414761Y-73532619D02*
X143319523Y-73485000D01*
X143224285Y-73389761D01*
X143081428Y-73246904D01*
X142986190Y-73199285D01*
X142890952Y-73199285D01*
X142938571Y-73437380D02*
X142843333Y-73389761D01*
X142748095Y-73294523D01*
X142700476Y-73104047D01*
X142700476Y-72770714D01*
X142748095Y-72580238D01*
X142843333Y-72485000D01*
X142938571Y-72437380D01*
X143129047Y-72437380D01*
X143224285Y-72485000D01*
X143319523Y-72580238D01*
X143367142Y-72770714D01*
X143367142Y-73104047D01*
X143319523Y-73294523D01*
X143224285Y-73389761D01*
X143129047Y-73437380D01*
X142938571Y-73437380D01*
X143700476Y-72437380D02*
X144367142Y-72437380D01*
X143938571Y-73437380D01*
X153307380Y-83311904D02*
X154116904Y-83311904D01*
X154212142Y-83264285D01*
X154259761Y-83216666D01*
X154307380Y-83121428D01*
X154307380Y-82930952D01*
X154259761Y-82835714D01*
X154212142Y-82788095D01*
X154116904Y-82740476D01*
X153307380Y-82740476D01*
X153307380Y-82359523D02*
X153307380Y-81740476D01*
X153688333Y-82073809D01*
X153688333Y-81930952D01*
X153735952Y-81835714D01*
X153783571Y-81788095D01*
X153878809Y-81740476D01*
X154116904Y-81740476D01*
X154212142Y-81788095D01*
X154259761Y-81835714D01*
X154307380Y-81930952D01*
X154307380Y-82216666D01*
X154259761Y-82311904D01*
X154212142Y-82359523D01*
X144653095Y-101052380D02*
X144653095Y-101861904D01*
X144700714Y-101957142D01*
X144748333Y-102004761D01*
X144843571Y-102052380D01*
X145034047Y-102052380D01*
X145129285Y-102004761D01*
X145176904Y-101957142D01*
X145224523Y-101861904D01*
X145224523Y-101052380D01*
X146224523Y-102052380D02*
X145653095Y-102052380D01*
X145938809Y-102052380D02*
X145938809Y-101052380D01*
X145843571Y-101195238D01*
X145748333Y-101290476D01*
X145653095Y-101338095D01*
X144597380Y-80017857D02*
X144121190Y-80351190D01*
X144597380Y-80589285D02*
X143597380Y-80589285D01*
X143597380Y-80208333D01*
X143645000Y-80113095D01*
X143692619Y-80065476D01*
X143787857Y-80017857D01*
X143930714Y-80017857D01*
X144025952Y-80065476D01*
X144073571Y-80113095D01*
X144121190Y-80208333D01*
X144121190Y-80589285D01*
X143597380Y-79684523D02*
X143597380Y-79065476D01*
X143978333Y-79398809D01*
X143978333Y-79255952D01*
X144025952Y-79160714D01*
X144073571Y-79113095D01*
X144168809Y-79065476D01*
X144406904Y-79065476D01*
X144502142Y-79113095D01*
X144549761Y-79160714D01*
X144597380Y-79255952D01*
X144597380Y-79541666D01*
X144549761Y-79636904D01*
X144502142Y-79684523D01*
X144597380Y-78113095D02*
X144597380Y-78684523D01*
X144597380Y-78398809D02*
X143597380Y-78398809D01*
X143740238Y-78494047D01*
X143835476Y-78589285D01*
X143883095Y-78684523D01*
X149677380Y-80017857D02*
X149201190Y-80351190D01*
X149677380Y-80589285D02*
X148677380Y-80589285D01*
X148677380Y-80208333D01*
X148725000Y-80113095D01*
X148772619Y-80065476D01*
X148867857Y-80017857D01*
X149010714Y-80017857D01*
X149105952Y-80065476D01*
X149153571Y-80113095D01*
X149201190Y-80208333D01*
X149201190Y-80589285D01*
X148772619Y-79636904D02*
X148725000Y-79589285D01*
X148677380Y-79494047D01*
X148677380Y-79255952D01*
X148725000Y-79160714D01*
X148772619Y-79113095D01*
X148867857Y-79065476D01*
X148963095Y-79065476D01*
X149105952Y-79113095D01*
X149677380Y-79684523D01*
X149677380Y-79065476D01*
X149677380Y-78589285D02*
X149677380Y-78398809D01*
X149629761Y-78303571D01*
X149582142Y-78255952D01*
X149439285Y-78160714D01*
X149248809Y-78113095D01*
X148867857Y-78113095D01*
X148772619Y-78160714D01*
X148725000Y-78208333D01*
X148677380Y-78303571D01*
X148677380Y-78494047D01*
X148725000Y-78589285D01*
X148772619Y-78636904D01*
X148867857Y-78684523D01*
X149105952Y-78684523D01*
X149201190Y-78636904D01*
X149248809Y-78589285D01*
X149296428Y-78494047D01*
X149296428Y-78303571D01*
X149248809Y-78208333D01*
X149201190Y-78160714D01*
X149105952Y-78113095D01*
X142692380Y-80017857D02*
X142216190Y-80351190D01*
X142692380Y-80589285D02*
X141692380Y-80589285D01*
X141692380Y-80208333D01*
X141740000Y-80113095D01*
X141787619Y-80065476D01*
X141882857Y-80017857D01*
X142025714Y-80017857D01*
X142120952Y-80065476D01*
X142168571Y-80113095D01*
X142216190Y-80208333D01*
X142216190Y-80589285D01*
X141787619Y-79636904D02*
X141740000Y-79589285D01*
X141692380Y-79494047D01*
X141692380Y-79255952D01*
X141740000Y-79160714D01*
X141787619Y-79113095D01*
X141882857Y-79065476D01*
X141978095Y-79065476D01*
X142120952Y-79113095D01*
X142692380Y-79684523D01*
X142692380Y-79065476D01*
X141692380Y-78732142D02*
X141692380Y-78065476D01*
X142692380Y-78494047D01*
X147772380Y-80017857D02*
X147296190Y-80351190D01*
X147772380Y-80589285D02*
X146772380Y-80589285D01*
X146772380Y-80208333D01*
X146820000Y-80113095D01*
X146867619Y-80065476D01*
X146962857Y-80017857D01*
X147105714Y-80017857D01*
X147200952Y-80065476D01*
X147248571Y-80113095D01*
X147296190Y-80208333D01*
X147296190Y-80589285D01*
X146867619Y-79636904D02*
X146820000Y-79589285D01*
X146772380Y-79494047D01*
X146772380Y-79255952D01*
X146820000Y-79160714D01*
X146867619Y-79113095D01*
X146962857Y-79065476D01*
X147058095Y-79065476D01*
X147200952Y-79113095D01*
X147772380Y-79684523D01*
X147772380Y-79065476D01*
X146772380Y-78160714D02*
X146772380Y-78636904D01*
X147248571Y-78684523D01*
X147200952Y-78636904D01*
X147153333Y-78541666D01*
X147153333Y-78303571D01*
X147200952Y-78208333D01*
X147248571Y-78160714D01*
X147343809Y-78113095D01*
X147581904Y-78113095D01*
X147677142Y-78160714D01*
X147724761Y-78208333D01*
X147772380Y-78303571D01*
X147772380Y-78541666D01*
X147724761Y-78636904D01*
X147677142Y-78684523D01*
X154757380Y-80017857D02*
X154281190Y-80351190D01*
X154757380Y-80589285D02*
X153757380Y-80589285D01*
X153757380Y-80208333D01*
X153805000Y-80113095D01*
X153852619Y-80065476D01*
X153947857Y-80017857D01*
X154090714Y-80017857D01*
X154185952Y-80065476D01*
X154233571Y-80113095D01*
X154281190Y-80208333D01*
X154281190Y-80589285D01*
X153852619Y-79636904D02*
X153805000Y-79589285D01*
X153757380Y-79494047D01*
X153757380Y-79255952D01*
X153805000Y-79160714D01*
X153852619Y-79113095D01*
X153947857Y-79065476D01*
X154043095Y-79065476D01*
X154185952Y-79113095D01*
X154757380Y-79684523D01*
X154757380Y-79065476D01*
X153757380Y-78732142D02*
X153757380Y-78113095D01*
X154138333Y-78446428D01*
X154138333Y-78303571D01*
X154185952Y-78208333D01*
X154233571Y-78160714D01*
X154328809Y-78113095D01*
X154566904Y-78113095D01*
X154662142Y-78160714D01*
X154709761Y-78208333D01*
X154757380Y-78303571D01*
X154757380Y-78589285D01*
X154709761Y-78684523D01*
X154662142Y-78732142D01*
X159837380Y-80017857D02*
X159361190Y-80351190D01*
X159837380Y-80589285D02*
X158837380Y-80589285D01*
X158837380Y-80208333D01*
X158885000Y-80113095D01*
X158932619Y-80065476D01*
X159027857Y-80017857D01*
X159170714Y-80017857D01*
X159265952Y-80065476D01*
X159313571Y-80113095D01*
X159361190Y-80208333D01*
X159361190Y-80589285D01*
X158932619Y-79636904D02*
X158885000Y-79589285D01*
X158837380Y-79494047D01*
X158837380Y-79255952D01*
X158885000Y-79160714D01*
X158932619Y-79113095D01*
X159027857Y-79065476D01*
X159123095Y-79065476D01*
X159265952Y-79113095D01*
X159837380Y-79684523D01*
X159837380Y-79065476D01*
X159837380Y-78113095D02*
X159837380Y-78684523D01*
X159837380Y-78398809D02*
X158837380Y-78398809D01*
X158980238Y-78494047D01*
X159075476Y-78589285D01*
X159123095Y-78684523D01*
X152852380Y-80017857D02*
X152376190Y-80351190D01*
X152852380Y-80589285D02*
X151852380Y-80589285D01*
X151852380Y-80208333D01*
X151900000Y-80113095D01*
X151947619Y-80065476D01*
X152042857Y-80017857D01*
X152185714Y-80017857D01*
X152280952Y-80065476D01*
X152328571Y-80113095D01*
X152376190Y-80208333D01*
X152376190Y-80589285D01*
X152852380Y-79065476D02*
X152852380Y-79636904D01*
X152852380Y-79351190D02*
X151852380Y-79351190D01*
X151995238Y-79446428D01*
X152090476Y-79541666D01*
X152138095Y-79636904D01*
X152852380Y-78589285D02*
X152852380Y-78398809D01*
X152804761Y-78303571D01*
X152757142Y-78255952D01*
X152614285Y-78160714D01*
X152423809Y-78113095D01*
X152042857Y-78113095D01*
X151947619Y-78160714D01*
X151900000Y-78208333D01*
X151852380Y-78303571D01*
X151852380Y-78494047D01*
X151900000Y-78589285D01*
X151947619Y-78636904D01*
X152042857Y-78684523D01*
X152280952Y-78684523D01*
X152376190Y-78636904D01*
X152423809Y-78589285D01*
X152471428Y-78494047D01*
X152471428Y-78303571D01*
X152423809Y-78208333D01*
X152376190Y-78160714D01*
X152280952Y-78113095D01*
X157932380Y-80017857D02*
X157456190Y-80351190D01*
X157932380Y-80589285D02*
X156932380Y-80589285D01*
X156932380Y-80208333D01*
X156980000Y-80113095D01*
X157027619Y-80065476D01*
X157122857Y-80017857D01*
X157265714Y-80017857D01*
X157360952Y-80065476D01*
X157408571Y-80113095D01*
X157456190Y-80208333D01*
X157456190Y-80589285D01*
X157932380Y-79065476D02*
X157932380Y-79636904D01*
X157932380Y-79351190D02*
X156932380Y-79351190D01*
X157075238Y-79446428D01*
X157170476Y-79541666D01*
X157218095Y-79636904D01*
X156932380Y-78732142D02*
X156932380Y-78065476D01*
X157932380Y-78494047D01*
X156027380Y-98351666D02*
X155551190Y-98685000D01*
X156027380Y-98923095D02*
X155027380Y-98923095D01*
X155027380Y-98542142D01*
X155075000Y-98446904D01*
X155122619Y-98399285D01*
X155217857Y-98351666D01*
X155360714Y-98351666D01*
X155455952Y-98399285D01*
X155503571Y-98446904D01*
X155551190Y-98542142D01*
X155551190Y-98923095D01*
X156027380Y-97399285D02*
X156027380Y-97970714D01*
X156027380Y-97685000D02*
X155027380Y-97685000D01*
X155170238Y-97780238D01*
X155265476Y-97875476D01*
X155313095Y-97970714D01*
X160532380Y-66373333D02*
X161246666Y-66373333D01*
X161389523Y-66420952D01*
X161484761Y-66516190D01*
X161532380Y-66659047D01*
X161532380Y-66754285D01*
X160532380Y-65420952D02*
X160532380Y-65897142D01*
X161008571Y-65944761D01*
X160960952Y-65897142D01*
X160913333Y-65801904D01*
X160913333Y-65563809D01*
X160960952Y-65468571D01*
X161008571Y-65420952D01*
X161103809Y-65373333D01*
X161341904Y-65373333D01*
X161437142Y-65420952D01*
X161484761Y-65468571D01*
X161532380Y-65563809D01*
X161532380Y-65801904D01*
X161484761Y-65897142D01*
X161437142Y-65944761D01*
X159051666Y-101262380D02*
X159051666Y-101976666D01*
X159004047Y-102119523D01*
X158908809Y-102214761D01*
X158765952Y-102262380D01*
X158670714Y-102262380D01*
X159432619Y-101262380D02*
X160051666Y-101262380D01*
X159718333Y-101643333D01*
X159861190Y-101643333D01*
X159956428Y-101690952D01*
X160004047Y-101738571D01*
X160051666Y-101833809D01*
X160051666Y-102071904D01*
X160004047Y-102167142D01*
X159956428Y-102214761D01*
X159861190Y-102262380D01*
X159575476Y-102262380D01*
X159480238Y-102214761D01*
X159432619Y-102167142D01*
X150372380Y-114633333D02*
X151086666Y-114633333D01*
X151229523Y-114680952D01*
X151324761Y-114776190D01*
X151372380Y-114919047D01*
X151372380Y-115014285D01*
X150467619Y-114204761D02*
X150420000Y-114157142D01*
X150372380Y-114061904D01*
X150372380Y-113823809D01*
X150420000Y-113728571D01*
X150467619Y-113680952D01*
X150562857Y-113633333D01*
X150658095Y-113633333D01*
X150800952Y-113680952D01*
X151372380Y-114252380D01*
X151372380Y-113633333D01*
X154662142Y-90812857D02*
X154709761Y-90860476D01*
X154757380Y-91003333D01*
X154757380Y-91098571D01*
X154709761Y-91241428D01*
X154614523Y-91336666D01*
X154519285Y-91384285D01*
X154328809Y-91431904D01*
X154185952Y-91431904D01*
X153995476Y-91384285D01*
X153900238Y-91336666D01*
X153805000Y-91241428D01*
X153757380Y-91098571D01*
X153757380Y-91003333D01*
X153805000Y-90860476D01*
X153852619Y-90812857D01*
X154757380Y-89860476D02*
X154757380Y-90431904D01*
X154757380Y-90146190D02*
X153757380Y-90146190D01*
X153900238Y-90241428D01*
X153995476Y-90336666D01*
X154043095Y-90431904D01*
X154757380Y-88908095D02*
X154757380Y-89479523D01*
X154757380Y-89193809D02*
X153757380Y-89193809D01*
X153900238Y-89289047D01*
X153995476Y-89384285D01*
X154043095Y-89479523D01*
X111957142Y-90812857D02*
X112004761Y-90860476D01*
X112052380Y-91003333D01*
X112052380Y-91098571D01*
X112004761Y-91241428D01*
X111909523Y-91336666D01*
X111814285Y-91384285D01*
X111623809Y-91431904D01*
X111480952Y-91431904D01*
X111290476Y-91384285D01*
X111195238Y-91336666D01*
X111100000Y-91241428D01*
X111052380Y-91098571D01*
X111052380Y-91003333D01*
X111100000Y-90860476D01*
X111147619Y-90812857D01*
X112052380Y-89860476D02*
X112052380Y-90431904D01*
X112052380Y-90146190D02*
X111052380Y-90146190D01*
X111195238Y-90241428D01*
X111290476Y-90336666D01*
X111338095Y-90431904D01*
X111052380Y-89241428D02*
X111052380Y-89146190D01*
X111100000Y-89050952D01*
X111147619Y-89003333D01*
X111242857Y-88955714D01*
X111433333Y-88908095D01*
X111671428Y-88908095D01*
X111861904Y-88955714D01*
X111957142Y-89003333D01*
X112004761Y-89050952D01*
X112052380Y-89146190D01*
X112052380Y-89241428D01*
X112004761Y-89336666D01*
X111957142Y-89384285D01*
X111861904Y-89431904D01*
X111671428Y-89479523D01*
X111433333Y-89479523D01*
X111242857Y-89431904D01*
X111147619Y-89384285D01*
X111100000Y-89336666D01*
X111052380Y-89241428D01*
X115767142Y-90336666D02*
X115814761Y-90384285D01*
X115862380Y-90527142D01*
X115862380Y-90622380D01*
X115814761Y-90765238D01*
X115719523Y-90860476D01*
X115624285Y-90908095D01*
X115433809Y-90955714D01*
X115290952Y-90955714D01*
X115100476Y-90908095D01*
X115005238Y-90860476D01*
X114910000Y-90765238D01*
X114862380Y-90622380D01*
X114862380Y-90527142D01*
X114910000Y-90384285D01*
X114957619Y-90336666D01*
X115862380Y-89860476D02*
X115862380Y-89670000D01*
X115814761Y-89574761D01*
X115767142Y-89527142D01*
X115624285Y-89431904D01*
X115433809Y-89384285D01*
X115052857Y-89384285D01*
X114957619Y-89431904D01*
X114910000Y-89479523D01*
X114862380Y-89574761D01*
X114862380Y-89765238D01*
X114910000Y-89860476D01*
X114957619Y-89908095D01*
X115052857Y-89955714D01*
X115290952Y-89955714D01*
X115386190Y-89908095D01*
X115433809Y-89860476D01*
X115481428Y-89765238D01*
X115481428Y-89574761D01*
X115433809Y-89479523D01*
X115386190Y-89431904D01*
X115290952Y-89384285D01*
X141962142Y-104941666D02*
X142009761Y-104989285D01*
X142057380Y-105132142D01*
X142057380Y-105227380D01*
X142009761Y-105370238D01*
X141914523Y-105465476D01*
X141819285Y-105513095D01*
X141628809Y-105560714D01*
X141485952Y-105560714D01*
X141295476Y-105513095D01*
X141200238Y-105465476D01*
X141105000Y-105370238D01*
X141057380Y-105227380D01*
X141057380Y-105132142D01*
X141105000Y-104989285D01*
X141152619Y-104941666D01*
X141485952Y-104370238D02*
X141438333Y-104465476D01*
X141390714Y-104513095D01*
X141295476Y-104560714D01*
X141247857Y-104560714D01*
X141152619Y-104513095D01*
X141105000Y-104465476D01*
X141057380Y-104370238D01*
X141057380Y-104179761D01*
X141105000Y-104084523D01*
X141152619Y-104036904D01*
X141247857Y-103989285D01*
X141295476Y-103989285D01*
X141390714Y-104036904D01*
X141438333Y-104084523D01*
X141485952Y-104179761D01*
X141485952Y-104370238D01*
X141533571Y-104465476D01*
X141581190Y-104513095D01*
X141676428Y-104560714D01*
X141866904Y-104560714D01*
X141962142Y-104513095D01*
X142009761Y-104465476D01*
X142057380Y-104370238D01*
X142057380Y-104179761D01*
X142009761Y-104084523D01*
X141962142Y-104036904D01*
X141866904Y-103989285D01*
X141676428Y-103989285D01*
X141581190Y-104036904D01*
X141533571Y-104084523D01*
X141485952Y-104179761D01*
X126833333Y-114817142D02*
X126785714Y-114864761D01*
X126642857Y-114912380D01*
X126547619Y-114912380D01*
X126404761Y-114864761D01*
X126309523Y-114769523D01*
X126261904Y-114674285D01*
X126214285Y-114483809D01*
X126214285Y-114340952D01*
X126261904Y-114150476D01*
X126309523Y-114055238D01*
X126404761Y-113960000D01*
X126547619Y-113912380D01*
X126642857Y-113912380D01*
X126785714Y-113960000D01*
X126833333Y-114007619D01*
X127738095Y-113912380D02*
X127261904Y-113912380D01*
X127214285Y-114388571D01*
X127261904Y-114340952D01*
X127357142Y-114293333D01*
X127595238Y-114293333D01*
X127690476Y-114340952D01*
X127738095Y-114388571D01*
X127785714Y-114483809D01*
X127785714Y-114721904D01*
X127738095Y-114817142D01*
X127690476Y-114864761D01*
X127595238Y-114912380D01*
X127357142Y-114912380D01*
X127261904Y-114864761D01*
X127214285Y-114817142D01*
X131167142Y-92241666D02*
X131214761Y-92289285D01*
X131262380Y-92432142D01*
X131262380Y-92527380D01*
X131214761Y-92670238D01*
X131119523Y-92765476D01*
X131024285Y-92813095D01*
X130833809Y-92860714D01*
X130690952Y-92860714D01*
X130500476Y-92813095D01*
X130405238Y-92765476D01*
X130310000Y-92670238D01*
X130262380Y-92527380D01*
X130262380Y-92432142D01*
X130310000Y-92289285D01*
X130357619Y-92241666D01*
X130595714Y-91384523D02*
X131262380Y-91384523D01*
X130214761Y-91622619D02*
X130929047Y-91860714D01*
X130929047Y-91241666D01*
X120847142Y-108116666D02*
X120894761Y-108164285D01*
X120942380Y-108307142D01*
X120942380Y-108402380D01*
X120894761Y-108545238D01*
X120799523Y-108640476D01*
X120704285Y-108688095D01*
X120513809Y-108735714D01*
X120370952Y-108735714D01*
X120180476Y-108688095D01*
X120085238Y-108640476D01*
X119990000Y-108545238D01*
X119942380Y-108402380D01*
X119942380Y-108307142D01*
X119990000Y-108164285D01*
X120037619Y-108116666D01*
X119942380Y-107783333D02*
X119942380Y-107164285D01*
X120323333Y-107497619D01*
X120323333Y-107354761D01*
X120370952Y-107259523D01*
X120418571Y-107211904D01*
X120513809Y-107164285D01*
X120751904Y-107164285D01*
X120847142Y-107211904D01*
X120894761Y-107259523D01*
X120942380Y-107354761D01*
X120942380Y-107640476D01*
X120894761Y-107735714D01*
X120847142Y-107783333D01*
X133707142Y-92241666D02*
X133754761Y-92289285D01*
X133802380Y-92432142D01*
X133802380Y-92527380D01*
X133754761Y-92670238D01*
X133659523Y-92765476D01*
X133564285Y-92813095D01*
X133373809Y-92860714D01*
X133230952Y-92860714D01*
X133040476Y-92813095D01*
X132945238Y-92765476D01*
X132850000Y-92670238D01*
X132802380Y-92527380D01*
X132802380Y-92432142D01*
X132850000Y-92289285D01*
X132897619Y-92241666D01*
X132897619Y-91860714D02*
X132850000Y-91813095D01*
X132802380Y-91717857D01*
X132802380Y-91479761D01*
X132850000Y-91384523D01*
X132897619Y-91336904D01*
X132992857Y-91289285D01*
X133088095Y-91289285D01*
X133230952Y-91336904D01*
X133802380Y-91908333D01*
X133802380Y-91289285D01*
X120847142Y-103671666D02*
X120894761Y-103719285D01*
X120942380Y-103862142D01*
X120942380Y-103957380D01*
X120894761Y-104100238D01*
X120799523Y-104195476D01*
X120704285Y-104243095D01*
X120513809Y-104290714D01*
X120370952Y-104290714D01*
X120180476Y-104243095D01*
X120085238Y-104195476D01*
X119990000Y-104100238D01*
X119942380Y-103957380D01*
X119942380Y-103862142D01*
X119990000Y-103719285D01*
X120037619Y-103671666D01*
X120942380Y-102719285D02*
X120942380Y-103290714D01*
X120942380Y-103005000D02*
X119942380Y-103005000D01*
X120085238Y-103100238D01*
X120180476Y-103195476D01*
X120228095Y-103290714D01*
M02*
